<svg id="Layer_1" data-name="Layer 1" xmlns="http://www.w3.org/2000/svg" viewBox="0 0 403 702.644"><defs><style>.cls-1,.cls-12,.cls-13,.cls-3,.cls-9{fill:none;}.cls-1{stroke:#ccc;stroke-width:2px;}.cls-1,.cls-12,.cls-13,.cls-9{stroke-miterlimit:10;}.cls-2{fill:#595959;}.cls-3{stroke:#d9d9d9;stroke-linejoin:round;stroke-width:0.75px;}.cls-4{fill:#ccc;}.cls-5{fill:#fff;}.cls-6{fill:#666;}.cls-7{fill:#5dbf5a;}.cls-8{fill:#ac5dac;}.cls-9{stroke:#5dbf5a;}.cls-12,.cls-13,.cls-9{stroke-width:3px;}.cls-10{fill:#4bb348;}.cls-11{isolation:isolate;}.cls-12{stroke:#666;}.cls-13{stroke:#ac5dac;}.cls-14{fill:#999;}</style></defs><line class="cls-1" x1="287.459" y1="475.821" x2="517.62" y2="381.463"/><line class="cls-1" x1="85.866" y1="390.114" x2="517.62" y2="428.944"/><path class="cls-2" d="M75.588,647.371a2.95,2.95,0,0,1,1.24,1.1,2.905,2.905,0,0,1,.424,1.544,4.016,4.016,0,0,1-.375,1.7,7.982,7.982,0,0,1-1.281,1.84q-.9,1.025-2.631,2.64h4.527l-.256,1.76H70.373v-1.648q2.016-2.016,2.912-3.008a9.247,9.247,0,0,0,1.264-1.68,2.967,2.967,0,0,0,.367-1.408,1.467,1.467,0,0,0-.4-1.088,1.444,1.444,0,0,0-1.071-.4,2.09,2.09,0,0,0-1.056.264,3.777,3.777,0,0,0-.977.872l-1.359-1.088a4.578,4.578,0,0,1,5.535-1.4Z"/><path class="cls-2" d="M85.652,648.411a9.11,9.11,0,0,1-.007,8.344,3.713,3.713,0,0,1-5.9,0,9.138,9.138,0,0,1,0-8.344,3.733,3.733,0,0,1,5.9,0Zm-3.888.624a2.505,2.505,0,0,0-.52,1.232,15.993,15.993,0,0,0,0,4.624,2.505,2.505,0,0,0,.52,1.232,1.21,1.21,0,0,0,.927.376,1.224,1.224,0,0,0,.928-.368,2.5,2.5,0,0,0,.53-1.224,15.678,15.678,0,0,0,0-4.672,2.444,2.444,0,0,0-.53-1.216,1.237,1.237,0,0,0-.928-.36A1.21,1.21,0,0,0,81.764,649.035Z"/><path class="cls-2" d="M94.916,648.411a9.106,9.106,0,0,1-.008,8.344,3.712,3.712,0,0,1-5.9,0,9.138,9.138,0,0,1,0-8.344,3.733,3.733,0,0,1,5.9,0Zm-3.887.624a2.505,2.505,0,0,0-.521,1.232,15.993,15.993,0,0,0,0,4.624,2.505,2.505,0,0,0,.521,1.232,1.21,1.21,0,0,0,.928.376,1.228,1.228,0,0,0,.928-.368,2.5,2.5,0,0,0,.527-1.224,15.59,15.59,0,0,0,0-4.672,2.445,2.445,0,0,0-.527-1.216,1.241,1.241,0,0,0-.928-.36A1.21,1.21,0,0,0,91.029,649.035Z"/><path class="cls-2" d="M103.549,651.155a2.89,2.89,0,0,1,1.1,1.208,4.645,4.645,0,0,1-.073,3.928,3.491,3.491,0,0,1-1.336,1.408,3.822,3.822,0,0,1-1.984.512,3.429,3.429,0,0,1-3.008-1.384A6.563,6.563,0,0,1,97.268,653a8.467,8.467,0,0,1,.552-3.176,4.7,4.7,0,0,1,1.577-2.112,4,4,0,0,1,2.416-.744,4.153,4.153,0,0,1,2.4.688l-.832,1.392a2.972,2.972,0,0,0-1.522-.432,1.825,1.825,0,0,0-1.566.848,4.535,4.535,0,0,0-.672,2.384,3.106,3.106,0,0,1,3.928-.688Zm-1.168,4.8a3.072,3.072,0,0,0,.375-1.648,2.561,2.561,0,0,0-.344-1.512,1.209,1.209,0,0,0-1.031-.456,2.235,2.235,0,0,0-1.76.992,6.134,6.134,0,0,0,.406,2.472,1.289,1.289,0,0,0,1.241.744A1.239,1.239,0,0,0,102.381,655.955Z"/><path class="cls-2" d="M190.5,647.475a2.788,2.788,0,0,1,1.529,2.544,4.2,4.2,0,0,1-.441,1.872,9.1,9.1,0,0,1-1.352,1.936q-.911,1.039-2.767,2.9h4.816l-.176,1.232h-6.32v-1.168q2.145-2.225,3.039-3.256a9.081,9.081,0,0,0,1.281-1.8,3.633,3.633,0,0,0,.383-1.648,1.643,1.643,0,0,0-1.76-1.776,2.361,2.361,0,0,0-1.152.272,4.247,4.247,0,0,0-1.055.9l-.96-.768a4.393,4.393,0,0,1,1.457-1.216,3.937,3.937,0,0,1,1.791-.4A3.558,3.558,0,0,1,190.5,647.475Z"/><path class="cls-2" d="M200.229,648.507a9.786,9.786,0,0,1,0,8.216,3.234,3.234,0,0,1-5.36,0,9.786,9.786,0,0,1,0-8.216,3.244,3.244,0,0,1,5.36,0Zm-4.225.776a11.266,11.266,0,0,0,0,6.664,1.665,1.665,0,0,0,3.08,0,11.072,11.072,0,0,0,0-6.656,1.668,1.668,0,0,0-3.08-.008Z"/><path class="cls-2" d="M207.18,647.251v10.7h-1.471v-9.136l-2.5,1.52-.641-1.04,3.313-2.048Z"/><path class="cls-2" d="M216.084,648.507a9.786,9.786,0,0,1,0,8.216,3.233,3.233,0,0,1-5.359,0,9.776,9.776,0,0,1,0-8.216,3.243,3.243,0,0,1,5.359,0Zm-4.223.776a11.266,11.266,0,0,0,0,6.664,1.665,1.665,0,0,0,3.08,0,11.072,11.072,0,0,0,0-6.656,1.668,1.668,0,0,0-3.08-.008Z"/><path class="cls-2" d="M277.051,647.475a2.825,2.825,0,0,1,1.129,1.048,2.858,2.858,0,0,1,.4,1.5,4.2,4.2,0,0,1-.441,1.872,9.1,9.1,0,0,1-1.352,1.936q-.91,1.039-2.767,2.9h4.816l-.176,1.232h-6.32v-1.168q2.145-2.225,3.039-3.256a9.123,9.123,0,0,0,1.281-1.8,3.633,3.633,0,0,0,.383-1.648,1.643,1.643,0,0,0-1.76-1.776,2.361,2.361,0,0,0-1.152.272,4.229,4.229,0,0,0-1.055.9l-.961-.768a4.413,4.413,0,0,1,1.457-1.216,3.943,3.943,0,0,1,1.791-.4A3.562,3.562,0,0,1,277.051,647.475Z"/><path class="cls-2" d="M286.779,648.507a9.776,9.776,0,0,1,0,8.216,3.233,3.233,0,0,1-5.359,0,9.786,9.786,0,0,1,0-8.216,3.243,3.243,0,0,1,5.359,0Zm-4.224.776a11.266,11.266,0,0,0,0,6.664,1.665,1.665,0,0,0,3.08,0,11.072,11.072,0,0,0,0-6.656,1.668,1.668,0,0,0-3.08-.008Z"/><path class="cls-2" d="M293.731,647.251v10.7H292.26v-9.136l-2.5,1.52-.641-1.04,3.313-2.048Z"/><path class="cls-2" d="M300.8,647.459a2.65,2.65,0,0,1,1.088.992,2.594,2.594,0,0,1,.375,1.36,2.321,2.321,0,0,1-.567,1.608,2.847,2.847,0,0,1-1.511.856,2.717,2.717,0,0,1,1.742.768,2.461,2.461,0,0,1,.672,1.824,3.224,3.224,0,0,1-.447,1.68,3.079,3.079,0,0,1-1.28,1.176,4.179,4.179,0,0,1-1.92.424,4.4,4.4,0,0,1-1.793-.36,3.933,3.933,0,0,1-1.423-1.08l.88-.816a3.682,3.682,0,0,0,1.08.8,2.829,2.829,0,0,0,1.208.256,2.153,2.153,0,0,0,1.583-.568,2.046,2.046,0,0,0,.577-1.528,1.8,1.8,0,0,0-.543-1.488,2.51,2.51,0,0,0-1.584-.432h-.8l.176-1.136h.545a1.99,1.99,0,0,0,1.382-.5,1.768,1.768,0,0,0,.553-1.392,1.539,1.539,0,0,0-.48-1.192,1.848,1.848,0,0,0-1.3-.44,2.843,2.843,0,0,0-1.143.224,3.759,3.759,0,0,0-1.064.736l-.768-.88a4.375,4.375,0,0,1,3.055-1.264A3.677,3.677,0,0,1,300.8,647.459Z"/><path class="cls-2" d="M392.26,647.475a2.791,2.791,0,0,1,1.527,2.544,4.2,4.2,0,0,1-.439,1.872A9.1,9.1,0,0,1,392,653.827q-.913,1.039-2.769,2.9h4.816l-.176,1.232h-6.32v-1.168q2.145-2.225,3.041-3.256a9.1,9.1,0,0,0,1.279-1.8,3.634,3.634,0,0,0,.385-1.648,1.643,1.643,0,0,0-1.76-1.776,2.361,2.361,0,0,0-1.152.272,4.2,4.2,0,0,0-1.057.9l-.959-.768a4.407,4.407,0,0,1,1.455-1.216,3.951,3.951,0,0,1,1.793-.4A3.571,3.571,0,0,1,392.26,647.475Z"/><path class="cls-2" d="M401.986,648.507a9.776,9.776,0,0,1,0,8.216,3.233,3.233,0,0,1-5.359,0,9.786,9.786,0,0,1,0-8.216,3.243,3.243,0,0,1,5.359,0Zm-4.222.776a11.266,11.266,0,0,0,0,6.664,1.665,1.665,0,0,0,3.08,0,11.072,11.072,0,0,0,0-6.656,1.668,1.668,0,0,0-3.08-.008Z"/><line class="cls-3" x1="3.665" y1="635.394" x2="530.23" y2="635.394"/><line class="cls-3" x1="3.665" y1="561.155" x2="530.23" y2="561.155"/><line class="cls-3" x1="3.665" y1="487.117" x2="530.23" y2="487.117"/><line class="cls-3" x1="3.665" y1="412.877" x2="530.23" y2="412.877"/><line class="cls-3" x1="3.665" y1="338.638" x2="530.23" y2="338.638"/><line class="cls-3" x1="3.665" y1="264.399" x2="530.23" y2="264.399"/><line class="cls-3" x1="3.665" y1="190.16" x2="530.23" y2="190.16"/><line class="cls-3" x1="3.665" y1="116.122" x2="530.23" y2="116.122"/><circle class="cls-4" cx="287.459" cy="475.821" r="6.713"/><path class="cls-5" d="M287.459,469.483a6.338,6.338,0,1,1-6.338,6.338,6.338,6.338,0,0,1,6.338-6.338m0-.75a7.088,7.088,0,1,0,7.087,7.088,7.1,7.1,0,0,0-7.087-7.088Z"/><path class="cls-6" d="M207.285,552.273a6.338,6.338,0,1,1-6.338-6.337,6.338,6.338,0,0,1,6.338,6.337Z"/><path class="cls-4" d="M85.866,447.728a6.713,6.713,0,1,1,6.713-6.713A6.72,6.72,0,0,1,85.866,447.728Z"/><path class="cls-5" d="M85.866,434.678a6.338,6.338,0,1,1-6.337,6.337,6.338,6.338,0,0,1,6.337-6.337m0-.75a7.088,7.088,0,1,0,7.088,7.087,7.095,7.095,0,0,0-7.088-7.087Z"/><path class="cls-4" d="M85.866,496.416a6.713,6.713,0,1,1,6.713-6.712A6.72,6.72,0,0,1,85.866,496.416Z"/><path class="cls-5" d="M85.866,483.366a6.338,6.338,0,1,1-6.337,6.338,6.338,6.338,0,0,1,6.337-6.338m0-.75a7.088,7.088,0,1,0,7.088,7.088,7.095,7.095,0,0,0-7.088-7.088Z"/><path class="cls-4" d="M85.866,396.826a6.713,6.713,0,1,1,6.713-6.712A6.72,6.72,0,0,1,85.866,396.826Z"/><path class="cls-5" d="M85.866,383.776a6.338,6.338,0,1,1-6.337,6.338,6.338,6.338,0,0,1,6.337-6.338m0-.75a7.088,7.088,0,1,0,7.088,7.088,7.1,7.1,0,0,0-7.088-7.088Z"/><path class="cls-4" d="M85.866,430.425a6.713,6.713,0,1,1,6.713-6.712A6.72,6.72,0,0,1,85.866,430.425Z"/><path class="cls-5" d="M85.866,417.375a6.338,6.338,0,1,1-6.337,6.338,6.338,6.338,0,0,1,6.337-6.338m0-.75a7.088,7.088,0,1,0,7.088,7.088,7.1,7.1,0,0,0-7.088-7.088Z"/><path class="cls-4" d="M402.54,451.349a6.713,6.713,0,1,1,6.712-6.713A6.721,6.721,0,0,1,402.54,451.349Z"/><path class="cls-5" d="M402.539,438.3a6.338,6.338,0,1,1-6.337,6.337,6.338,6.338,0,0,1,6.337-6.337m0-.75a7.088,7.088,0,1,0,7.088,7.087,7.095,7.095,0,0,0-7.088-7.087Z"/><path class="cls-7" d="M92.2,277.649a6.338,6.338,0,1,1-6.338-6.337,6.338,6.338,0,0,1,6.338,6.337Z"/><path class="cls-4" d="M402.54,366.447a6.713,6.713,0,1,1,6.712-6.712A6.72,6.72,0,0,1,402.54,366.447Z"/><path class="cls-5" d="M402.539,353.4a6.338,6.338,0,1,1-6.337,6.338,6.338,6.338,0,0,1,6.337-6.338m0-.75a7.088,7.088,0,1,0,7.088,7.088,7.1,7.1,0,0,0-7.088-7.088Z"/><path class="cls-8" d="M207.285,423.713a6.338,6.338,0,1,1-6.338-6.338,6.338,6.338,0,0,1,6.338,6.338Z"/><path class="cls-2" d="M8.263,621.13v10.035H6.883V622.6l-2.34,1.425-.6-.975,3.105-1.92Z"/><path class="cls-2" d="M16.61,622.307a9.17,9.17,0,0,1,0,7.7,2.783,2.783,0,0,1-2.512,1.335,2.783,2.783,0,0,1-2.512-1.335,9.17,9.17,0,0,1,0-7.7A2.787,2.787,0,0,1,14.1,620.98,2.787,2.787,0,0,1,16.61,622.307Zm-3.96.728a10.574,10.574,0,0,0,0,6.248,1.562,1.562,0,0,0,2.888,0,10.363,10.363,0,0,0,0-6.241,1.564,1.564,0,0,0-2.888-.007Z"/><path class="cls-2" d="M27.125,621.67a2.833,2.833,0,0,1,0,3.69,2.577,2.577,0,0,1-3.51,0,2.837,2.837,0,0,1,0-3.69,2.577,2.577,0,0,1,3.51,0Zm-2.7.69a2.522,2.522,0,0,0,0,2.3,1,1,0,0,0,.937.458q1.215,0,1.215-1.605a2.232,2.232,0,0,0-.27-1.148,1.2,1.2,0,0,0-1.882-.007Zm7.027-1.86.96.63-6.945,10.5-.96-.63Zm1.845,6.465a2.859,2.859,0,0,1,0,3.69,2.346,2.346,0,0,1-1.755.69,2.372,2.372,0,0,1-1.763-.69,2.837,2.837,0,0,1,0-3.69,2.372,2.372,0,0,1,1.763-.69A2.346,2.346,0,0,1,33.3,626.965Zm-2.692.7a2.124,2.124,0,0,0-.278,1.148,2.166,2.166,0,0,0,.278,1.147,1.007,1.007,0,0,0,.937.458q1.215,0,1.215-1.605a2.186,2.186,0,0,0-.27-1.14,1.216,1.216,0,0,0-1.882-.008Z"/><path class="cls-2" d="M8.263,546.928v10.035H6.883V548.4l-2.34,1.425-.6-.976,3.105-1.919Z"/><path class="cls-2" d="M16.213,548.008H12.3v2.955a3.488,3.488,0,0,1,1.605-.39,2.678,2.678,0,0,1,2.07.847,3.313,3.313,0,0,1,.78,2.333,3.528,3.528,0,0,1-.435,1.762,3.036,3.036,0,0,1-1.222,1.2,3.764,3.764,0,0,1-1.822.428,3.961,3.961,0,0,1-1.636-.323,4.34,4.34,0,0,1-1.335-.953l.81-.794a3.413,3.413,0,0,0,.991.712,2.747,2.747,0,0,0,1.154.233,1.941,1.941,0,0,0,1.508-.6,2.426,2.426,0,0,0,.548-1.7,2.174,2.174,0,0,0-.5-1.589,1.8,1.8,0,0,0-1.335-.5,2.964,2.964,0,0,0-.72.083,3.743,3.743,0,0,0-.7.263H10.979v-5.055h5.429Z"/><path class="cls-2" d="M26.27,547.468a2.837,2.837,0,0,1,0,3.69,2.58,2.58,0,0,1-3.51,0,2.833,2.833,0,0,1,0-3.69,2.577,2.577,0,0,1,3.51,0Zm-2.7.69a2.522,2.522,0,0,0,0,2.3,1.009,1.009,0,0,0,.938.458q1.213,0,1.215-1.605a2.222,2.222,0,0,0-.271-1.148,1.2,1.2,0,0,0-1.882-.007ZM30.6,546.3l.96.63-6.946,10.5-.96-.63Zm1.844,6.464a2.86,2.86,0,0,1,0,3.691,2.346,2.346,0,0,1-1.754.69,2.372,2.372,0,0,1-1.763-.69,2.835,2.835,0,0,1,0-3.691,2.375,2.375,0,0,1,1.763-.689A2.349,2.349,0,0,1,32.442,552.762Zm-2.692.7a2.133,2.133,0,0,0-.277,1.148,2.177,2.177,0,0,0,.277,1.147,1.009,1.009,0,0,0,.938.458q1.213,0,1.214-1.605a2.186,2.186,0,0,0-.269-1.14,1.217,1.217,0,0,0-1.883-.008Z"/><path class="cls-2" d="M8.421,472.949a2.614,2.614,0,0,1,1.432,2.385,3.921,3.921,0,0,1-.413,1.755A8.557,8.557,0,0,1,8.173,478.9q-.855.975-2.595,2.715h4.515l-.165,1.155H4v-1.1q2.01-2.085,2.85-3.053a8.568,8.568,0,0,0,1.2-1.687,3.407,3.407,0,0,0,.36-1.545,1.54,1.54,0,0,0-1.65-1.665,2.21,2.21,0,0,0-1.08.255,3.948,3.948,0,0,0-.99.84l-.9-.72a4.14,4.14,0,0,1,1.365-1.14,3.7,3.7,0,0,1,1.68-.375A3.348,3.348,0,0,1,8.421,472.949Z"/><path class="cls-2" d="M17.54,473.916a9.17,9.17,0,0,1,0,7.7,2.784,2.784,0,0,1-2.513,1.335,2.783,2.783,0,0,1-2.511-1.335,9.17,9.17,0,0,1,0-7.7,2.786,2.786,0,0,1,2.511-1.327A2.787,2.787,0,0,1,17.54,473.916Zm-3.96.728a10.55,10.55,0,0,0,0,6.247,1.561,1.561,0,0,0,2.888,0,10.38,10.38,0,0,0,0-6.24,1.564,1.564,0,0,0-2.888-.007Z"/><path class="cls-2" d="M28.055,473.279a2.837,2.837,0,0,1,0,3.69,2.58,2.58,0,0,1-3.51,0,2.833,2.833,0,0,1,0-3.69,2.577,2.577,0,0,1,3.51,0Zm-2.7.69a2.514,2.514,0,0,0,0,2.3,1.007,1.007,0,0,0,.937.458q1.215,0,1.215-1.6a2.222,2.222,0,0,0-.271-1.148,1.2,1.2,0,0,0-1.881-.007Zm7.027-1.86.96.63-6.945,10.5-.96-.63Zm1.845,6.465a2.862,2.862,0,0,1,0,3.69,2.587,2.587,0,0,1-3.518,0,2.833,2.833,0,0,1,0-3.69,2.587,2.587,0,0,1,3.518,0Zm-2.693.7a2.133,2.133,0,0,0-.277,1.148,2.175,2.175,0,0,0,.277,1.147,1.009,1.009,0,0,0,.938.458q1.213,0,1.215-1.605a2.186,2.186,0,0,0-.27-1.14,1.217,1.217,0,0,0-1.883-.008Z"/><path class="cls-2" d="M8.421,398.747a2.617,2.617,0,0,1,1.432,2.385,3.921,3.921,0,0,1-.413,1.755A8.557,8.557,0,0,1,8.173,404.7q-.855.975-2.595,2.715h4.515l-.165,1.155H4v-1.1q2.01-2.085,2.85-3.052a8.57,8.57,0,0,0,1.2-1.688,3.407,3.407,0,0,0,.36-1.545,1.541,1.541,0,0,0-1.65-1.665,2.21,2.21,0,0,0-1.08.255,3.948,3.948,0,0,0-.99.84l-.9-.72a4.14,4.14,0,0,1,1.365-1.14,3.7,3.7,0,0,1,1.68-.375A3.348,3.348,0,0,1,8.421,398.747Z"/><path class="cls-2" d="M17.143,399.617H13.228v2.955a3.485,3.485,0,0,1,1.605-.39,2.677,2.677,0,0,1,2.069.848,3.308,3.308,0,0,1,.781,2.332,3.531,3.531,0,0,1-.435,1.763,3.045,3.045,0,0,1-1.223,1.2,3.758,3.758,0,0,1-1.822.427,3.968,3.968,0,0,1-1.636-.323,4.36,4.36,0,0,1-1.335-.952l.811-.795a3.378,3.378,0,0,0,.99.712,2.739,2.739,0,0,0,1.155.233,1.939,1.939,0,0,0,1.507-.6,2.42,2.42,0,0,0,.548-1.695,2.179,2.179,0,0,0-.495-1.59,1.8,1.8,0,0,0-1.335-.5,3.024,3.024,0,0,0-.721.082,3.841,3.841,0,0,0-.7.263H11.908v-5.055h5.43Z"/><path class="cls-2" d="M27.2,399.077a2.833,2.833,0,0,1,0,3.69,2.577,2.577,0,0,1-3.51,0,2.837,2.837,0,0,1,0-3.69,2.577,2.577,0,0,1,3.51,0Zm-2.7.69a2.524,2.524,0,0,0,0,2.3,1.008,1.008,0,0,0,.938.457q1.214,0,1.214-1.6a2.216,2.216,0,0,0-.27-1.147,1.2,1.2,0,0,0-1.882-.008Zm7.027-1.86.96.63-6.945,10.5-.96-.63Zm1.845,6.465a2.859,2.859,0,0,1,0,3.69,2.346,2.346,0,0,1-1.755.69,2.372,2.372,0,0,1-1.762-.69,2.833,2.833,0,0,1,0-3.69,2.372,2.372,0,0,1,1.762-.69A2.346,2.346,0,0,1,33.373,404.372Zm-2.692.7a2.12,2.12,0,0,0-.278,1.147,2.172,2.172,0,0,0,.278,1.148,1.006,1.006,0,0,0,.937.457q1.215,0,1.215-1.605a2.2,2.2,0,0,0-.269-1.14,1.216,1.216,0,0,0-1.883-.007Z"/><path class="cls-2" d="M8.391,324.543a2.494,2.494,0,0,1,1.019.929,2.423,2.423,0,0,1,.353,1.276,2.173,2.173,0,0,1-.532,1.507,2.677,2.677,0,0,1-1.418.8,2.554,2.554,0,0,1,1.635.721,2.309,2.309,0,0,1,.63,1.71,3.019,3.019,0,0,1-.42,1.575,2.882,2.882,0,0,1-1.2,1.1,3.911,3.911,0,0,1-1.8.4,4.116,4.116,0,0,1-1.68-.338,3.687,3.687,0,0,1-1.335-1.012l.825-.765a3.466,3.466,0,0,0,1.013.75,2.653,2.653,0,0,0,1.132.24,2.023,2.023,0,0,0,1.485-.533,1.92,1.92,0,0,0,.54-1.433,1.686,1.686,0,0,0-.51-1.395,2.346,2.346,0,0,0-1.485-.4h-.75l.165-1.065h.51a1.862,1.862,0,0,0,1.3-.466,1.657,1.657,0,0,0,.518-1.3,1.441,1.441,0,0,0-.45-1.118,1.729,1.729,0,0,0-1.215-.413,2.7,2.7,0,0,0-1.072.21,3.5,3.5,0,0,0-1,.691l-.721-.825A4.1,4.1,0,0,1,6.793,324.2,3.445,3.445,0,0,1,8.391,324.543Z"/><path class="cls-2" d="M17.6,325.525a9.18,9.18,0,0,1,0,7.7,2.786,2.786,0,0,1-2.513,1.335,2.785,2.785,0,0,1-2.512-1.335,9.18,9.18,0,0,1,0-7.7,2.789,2.789,0,0,1,2.512-1.327A2.79,2.79,0,0,1,17.6,325.525Zm-3.96.728a10.55,10.55,0,0,0,0,6.247,1.56,1.56,0,0,0,2.887,0,10.359,10.359,0,0,0,0-6.24,1.563,1.563,0,0,0-2.887-.007Z"/><path class="cls-2" d="M28.115,324.887a2.833,2.833,0,0,1,0,3.69,2.576,2.576,0,0,1-3.509,0,2.833,2.833,0,0,1,0-3.69,2.578,2.578,0,0,1,3.509,0Zm-2.7.69a2.524,2.524,0,0,0,0,2.3,1.009,1.009,0,0,0,.938.458q1.214,0,1.214-1.605a2.22,2.22,0,0,0-.27-1.148,1,1,0,0,0-.944-.457A1.015,1.015,0,0,0,25.416,325.577Zm7.027-1.859.96.629-6.945,10.5-.96-.629Zm1.845,6.464a2.86,2.86,0,0,1,0,3.691,2.346,2.346,0,0,1-1.755.69,2.372,2.372,0,0,1-1.762-.69,2.835,2.835,0,0,1,0-3.691,2.375,2.375,0,0,1,1.762-.69A2.35,2.35,0,0,1,34.288,330.182Zm-2.692.7a2.124,2.124,0,0,0-.278,1.148,2.168,2.168,0,0,0,.278,1.147,1.007,1.007,0,0,0,.937.458q1.215,0,1.215-1.6a2.2,2.2,0,0,0-.269-1.141,1.218,1.218,0,0,0-1.883-.007Z"/><path class="cls-2" d="M8.391,250.354a2.494,2.494,0,0,1,1.019.929,2.423,2.423,0,0,1,.353,1.276,2.173,2.173,0,0,1-.532,1.507,2.677,2.677,0,0,1-1.418.8,2.559,2.559,0,0,1,1.635.721,2.309,2.309,0,0,1,.63,1.71,3.019,3.019,0,0,1-.42,1.575,2.882,2.882,0,0,1-1.2,1.1,3.911,3.911,0,0,1-1.8.4,4.116,4.116,0,0,1-1.68-.338,3.687,3.687,0,0,1-1.335-1.012l.825-.765a3.466,3.466,0,0,0,1.013.75,2.653,2.653,0,0,0,1.132.24,2.023,2.023,0,0,0,1.485-.533,1.92,1.92,0,0,0,.54-1.433,1.686,1.686,0,0,0-.51-1.4,2.346,2.346,0,0,0-1.485-.4h-.75l.165-1.065h.51a1.862,1.862,0,0,0,1.3-.466,1.657,1.657,0,0,0,.518-1.3,1.442,1.442,0,0,0-.45-1.118,1.729,1.729,0,0,0-1.215-.413,2.7,2.7,0,0,0-1.072.21,3.52,3.52,0,0,0-1,.691l-.721-.825a4.1,4.1,0,0,1,2.865-1.185A3.445,3.445,0,0,1,8.391,250.354Z"/><path class="cls-2" d="M17.2,251.239H13.288v2.955a3.489,3.489,0,0,1,1.606-.39,2.678,2.678,0,0,1,2.069.847,3.313,3.313,0,0,1,.78,2.333,3.527,3.527,0,0,1-.434,1.762,3.038,3.038,0,0,1-1.223,1.2,3.761,3.761,0,0,1-1.822.428,3.961,3.961,0,0,1-1.636-.323,4.352,4.352,0,0,1-1.335-.953l.811-.794a3.4,3.4,0,0,0,.99.712,2.75,2.75,0,0,0,1.154.233,1.94,1.94,0,0,0,1.508-.6,2.426,2.426,0,0,0,.548-1.7,2.178,2.178,0,0,0-.495-1.589,1.8,1.8,0,0,0-1.335-.5,2.973,2.973,0,0,0-.721.083,3.743,3.743,0,0,0-.7.263H11.969v-5.056H17.4Z"/><path class="cls-2" d="M27.26,250.7a2.835,2.835,0,0,1,0,3.689,2.577,2.577,0,0,1-3.51,0,2.832,2.832,0,0,1,0-3.689,2.577,2.577,0,0,1,3.51,0Zm-2.7.689a2.516,2.516,0,0,0,0,2.3,1.007,1.007,0,0,0,.937.458q1.215,0,1.215-1.6a2.22,2.22,0,0,0-.271-1.148,1.2,1.2,0,0,0-1.881-.008Zm7.027-1.859.96.629-6.945,10.5-.96-.629Zm1.845,6.464a2.864,2.864,0,0,1,0,3.691,2.348,2.348,0,0,1-1.755.69,2.372,2.372,0,0,1-1.763-.69,2.835,2.835,0,0,1,0-3.691,2.375,2.375,0,0,1,1.763-.689A2.351,2.351,0,0,1,33.433,255.993Zm-2.693.7a2.133,2.133,0,0,0-.277,1.148,2.177,2.177,0,0,0,.277,1.147,1.009,1.009,0,0,0,.938.458q1.213,0,1.215-1.605a2.186,2.186,0,0,0-.27-1.14,1.217,1.217,0,0,0-1.883-.008Z"/><path class="cls-2" d="M10.948,182.435v1.095h-1.3v2.475H8.308V183.53H4.018v-.99l3.015-6.72,1.155.48-2.715,6.135h2.85l.12-2.7h1.2v2.7Z"/><path class="cls-2" d="M18.1,177.147a9.18,9.18,0,0,1,0,7.7,2.786,2.786,0,0,1-2.513,1.335,2.785,2.785,0,0,1-2.512-1.335,9.18,9.18,0,0,1,0-7.7,2.789,2.789,0,0,1,2.512-1.327A2.79,2.79,0,0,1,18.1,177.147Zm-3.96.728a10.55,10.55,0,0,0,0,6.247,1.561,1.561,0,0,0,2.888,0,10.38,10.38,0,0,0,0-6.24,1.564,1.564,0,0,0-2.888-.007Z"/><path class="cls-2" d="M28.61,176.51a2.833,2.833,0,0,1,0,3.69,2.578,2.578,0,0,1-3.509,0,2.833,2.833,0,0,1,0-3.69,2.576,2.576,0,0,1,3.509,0Zm-2.7.69a2.522,2.522,0,0,0,0,2.3,1.009,1.009,0,0,0,.938.458q1.213,0,1.215-1.605a2.22,2.22,0,0,0-.271-1.148,1.2,1.2,0,0,0-1.882-.007Zm7.028-1.86.96.63-6.946,10.5-.96-.63Zm1.844,6.464a2.86,2.86,0,0,1,0,3.691,2.346,2.346,0,0,1-1.755.69,2.372,2.372,0,0,1-1.762-.69,2.835,2.835,0,0,1,0-3.691,2.375,2.375,0,0,1,1.762-.689A2.349,2.349,0,0,1,34.783,181.8Zm-2.692.7a2.124,2.124,0,0,0-.277,1.148,2.168,2.168,0,0,0,.277,1.147,1.007,1.007,0,0,0,.937.458q1.215,0,1.215-1.6a2.2,2.2,0,0,0-.269-1.14,1.217,1.217,0,0,0-1.883-.008Z"/><path class="cls-2" d="M10.948,108.234v1.095h-1.3V111.8H8.308v-2.475H4.018v-.99l3.015-6.72,1.155.48-2.715,6.135h2.85l.12-2.7h1.2v2.7Z"/><path class="cls-2" d="M17.7,102.849H13.782V105.8a3.489,3.489,0,0,1,1.606-.39,2.677,2.677,0,0,1,2.069.848,3.305,3.305,0,0,1,.78,2.332,3.531,3.531,0,0,1-.434,1.763,3.036,3.036,0,0,1-1.223,1.2,3.75,3.75,0,0,1-1.822.428,3.968,3.968,0,0,1-1.636-.323,4.348,4.348,0,0,1-1.335-.952l.811-.8a3.4,3.4,0,0,0,.99.712,2.738,2.738,0,0,0,1.154.233,1.94,1.94,0,0,0,1.508-.6,2.425,2.425,0,0,0,.548-1.7,2.179,2.179,0,0,0-.495-1.59,1.806,1.806,0,0,0-1.335-.5,3.024,3.024,0,0,0-.721.082,3.814,3.814,0,0,0-.7.263H12.463v-5.055h5.43Z"/><path class="cls-2" d="M27.755,102.309a2.833,2.833,0,0,1,0,3.69,2.577,2.577,0,0,1-3.51,0,2.837,2.837,0,0,1,0-3.69,2.577,2.577,0,0,1,3.51,0Zm-2.7.69a2.516,2.516,0,0,0,0,2.3,1.006,1.006,0,0,0,.937.457q1.215,0,1.215-1.605a2.226,2.226,0,0,0-.27-1.147A1.2,1.2,0,0,0,25.056,103Zm7.027-1.86.96.63-6.945,10.5-.96-.63Zm1.845,6.465a2.859,2.859,0,0,1,0,3.69,2.346,2.346,0,0,1-1.755.69,2.372,2.372,0,0,1-1.763-.69,2.837,2.837,0,0,1,0-3.69,2.372,2.372,0,0,1,1.763-.69A2.346,2.346,0,0,1,33.928,107.6Zm-2.693.7a2.127,2.127,0,0,0-.277,1.147,2.175,2.175,0,0,0,.277,1.147,1.007,1.007,0,0,0,.938.458q1.213,0,1.215-1.605a2.186,2.186,0,0,0-.27-1.14,1.216,1.216,0,0,0-1.883-.007Z"/><line class="cls-9" x1="85.866" y1="277.649" x2="517.62" y2="100.199"/><line class="cls-1" x1="85.866" y1="489.704" x2="517.62" y2="337"/><line class="cls-1" x1="402.54" y1="359.735" x2="517.62" y2="385.688"/><line class="cls-1" x1="517.62" y1="426.932" x2="402.54" y2="444.636"/><line class="cls-1" x1="517.62" y1="469.987" x2="85.866" y2="423.713"/><line class="cls-1" x1="517.62" y1="411.642" x2="85.866" y2="441.015"/><path class="cls-10" d="M346.553,94.807v7.878h3.679l-.143,1.079h-4.771V94.807Z"/><path class="cls-10" d="M353.222,93.351l.533,1L351,95.471l-.364-.638Zm-.429,3.562v6.851h-1.2V96.913Z"/><path class="cls-10" d="M360.566,94.158v9.606h-1.052l-.117-.949a2.474,2.474,0,0,1-.845.813,2.357,2.357,0,0,1-3.036-.67,4.395,4.395,0,0,1-.682-2.587,5.039,5.039,0,0,1,.324-1.872,2.905,2.905,0,0,1,.937-1.28,2.3,2.3,0,0,1,1.43-.461,2.46,2.46,0,0,1,1.846.844V94.014Zm-1.949,8.56a2.928,2.928,0,0,0,.754-.761V98.6a2.608,2.608,0,0,0-.722-.669,1.664,1.664,0,0,0-.864-.228,1.388,1.388,0,0,0-1.228.663,3.626,3.626,0,0,0-.436,1.977,3.827,3.827,0,0,0,.4,1.976,1.284,1.284,0,0,0,1.157.649A1.68,1.68,0,0,0,358.617,102.718Z"/><path class="cls-10" d="M366.69,96.835l-.221,1.171a2.415,2.415,0,0,0-.6-.078,1.269,1.269,0,0,0-1.027.467,3.49,3.49,0,0,0-.612,1.456v3.913h-1.2V96.913h1.028l.116,1.391a2.6,2.6,0,0,1,.741-1.157,1.653,1.653,0,0,1,1.092-.389A2.787,2.787,0,0,1,366.69,96.835Z"/><path class="cls-10" d="M370.8,103.8a4.638,4.638,0,0,1-1.124,1.891,3.4,3.4,0,0,1-2.061.838l-.131-.936a3.547,3.547,0,0,0,1.081-.337,1.87,1.87,0,0,0,.642-.566,3.937,3.937,0,0,0,.449-.93h-.4l-2.3-6.851h1.275l1.833,5.98,1.794-5.98h1.235Z"/><path class="cls-10" d="M379.137,97.316a2.148,2.148,0,0,1,.527,1.534v4.914h-1.2V99.019a1.515,1.515,0,0,0-.273-1.027,1.036,1.036,0,0,0-.805-.3,1.56,1.56,0,0,0-.963.312,3.224,3.224,0,0,0-.779.9v4.861h-1.2V96.913h1.028l.1,1.015a2.693,2.693,0,0,1,.9-.858,2.334,2.334,0,0,1,1.19-.312A1.915,1.915,0,0,1,379.137,97.316Z"/><path class="cls-10" d="M387.217,100.748h-4.368a2.665,2.665,0,0,0,.571,1.664,1.658,1.658,0,0,0,1.274.534,2.8,2.8,0,0,0,.911-.143,3.72,3.72,0,0,0,.871-.456l.52.715a3.78,3.78,0,0,1-2.392.858,2.774,2.774,0,0,1-2.23-.935,3.84,3.84,0,0,1-.8-2.575,4.89,4.89,0,0,1,.345-1.891,2.981,2.981,0,0,1,.988-1.294,2.506,2.506,0,0,1,1.515-.467,2.538,2.538,0,0,1,2.093.9,3.833,3.833,0,0,1,.727,2.482C387.242,100.337,387.234,100.54,387.217,100.748Zm-1.106-7.189.508.585-1.756,1.47h-.793l-1.767-1.47.519-.585,1.639,1.093Zm-.051,6.227a2.528,2.528,0,0,0-.4-1.546,1.418,1.418,0,0,0-1.209-.534q-1.467,0-1.6,2.159h3.211Z"/><path class="cls-10" d="M397.629,96.913l-2.326,6.851h-1.444l-2.366-6.851h1.3l1.8,5.786,1.78-5.786Z"/><path class="cls-10" d="M406.664,95.841a3.889,3.889,0,0,1,.715,2.477,7.176,7.176,0,0,1-.48,2.866,3.922,3.922,0,0,1-1.469,1.729,10.265,10.265,0,0,1-2.679,1.138l-.272-.9a6.618,6.618,0,0,0,2.67-1.34,3.1,3.1,0,0,0,1-2.249,2.263,2.263,0,0,1-.807.755,2.293,2.293,0,0,1-1.144.285,2.233,2.233,0,0,1-1.221-.344,2.394,2.394,0,0,1-.866-.975,3.236,3.236,0,0,1-.318-1.476,2.994,2.994,0,0,1,.377-1.533,2.583,2.583,0,0,1,1.008-1,2.872,2.872,0,0,1,1.4-.345A2.509,2.509,0,0,1,406.664,95.841Zm-.494,2.75a4.036,4.036,0,0,0-.357-2.074,1.316,1.316,0,0,0-1.215-.63,1.443,1.443,0,0,0-1.184.506A2.223,2.223,0,0,0,403,97.836a2.075,2.075,0,0,0,.391,1.372,1.3,1.3,0,0,0,1.052.461A2.037,2.037,0,0,0,406.17,98.591Z"/><path class="cls-6" d="M393.55,290.891a2.449,2.449,0,0,1,.91,2.074,2.561,2.561,0,0,1-.949,2.184,4.1,4.1,0,0,1-2.523.715h-1.131v3.289h-1.234V290.2h2.353A4.168,4.168,0,0,1,393.55,290.891Zm-.969,3.581a1.737,1.737,0,0,0,.566-1.494,1.631,1.631,0,0,0-.566-1.391,2.637,2.637,0,0,0-1.618-.429h-1.106v3.73h1.08A2.744,2.744,0,0,0,392.581,294.472Z"/><path class="cls-6" d="M397.307,289.247a.792.792,0,0,1,.234.585.77.77,0,0,1-.234.578.841.841,0,0,1-.612.227.819.819,0,0,1-.6-.227.767.767,0,0,1-.235-.578.789.789,0,0,1,.235-.585.809.809,0,0,1,.6-.235A.83.83,0,0,1,397.307,289.247Zm0,3.055v6.851h-1.2V292.3Z"/><path class="cls-6" d="M403.43,292.223l-.221,1.171a2.477,2.477,0,0,0-.6-.078,1.269,1.269,0,0,0-1.026.467,3.469,3.469,0,0,0-.611,1.457v3.913h-1.2V292.3H400.8l.116,1.391a2.615,2.615,0,0,1,.742-1.158,1.658,1.658,0,0,1,1.092-.389A2.838,2.838,0,0,1,403.43,292.223Z"/><path class="cls-6" d="M392.574,306.3v.91L389,312.152h3.613l-.142,1h-4.822v-.9l3.561-4.94h-3.263V306.3Zm-.754-3.354.508.585L390.572,305h-.793l-1.767-1.469.519-.585,1.639,1.092Z"/><path class="cls-6" d="M399.3,310.137h-4.368a2.673,2.673,0,0,0,.572,1.664,1.661,1.661,0,0,0,1.274.533,2.792,2.792,0,0,0,.91-.143,3.657,3.657,0,0,0,.871-.455l.52.714a3.778,3.778,0,0,1-2.391.858,2.776,2.776,0,0,1-2.231-.935,3.838,3.838,0,0,1-.8-2.574,4.911,4.911,0,0,1,.344-1.892,2.986,2.986,0,0,1,.988-1.293,2.509,2.509,0,0,1,1.515-.468,2.541,2.541,0,0,1,2.093.9,3.83,3.83,0,0,1,.728,2.483C399.322,309.725,399.314,309.929,399.3,310.137Zm-1.157-.962a2.536,2.536,0,0,0-.4-1.547,1.417,1.417,0,0,0-1.209-.533q-1.469,0-1.6,2.158h3.211Z"/><path class="cls-6" d="M405.92,306.7a2.151,2.151,0,0,1,.526,1.535v4.914h-1.2v-4.745a1.517,1.517,0,0,0-.273-1.027,1.035,1.035,0,0,0-.806-.3,1.559,1.559,0,0,0-.962.312,3.238,3.238,0,0,0-.779.9v4.862h-1.2V306.3h1.028l.1,1.014a2.7,2.7,0,0,1,.9-.858,2.331,2.331,0,0,1,1.189-.312A1.916,1.916,0,0,1,405.92,306.7Z"/><path class="cls-8" d="M349.537,528.629v1l-4.432,6.9h4.432l-.142,1.053h-5.668V536.6l4.471-6.929h-4v-1.04Z"/><path class="cls-8" d="M355.92,536.6a.866.866,0,0,0,.43.306l-.274.832a1.83,1.83,0,0,1-.857-.3,1.374,1.374,0,0,1-.482-.728,2.3,2.3,0,0,1-2.041,1.027,2.186,2.186,0,0,1-1.6-.572,2,2,0,0,1-.586-1.5A1.961,1.961,0,0,1,351.3,534a3.678,3.678,0,0,1,2.229-.585h1.053v-.507a1.333,1.333,0,0,0-.35-1.04,1.592,1.592,0,0,0-1.08-.312,6.029,6.029,0,0,0-1.846.364l-.3-.871a6.9,6.9,0,0,1,2.366-.468,2.479,2.479,0,0,1,1.808.591,2.267,2.267,0,0,1,.6,1.684v3.133A1.067,1.067,0,0,0,355.92,536.6Zm-1.339-.825v-1.573h-.9q-1.9,0-1.9,1.4a1.283,1.283,0,0,0,.3.923,1.166,1.166,0,0,0,.883.312A1.785,1.785,0,0,0,354.581,535.779Z"/><path class="cls-8" d="M366.711,530.735l-2.328,6.851H362.94l-2.366-6.851h1.3l1.793,5.785,1.781-5.785Z"/><path class="cls-8" d="M369.272,527.68a.8.8,0,0,1,.233.585.773.773,0,0,1-.233.578.843.843,0,0,1-.612.228.817.817,0,0,1-.6-.228.767.767,0,0,1-.235-.578.791.791,0,0,1,.235-.585.805.805,0,0,1,.6-.234A.831.831,0,0,1,369.272,527.68Zm0,3.055v6.851h-1.2v-6.851Z"/><path class="cls-8" d="M377.045,527.979v9.607h-1.053l-.117-.949a2.483,2.483,0,0,1-.846.812,2.353,2.353,0,0,1-3.035-.669,4.392,4.392,0,0,1-.681-2.587,5.039,5.039,0,0,1,.324-1.872,2.913,2.913,0,0,1,.935-1.281,2.316,2.316,0,0,1,1.431-.461,2.461,2.461,0,0,1,1.846.845v-3.588Zm-1.95,8.56a2.907,2.907,0,0,0,.754-.76v-3.354a2.6,2.6,0,0,0-.722-.67,1.666,1.666,0,0,0-.864-.227,1.388,1.388,0,0,0-1.229.663,3.632,3.632,0,0,0-.435,1.976,3.814,3.814,0,0,0,.4,1.976,1.285,1.285,0,0,0,1.156.65A1.679,1.679,0,0,0,375.1,536.539Z"/><path class="cls-8" d="M380.711,527.68a.794.794,0,0,1,.234.585.77.77,0,0,1-.234.578.837.837,0,0,1-.611.228.821.821,0,0,1-.6-.228.77.77,0,0,1-.234-.578.794.794,0,0,1,.234-.585.809.809,0,0,1,.6-.234A.825.825,0,0,1,380.711,527.68Zm0,3.055v6.851h-1.2v-6.851Z"/><path class="cls-8" d="M386.639,537.274a2.63,2.63,0,0,1-1.533.468,1.809,1.809,0,0,1-1.36-.5,2,2,0,0,1-.487-1.449v-4.134h-1.2v-.923h1.2v-1.547l1.2-.143v1.69h1.625l-.131.923h-1.494v4.082a1.263,1.263,0,0,0,.188.773.755.755,0,0,0,.631.241,1.96,1.96,0,0,0,.91-.273Z"/><path class="cls-8" d="M392.826,534.57h-4.367a2.665,2.665,0,0,0,.572,1.664,1.659,1.659,0,0,0,1.274.533,2.788,2.788,0,0,0,.91-.143,3.676,3.676,0,0,0,.871-.455l.52.715a3.788,3.788,0,0,1-2.392.858,2.776,2.776,0,0,1-2.23-.936,3.836,3.836,0,0,1-.8-2.574,4.892,4.892,0,0,1,.343-1.892,2.965,2.965,0,0,1,.989-1.293,2.5,2.5,0,0,1,1.513-.468,2.543,2.543,0,0,1,2.094.9,3.838,3.838,0,0,1,.729,2.483C392.854,534.158,392.844,534.362,392.826,534.57Zm-1.156-.962a2.543,2.543,0,0,0-.4-1.547,1.421,1.421,0,0,0-1.21-.533q-1.47,0-1.6,2.158h3.211Z"/><path class="cls-8" d="M395.082,537.345a1.53,1.53,0,0,1-.383-1.111v-8.255l1.2-.143v8.372a.71.71,0,0,0,.1.416.391.391,0,0,0,.332.13,1.184,1.184,0,0,0,.442-.078l.312.832a1.951,1.951,0,0,1-.949.234A1.389,1.389,0,0,1,395.082,537.345Z"/><path class="cls-8" d="M403.26,531.137a2.157,2.157,0,0,1,.526,1.535v4.914h-1.2v-4.745a1.512,1.512,0,0,0-.274-1.027,1.035,1.035,0,0,0-.8-.3,1.559,1.559,0,0,0-.962.312,3.238,3.238,0,0,0-.779.9v4.862h-1.2v-6.851H399.6l.1,1.014a2.706,2.706,0,0,1,.9-.858,2.334,2.334,0,0,1,1.19-.312A1.916,1.916,0,0,1,403.26,531.137Z"/><path class="cls-8" d="M347.691,544.774a3.782,3.782,0,0,1,1.067.585l-.508.754a4.044,4.044,0,0,0-.891-.442,2.735,2.735,0,0,0-.89-.143,1.566,1.566,0,0,0-.922.24.815.815,0,0,0-.02,1.307,3.685,3.685,0,0,0,1.151.455,4.108,4.108,0,0,1,1.709.78,1.7,1.7,0,0,1,.566,1.352,1.755,1.755,0,0,1-.787,1.547,3.341,3.341,0,0,1-1.918.533,3.788,3.788,0,0,1-2.586-.9l.637-.728a3.1,3.1,0,0,0,1.924.663,1.826,1.826,0,0,0,1.072-.28.882.882,0,0,0,.4-.76,1.008,1.008,0,0,0-.142-.566,1.17,1.17,0,0,0-.494-.377,6.794,6.794,0,0,0-1.028-.344,3.518,3.518,0,0,1-1.58-.767,1.647,1.647,0,0,1-.486-1.222,1.6,1.6,0,0,1,.318-.969,2.072,2.072,0,0,1,.884-.676,3.217,3.217,0,0,1,1.268-.24A3.809,3.809,0,0,1,347.691,544.774Z"/><path class="cls-8" d="M355.79,548.57h-4.368a2.671,2.671,0,0,0,.572,1.664,1.661,1.661,0,0,0,1.274.533,2.792,2.792,0,0,0,.91-.143,3.657,3.657,0,0,0,.871-.455l.52.715a3.783,3.783,0,0,1-2.391.858,2.778,2.778,0,0,1-2.231-.936,3.836,3.836,0,0,1-.8-2.574,4.911,4.911,0,0,1,.343-1.892,2.98,2.98,0,0,1,.989-1.293,2.5,2.5,0,0,1,1.514-.468,2.539,2.539,0,0,1,2.093.9,3.832,3.832,0,0,1,.728,2.483C355.816,548.158,355.808,548.362,355.79,548.57Zm-1.157-.962a2.543,2.543,0,0,0-.4-1.547,1.42,1.42,0,0,0-1.209-.533q-1.47,0-1.6,2.158h3.211Z"/><path class="cls-8" d="M364.293,544.774a3.786,3.786,0,0,1,1.065.585l-.506.754a4.132,4.132,0,0,0-.891-.442,2.737,2.737,0,0,0-.891-.143,1.566,1.566,0,0,0-.922.24.815.815,0,0,0-.02,1.307,3.688,3.688,0,0,0,1.15.455,4.107,4.107,0,0,1,1.71.78,1.7,1.7,0,0,1,.566,1.352,1.756,1.756,0,0,1-.786,1.547,3.346,3.346,0,0,1-1.918.533,3.789,3.789,0,0,1-2.587-.9l.636-.728a3.107,3.107,0,0,0,1.925.663,1.832,1.832,0,0,0,1.073-.28.885.885,0,0,0,.4-.76,1.008,1.008,0,0,0-.144-.566,1.151,1.151,0,0,0-.494-.377,6.755,6.755,0,0,0-1.026-.344,3.5,3.5,0,0,1-1.58-.767,1.648,1.648,0,0,1-.487-1.222,1.608,1.608,0,0,1,.318-.969,2.072,2.072,0,0,1,.884-.676,3.215,3.215,0,0,1,1.267-.24A3.817,3.817,0,0,1,364.293,544.774Z"/><path class="cls-8" d="M368.44,541.836v9.75h-1.2v-9.607Zm3.939,2.9-2.522,3.029,2.807,3.822h-1.43l-2.716-3.744,2.521-3.107Z"/><path class="cls-8" d="M377.553,544.657l-.222,1.17a2.465,2.465,0,0,0-.6-.078,1.272,1.272,0,0,0-1.026.468,3.459,3.459,0,0,0-.61,1.456v3.913h-1.2v-6.851h1.027l.117,1.391a2.61,2.61,0,0,1,.741-1.157,1.654,1.654,0,0,1,1.092-.39A2.8,2.8,0,0,1,377.553,544.657Z"/><path class="cls-8" d="M381.66,551.625a4.6,4.6,0,0,1-1.125,1.891,3.4,3.4,0,0,1-2.06.839l-.129-.936a3.532,3.532,0,0,0,1.078-.338,1.868,1.868,0,0,0,.644-.566,3.949,3.949,0,0,0,.448-.929h-.4l-2.3-6.851h1.273l1.833,5.98,1.794-5.98h1.235Zm.247-10.452.533,1-2.756,1.118-.364-.637Z"/><path class="cls-8" d="M390.344,544.735l-2.327,6.851h-1.443l-2.367-6.851h1.3l1.794,5.785,1.78-5.785Z"/><path class="cls-8" d="M396.259,550.6a.863.863,0,0,0,.429.306l-.274.832a1.834,1.834,0,0,1-.857-.3,1.367,1.367,0,0,1-.481-.728,2.3,2.3,0,0,1-2.041,1.027,2.189,2.189,0,0,1-1.6-.572,2,2,0,0,1-.585-1.5,1.963,1.963,0,0,1,.786-1.677,3.681,3.681,0,0,1,2.23-.585h1.053v-.507a1.33,1.33,0,0,0-.352-1.04,1.586,1.586,0,0,0-1.078-.312,6.013,6.013,0,0,0-1.846.364l-.3-.871a6.885,6.885,0,0,1,2.366-.468,2.475,2.475,0,0,1,1.807.591,2.267,2.267,0,0,1,.6,1.684v3.133A1.066,1.066,0,0,0,396.259,550.6Zm-1.573-9.431.533,1-2.756,1.118-.364-.637Zm.234,8.606v-1.573h-.9q-1.9,0-1.9,1.4a1.288,1.288,0,0,0,.3.923,1.168,1.168,0,0,0,.884.312A1.787,1.787,0,0,0,394.92,549.779Z"/><path class="cls-8" d="M407.088,545.515a4.815,4.815,0,0,1,.611,2.639,4.39,4.39,0,0,1-.7,2.6,2.3,2.3,0,0,1-1.988.988,2.208,2.208,0,0,1-1.794-.78v3.25l-1.2.143v-9.62h1.027l.091.923a2.617,2.617,0,0,1,.91-.8,2.375,2.375,0,0,1,1.118-.279A2.133,2.133,0,0,1,407.088,545.515Zm-.676,2.639q0-2.626-1.547-2.626a1.545,1.545,0,0,0-.924.3,2.935,2.935,0,0,0-.727.767v3.341a1.811,1.811,0,0,0,.649.617,1.755,1.755,0,0,0,.859.215Q406.411,550.767,406.412,548.154Z"/><g class="cls-11"><path d="M10.928,10.992v1.836L5.186,21.486h5.8l-.251,1.944H2.414V21.612l5.85-8.73H3.008v-1.89ZM9.274,6.726l.88,1.008-2.5,2.16H6.213l-2.5-2.16.881-1.008L6.932,8.22Z"/><path d="M20.379,19.38H14.4a3.029,3.029,0,0,0,.721,1.98,2.225,2.225,0,0,0,1.619.594,3.4,3.4,0,0,0,1.19-.207,5.563,5.563,0,0,0,1.187-.639l.953,1.314A5.473,5.473,0,0,1,16.545,23.7a4.247,4.247,0,0,1-3.357-1.332,5.291,5.291,0,0,1-1.178-3.636,6.515,6.515,0,0,1,.5-2.619A4.147,4.147,0,0,1,13.971,14.3a3.9,3.9,0,0,1,2.267-.657,3.871,3.871,0,0,1,3.1,1.269,5.234,5.234,0,0,1,1.1,3.537C20.434,18.564,20.414,18.876,20.379,19.38Zm-2.232-1.6q0-2.5-1.854-2.5a1.57,1.57,0,0,0-1.322.621,3.7,3.7,0,0,0-.569,1.989h3.745Z"/><path d="M29.568,14.4a3.018,3.018,0,0,1,.711,2.133V23.43h-2.3V16.9a1.834,1.834,0,0,0-.3-1.188,1.091,1.091,0,0,0-.873-.342,1.7,1.7,0,0,0-1.071.369,4.21,4.21,0,0,0-.927,1.071V23.43H22.5V13.908h2l.182,1.242a3.534,3.534,0,0,1,2.9-1.512A2.584,2.584,0,0,1,29.568,14.4Z"/><path d="M37.461,23.466a5.858,5.858,0,0,1-1.746,2.745,5.553,5.553,0,0,1-3.205,1.143l-.235-1.674a5.769,5.769,0,0,0,1.5-.405,2.414,2.414,0,0,0,.909-.693,4.6,4.6,0,0,0,.63-1.152h-.793L31.5,13.908h2.449L36.02,21.9l2.16-7.992h2.377Z"/><path d="M53.525,14.4a3.009,3.009,0,0,1,.711,2.133V23.43h-2.3V16.9a1.821,1.821,0,0,0-.3-1.188,1.089,1.089,0,0,0-.871-.342,1.712,1.712,0,0,0-1.073.369,4.187,4.187,0,0,0-.925,1.071V23.43h-2.3V13.908h2l.18,1.242a3.537,3.537,0,0,1,2.9-1.512A2.579,2.579,0,0,1,53.525,14.4Z"/><path d="M64.127,21.729a1.09,1.09,0,0,0,.549.405l-.486,1.53a2.944,2.944,0,0,1-1.323-.4,2.024,2.024,0,0,1-.783-.99,3.045,3.045,0,0,1-1.215,1.071,3.707,3.707,0,0,1-1.629.351,3.076,3.076,0,0,1-2.25-.81,2.838,2.838,0,0,1-.828-2.124A2.748,2.748,0,0,1,57.287,18.4,5.394,5.394,0,0,1,60.5,17.58h1.188v-.54a1.646,1.646,0,0,0-.422-1.287,2.053,2.053,0,0,0-1.36-.369,8.033,8.033,0,0,0-2.521.5l-.539-1.566a9.613,9.613,0,0,1,3.455-.684q3.655,0,3.654,3.276v4A1.518,1.518,0,0,0,64.127,21.729Zm-2.439-.873V18.93h-.954q-2.232,0-2.232,1.656a1.522,1.522,0,0,0,.342,1.062,1.29,1.29,0,0,0,1.008.378A2.039,2.039,0,0,0,61.688,20.856Z"/><path d="M73.551,9.84V23.43H71.246V10.092Zm5.7,4.068L76.088,18.1l3.475,5.328H76.916l-3.275-5.2,3.185-4.32Z"/><path d="M87.8,21.729a1.09,1.09,0,0,0,.549.405l-.487,1.53a2.943,2.943,0,0,1-1.322-.4,2.024,2.024,0,0,1-.783-.99,3.052,3.052,0,0,1-1.215,1.071,3.707,3.707,0,0,1-1.629.351,3.076,3.076,0,0,1-2.25-.81,2.834,2.834,0,0,1-.828-2.124A2.748,2.748,0,0,1,80.957,18.4a5.394,5.394,0,0,1,3.213-.819h1.187v-.54a1.646,1.646,0,0,0-.421-1.287,2.053,2.053,0,0,0-1.36-.369,8.033,8.033,0,0,0-2.521.5l-.539-1.566a9.613,9.613,0,0,1,3.455-.684q3.655,0,3.654,3.276v4A1.518,1.518,0,0,0,87.8,21.729Zm-2.44-.873V18.93H84.4q-2.232,0-2.232,1.656a1.522,1.522,0,0,0,.342,1.062,1.29,1.29,0,0,0,1.008.378A2.037,2.037,0,0,0,85.357,20.856Z"/><path d="M97.481,14.4a3.013,3.013,0,0,1,.71,2.133V23.43h-2.3V16.9a1.821,1.821,0,0,0-.3-1.188,1.089,1.089,0,0,0-.871-.342,1.707,1.707,0,0,0-1.072.369,4.17,4.17,0,0,0-.926,1.071V23.43H90.416V13.908h2l.18,1.242a3.537,3.537,0,0,1,2.9-1.512A2.583,2.583,0,0,1,97.481,14.4Z"/><path d="M108.885,10.092V23.43H106.85l-.162-1.206a3.333,3.333,0,0,1-1.143,1.08,3.122,3.122,0,0,1-1.574.4,3.071,3.071,0,0,1-2.684-1.35,6.358,6.358,0,0,1-.935-3.672,6.815,6.815,0,0,1,.468-2.6,4.1,4.1,0,0,1,1.34-1.791,3.385,3.385,0,0,1,4.42.378V9.84ZM105.7,21.657a3.064,3.064,0,0,0,.883-.927V16.374a3.3,3.3,0,0,0-.838-.756,1.876,1.876,0,0,0-.98-.252,1.645,1.645,0,0,0-1.449.819,4.611,4.611,0,0,0-.532,2.475,5.079,5.079,0,0,0,.469,2.529,1.509,1.509,0,0,0,1.367.765A1.972,1.972,0,0,0,105.7,21.657Z"/><path d="M113.844,9.489a1.36,1.36,0,0,1,.4,1,1.331,1.331,0,0,1-.4.99,1.447,1.447,0,0,1-1.055.4,1.412,1.412,0,0,1-1.033-.4,1.321,1.321,0,0,1-.406-.99,1.351,1.351,0,0,1,.406-1,1.4,1.4,0,0,1,1.033-.405A1.429,1.429,0,0,1,113.844,9.489Zm.117,4.419V23.43h-2.3V13.908Z"/><path d="M124.742,10.092V23.43h-2.035l-.162-1.206A3.333,3.333,0,0,1,121.4,23.3a3.119,3.119,0,0,1-1.574.4,3.069,3.069,0,0,1-2.683-1.35,6.358,6.358,0,0,1-.936-3.672,6.8,6.8,0,0,1,.469-2.6,4.087,4.087,0,0,1,1.34-1.791,3.385,3.385,0,0,1,4.42.378V9.84Zm-3.187,11.565a3.088,3.088,0,0,0,.883-.927V16.374a3.322,3.322,0,0,0-.838-.756,1.883,1.883,0,0,0-.981-.252,1.647,1.647,0,0,0-1.449.819,4.612,4.612,0,0,0-.531,2.475,5.08,5.08,0,0,0,.468,2.529,1.509,1.509,0,0,0,1.368.765A1.974,1.974,0,0,0,121.555,21.657Z"/><path d="M134.723,21.729a1.09,1.09,0,0,0,.549.405l-.487,1.53a2.943,2.943,0,0,1-1.322-.4,2.019,2.019,0,0,1-.783-.99,3.052,3.052,0,0,1-1.215,1.071,3.707,3.707,0,0,1-1.629.351,3.076,3.076,0,0,1-2.25-.81,2.834,2.834,0,0,1-.828-2.124,2.748,2.748,0,0,1,1.125-2.367,5.394,5.394,0,0,1,3.213-.819h1.187v-.54a1.642,1.642,0,0,0-.422-1.287,2.048,2.048,0,0,0-1.359-.369,8.033,8.033,0,0,0-2.521.5l-.54-1.566a9.618,9.618,0,0,1,3.456-.684q3.656,0,3.654,3.276v4A1.509,1.509,0,0,0,134.723,21.729ZM132.283,8.67l.936,1.8-4.067,1.62-.648-1.17Zm0,12.186V18.93h-.953q-2.232,0-2.232,1.656a1.522,1.522,0,0,0,.342,1.062,1.29,1.29,0,0,0,1.007.378A2.037,2.037,0,0,0,132.283,20.856Z"/><path d="M142.795,22.98a3.683,3.683,0,0,1-1.125.54,4.529,4.529,0,0,1-1.268.18,2.819,2.819,0,0,1-2.132-.8,3.277,3.277,0,0,1-.731-2.313V15.564h-1.494V13.908h1.494V11.8l2.305-.27v2.376h2.213l-.233,1.656h-1.98v4.968a1.637,1.637,0,0,0,.242,1.008.92.92,0,0,0,.766.306,2.354,2.354,0,0,0,1.134-.342Z"/><path d="M146.4,9.84V23.43h-2.3V10.092Zm5.705,4.068L148.934,18.1l3.474,5.328h-2.646l-3.276-5.2,3.186-4.32Z"/><path d="M160.643,21.729a1.091,1.091,0,0,0,.548.405l-.486,1.53a2.943,2.943,0,0,1-1.322-.4,2.019,2.019,0,0,1-.783-.99,3.058,3.058,0,0,1-1.215,1.071,3.707,3.707,0,0,1-1.629.351,3.076,3.076,0,0,1-2.25-.81,2.834,2.834,0,0,1-.828-2.124A2.748,2.748,0,0,1,153.8,18.4a5.394,5.394,0,0,1,3.213-.819H158.2v-.54a1.642,1.642,0,0,0-.422-1.287,2.048,2.048,0,0,0-1.359-.369,8.044,8.044,0,0,0-2.522.5l-.539-1.566a9.617,9.617,0,0,1,3.455-.684q3.657,0,3.655,3.276v4A1.509,1.509,0,0,0,160.643,21.729ZM158.2,8.67l.936,1.8-4.067,1.62-.648-1.17Zm0,12.186V18.93h-.953q-2.232,0-2.232,1.656a1.527,1.527,0,0,0,.341,1.062,1.293,1.293,0,0,0,1.008.378A2.037,2.037,0,0,0,158.2,20.856Z"/><path d="M168.779,13.908a4.5,4.5,0,0,1,1.412.846l-1.025,1.386a3.707,3.707,0,0,0-.937-.522,2.894,2.894,0,0,0-.989-.162q-2.144,0-2.142,3.258a3.968,3.968,0,0,0,.558,2.385,1.875,1.875,0,0,0,1.584.729,2.562,2.562,0,0,0,.926-.162,6.027,6.027,0,0,0,1-.522l1.025,1.458a4.742,4.742,0,0,1-3.078,1.1,4.537,4.537,0,0,1-2.375-.6,3.945,3.945,0,0,1-1.548-1.719,5.974,5.974,0,0,1-.54-2.628,6.273,6.273,0,0,1,.54-2.673,4.126,4.126,0,0,1,1.548-1.8,4.307,4.307,0,0,1,2.358-.639A4.932,4.932,0,0,1,168.779,13.908Z"/><path d="M178.922,14.412a3.005,3.005,0,0,1,.719,2.124V23.43h-2.3V16.9a1.821,1.821,0,0,0-.3-1.188,1.089,1.089,0,0,0-.871-.342,1.716,1.716,0,0,0-1.062.369,4.17,4.17,0,0,0-.936,1.053V23.43h-2.3V10.11l2.3-.234v5.166a3.475,3.475,0,0,1,2.771-1.4A2.575,2.575,0,0,1,178.922,14.412Z"/></g><path d="M9.5,45.133a2.427,2.427,0,0,1,.66,1.852,2.472,2.472,0,0,1-.975,2.145,4.564,4.564,0,0,1-2.715.7h-2.8V39.56h2.3a4.95,4.95,0,0,1,2.753.645,2.159,2.159,0,0,1,.967,1.92,2.219,2.219,0,0,1-.518,1.53,2.3,2.3,0,0,1-1.372.735A2.9,2.9,0,0,1,9.5,45.133ZM4.565,40.31v3.765h2.07a2.29,2.29,0,0,0,1.545-.5,1.733,1.733,0,0,0,.585-1.388,1.577,1.577,0,0,0-.683-1.44A3.824,3.824,0,0,0,6.05,40.31Zm4.666,6.675a1.979,1.979,0,0,0-.683-1.65A2.831,2.831,0,0,0,6.74,44.8H4.565v4.29h1.9Q9.23,49.085,9.231,46.985Z"/><path d="M12.853,49.625a1.521,1.521,0,0,1-.369-1.11V38.8l.871-.105v9.8q0,.765.629.765a1.265,1.265,0,0,0,.54-.1l.241.645a1.989,1.989,0,0,1-.9.21A1.349,1.349,0,0,1,12.853,49.625Z"/><path d="M21.883,42.9a4.6,4.6,0,0,1,.878,2.992,4.648,4.648,0,0,1-.893,3.008A2.968,2.968,0,0,1,19.431,50a2.957,2.957,0,0,1-2.438-1.087,4.639,4.639,0,0,1-.878-2.993,5.4,5.4,0,0,1,.406-2.175,3.021,3.021,0,0,1,2.924-1.92A2.977,2.977,0,0,1,21.883,42.9Zm-4.208.517a4.189,4.189,0,0,0-.63,2.505,4.2,4.2,0,0,0,.623,2.49,2.051,2.051,0,0,0,1.763.855,2.093,2.093,0,0,0,1.777-.855,4.181,4.181,0,0,0,.638-2.52,4.161,4.161,0,0,0-.623-2.482,2.274,2.274,0,0,0-3.548.007Z"/><path d="M26.18,38.69V49.835h-.87V38.8Zm4.395,3.3-3.3,3.51,3.646,4.335H29.87l-3.6-4.29,3.3-3.555Z"/><path d="M40.069,42.043a4.419,4.419,0,0,1,1.17.652l-.4.57a4.463,4.463,0,0,0-1.02-.547,3.088,3.088,0,0,0-1.05-.173,2.043,2.043,0,0,0-1.26.36,1.143,1.143,0,0,0-.481.96,1.048,1.048,0,0,0,.414.885,4.53,4.53,0,0,0,1.492.6,4.731,4.731,0,0,1,1.927.87,1.9,1.9,0,0,1,.592,1.5,1.98,1.98,0,0,1-.809,1.665A3.253,3.253,0,0,1,38.614,50a4.348,4.348,0,0,1-1.574-.262A4.191,4.191,0,0,1,35.81,49l.48-.555a3.851,3.851,0,0,0,1.072.623,3.552,3.552,0,0,0,1.238.2,2.283,2.283,0,0,0,1.4-.4,1.3,1.3,0,0,0,.532-1.1,1.5,1.5,0,0,0-.179-.78,1.448,1.448,0,0,0-.616-.517,7.122,7.122,0,0,0-1.274-.443,4.379,4.379,0,0,1-1.793-.825,1.692,1.692,0,0,1-.547-1.32,1.742,1.742,0,0,1,.345-1.057,2.262,2.262,0,0,1,.937-.735,3.241,3.241,0,0,1,1.327-.263A3.886,3.886,0,0,1,40.069,42.043Z"/><path d="M47.345,49.505A2.934,2.934,0,0,1,45.694,50a1.861,1.861,0,0,1-1.41-.532,2.138,2.138,0,0,1-.51-1.538V42.7h-1.32v-.7h1.32V40.115l.871-.105v1.98H46.67l-.105.7h-1.92v5.19a1.559,1.559,0,0,0,.285,1.028,1.072,1.072,0,0,0,.87.337,2.382,2.382,0,0,0,1.2-.345Z"/><path d="M52.715,41.915l-.165.825a2.613,2.613,0,0,0-.691-.09,1.6,1.6,0,0,0-1.282.578,4.745,4.745,0,0,0-.817,1.807v4.8h-.87V41.99h.75l.075,1.755a3.141,3.141,0,0,1,.862-1.447,2.006,2.006,0,0,1,1.358-.473A2.883,2.883,0,0,1,52.715,41.915Z"/><path d="M58.991,48.98a.966.966,0,0,0,.5.405L59.3,50a1.54,1.54,0,0,1-.832-.405,1.62,1.62,0,0,1-.383-.915A2.678,2.678,0,0,1,55.639,50a2.437,2.437,0,0,1-1.778-.637,2.276,2.276,0,0,1-.652-1.7,2.222,2.222,0,0,1,.862-1.875,3.865,3.865,0,0,1,2.393-.66h1.5V44.36a1.543,1.543,0,0,0-1.815-1.8,6.348,6.348,0,0,0-2.129.45l-.226-.66a6.719,6.719,0,0,1,2.476-.525,2.234,2.234,0,0,1,2.564,2.49V48.1A1.86,1.86,0,0,0,58.991,48.98Zm-1.027-1.065v-2.16H56.6a3.049,3.049,0,0,0-1.83.465,1.624,1.624,0,0,0-.631,1.4,1.685,1.685,0,0,0,.435,1.245,1.644,1.644,0,0,0,1.215.435A2.382,2.382,0,0,0,57.964,47.915Z"/><path d="M67.092,42.455a2.569,2.569,0,0,1,.562,1.77v5.61h-.87v-5.49a2.088,2.088,0,0,0-.375-1.38,1.385,1.385,0,0,0-1.11-.435,2.225,2.225,0,0,0-1.327.413,4.516,4.516,0,0,0-1.1,1.207v5.685H62V41.99h.75l.09,1.335a3.664,3.664,0,0,1,1.141-1.1,2.816,2.816,0,0,1,1.484-.4A2.069,2.069,0,0,1,67.092,42.455Z"/><path d="M78.2,42.043a4.419,4.419,0,0,1,1.17.652l-.4.57a4.447,4.447,0,0,0-1.021-.547,3.082,3.082,0,0,0-1.049-.173,2.043,2.043,0,0,0-1.26.36,1.143,1.143,0,0,0-.481.96,1.05,1.05,0,0,0,.413.885,4.548,4.548,0,0,0,1.493.6,4.731,4.731,0,0,1,1.927.87,1.9,1.9,0,0,1,.592,1.5,1.98,1.98,0,0,1-.809,1.665A3.253,3.253,0,0,1,76.744,50a4.348,4.348,0,0,1-1.574-.262A4.191,4.191,0,0,1,73.94,49l.48-.555a3.851,3.851,0,0,0,1.072.623,3.552,3.552,0,0,0,1.238.2,2.285,2.285,0,0,0,1.4-.4,1.3,1.3,0,0,0,.532-1.1,1.491,1.491,0,0,0-.18-.78,1.438,1.438,0,0,0-.615-.517,7.122,7.122,0,0,0-1.274-.443A4.379,4.379,0,0,1,74.8,45.2a1.692,1.692,0,0,1-.547-1.32,1.742,1.742,0,0,1,.345-1.057,2.262,2.262,0,0,1,.937-.735,3.241,3.241,0,0,1,1.327-.263A3.886,3.886,0,0,1,78.2,42.043Z"/><path d="M91.182,42.455a2.569,2.569,0,0,1,.562,1.77v5.61h-.87v-5.49a2.088,2.088,0,0,0-.375-1.38,1.385,1.385,0,0,0-1.11-.435,2.223,2.223,0,0,0-1.327.413,4.516,4.516,0,0,0-1.1,1.207v5.685h-.87V41.99h.75l.09,1.335a3.672,3.672,0,0,1,1.14-1.1,2.822,2.822,0,0,1,1.485-.4A2.069,2.069,0,0,1,91.182,42.455Z"/><path d="M99.881,48.98a.958.958,0,0,0,.5.405l-.2.615a1.537,1.537,0,0,1-.832-.405,1.606,1.606,0,0,1-.383-.915A2.68,2.68,0,0,1,96.528,50a2.434,2.434,0,0,1-1.777-.637,2.272,2.272,0,0,1-.652-1.7,2.222,2.222,0,0,1,.862-1.875,3.863,3.863,0,0,1,2.393-.66h1.5V44.36a1.543,1.543,0,0,0-1.815-1.8,6.358,6.358,0,0,0-2.13.45l-.225-.66a6.718,6.718,0,0,1,2.475-.525,2.235,2.235,0,0,1,2.565,2.49V48.1A1.848,1.848,0,0,0,99.881,48.98Zm-1.027-1.065v-2.16H97.489a3.051,3.051,0,0,0-1.83.465,1.624,1.624,0,0,0-.631,1.4,1.685,1.685,0,0,0,.436,1.245,1.642,1.642,0,0,0,1.215.435A2.383,2.383,0,0,0,98.854,47.915Z"/><path d="M108.483,38.8v11.04h-.75l-.1-1.2A2.584,2.584,0,0,1,105.274,50a2.516,2.516,0,0,1-2.153-1.087,4.967,4.967,0,0,1-.787-2.963,5.812,5.812,0,0,1,.367-2.145,3.277,3.277,0,0,1,1.066-1.455,2.653,2.653,0,0,1,1.642-.525,2.727,2.727,0,0,1,2.2,1.065v-4.2ZM106.677,48.92a3.288,3.288,0,0,0,.937-1.095v-4.1a2.463,2.463,0,0,0-2.055-1.185,1.96,1.96,0,0,0-1.688.885,4.242,4.242,0,0,0-.607,2.505,4.5,4.5,0,0,0,.57,2.483,1.789,1.789,0,0,0,1.575.862A2.169,2.169,0,0,0,106.677,48.92Z"/><path d="M117.2,46.25h-5.235a3.66,3.66,0,0,0,.727,2.273,2.178,2.178,0,0,0,1.718.742,2.936,2.936,0,0,0,1.088-.187,4.8,4.8,0,0,0,1.028-.593l.405.555a4.453,4.453,0,0,1-1.2.72,3.735,3.735,0,0,1-1.366.24,3.007,3.007,0,0,1-2.445-1.065,4.491,4.491,0,0,1-.885-2.955,5.746,5.746,0,0,1,.383-2.182,3.272,3.272,0,0,1,1.095-1.455,2.743,2.743,0,0,1,1.657-.518,2.7,2.7,0,0,1,2.28,1.013,4.454,4.454,0,0,1,.781,2.782C117.229,45.84,117.218,46.05,117.2,46.25Zm-.825-.9a3.423,3.423,0,0,0-.547-2.062,1.894,1.894,0,0,0-1.628-.743,1.921,1.921,0,0,0-1.575.75,3.871,3.871,0,0,0-.66,2.28h4.41Zm-.345-7.05.39.45-1.935,1.59h-.54l-1.95-1.59.39-.45,1.83,1.26Z"/><path d="M120.573,49.55a4.835,4.835,0,0,1-.224,1.628,2.292,2.292,0,0,1-.66.975,5.355,5.355,0,0,1-1.231.727l-.255-.63a3.989,3.989,0,0,0,.878-.562,1.737,1.737,0,0,0,.465-.765,4.58,4.58,0,0,0,.157-1.343V41.99h.87Zm.031-10.83a.655.655,0,0,1,0,.9.653.653,0,0,1-.481.18.631.631,0,0,1-.465-.18.655.655,0,0,1,0-.9.631.631,0,0,1,.465-.18A.653.653,0,0,1,120.6,38.72Z"/><path d="M125.494,38.1l.39.78-2.925,1.275-.285-.51Zm-.69,3.885v7.845h-.87V41.99Z"/><path d="M137.261,42.455a2.569,2.569,0,0,1,.562,1.77v5.61h-.87v-5.49a2.088,2.088,0,0,0-.375-1.38,1.385,1.385,0,0,0-1.11-.435,2.223,2.223,0,0,0-1.327.413,4.516,4.516,0,0,0-1.1,1.207v5.685h-.87V41.99h.75l.09,1.335a3.664,3.664,0,0,1,1.141-1.1,2.816,2.816,0,0,1,1.484-.4A2.069,2.069,0,0,1,137.261,42.455Z"/><path d="M145.96,48.98a.958.958,0,0,0,.5.405l-.195.615a1.537,1.537,0,0,1-.832-.405,1.606,1.606,0,0,1-.383-.915A2.68,2.68,0,0,1,142.607,50a2.434,2.434,0,0,1-1.777-.637,2.276,2.276,0,0,1-.652-1.7,2.222,2.222,0,0,1,.862-1.875,3.863,3.863,0,0,1,2.393-.66h1.5V44.36a1.543,1.543,0,0,0-1.815-1.8,6.358,6.358,0,0,0-2.13.45l-.225-.66a6.718,6.718,0,0,1,2.475-.525,2.235,2.235,0,0,1,2.565,2.49V48.1A1.86,1.86,0,0,0,145.96,48.98Zm-1.027-1.065v-2.16h-1.365a3.051,3.051,0,0,0-1.83.465,1.624,1.624,0,0,0-.631,1.4,1.685,1.685,0,0,0,.436,1.245,1.642,1.642,0,0,0,1.215.435A2.383,2.383,0,0,0,144.933,47.915Z"/><path d="M162.295,42.47a2.625,2.625,0,0,1,.548,1.755v5.61h-.87v-5.49a2.188,2.188,0,0,0-.353-1.372,1.185,1.185,0,0,0-.982-.443,1.85,1.85,0,0,0-1.186.42,4.865,4.865,0,0,0-1.019,1.2v5.685h-.87v-5.49a2.188,2.188,0,0,0-.353-1.372,1.185,1.185,0,0,0-.982-.443,1.869,1.869,0,0,0-1.2.42,4.634,4.634,0,0,0-1,1.2v5.685h-.871V41.99h.75l.076,1.335a3.56,3.56,0,0,1,1.065-1.1,2.433,2.433,0,0,1,1.35-.4,1.935,1.935,0,0,1,1.259.413,2.05,2.05,0,0,1,.691,1.147,3.739,3.739,0,0,1,1.087-1.147,2.435,2.435,0,0,1,1.373-.413A1.854,1.854,0,0,1,162.295,42.47Z"/><path d="M170.98,48.98a.96.96,0,0,0,.5.405l-.195.615a1.54,1.54,0,0,1-.832-.405,1.62,1.62,0,0,1-.383-.915A2.678,2.678,0,0,1,167.627,50a2.433,2.433,0,0,1-1.777-.637,2.273,2.273,0,0,1-.653-1.7,2.22,2.22,0,0,1,.863-1.875,3.861,3.861,0,0,1,2.392-.66h1.5V44.36a1.543,1.543,0,0,0-1.814-1.8,6.349,6.349,0,0,0-2.13.45l-.226-.66a6.719,6.719,0,0,1,2.476-.525,2.234,2.234,0,0,1,2.564,2.49V48.1A1.846,1.846,0,0,0,170.98,48.98Zm-1.028-1.065v-2.16h-1.364a3.049,3.049,0,0,0-1.83.465,1.624,1.624,0,0,0-.631,1.4,1.685,1.685,0,0,0,.436,1.245,1.642,1.642,0,0,0,1.214.435A2.382,2.382,0,0,0,169.952,47.915Z"/><path d="M179.08,42.455a2.569,2.569,0,0,1,.563,1.77v5.61h-.87v-5.49a2.088,2.088,0,0,0-.375-1.38,1.388,1.388,0,0,0-1.111-.435,2.225,2.225,0,0,0-1.327.413,4.516,4.516,0,0,0-1.1,1.207v5.685h-.87V41.99h.75l.09,1.335a3.675,3.675,0,0,1,1.141-1.1,2.816,2.816,0,0,1,1.484-.4A2.069,2.069,0,0,1,179.08,42.455Z"/><path d="M188.342,38.8v11.04h-.75l-.105-1.2A2.584,2.584,0,0,1,185.132,50a2.515,2.515,0,0,1-2.152-1.087,4.96,4.96,0,0,1-.788-2.963,5.811,5.811,0,0,1,.368-2.145,3.275,3.275,0,0,1,1.065-1.455,2.656,2.656,0,0,1,1.643-.525,2.728,2.728,0,0,1,2.205,1.065v-4.2ZM186.535,48.92a3.3,3.3,0,0,0,.938-1.095v-4.1a2.465,2.465,0,0,0-2.056-1.185,1.958,1.958,0,0,0-1.687.885,4.242,4.242,0,0,0-.608,2.505,4.513,4.513,0,0,0,.57,2.483,1.791,1.791,0,0,0,1.576.862A2.163,2.163,0,0,0,186.535,48.92Z"/><path d="M196.555,48.98a.958.958,0,0,0,.5.405l-.2.615a1.544,1.544,0,0,1-.832-.405,1.613,1.613,0,0,1-.382-.915A2.681,2.681,0,0,1,193.2,50a2.433,2.433,0,0,1-1.777-.637,2.272,2.272,0,0,1-.652-1.7,2.222,2.222,0,0,1,.862-1.875,3.861,3.861,0,0,1,2.392-.66h1.5V44.36a1.543,1.543,0,0,0-1.814-1.8,6.349,6.349,0,0,0-2.13.45l-.226-.66a6.723,6.723,0,0,1,2.476-.525,2.235,2.235,0,0,1,2.565,2.49V48.1A1.848,1.848,0,0,0,196.555,48.98Zm-1.028-1.065v-2.16h-1.364a3.049,3.049,0,0,0-1.83.465,1.624,1.624,0,0,0-.631,1.4,1.685,1.685,0,0,0,.436,1.245,1.642,1.642,0,0,0,1.215.435A2.381,2.381,0,0,0,195.527,47.915Zm-.6-9.81.389.78-2.924,1.275-.286-.51Z"/><path d="M203.133,49.505a2.934,2.934,0,0,1-1.651.495,1.861,1.861,0,0,1-1.41-.532,2.138,2.138,0,0,1-.509-1.538V42.7h-1.321v-.7h1.321V40.115l.87-.105v1.98h2.025l-.1.7h-1.92v5.19a1.559,1.559,0,0,0,.285,1.028,1.072,1.072,0,0,0,.87.337,2.382,2.382,0,0,0,1.2-.345Z"/><path d="M218.005,42.47a2.625,2.625,0,0,1,.548,1.755v5.61h-.87v-5.49a2.188,2.188,0,0,0-.353-1.372,1.185,1.185,0,0,0-.982-.443,1.85,1.85,0,0,0-1.186.42,4.865,4.865,0,0,0-1.019,1.2v5.685h-.87v-5.49a2.188,2.188,0,0,0-.353-1.372,1.186,1.186,0,0,0-.982-.443,1.869,1.869,0,0,0-1.2.42,4.656,4.656,0,0,0-1,1.2v5.685h-.87V41.99h.75l.076,1.335a3.56,3.56,0,0,1,1.065-1.1,2.433,2.433,0,0,1,1.35-.4,1.935,1.935,0,0,1,1.259.413,2.05,2.05,0,0,1,.691,1.147,3.739,3.739,0,0,1,1.087-1.147,2.435,2.435,0,0,1,1.373-.413A1.854,1.854,0,0,1,218.005,42.47Z"/><path d="M226.69,48.98a.96.96,0,0,0,.5.405L227,50a1.54,1.54,0,0,1-.832-.405,1.62,1.62,0,0,1-.383-.915A2.678,2.678,0,0,1,223.337,50a2.433,2.433,0,0,1-1.777-.637,2.273,2.273,0,0,1-.653-1.7,2.22,2.22,0,0,1,.863-1.875,3.861,3.861,0,0,1,2.392-.66h1.5V44.36a1.543,1.543,0,0,0-1.814-1.8,6.349,6.349,0,0,0-2.13.45l-.226-.66a6.719,6.719,0,0,1,2.476-.525,2.234,2.234,0,0,1,2.564,2.49V48.1A1.846,1.846,0,0,0,226.69,48.98Zm-1.028-1.065v-2.16H224.3a3.049,3.049,0,0,0-1.83.465,1.624,1.624,0,0,0-.631,1.4,1.681,1.681,0,0,0,.436,1.245,1.642,1.642,0,0,0,1.214.435A2.382,2.382,0,0,0,225.662,47.915Zm-.6-9.81.389.78-2.925,1.275-.285-.51Z"/><path d="M238.975,42.455a2.569,2.569,0,0,1,.562,1.77v5.61h-.87v-5.49a2.088,2.088,0,0,0-.375-1.38,1.385,1.385,0,0,0-1.11-.435,2.223,2.223,0,0,0-1.327.413,4.516,4.516,0,0,0-1.1,1.207v5.685h-.87V41.99h.75l.09,1.335a3.672,3.672,0,0,1,1.14-1.1,2.822,2.822,0,0,1,1.485-.4A2.069,2.069,0,0,1,238.975,42.455Z"/><path d="M247.674,48.98a.958.958,0,0,0,.5.405l-.195.615a1.544,1.544,0,0,1-.833-.405,1.613,1.613,0,0,1-.382-.915A2.68,2.68,0,0,1,244.321,50a2.434,2.434,0,0,1-1.777-.637,2.272,2.272,0,0,1-.652-1.7,2.222,2.222,0,0,1,.862-1.875,3.863,3.863,0,0,1,2.393-.66h1.5V44.36a1.543,1.543,0,0,0-1.815-1.8,6.358,6.358,0,0,0-2.13.45l-.225-.66a6.718,6.718,0,0,1,2.475-.525,2.235,2.235,0,0,1,2.565,2.49V48.1A1.848,1.848,0,0,0,247.674,48.98Zm-1.027-1.065v-2.16h-1.365a3.051,3.051,0,0,0-1.83.465,1.624,1.624,0,0,0-.631,1.4,1.685,1.685,0,0,0,.436,1.245,1.642,1.642,0,0,0,1.215.435A2.383,2.383,0,0,0,246.647,47.915Z"/><path d="M255.736,38.69V49.835h-.87V38.8Zm4.4,3.3-3.3,3.51,3.646,4.335h-1.05l-3.6-4.29,3.3-3.555Z"/><path d="M266.994,48.98a.966.966,0,0,0,.5.405L267.3,50a1.537,1.537,0,0,1-.832-.405,1.613,1.613,0,0,1-.383-.915A2.678,2.678,0,0,1,263.642,50a2.437,2.437,0,0,1-1.778-.637,2.276,2.276,0,0,1-.652-1.7,2.222,2.222,0,0,1,.862-1.875,3.863,3.863,0,0,1,2.393-.66h1.5V44.36a1.543,1.543,0,0,0-1.815-1.8,6.348,6.348,0,0,0-2.129.45l-.226-.66a6.719,6.719,0,0,1,2.476-.525,2.235,2.235,0,0,1,2.564,2.49V48.1A1.86,1.86,0,0,0,266.994,48.98Zm-1.027-1.065v-2.16H264.6a3.047,3.047,0,0,0-1.83.465,1.624,1.624,0,0,0-.631,1.4,1.685,1.685,0,0,0,.435,1.245,1.644,1.644,0,0,0,1.215.435A2.382,2.382,0,0,0,265.967,47.915Z"/><path d="M275.094,42.455a2.569,2.569,0,0,1,.562,1.77v5.61h-.87v-5.49a2.088,2.088,0,0,0-.375-1.38,1.385,1.385,0,0,0-1.11-.435,2.223,2.223,0,0,0-1.327.413,4.516,4.516,0,0,0-1.1,1.207v5.685H270V41.99h.75l.09,1.335a3.664,3.664,0,0,1,1.141-1.1,2.816,2.816,0,0,1,1.484-.4A2.069,2.069,0,0,1,275.094,42.455Z"/><path d="M284.357,38.8v11.04h-.75l-.105-1.2A2.584,2.584,0,0,1,281.147,50a2.516,2.516,0,0,1-2.153-1.087,4.967,4.967,0,0,1-.787-2.963,5.812,5.812,0,0,1,.367-2.145,3.277,3.277,0,0,1,1.066-1.455,2.653,2.653,0,0,1,1.642-.525,2.727,2.727,0,0,1,2.205,1.065v-4.2ZM282.55,48.92a3.288,3.288,0,0,0,.937-1.095v-4.1a2.463,2.463,0,0,0-2.055-1.185,1.96,1.96,0,0,0-1.688.885,4.242,4.242,0,0,0-.607,2.505,4.5,4.5,0,0,0,.57,2.483,1.789,1.789,0,0,0,1.575.862A2.169,2.169,0,0,0,282.55,48.92Z"/><path d="M288.437,38.72a.655.655,0,0,1,0,.9.653.653,0,0,1-.481.18.631.631,0,0,1-.465-.18.655.655,0,0,1,0-.9.631.631,0,0,1,.465-.18A.653.653,0,0,1,288.437,38.72Zm-.031,3.27v7.845h-.87V41.99Z"/><path d="M297.181,38.8v11.04h-.75l-.1-1.2A2.584,2.584,0,0,1,293.971,50a2.518,2.518,0,0,1-2.153-1.087,4.967,4.967,0,0,1-.787-2.963,5.791,5.791,0,0,1,.368-2.145,3.275,3.275,0,0,1,1.065-1.455,2.656,2.656,0,0,1,1.643-.525,2.728,2.728,0,0,1,2.2,1.065v-4.2ZM295.374,48.92a3.3,3.3,0,0,0,.938-1.095v-4.1a2.466,2.466,0,0,0-2.056-1.185,1.96,1.96,0,0,0-1.688.885,4.242,4.242,0,0,0-.607,2.505,4.5,4.5,0,0,0,.57,2.483,1.791,1.791,0,0,0,1.576.862A2.165,2.165,0,0,0,295.374,48.92Z"/><path d="M305.394,48.98a.958.958,0,0,0,.5.405l-.2.615a1.544,1.544,0,0,1-.832-.405,1.62,1.62,0,0,1-.383-.915A2.678,2.678,0,0,1,302.041,50a2.433,2.433,0,0,1-1.777-.637,2.273,2.273,0,0,1-.653-1.7,2.222,2.222,0,0,1,.863-1.875,3.861,3.861,0,0,1,2.392-.66h1.5V44.36a1.543,1.543,0,0,0-1.814-1.8,6.349,6.349,0,0,0-2.13.45l-.226-.66a6.719,6.719,0,0,1,2.476-.525,2.234,2.234,0,0,1,2.564,2.49V48.1A1.846,1.846,0,0,0,305.394,48.98Zm-1.028-1.065v-2.16H303a3.049,3.049,0,0,0-1.83.465,1.624,1.624,0,0,0-.631,1.4,1.685,1.685,0,0,0,.436,1.245,1.642,1.642,0,0,0,1.214.435A2.381,2.381,0,0,0,304.366,47.915Zm-.6-9.81.389.78-2.924,1.275-.286-.51Z"/><path d="M311.972,49.505a2.934,2.934,0,0,1-1.651.495,1.861,1.861,0,0,1-1.41-.532,2.138,2.138,0,0,1-.51-1.538V42.7h-1.32v-.7h1.32V40.115l.871-.105v1.98H311.3l-.106.7h-1.919v5.19a1.559,1.559,0,0,0,.285,1.028,1.072,1.072,0,0,0,.87.337,2.382,2.382,0,0,0,1.2-.345Z"/><path d="M314.386,38.69V49.835h-.87V38.8Zm4.395,3.3-3.3,3.51,3.645,4.335h-1.05l-3.6-4.29,3.3-3.555Z"/><path d="M325.643,48.98a.958.958,0,0,0,.5.405l-.2.615a1.544,1.544,0,0,1-.832-.405,1.62,1.62,0,0,1-.383-.915A2.678,2.678,0,0,1,322.29,50a2.433,2.433,0,0,1-1.777-.637,2.273,2.273,0,0,1-.653-1.7,2.222,2.222,0,0,1,.863-1.875,3.861,3.861,0,0,1,2.392-.66h1.5V44.36a1.543,1.543,0,0,0-1.814-1.8,6.349,6.349,0,0,0-2.13.45l-.226-.66a6.719,6.719,0,0,1,2.476-.525,2.234,2.234,0,0,1,2.564,2.49V48.1A1.846,1.846,0,0,0,325.643,48.98Zm-1.028-1.065v-2.16h-1.364a3.049,3.049,0,0,0-1.83.465,1.624,1.624,0,0,0-.631,1.4,1.685,1.685,0,0,0,.436,1.245,1.642,1.642,0,0,0,1.214.435A2.381,2.381,0,0,0,324.615,47.915Zm-.6-9.81.389.78-2.924,1.275-.286-.51Z"/><path d="M332.535,42.013a3.308,3.308,0,0,1,1.021.607l-.436.57a2.806,2.806,0,0,0-.8-.465,2.729,2.729,0,0,0-.937-.15,2.118,2.118,0,0,0-1.771.863,4.078,4.078,0,0,0-.66,2.512,3.906,3.906,0,0,0,.654,2.46,2.125,2.125,0,0,0,1.761.825,2.625,2.625,0,0,0,.953-.165,3.542,3.542,0,0,0,.863-.495l.42.585a3.381,3.381,0,0,1-2.25.84,3.185,3.185,0,0,1-1.755-.48,3.136,3.136,0,0,1-1.163-1.387,5.209,5.209,0,0,1-.412-2.168,5.38,5.38,0,0,1,.412-2.182,3.312,3.312,0,0,1,1.163-1.448,3.02,3.02,0,0,1,1.74-.51A3.55,3.55,0,0,1,332.535,42.013Z"/><path d="M340.771,42.463a2.554,2.554,0,0,1,.57,1.762v5.61h-.87v-5.49q0-1.813-1.486-1.815a2.225,2.225,0,0,0-1.327.413,4.514,4.514,0,0,0-1.1,1.207v5.685h-.87V38.8l.87-.105V43.3a3.1,3.1,0,0,1,2.594-1.47A2.061,2.061,0,0,1,340.771,42.463Z"/><path d="M349.5,38.69V49.835h-.87V38.8Zm4.4,3.3-3.3,3.51,3.645,4.335h-1.05l-3.6-4.29,3.3-3.555Z"/><path d="M360.983,42.9a4.6,4.6,0,0,1,.878,2.992,4.648,4.648,0,0,1-.892,3.008,3.261,3.261,0,0,1-4.875.015,4.639,4.639,0,0,1-.878-2.993,5.415,5.415,0,0,1,.4-2.175,3.021,3.021,0,0,1,2.925-1.92A2.974,2.974,0,0,1,360.983,42.9Zm-4.208.517a4.2,4.2,0,0,0-.629,2.505,4.2,4.2,0,0,0,.623,2.49,2.051,2.051,0,0,0,1.762.855,2.093,2.093,0,0,0,1.778-.855,4.188,4.188,0,0,0,.637-2.52,4.161,4.161,0,0,0-.623-2.482,2.274,2.274,0,0,0-3.548.007Z"/><path d="M364.7,49.625a1.525,1.525,0,0,1-.368-1.11V38.8l.87-.105v9.8q0,.765.63.765a1.265,1.265,0,0,0,.54-.1l.24.645a1.985,1.985,0,0,1-.9.21A1.35,1.35,0,0,1,364.7,49.625Z"/><path d="M374.131,46.25H368.9a3.654,3.654,0,0,0,.727,2.273,2.178,2.178,0,0,0,1.718.742,2.939,2.939,0,0,0,1.088-.187,4.8,4.8,0,0,0,1.027-.593l.4.555a4.438,4.438,0,0,1-1.2.72A3.726,3.726,0,0,1,371.3,50a3.005,3.005,0,0,1-2.445-1.065,4.491,4.491,0,0,1-.885-2.955,5.746,5.746,0,0,1,.383-2.182,3.277,3.277,0,0,1,1.094-1.455,2.748,2.748,0,0,1,1.658-.518,2.7,2.7,0,0,1,2.28,1.013,4.461,4.461,0,0,1,.78,2.782C374.161,45.84,374.15,46.05,374.131,46.25Zm-.825-.9a3.423,3.423,0,0,0-.547-2.062,1.894,1.894,0,0,0-1.628-.743,1.92,1.92,0,0,0-1.575.75,3.863,3.863,0,0,0-.66,2.28h4.41Z"/><path d="M385.778,42.47a2.62,2.62,0,0,1,.548,1.755v5.61h-.87v-5.49a2.195,2.195,0,0,0-.352-1.372,1.188,1.188,0,0,0-.983-.443,1.847,1.847,0,0,0-1.185.42,4.845,4.845,0,0,0-1.02,1.2v5.685h-.87v-5.49a2.182,2.182,0,0,0-.353-1.372,1.185,1.185,0,0,0-.982-.443,1.866,1.866,0,0,0-1.2.42,4.616,4.616,0,0,0-1.005,1.2v5.685h-.87V41.99h.75l.075,1.335a3.571,3.571,0,0,1,1.065-1.1,2.437,2.437,0,0,1,1.35-.4,1.939,1.939,0,0,1,1.26.413,2.048,2.048,0,0,1,.69,1.147,3.751,3.751,0,0,1,1.087-1.147,2.435,2.435,0,0,1,1.373-.413A1.854,1.854,0,0,1,385.778,42.47Z"/><path d="M397.5,42.013a3.32,3.32,0,0,1,1.021.607l-.436.57a2.806,2.806,0,0,0-.8-.465,2.733,2.733,0,0,0-.937-.15,2.118,2.118,0,0,0-1.771.863,4.078,4.078,0,0,0-.66,2.512,3.912,3.912,0,0,0,.653,2.46,2.128,2.128,0,0,0,1.762.825,2.625,2.625,0,0,0,.953-.165,3.561,3.561,0,0,0,.863-.495l.419.585a3.377,3.377,0,0,1-2.25.84,3.183,3.183,0,0,1-1.754-.48,3.136,3.136,0,0,1-1.163-1.387,5.209,5.209,0,0,1-.413-2.168,5.379,5.379,0,0,1,.413-2.182,3.312,3.312,0,0,1,1.163-1.448,3.02,3.02,0,0,1,1.74-.51A3.554,3.554,0,0,1,397.5,42.013Zm.631-3.713.39.45-1.936,1.59h-.54L394.1,38.75l.389-.45,1.83,1.26Z"/><path d="M404.221,49.505A2.934,2.934,0,0,1,402.57,50a1.861,1.861,0,0,1-1.41-.532,2.138,2.138,0,0,1-.51-1.538V42.7h-1.32v-.7h1.32V40.115l.871-.105v1.98h2.025l-.106.7h-1.919v5.19a1.559,1.559,0,0,0,.285,1.028,1.072,1.072,0,0,0,.87.337,2.382,2.382,0,0,0,1.2-.345Z"/><line class="cls-12" x1="200.947" y1="552.273" x2="517.62" y2="318.491"/><line class="cls-13" x1="200.947" y1="423.713" x2="517.62" y2="526.521"/><path class="cls-14" d="M260.545,684.869v.962l-4.029,6.955h4.017l-.131,1.027H255.19v-.962l4.056-6.981h-3.654v-1Z"/><path class="cls-14" d="M266.629,684.206v9.607H265.59l-.078-.9a2.016,2.016,0,0,1-1.781,1.066,1.96,1.96,0,0,1-1.737-.949,4.773,4.773,0,0,1-.617-2.613,5.382,5.382,0,0,1,.307-1.9,2.856,2.856,0,0,1,.863-1.268,2.042,2.042,0,0,1,2.912.371v-3.549Zm-1.813,8.593a2.609,2.609,0,0,0,.643-.767V688.6a1.652,1.652,0,0,0-1.365-.871,1.231,1.231,0,0,0-1.092.663,3.864,3.864,0,0,0-.389,2,4.276,4.276,0,0,0,.364,2.015,1.128,1.128,0,0,0,1.027.65A1.314,1.314,0,0,0,264.816,692.8Z"/><path class="cls-14" d="M272.129,686.9l-.195,1.131a1.758,1.758,0,0,0-.534-.078,1.126,1.126,0,0,0-.929.455,3.5,3.5,0,0,0-.565,1.391v4.017h-1.17v-6.838h1.014l.092,1.352q.507-1.507,1.7-1.508A1.943,1.943,0,0,1,272.129,686.9Z"/><path class="cls-14" d="M277.328,687.729a5.116,5.116,0,0,1-.012,5.284,2.659,2.659,0,0,1-4.089.02,5.1,5.1,0,0,1,.007-5.285,2.713,2.713,0,0,1,4.094-.019Zm-3.211.656a3.906,3.906,0,0,0-.4,2.009q0,2.666,1.56,2.665t1.559-2.678a3.957,3.957,0,0,0-.389-2,1.27,1.27,0,0,0-1.158-.637A1.3,1.3,0,0,0,274.117,688.385Z"/><path class="cls-14" d="M280.916,693.54a3.774,3.774,0,0,1-.226,1.423,2.244,2.244,0,0,1-.651.9,5.59,5.59,0,0,1-1.137.683l-.365-.845a3.069,3.069,0,0,0,.7-.468,1.509,1.509,0,0,0,.377-.624,3.408,3.408,0,0,0,.129-1.04v-6.591h1.17Zm-.031-9.568a.757.757,0,0,1,.215.546.783.783,0,0,1-1.321.539.733.733,0,0,1-.214-.539.756.756,0,0,1,.214-.546.8.8,0,0,1,1.106,0Z"/><path class="cls-14" d="M290.94,684.206v9.607H289.9l-.079-.9a2.015,2.015,0,0,1-1.781,1.066,1.958,1.958,0,0,1-1.734-.949,4.756,4.756,0,0,1-.617-2.613,5.43,5.43,0,0,1,.3-1.9,2.859,2.859,0,0,1,.865-1.268,2.044,2.044,0,0,1,2.913.371v-3.549Zm-1.815,8.593a2.6,2.6,0,0,0,.645-.767V688.6a1.657,1.657,0,0,0-1.366-.871,1.226,1.226,0,0,0-1.091.663,3.851,3.851,0,0,0-.391,2,4.29,4.29,0,0,0,.363,2.015,1.132,1.132,0,0,0,1.028.65A1.308,1.308,0,0,0,289.125,692.8Z"/><path class="cls-14" d="M297.426,692.87a.725.725,0,0,0,.365.306l-.248.793a1.624,1.624,0,0,1-.793-.312,1.292,1.292,0,0,1-.4-.715,2.091,2.091,0,0,1-1.86,1.04,1.89,1.89,0,0,1-1.443-.566,2.119,2.119,0,0,1-.533-1.514,2,2,0,0,1,.717-1.664,3.2,3.2,0,0,1,2.041-.572h.882v-.585a1.5,1.5,0,0,0-.293-1.034,1.242,1.242,0,0,0-.955-.318,4.745,4.745,0,0,0-1.664.364l-.285-.819a5.653,5.653,0,0,1,2.131-.468,1.966,1.966,0,0,1,2.225,2.223v3.224A1.291,1.291,0,0,0,297.426,692.87Zm-1.274-.838V690.42H295.4q-1.691,0-1.69,1.417a1.414,1.414,0,0,0,.273.936.961.961,0,0,0,.78.325A1.516,1.516,0,0,0,296.152,692.032Z"/><path class="cls-14" d="M302.652,693.514a2.411,2.411,0,0,1-1.443.468,1.668,1.668,0,0,1-1.281-.481,1.908,1.908,0,0,1-.447-1.352v-4.29H298.5v-.884h.977V685.4l1.169-.143v1.716h1.508l-.131.884H300.65v4.277q0,.884.741.884a1.272,1.272,0,0,0,.41-.065,2.9,2.9,0,0,0,.422-.2Z"/><path class="cls-14" d="M304.621,687.735a.809.809,0,0,1,.227.579.829.829,0,0,1-.227.585.767.767,0,0,1-.592.247.752.752,0,0,1-.578-.247.835.835,0,0,1-.228-.585.814.814,0,0,1,.228-.579.763.763,0,0,1,.578-.24A.779.779,0,0,1,304.621,687.735Zm0,4.836a.809.809,0,0,1,.227.579.829.829,0,0,1-.227.585.77.77,0,0,1-.592.247.755.755,0,0,1-.578-.247.835.835,0,0,1-.228-.585.814.814,0,0,1,.228-.579.763.763,0,0,1,.578-.24A.779.779,0,0,1,304.621,692.571Z"/><path class="cls-14" d="M314.988,684.869l-2.468,8.944h-1.444l-2.51-8.944h1.249l2,7.774,1.977-7.774Z"/><path class="cls-14" d="M320.24,687.729a5.119,5.119,0,0,1-.011,5.284,2.66,2.66,0,0,1-4.09.02,5.094,5.094,0,0,1,.008-5.285,2.712,2.712,0,0,1,4.093-.019Zm-3.211.656a3.906,3.906,0,0,0-.4,2.009q0,2.666,1.561,2.665t1.558-2.678a3.957,3.957,0,0,0-.389-2,1.27,1.27,0,0,0-1.158-.637A1.3,1.3,0,0,0,317.029,688.385Z"/><path class="cls-14" d="M322.957,693.605a1.456,1.456,0,0,1-.363-1.053v-8.346l1.17-.13v8.437c0,.338.138.507.416.507a1.094,1.094,0,0,0,.377-.078l.259.819a1.836,1.836,0,0,1-.871.221A1.31,1.31,0,0,1,322.957,693.605Z"/><path class="cls-14" d="M330.7,687.722a4.919,4.919,0,0,1,.592,2.659,4.7,4.7,0,0,1-.644,2.632,2,2,0,0,1-1.748.969,1.919,1.919,0,0,1-.95-.24,2.271,2.271,0,0,1-.74-.683l-.078.754H326.09v-9.594l1.17-.13v3.718a2.5,2.5,0,0,1,.773-.735,1.924,1.924,0,0,1,1-.266A1.877,1.877,0,0,1,330.7,687.722Zm-.631,2.659a4.342,4.342,0,0,0-.351-2.048,1.1,1.1,0,0,0-1-.6,1.248,1.248,0,0,0-.8.273,3.054,3.054,0,0,0-.658.767v3.393a2.195,2.195,0,0,0,.6.65,1.3,1.3,0,0,0,.766.247Q330.07,693.059,330.068,690.381Z"/><path class="cls-14" d="M335.527,693.839a4.366,4.366,0,0,1-1.027,1.872,3.262,3.262,0,0,1-1.885.845l-.129-.871a3.177,3.177,0,0,0,.975-.351,1.756,1.756,0,0,0,.584-.572,4.73,4.73,0,0,0,.43-.949h-.43l-2.027-6.838h1.209l1.586,6.019,1.586-6.019h1.2Z"/><path class="cls-14" d="M339.135,692.571a.814.814,0,0,1,.228.579.835.835,0,0,1-.228.585.766.766,0,0,1-.59.247.758.758,0,0,1-.58-.247.843.843,0,0,1-.227-.585.821.821,0,0,1,.227-.579.766.766,0,0,1,.58-.24A.775.775,0,0,1,339.135,692.571Z"/><path class="cls-14" d="M344.238,686.988a2.912,2.912,0,0,1,.871.559l-.519.7a2.506,2.506,0,0,0-.625-.371,1.826,1.826,0,0,0-.676-.123,1.337,1.337,0,0,0-1.189.65,3.8,3.8,0,0,0-.422,2.028q0,2.574,1.611,2.574a1.722,1.722,0,0,0,.664-.124,3.131,3.131,0,0,0,.637-.37l.545.715a2.729,2.729,0,0,1-1.885.754,2.52,2.52,0,0,1-2.06-.91,4.04,4.04,0,0,1-.749-2.626,4.965,4.965,0,0,1,.346-1.937,2.828,2.828,0,0,1,.975-1.261,2.5,2.5,0,0,1,1.474-.442A2.671,2.671,0,0,1,344.238,686.988Z"/><path class="cls-14" d="M350.154,686.975v.871l-3.238,5h3.25l-.117.962h-4.42v-.871l3.238-5H345.9v-.962Z"/><path class="cls-14" d="M356.42,683.322v11.817h-1.094V683.322Z"/><path class="cls-14" d="M370.8,684.869l-2.471,8.944h-1.443l-2.508-8.944h1.248l2,7.774,1.977-7.774Z"/><path class="cls-14" d="M373.09,683.972a.774.774,0,0,1-1.1,1.085.726.726,0,0,1-.214-.539.748.748,0,0,1,.214-.546.8.8,0,0,1,1.1,0Zm.033,3v6.838h-1.17v-6.838Z"/><path class="cls-14" d="M378.961,686.975v.871l-3.238,5h3.25l-.117.962h-4.42v-.871l3.238-5h-2.965v-.962Z"/><path class="cls-14" d="M384.953,693.813H383.94l-.065-1.027a2.156,2.156,0,0,1-1.912,1.2,1.626,1.626,0,0,1-1.287-.533,2.113,2.113,0,0,1-.467-1.443v-5.031h1.17V691.9a1.383,1.383,0,0,0,.227.877.826.826,0,0,0,.683.28q.87,0,1.494-1.144v-4.94h1.17Z"/><path class="cls-14" d="M391.44,692.87a.725.725,0,0,0,.365.306l-.248.793a1.624,1.624,0,0,1-.793-.312,1.292,1.292,0,0,1-.4-.715,2.088,2.088,0,0,1-1.859,1.04,1.89,1.89,0,0,1-1.443-.566,2.116,2.116,0,0,1-.534-1.514,2,2,0,0,1,.717-1.664,3.2,3.2,0,0,1,2.041-.572h.883v-.585a1.5,1.5,0,0,0-.293-1.034,1.243,1.243,0,0,0-.955-.318,4.74,4.74,0,0,0-1.664.364l-.285-.819a5.649,5.649,0,0,1,2.131-.468,1.966,1.966,0,0,1,2.224,2.223v3.224A1.278,1.278,0,0,0,391.44,692.87Zm-1.274-.838V690.42h-.754q-1.69,0-1.689,1.417a1.414,1.414,0,0,0,.273.936.96.96,0,0,0,.779.325A1.516,1.516,0,0,0,390.166,692.032Z"/><path class="cls-14" d="M393.6,693.605a1.457,1.457,0,0,1-.364-1.053v-8.346l1.17-.13v8.437q0,.507.416.507a1.085,1.085,0,0,0,.377-.078l.26.819a1.836,1.836,0,0,1-.871.221A1.31,1.31,0,0,1,393.6,693.605Z"/><path class="cls-14" d="M397.869,683.972a.753.753,0,0,1,.215.546.782.782,0,0,1-1.32.539.73.73,0,0,1-.215-.539.753.753,0,0,1,.215-.546.8.8,0,0,1,1.105,0Zm.031,3v6.838h-1.169v-6.838Z"/><path class="cls-14" d="M403.738,686.975v.871l-3.238,5h3.25l-.117.962h-4.42v-.871l3.238-5h-2.965v-.962Z"/></svg>