<svg id="Layer_1" data-name="Layer 1" xmlns="http://www.w3.org/2000/svg" viewBox="0 0 403 391.915"><defs><style>.cls-1,.cls-2,.cls-3,.cls-4{fill:none;}.cls-1{stroke:#d9d9d9;stroke-width:0.75px;}.cls-1,.cls-4{stroke-linejoin:round;}.cls-2{stroke:#c44536;}.cls-2,.cls-3{stroke-miterlimit:10;}.cls-2,.cls-3,.cls-4{stroke-width:2px;}.cls-3{stroke:#ee9b00;}.cls-4{stroke:#4c4c61;stroke-linecap:round;}.cls-5{fill:#c44536;}.cls-6{fill:#ee9b00;}.cls-7{fill:#4c4c61;}.cls-8{fill:#595959;}.cls-9{fill:#999;}</style></defs><line class="cls-1" x1="2.414" y1="327.503" x2="399.252" y2="327.503"/><line class="cls-1" x1="2.414" y1="230.08" x2="399.252" y2="230.08"/><line class="cls-1" x1="2.414" y1="132.656" x2="399.252" y2="132.656"/><line class="cls-2" x1="71.761" y1="310.338" x2="333.784" y2="158.358"/><line class="cls-3" x1="71.761" y1="211.987" x2="333.784" y2="181.739"/><line class="cls-4" x1="71.761" y1="174.873" x2="333.784" y2="101.388"/><path class="cls-5" d="M60.319,285.624a2.436,2.436,0,0,1,1.337,2.226,3.663,3.663,0,0,1-.385,1.638,7.994,7.994,0,0,1-1.182,1.694q-.8.91-2.423,2.534h4.215l-.154,1.078H56.2v-1.022q1.877-1.945,2.66-2.849a8.037,8.037,0,0,0,1.121-1.575,3.19,3.19,0,0,0,.335-1.442,1.436,1.436,0,0,0-1.54-1.554,2.056,2.056,0,0,0-1.007.238,3.669,3.669,0,0,0-.924.784L56,286.7a3.882,3.882,0,0,1,1.274-1.064,3.466,3.466,0,0,1,1.569-.35A3.12,3.12,0,0,1,60.319,285.624Z"/><path class="cls-5" d="M68.831,286.527a8.563,8.563,0,0,1,0,7.189,2.83,2.83,0,0,1-4.69,0,8.563,8.563,0,0,1,0-7.189,2.839,2.839,0,0,1,4.69,0Zm-3.7.679a9.858,9.858,0,0,0,0,5.831,1.457,1.457,0,0,0,2.695,0,9.688,9.688,0,0,0,0-5.824,1.459,1.459,0,0,0-2.695-.007Z"/><path class="cls-5" d="M72.759,293.3a.937.937,0,0,1,.28.686,2.471,2.471,0,0,1-.253.994l-.937,2.142h-.924l.559-2.324a1.01,1.01,0,0,1-.287-.35,1.031,1.031,0,0,1-.1-.462.956.956,0,0,1,.966-.966A.954.954,0,0,1,72.759,293.3Z"/><path class="cls-5" d="M79.632,286.261a4.192,4.192,0,0,1,.77,2.667,7.718,7.718,0,0,1-.518,3.087,4.214,4.214,0,0,1-1.582,1.862,10.984,10.984,0,0,1-2.884,1.225l-.294-.966A7.118,7.118,0,0,0,78,292.694a3.338,3.338,0,0,0,1.071-2.422,2.422,2.422,0,0,1-.868.812,2.457,2.457,0,0,1-1.232.308,2.408,2.408,0,0,1-1.316-.371,2.578,2.578,0,0,1-.931-1.05,3.474,3.474,0,0,1-.343-1.589,3.245,3.245,0,0,1,.406-1.652,2.777,2.777,0,0,1,1.085-1.071,3.088,3.088,0,0,1,1.5-.371A2.705,2.705,0,0,1,79.632,286.261Zm-.532,2.961a4.357,4.357,0,0,0-.385-2.233,1.419,1.419,0,0,0-1.309-.679,1.554,1.554,0,0,0-1.274.546,2.388,2.388,0,0,0-.448,1.554,2.243,2.243,0,0,0,.419,1.477,1.412,1.412,0,0,0,1.135.5A2.192,2.192,0,0,0,79.1,289.222Z"/><path class="cls-5" d="M89.355,285.932a2.646,2.646,0,0,1,0,3.444,2.405,2.405,0,0,1-3.276,0,2.646,2.646,0,0,1,0-3.444,2.405,2.405,0,0,1,3.276,0Zm-2.519.644a2.35,2.35,0,0,0,0,2.149.94.94,0,0,0,.875.427q1.134,0,1.134-1.5a2.081,2.081,0,0,0-.252-1.071,1.123,1.123,0,0,0-1.757-.007Zm6.558-1.736.9.588-6.481,9.8-.9-.588Zm1.722,6.034a2.668,2.668,0,0,1,0,3.444,2.413,2.413,0,0,1-3.282,0,2.643,2.643,0,0,1,0-3.444,2.413,2.413,0,0,1,3.282,0Zm-2.513.651a1.993,1.993,0,0,0-.258,1.071,2.037,2.037,0,0,0,.258,1.071.941.941,0,0,0,.875.427q1.134,0,1.134-1.5a2.041,2.041,0,0,0-.252-1.064,1.135,1.135,0,0,0-1.757-.007Z"/><path class="cls-5" d="M322.958,136.2a2.441,2.441,0,0,1,1.337,2.226,3.669,3.669,0,0,1-.385,1.638,8,8,0,0,1-1.183,1.694q-.8.911-2.422,2.534h4.214l-.154,1.078h-5.53v-1.022q1.877-1.946,2.66-2.849a7.984,7.984,0,0,0,1.12-1.575,3.181,3.181,0,0,0,.336-1.442,1.438,1.438,0,0,0-1.54-1.554,2.058,2.058,0,0,0-1.008.238,3.665,3.665,0,0,0-.924.784l-.84-.672a3.862,3.862,0,0,1,1.274-1.064,3.462,3.462,0,0,1,1.568-.35A3.121,3.121,0,0,1,322.958,136.2Z"/><path class="cls-5" d="M332.3,142.861a2.4,2.4,0,0,1-.413,1.379,2.76,2.76,0,0,1-1.156.952,4.324,4.324,0,0,1-3.359.007,2.645,2.645,0,0,1-1.127-.938,2.417,2.417,0,0,1-.4-1.372,2.264,2.264,0,0,1,.468-1.456,3.485,3.485,0,0,1,1.379-.98,2.8,2.8,0,0,1-1.1-.917,2.236,2.236,0,0,1-.357-1.267,2.146,2.146,0,0,1,.4-1.3,2.491,2.491,0,0,1,1.049-.826,3.489,3.489,0,0,1,1.394-.28,3.622,3.622,0,0,1,1.379.266,2.458,2.458,0,0,1,1.056.8,2.089,2.089,0,0,1,.407,1.3,1.9,1.9,0,0,1-.392,1.2,3.451,3.451,0,0,1-1.2.91A2.668,2.668,0,0,1,332.3,142.861Zm-1.856,1.2a1.5,1.5,0,0,0,.512-1.19,1.692,1.692,0,0,0-.2-.847,1.72,1.72,0,0,0-.63-.6,6.54,6.54,0,0,0-1.218-.525l-.351-.126a2.491,2.491,0,0,0-1.036.847,2.267,2.267,0,0,0-.336,1.267,1.483,1.483,0,0,0,.5,1.2,2.056,2.056,0,0,0,1.372.427A2.02,2.02,0,0,0,330.447,144.065Zm-2.519-6.86a1.362,1.362,0,0,0-.427,1.078,1.267,1.267,0,0,0,.413,1.022,3.986,3.986,0,0,0,1.322.644l.239.084a2.771,2.771,0,0,0,.91-.77,1.714,1.714,0,0,0,.28-.994,1.38,1.38,0,0,0-.413-1.05,1.633,1.633,0,0,0-1.169-.392A1.679,1.679,0,0,0,327.928,137.205Z"/><path class="cls-5" d="M335.3,143.869a.935.935,0,0,1,.28.686,2.479,2.479,0,0,1-.253.994l-.937,2.142h-.924l.559-2.324a1.01,1.01,0,0,1-.287-.35,1.031,1.031,0,0,1-.1-.462.956.956,0,0,1,.966-.966A.951.951,0,0,1,335.3,143.869Z"/><path class="cls-5" d="M342.089,136v.966l-3.5,8.54-1.176-.392,3.374-8.064h-4.144V136Z"/><path class="cls-5" d="M350.762,136.505a2.649,2.649,0,0,1,0,3.444,2.406,2.406,0,0,1-3.277,0,2.649,2.649,0,0,1,0-3.444,2.406,2.406,0,0,1,3.277,0Zm-2.52.644a2.35,2.35,0,0,0,0,2.149.94.94,0,0,0,.875.427q1.134,0,1.134-1.5a2.081,2.081,0,0,0-.252-1.071,1.123,1.123,0,0,0-1.757-.007Zm6.559-1.736.9.588-6.481,9.8-.9-.588Zm1.721,6.034a2.668,2.668,0,0,1,0,3.444,2.185,2.185,0,0,1-1.637.644,2.21,2.21,0,0,1-1.645-.644,2.643,2.643,0,0,1,0-3.444,2.213,2.213,0,0,1,1.645-.644A2.189,2.189,0,0,1,356.522,141.447Zm-2.512.651a1.984,1.984,0,0,0-.259,1.071,2.033,2.033,0,0,0,.259,1.071.941.941,0,0,0,.875.427q1.134,0,1.133-1.5a2.041,2.041,0,0,0-.251-1.064,1.135,1.135,0,0,0-1.757-.007Z"/><path class="cls-6" d="M60.719,189.978a2.441,2.441,0,0,1,1.337,2.226,3.669,3.669,0,0,1-.385,1.638,8.065,8.065,0,0,1-1.183,1.694q-.8.909-2.423,2.534H62.28l-.154,1.078H56.6v-1.022q1.877-1.947,2.66-2.849a8.069,8.069,0,0,0,1.12-1.575,3.182,3.182,0,0,0,.336-1.443,1.437,1.437,0,0,0-1.54-1.553,2.058,2.058,0,0,0-1.008.238,3.627,3.627,0,0,0-.924.784l-.841-.672a3.863,3.863,0,0,1,1.275-1.064,3.449,3.449,0,0,1,1.568-.35A3.121,3.121,0,0,1,60.719,189.978Z"/><path class="cls-6" d="M68.859,190.79H65.205v2.758a3.256,3.256,0,0,1,1.5-.364,2.5,2.5,0,0,1,1.933.791,3.093,3.093,0,0,1,.727,2.177,3.292,3.292,0,0,1-.406,1.645,2.828,2.828,0,0,1-1.141,1.12,3.507,3.507,0,0,1-1.7.4,3.7,3.7,0,0,1-1.525-.3,4.074,4.074,0,0,1-1.246-.889l.756-.743a3.193,3.193,0,0,0,.923.666,2.57,2.57,0,0,0,1.079.217,1.813,1.813,0,0,0,1.407-.56,2.268,2.268,0,0,0,.51-1.582,2.037,2.037,0,0,0-.461-1.484,1.688,1.688,0,0,0-1.247-.463,2.721,2.721,0,0,0-.671.078,3.5,3.5,0,0,0-.659.245H63.974v-4.719h5.067Z"/><path class="cls-6" d="M72.359,197.65a.932.932,0,0,1,.281.686,2.479,2.479,0,0,1-.253.994l-.938,2.142h-.924l.56-2.324a1.008,1.008,0,0,1-.287-.35,1.021,1.021,0,0,1-.105-.462.958.958,0,0,1,.966-.966A.949.949,0,0,1,72.359,197.65Z"/><path class="cls-6" d="M79.233,190.614A4.188,4.188,0,0,1,80,193.281a7.7,7.7,0,0,1-.519,3.088,4.213,4.213,0,0,1-1.582,1.862,11.018,11.018,0,0,1-2.884,1.225l-.293-.967a7.112,7.112,0,0,0,2.876-1.441,3.342,3.342,0,0,0,1.072-2.422,2.422,2.422,0,0,1-.868.812,2.474,2.474,0,0,1-1.233.308,2.413,2.413,0,0,1-1.315-.371,2.577,2.577,0,0,1-.932-1.051,3.486,3.486,0,0,1-.343-1.588,3.23,3.23,0,0,1,.407-1.652,2.764,2.764,0,0,1,1.085-1.071,3.076,3.076,0,0,1,1.5-.371A2.7,2.7,0,0,1,79.233,190.614Zm-.532,2.962a4.343,4.343,0,0,0-.385-2.234,1.419,1.419,0,0,0-1.308-.678,1.556,1.556,0,0,0-1.275.546,2.392,2.392,0,0,0-.448,1.554,2.242,2.242,0,0,0,.42,1.476,1.407,1.407,0,0,0,1.135.5A2.194,2.194,0,0,0,78.7,193.576Z"/><path class="cls-6" d="M88.956,190.286a2.646,2.646,0,0,1,0,3.444,2.405,2.405,0,0,1-3.276,0,2.646,2.646,0,0,1,0-3.444,2.405,2.405,0,0,1,3.276,0Zm-2.52.644a2.358,2.358,0,0,0,0,2.149.941.941,0,0,0,.875.427q1.134,0,1.134-1.5a2.076,2.076,0,0,0-.252-1.071,1.121,1.121,0,0,0-1.757-.007ZM93,189.194l.9.587-6.482,9.8-.9-.588Zm1.722,6.034a2.668,2.668,0,0,1,0,3.444,2.413,2.413,0,0,1-3.282,0,2.643,2.643,0,0,1,0-3.444,2.413,2.413,0,0,1,3.282,0Zm-2.513.651a1.983,1.983,0,0,0-.259,1.07,2.034,2.034,0,0,0,.259,1.072.942.942,0,0,0,.875.426q1.134,0,1.134-1.5a2.046,2.046,0,0,0-.252-1.064,1.136,1.136,0,0,0-1.757-.006Z"/><path class="cls-6" d="M323.309,194.934a2.438,2.438,0,0,1,1.336,2.226,3.668,3.668,0,0,1-.384,1.638,8.04,8.04,0,0,1-1.183,1.694q-.8.909-2.423,2.534h4.215l-.154,1.078h-5.531v-1.022q1.876-1.947,2.661-2.849a8.069,8.069,0,0,0,1.12-1.575,3.194,3.194,0,0,0,.336-1.442,1.438,1.438,0,0,0-1.54-1.554,2.058,2.058,0,0,0-1.008.238,3.648,3.648,0,0,0-.924.784l-.841-.672a3.863,3.863,0,0,1,1.275-1.064,3.459,3.459,0,0,1,1.568-.35A3.121,3.121,0,0,1,323.309,194.934Z"/><path class="cls-6" d="M331.365,194.738v.966l-3.5,8.54-1.176-.392,3.374-8.064h-4.144v-1.05Z"/><path class="cls-6" d="M334.151,202.606a.932.932,0,0,1,.281.686,2.479,2.479,0,0,1-.253.994l-.938,2.142h-.924l.56-2.324a1.008,1.008,0,0,1-.287-.35,1.021,1.021,0,0,1-.1-.462.958.958,0,0,1,.966-.966A.949.949,0,0,1,334.151,202.606Z"/><path class="cls-6" d="M341.025,195.746h-3.654V198.5a3.256,3.256,0,0,1,1.5-.364,2.5,2.5,0,0,1,1.933.791,3.093,3.093,0,0,1,.727,2.177,3.292,3.292,0,0,1-.406,1.645,2.828,2.828,0,0,1-1.141,1.12,3.507,3.507,0,0,1-1.7.4,3.7,3.7,0,0,1-1.525-.3,4.074,4.074,0,0,1-1.246-.889l.756-.742a3.208,3.208,0,0,0,.923.665,2.57,2.57,0,0,0,1.079.217,1.813,1.813,0,0,0,1.407-.56,2.268,2.268,0,0,0,.51-1.582,2.039,2.039,0,0,0-.461-1.484,1.688,1.688,0,0,0-1.247-.463,2.721,2.721,0,0,0-.671.078,3.5,3.5,0,0,0-.659.245H336.14v-4.718h5.067Z"/><path class="cls-6" d="M350.412,195.242a2.646,2.646,0,0,1,0,3.444,2.405,2.405,0,0,1-3.276,0,2.646,2.646,0,0,1,0-3.444,2.405,2.405,0,0,1,3.276,0Zm-2.519.644a2.35,2.35,0,0,0,0,2.149.937.937,0,0,0,.875.427q1.133,0,1.133-1.5a2.076,2.076,0,0,0-.252-1.071,1.122,1.122,0,0,0-1.756-.007Zm6.558-1.736.9.588-6.482,9.8-.9-.588Zm1.722,6.034a2.668,2.668,0,0,1,0,3.444,2.413,2.413,0,0,1-3.282,0,2.643,2.643,0,0,1,0-3.444,2.413,2.413,0,0,1,3.282,0Zm-2.513.651a1.983,1.983,0,0,0-.259,1.07,2.034,2.034,0,0,0,.259,1.072.943.943,0,0,0,.875.427q1.134,0,1.134-1.5a2.04,2.04,0,0,0-.252-1.063,1.135,1.135,0,0,0-1.757-.007Z"/><path class="cls-7" d="M60.935,153.136a2.436,2.436,0,0,1,1.337,2.227A3.674,3.674,0,0,1,61.888,157a8.043,8.043,0,0,1-1.183,1.695q-.8.909-2.423,2.533H62.5l-.154,1.078H56.812v-1.022q1.877-1.945,2.661-2.849a8.1,8.1,0,0,0,1.12-1.574,3.2,3.2,0,0,0,.336-1.443,1.439,1.439,0,0,0-1.54-1.554,2.069,2.069,0,0,0-1.008.238,3.669,3.669,0,0,0-.924.784l-.841-.671a3.851,3.851,0,0,1,1.275-1.064,3.446,3.446,0,0,1,1.568-.351A3.117,3.117,0,0,1,60.935,153.136Z"/><path class="cls-7" d="M68.992,152.94v.966l-3.5,8.54-1.176-.392,3.374-8.064H63.546v-1.05Z"/><path class="cls-7" d="M71.778,160.808a.934.934,0,0,1,.281.686,2.471,2.471,0,0,1-.253.994l-.938,2.143h-.924l.56-2.325a1,1,0,0,1-.287-.35,1.018,1.018,0,0,1-.105-.462.956.956,0,0,1,.966-.965A.952.952,0,0,1,71.778,160.808Z"/><path class="cls-7" d="M79.856,159.8a2.393,2.393,0,0,1-.413,1.379,2.752,2.752,0,0,1-1.155.953,4.33,4.33,0,0,1-3.359.006A2.626,2.626,0,0,1,73.8,161.2a2.418,2.418,0,0,1-.4-1.372,2.266,2.266,0,0,1,.469-1.456,3.487,3.487,0,0,1,1.379-.98,2.807,2.807,0,0,1-1.1-.917,2.238,2.238,0,0,1-.356-1.267,2.152,2.152,0,0,1,.4-1.3,2.5,2.5,0,0,1,1.05-.826,3.506,3.506,0,0,1,1.394-.28,3.622,3.622,0,0,1,1.379.266,2.466,2.466,0,0,1,1.056.805,2.09,2.09,0,0,1,.406,1.295,1.9,1.9,0,0,1-.391,1.2,3.451,3.451,0,0,1-1.2.91A2.668,2.668,0,0,1,79.856,159.8ZM78,161.005a1.506,1.506,0,0,0,.512-1.191,1.682,1.682,0,0,0-.2-.847,1.713,1.713,0,0,0-.63-.6,6.6,6.6,0,0,0-1.217-.524l-.351-.126a2.483,2.483,0,0,0-1.036.846,2.259,2.259,0,0,0-.336,1.267,1.485,1.485,0,0,0,.5,1.2,2.061,2.061,0,0,0,1.372.426A2.019,2.019,0,0,0,78,161.005Zm-2.52-6.861a1.363,1.363,0,0,0-.426,1.078,1.262,1.262,0,0,0,.413,1.022,3.947,3.947,0,0,0,1.322.644l.238.084a2.739,2.739,0,0,0,.91-.77,1.7,1.7,0,0,0,.281-.994,1.383,1.383,0,0,0-.413-1.05,1.634,1.634,0,0,0-1.169-.392A1.682,1.682,0,0,0,75.481,154.144Z"/><path class="cls-7" d="M88.739,153.445a2.645,2.645,0,0,1,0,3.443,2.405,2.405,0,0,1-3.276,0,2.645,2.645,0,0,1,0-3.443,2.4,2.4,0,0,1,3.276,0Zm-2.519.644a2.35,2.35,0,0,0,0,2.149.941.941,0,0,0,.875.426q1.134,0,1.133-1.5a2.091,2.091,0,0,0-.251-1.071,1.122,1.122,0,0,0-1.757-.006Zm6.558-1.737.9.588-6.482,9.8-.9-.587Zm1.722,6.034a2.668,2.668,0,0,1,0,3.444,2.413,2.413,0,0,1-3.282,0,2.643,2.643,0,0,1,0-3.444,2.413,2.413,0,0,1,3.282,0Zm-2.513.651a1.989,1.989,0,0,0-.259,1.071,2.028,2.028,0,0,0,.259,1.071.941.941,0,0,0,.875.427q1.134,0,1.134-1.5a2.041,2.041,0,0,0-.252-1.064,1.135,1.135,0,0,0-1.757-.007Z"/><path class="cls-7" d="M323.1,79.566a2.318,2.318,0,0,1,.953.868,2.267,2.267,0,0,1,.329,1.19,2.024,2.024,0,0,1-.5,1.406,2.488,2.488,0,0,1-1.324.749,2.388,2.388,0,0,1,1.527.673,2.161,2.161,0,0,1,.588,1.6,2.822,2.822,0,0,1-.392,1.47,2.692,2.692,0,0,1-1.12,1.029,3.656,3.656,0,0,1-1.68.371,3.839,3.839,0,0,1-1.568-.315,3.426,3.426,0,0,1-1.246-.945l.77-.714a3.238,3.238,0,0,0,.945.7,2.485,2.485,0,0,0,1.057.224,1.89,1.89,0,0,0,1.386-.5,1.792,1.792,0,0,0,.5-1.337,1.573,1.573,0,0,0-.476-1.3,2.192,2.192,0,0,0-1.386-.378h-.7l.155-.994h.476a1.742,1.742,0,0,0,1.211-.435,1.553,1.553,0,0,0,.483-1.217,1.345,1.345,0,0,0-.42-1.043,1.616,1.616,0,0,0-1.134-.386,2.5,2.5,0,0,0-1,.2,3.275,3.275,0,0,0-.931.644l-.673-.77a3.834,3.834,0,0,1,2.675-1.106A3.2,3.2,0,0,1,323.1,79.566Z"/><path class="cls-7" d="M329.973,79.383V88.75h-1.288V80.756l-2.185,1.33-.56-.911,2.9-1.792Z"/><path class="cls-7" d="M333.878,87.252a.935.935,0,0,1,.28.686,2.479,2.479,0,0,1-.253.994l-.937,2.142h-.924l.559-2.324a1.019,1.019,0,0,1-.287-.35,1.034,1.034,0,0,1-.1-.462.956.956,0,0,1,.966-.966A.951.951,0,0,1,333.878,87.252Z"/><path class="cls-7" d="M340.486,82.925a2.413,2.413,0,0,1,.938,1.009,3.514,3.514,0,0,1,.35,1.637,3.738,3.738,0,0,1-.4,1.758,2.921,2.921,0,0,1-1.078,1.176,2.84,2.84,0,0,1-1.505.413,2.615,2.615,0,0,1-2.394-1.211,6.316,6.316,0,0,1-.756-3.353,7.707,7.707,0,0,1,.427-2.681,3.992,3.992,0,0,1,1.225-1.792,2.936,2.936,0,0,1,1.89-.637,3.426,3.426,0,0,1,1.932.574l-.5.854a2.693,2.693,0,0,0-1.442-.406,1.8,1.8,0,0,0-1.6.966,5.308,5.308,0,0,0-.644,2.589,2.649,2.649,0,0,1,2.254-1.231A2.587,2.587,0,0,1,340.486,82.925Zm-.448,4.354a2.843,2.843,0,0,0,.434-1.666q0-2-1.512-2a2.008,2.008,0,0,0-1.134.343,2.9,2.9,0,0,0-.882.945,4.771,4.771,0,0,0,.483,2.268,1.484,1.484,0,0,0,1.365.728A1.429,1.429,0,0,0,340.038,87.279Z"/><path class="cls-7" d="M350.587,79.888a2.646,2.646,0,0,1,0,3.444,2.406,2.406,0,0,1-3.277,0,2.649,2.649,0,0,1,0-3.444,2.406,2.406,0,0,1,3.277,0Zm-2.52.644a2.358,2.358,0,0,0,0,2.149.94.94,0,0,0,.875.427q1.134,0,1.134-1.5a2.076,2.076,0,0,0-.252-1.071,1.123,1.123,0,0,0-1.757-.007Zm6.559-1.736.9.587-6.481,9.8-.9-.588Zm1.722,6.034a2.672,2.672,0,0,1,0,3.444,2.191,2.191,0,0,1-1.638.644,2.213,2.213,0,0,1-1.645-.644,2.646,2.646,0,0,1,0-3.444,2.213,2.213,0,0,1,1.645-.644A2.191,2.191,0,0,1,356.348,84.83Zm-2.513.651a1.983,1.983,0,0,0-.259,1.07,2.034,2.034,0,0,0,.259,1.072.943.943,0,0,0,.875.427q1.134,0,1.134-1.5a2.04,2.04,0,0,0-.252-1.063,1.135,1.135,0,0,0-1.757-.007Z"/><path class="cls-8" d="M7.81,313.387a2.269,2.269,0,0,1,1.241,2.068,3.4,3.4,0,0,1-.358,1.521,7.4,7.4,0,0,1-1.1,1.573q-.741.845-2.249,2.353H9.259l-.144,1H3.98v-.949q1.743-1.806,2.47-2.646a7.412,7.412,0,0,0,1.04-1.463,2.952,2.952,0,0,0,.313-1.338,1.334,1.334,0,0,0-1.43-1.443,1.914,1.914,0,0,0-.937.221,3.433,3.433,0,0,0-.857.727l-.78-.624a3.6,3.6,0,0,1,1.182-.987,3.209,3.209,0,0,1,1.456-.325A2.9,2.9,0,0,1,7.81,313.387Z"/><path class="cls-8" d="M15.713,314.226a7.957,7.957,0,0,1,0,6.676,2.413,2.413,0,0,1-2.178,1.156,2.414,2.414,0,0,1-2.178-1.156,7.957,7.957,0,0,1,0-6.676,2.421,2.421,0,0,1,2.178-1.15A2.42,2.42,0,0,1,15.713,314.226Zm-3.433.631a9.163,9.163,0,0,0,0,5.414,1.353,1.353,0,0,0,2.5,0,9,9,0,0,0,0-5.408,1.355,1.355,0,0,0-2.5-.006Z"/><path class="cls-8" d="M24.826,313.674a2.459,2.459,0,0,1,0,3.2,2.236,2.236,0,0,1-3.042,0,2.455,2.455,0,0,1,0-3.2,2.233,2.233,0,0,1,3.042,0Zm-2.34.6a2.185,2.185,0,0,0,0,2,.873.873,0,0,0,.813.4q1.052,0,1.053-1.391a1.936,1.936,0,0,0-.235-1,1.043,1.043,0,0,0-1.631-.006Zm6.09-1.612.832.546-6.018,9.1-.832-.546Zm1.6,5.6a2.479,2.479,0,0,1,0,3.2,2.245,2.245,0,0,1-3.049,0,2.457,2.457,0,0,1,0-3.2,2.245,2.245,0,0,1,3.049,0Zm-2.334.605a1.853,1.853,0,0,0-.24,1,1.891,1.891,0,0,0,.24.994.872.872,0,0,0,.812.4q1.053,0,1.053-1.391a1.894,1.894,0,0,0-.233-.988,1.055,1.055,0,0,0-1.632-.007Z"/><path class="cls-8" d="M7.81,215.976a2.269,2.269,0,0,1,1.241,2.068,3.4,3.4,0,0,1-.358,1.521,7.4,7.4,0,0,1-1.1,1.572q-.741.846-2.249,2.354H9.259l-.144,1H3.98v-.949q1.743-1.806,2.47-2.646a7.412,7.412,0,0,0,1.04-1.463A2.953,2.953,0,0,0,7.8,218.1a1.334,1.334,0,0,0-1.43-1.442,1.914,1.914,0,0,0-.937.221,3.412,3.412,0,0,0-.857.727l-.78-.624a3.6,3.6,0,0,1,1.182-.987,3.209,3.209,0,0,1,1.456-.325A2.9,2.9,0,0,1,7.81,215.976Z"/><path class="cls-8" d="M15.368,216.73H11.976v2.562a3.009,3.009,0,0,1,1.39-.338,2.324,2.324,0,0,1,1.794.734,2.873,2.873,0,0,1,.676,2.022,3.049,3.049,0,0,1-.377,1.527,2.633,2.633,0,0,1-1.06,1.04,3.257,3.257,0,0,1-1.579.37,3.436,3.436,0,0,1-1.417-.279,3.775,3.775,0,0,1-1.157-.825l.7-.69a2.941,2.941,0,0,0,.859.618,2.389,2.389,0,0,0,1,.2,1.677,1.677,0,0,0,1.3-.52,2.1,2.1,0,0,0,.475-1.47,1.891,1.891,0,0,0-.429-1.378A1.563,1.563,0,0,0,13,219.877a2.6,2.6,0,0,0-.624.071,3.271,3.271,0,0,0-.61.227h-.937V215.8h4.706Z"/><path class="cls-8" d="M24.085,216.262a2.46,2.46,0,0,1,0,3.2,2.236,2.236,0,0,1-3.042,0,2.457,2.457,0,0,1,0-3.2,2.236,2.236,0,0,1,3.042,0Zm-2.34.6a2.185,2.185,0,0,0,0,2,.873.873,0,0,0,.813.4q1.052,0,1.052-1.391a1.936,1.936,0,0,0-.234-1,1.041,1.041,0,0,0-1.631-.006Zm6.09-1.612.832.546-6.019,9.1-.832-.546Zm1.6,5.6a2.482,2.482,0,0,1,0,3.2,2.245,2.245,0,0,1-3.049,0,2.457,2.457,0,0,1,0-3.2,2.245,2.245,0,0,1,3.049,0Zm-2.334.6a1.844,1.844,0,0,0-.241,1,1.881,1.881,0,0,0,.241.994.872.872,0,0,0,.812.4q1.053,0,1.053-1.391a1.882,1.882,0,0,0-.234-.988,1.054,1.054,0,0,0-1.631-.007Z"/><path class="cls-8" d="M7.783,118.552a2.158,2.158,0,0,1,.884.806,2.1,2.1,0,0,1,.306,1.106,1.885,1.885,0,0,1-.462,1.306,2.329,2.329,0,0,1-1.229.7,2.2,2.2,0,0,1,1.417.624,2,2,0,0,1,.547,1.482,2.62,2.62,0,0,1-.364,1.364,2.5,2.5,0,0,1-1.04.956,3.389,3.389,0,0,1-1.561.344,3.573,3.573,0,0,1-1.456-.292,3.179,3.179,0,0,1-1.156-.878l.715-.662a3,3,0,0,0,.877.649,2.3,2.3,0,0,0,.981.208,1.749,1.749,0,0,0,1.287-.461A1.66,1.66,0,0,0,8,124.558a1.46,1.46,0,0,0-.442-1.209A2.042,2.042,0,0,0,6.268,123h-.65l.144-.923H6.2a1.623,1.623,0,0,0,1.124-.4,1.443,1.443,0,0,0,.448-1.131,1.252,1.252,0,0,0-.389-.969,1.5,1.5,0,0,0-1.053-.357,2.331,2.331,0,0,0-.93.181,3.044,3.044,0,0,0-.864.6l-.624-.715A3.551,3.551,0,0,1,6.4,118.254,2.99,2.99,0,0,1,7.783,118.552Z"/><path class="cls-8" d="M15.766,119.4a7.957,7.957,0,0,1,0,6.676,2.416,2.416,0,0,1-2.178,1.156,2.415,2.415,0,0,1-2.178-1.156,7.957,7.957,0,0,1,0-6.676,2.418,2.418,0,0,1,2.178-1.15A2.419,2.419,0,0,1,15.766,119.4Zm-3.433.631a9.163,9.163,0,0,0,0,5.414,1.353,1.353,0,0,0,2.5,0,9,9,0,0,0,0-5.408,1.355,1.355,0,0,0-2.5-.006Z"/><path class="cls-8" d="M24.878,118.851a2.46,2.46,0,0,1,0,3.2,2.236,2.236,0,0,1-3.042,0,2.457,2.457,0,0,1,0-3.2,2.236,2.236,0,0,1,3.042,0Zm-2.34.6a2.185,2.185,0,0,0,0,1.995.873.873,0,0,0,.813.4q1.052,0,1.052-1.391a1.931,1.931,0,0,0-.234-.995,1.041,1.041,0,0,0-1.631-.006Zm6.09-1.612.832.545-6.019,9.1-.832-.546Zm1.6,5.6a2.478,2.478,0,0,1,0,3.2,2.241,2.241,0,0,1-3.048,0,2.455,2.455,0,0,1,0-3.2,2.241,2.241,0,0,1,3.048,0Zm-2.334.605a1.851,1.851,0,0,0-.24,1,1.891,1.891,0,0,0,.24.994.874.874,0,0,0,.813.4q1.053,0,1.053-1.39a1.888,1.888,0,0,0-.234-.989.877.877,0,0,0-.819-.389A.887.887,0,0,0,27.893,124.045Z"/><path class="cls-8" d="M63.442,342.728a2.965,2.965,0,0,1,1.241,1.1,2.914,2.914,0,0,1,.423,1.544,4,4,0,0,1-.376,1.7,7.924,7.924,0,0,1-1.28,1.841q-.9,1.023-2.632,2.64h4.529l-.256,1.76H58.227v-1.648q2.015-2.016,2.912-3.008a9.186,9.186,0,0,0,1.263-1.68,2.957,2.957,0,0,0,.368-1.408,1.467,1.467,0,0,0-.4-1.088,1.447,1.447,0,0,0-1.071-.4,2.1,2.1,0,0,0-1.057.264,3.773,3.773,0,0,0-.975.872l-1.361-1.088a4.58,4.58,0,0,1,5.536-1.4Z"/><path class="cls-8" d="M73.506,343.768a9.106,9.106,0,0,1-.008,8.344,3.712,3.712,0,0,1-5.9,0,9.138,9.138,0,0,1,0-8.344,3.733,3.733,0,0,1,5.9,0Zm-3.888.624a2.5,2.5,0,0,0-.52,1.232,15.993,15.993,0,0,0,0,4.624,2.505,2.505,0,0,0,.52,1.232,1.21,1.21,0,0,0,.928.376,1.227,1.227,0,0,0,.928-.368A2.5,2.5,0,0,0,72,350.264a15.59,15.59,0,0,0,0-4.672,2.444,2.444,0,0,0-.528-1.216,1.24,1.24,0,0,0-.928-.36A1.21,1.21,0,0,0,69.618,344.392Z"/><path class="cls-8" d="M82.77,343.768a9.11,9.11,0,0,1-.007,8.344,3.713,3.713,0,0,1-5.9,0,9.138,9.138,0,0,1,0-8.344,3.733,3.733,0,0,1,5.9,0Zm-3.887.624a2.5,2.5,0,0,0-.521,1.232,15.993,15.993,0,0,0,0,4.624,2.505,2.505,0,0,0,.521,1.232,1.209,1.209,0,0,0,.927.376,1.225,1.225,0,0,0,.928-.368,2.5,2.5,0,0,0,.529-1.224,15.678,15.678,0,0,0,0-4.672,2.444,2.444,0,0,0-.529-1.216,1.238,1.238,0,0,0-.928-.36A1.209,1.209,0,0,0,78.883,344.392Z"/><path class="cls-8" d="M91.4,346.512a2.877,2.877,0,0,1,1.1,1.208,4.2,4.2,0,0,1,.4,1.912,4.268,4.268,0,0,1-.472,2.016,3.5,3.5,0,0,1-1.336,1.408,3.82,3.82,0,0,1-1.984.512,3.426,3.426,0,0,1-3.007-1.384,6.55,6.55,0,0,1-.977-3.832,8.476,8.476,0,0,1,.552-3.177,4.707,4.707,0,0,1,1.576-2.111,4,4,0,0,1,2.416-.744,4.151,4.151,0,0,1,2.4.688l-.832,1.392a2.969,2.969,0,0,0-1.52-.433,1.828,1.828,0,0,0-1.568.849,4.532,4.532,0,0,0-.671,2.384,3.105,3.105,0,0,1,3.927-.688Zm-1.168,4.8a3.072,3.072,0,0,0,.376-1.648,2.57,2.57,0,0,0-.343-1.512,1.214,1.214,0,0,0-1.033-.456,2.235,2.235,0,0,0-1.759.992,6.131,6.131,0,0,0,.407,2.472,1.287,1.287,0,0,0,1.24.744A1.236,1.236,0,0,0,90.234,351.312Z"/><path class="cls-8" d="M325.39,342.728a2.956,2.956,0,0,1,1.24,1.1,2.914,2.914,0,0,1,.424,1.544,4,4,0,0,1-.376,1.7,7.932,7.932,0,0,1-1.281,1.841q-.9,1.023-2.631,2.64h4.528l-.256,1.76h-6.864v-1.648q2.016-2.016,2.912-3.008a9.2,9.2,0,0,0,1.264-1.68,2.957,2.957,0,0,0,.368-1.408,1.468,1.468,0,0,0-.4-1.088,1.446,1.446,0,0,0-1.071-.4,2.1,2.1,0,0,0-1.057.264,3.789,3.789,0,0,0-.975.872l-1.361-1.088a4.581,4.581,0,0,1,5.537-1.4Z"/><path class="cls-8" d="M335.453,343.768a9.106,9.106,0,0,1-.008,8.344,3.712,3.712,0,0,1-5.9,0,9.138,9.138,0,0,1,0-8.344,3.733,3.733,0,0,1,5.9,0Zm-3.888.624a2.5,2.5,0,0,0-.52,1.232,15.993,15.993,0,0,0,0,4.624,2.505,2.505,0,0,0,.52,1.232,1.211,1.211,0,0,0,.928.376,1.227,1.227,0,0,0,.928-.368,2.5,2.5,0,0,0,.528-1.224,15.59,15.59,0,0,0,0-4.672,2.444,2.444,0,0,0-.528-1.216,1.24,1.24,0,0,0-.928-.36A1.211,1.211,0,0,0,331.565,344.392Z"/><path class="cls-8" d="M342.846,342.728a2.956,2.956,0,0,1,1.24,1.1,2.914,2.914,0,0,1,.424,1.544,4,4,0,0,1-.376,1.7,7.932,7.932,0,0,1-1.281,1.841q-.9,1.023-2.631,2.64h4.528l-.256,1.76H337.63v-1.648q2.016-2.016,2.912-3.008a9.2,9.2,0,0,0,1.264-1.68,2.957,2.957,0,0,0,.368-1.408,1.468,1.468,0,0,0-.4-1.088,1.446,1.446,0,0,0-1.071-.4,2.1,2.1,0,0,0-1.057.264,3.789,3.789,0,0,0-.975.872l-1.36-1.088a4.58,4.58,0,0,1,5.536-1.4Z"/><path class="cls-8" d="M351.2,342.528v10.784h-2.223v-8.544l-2.369,1.456-.992-1.536,3.584-2.16Z"/><path class="cls-6" d="M166.5,179.772v9.422h-1.764v-7.616l-2.1,1.274-.784-1.2,3.065-1.876Z"/><path class="cls-6" d="M170.306,187.465a1.122,1.122,0,0,1,0,1.6,1.107,1.107,0,0,1-.812.336,1.067,1.067,0,0,1-.791-.336,1.15,1.15,0,0,1-.007-1.6,1.074,1.074,0,0,1,.8-.329A1.12,1.12,0,0,1,170.306,187.465Z"/><path class="cls-6" d="M171.553,184.9v-1.428H178.1V184.9Z"/><path class="cls-6" d="M183.333,179.926a2.359,2.359,0,0,1,1.021.868,2.216,2.216,0,0,1,.344,1.2,2.1,2.1,0,0,1-.49,1.421,2.588,2.588,0,0,1-1.344.791,2.437,2.437,0,0,1,1.539.672,2.165,2.165,0,0,1,.6,1.624,2.71,2.71,0,0,1-.413,1.47,2.88,2.88,0,0,1-1.183,1.043,4.023,4.023,0,0,1-1.82.385,3.746,3.746,0,0,1-3.052-1.358l.994-.952a3.417,3.417,0,0,0,.938.693,2.364,2.364,0,0,0,1.022.217,1.7,1.7,0,0,0,1.211-.427,1.509,1.509,0,0,0,.455-1.155,1.418,1.418,0,0,0-.428-1.162,1.962,1.962,0,0,0-1.266-.35h-.742l.21-1.274h.5a1.565,1.565,0,0,0,1.1-.378,1.353,1.353,0,0,0,.413-1.05,1.136,1.136,0,0,0-.379-.9,1.483,1.483,0,0,0-1.008-.329,2.39,2.39,0,0,0-.994.2,3.365,3.365,0,0,0-.9.623l-.91-.994a4.172,4.172,0,0,1,2.954-1.2A3.755,3.755,0,0,1,183.333,179.926Z"/><path class="cls-6" d="M188.086,187.465a1.122,1.122,0,0,1,0,1.6,1.105,1.105,0,0,1-.812.336,1.068,1.068,0,0,1-.791-.336,1.148,1.148,0,0,1-.006-1.6,1.07,1.07,0,0,1,.8-.329A1.118,1.118,0,0,1,188.086,187.465Z"/><path class="cls-6" d="M199.454,182.6a5.208,5.208,0,0,1,.672,2.87,5.623,5.623,0,0,1-.343,2.037,3.093,3.093,0,0,1-1.009,1.393,2.529,2.529,0,0,1-1.574.5,2.311,2.311,0,0,1-1.862-.812v3.458l-1.792.2V181.788h1.568l.1.91a2.9,2.9,0,0,1,.994-.84,2.6,2.6,0,0,1,1.176-.28A2.307,2.307,0,0,1,199.454,182.6Zm-1.2,2.884a4.082,4.082,0,0,0-.351-1.96,1.138,1.138,0,0,0-1.049-.6,1.439,1.439,0,0,0-.84.273,2.367,2.367,0,0,0-.672.735v3.332a1.571,1.571,0,0,0,1.357.77Q198.249,188.032,198.25,185.484Z"/><path class="cls-6" d="M207.469,182.621a4.19,4.19,0,0,1,.917,2.863,4.761,4.761,0,0,1-.42,2.051,3.194,3.194,0,0,1-1.2,1.379,3.453,3.453,0,0,1-1.863.49,3.244,3.244,0,0,1-2.561-1.043,4.187,4.187,0,0,1-.925-2.877,4.706,4.706,0,0,1,.421-2.044,3.179,3.179,0,0,1,1.211-1.372,3.467,3.467,0,0,1,1.868-.49A3.226,3.226,0,0,1,207.469,182.621Zm-4.165,2.863a3.677,3.677,0,0,0,.4,1.939,1.458,1.458,0,0,0,2.4-.007,3.7,3.7,0,0,0,.4-1.932,3.655,3.655,0,0,0-.4-1.925,1.317,1.317,0,0,0-1.184-.623Q203.3,182.936,203.3,185.484Z"/><path class="cls-6" d="M214.881,181.788v1.288l-3.584,4.718h3.654l-.182,1.4h-5.53v-1.288l3.6-4.718h-3.29v-1.4Z"/><path class="cls-6" d="M218.053,178.351a1.055,1.055,0,0,1,.314.777,1.031,1.031,0,0,1-.314.77,1.125,1.125,0,0,1-.82.308,1.1,1.1,0,0,1-.8-.308,1.033,1.033,0,0,1-.316-.77,1.057,1.057,0,0,1,.316-.777,1.087,1.087,0,0,1,.8-.315A1.11,1.11,0,0,1,218.053,178.351Zm.09,3.437v7.406h-1.791v-7.406Z"/><path class="cls-6" d="M224.591,181.788a3.5,3.5,0,0,1,1.1.658l-.8,1.078a2.923,2.923,0,0,0-.728-.406,2.259,2.259,0,0,0-.771-.126q-1.665,0-1.666,2.534a3.086,3.086,0,0,0,.435,1.855,1.458,1.458,0,0,0,1.231.567,2,2,0,0,0,.721-.126,4.65,4.65,0,0,0,.778-.406l.8,1.134a3.691,3.691,0,0,1-2.393.854,3.534,3.534,0,0,1-1.849-.469,3.074,3.074,0,0,1-1.2-1.337,4.647,4.647,0,0,1-.421-2.044,4.879,4.879,0,0,1,.421-2.079,3.213,3.213,0,0,1,1.2-1.4,3.36,3.36,0,0,1,1.834-.5A3.838,3.838,0,0,1,224.591,181.788Z"/><path class="cls-6" d="M233.025,186.044h-4.648a2.352,2.352,0,0,0,.56,1.54,1.731,1.731,0,0,0,1.26.462,2.644,2.644,0,0,0,.924-.161,4.29,4.29,0,0,0,.924-.5l.742,1.022a4.261,4.261,0,0,1-2.744.994,3.3,3.3,0,0,1-2.611-1.036,4.112,4.112,0,0,1-.917-2.828,5.056,5.056,0,0,1,.392-2.037,3.23,3.23,0,0,1,1.134-1.414,3.377,3.377,0,0,1,4.172.476,4.072,4.072,0,0,1,.854,2.751Q233.067,185.455,233.025,186.044Zm-1.736-1.246q0-1.945-1.442-1.946a1.224,1.224,0,0,0-1.029.483,2.877,2.877,0,0,0-.441,1.547h2.912Z"/><path class="cls-7" d="M152.306,110.432a3.466,3.466,0,0,1,1.1.658l-.8,1.078a2.893,2.893,0,0,0-.727-.407,2.263,2.263,0,0,0-.771-.126q-1.665,0-1.666,2.535a3.086,3.086,0,0,0,.435,1.855,1.458,1.458,0,0,0,1.231.567,2,2,0,0,0,.721-.126,4.683,4.683,0,0,0,.777-.406l.8,1.134a3.691,3.691,0,0,1-2.393.854,3.541,3.541,0,0,1-1.849-.469,3.071,3.071,0,0,1-1.2-1.338,4.641,4.641,0,0,1-.421-2.044,4.882,4.882,0,0,1,.421-2.079,3.225,3.225,0,0,1,1.2-1.4,3.358,3.358,0,0,1,1.834-.5A3.842,3.842,0,0,1,152.306,110.432Z"/><path class="cls-7" d="M160.741,114.688h-4.648a2.349,2.349,0,0,0,.56,1.54,1.731,1.731,0,0,0,1.26.462,2.644,2.644,0,0,0,.924-.161,4.254,4.254,0,0,0,.924-.5l.742,1.022a4.256,4.256,0,0,1-2.744,1,3.306,3.306,0,0,1-2.612-1.037,4.113,4.113,0,0,1-.917-2.827,5.052,5.052,0,0,1,.393-2.037,3.224,3.224,0,0,1,1.134-1.414,3.373,3.373,0,0,1,4.172.476,4.069,4.069,0,0,1,.854,2.751C160.783,114.053,160.768,114.3,160.741,114.688Zm-1.736-1.246q0-1.947-1.443-1.946a1.221,1.221,0,0,0-1.028.483,2.874,2.874,0,0,0-.441,1.547h2.912Z"/><path class="cls-7" d="M162.806,117.55a1.93,1.93,0,0,1-.484-1.406v-8.68l1.792-.2v8.82c0,.345.141.518.42.518a1.335,1.335,0,0,0,.42-.07l.378,1.26a2.864,2.864,0,0,1-1.189.252A1.775,1.775,0,0,1,162.806,117.55Z"/><path class="cls-7" d="M172.557,114.688h-4.649a2.349,2.349,0,0,0,.561,1.54,1.727,1.727,0,0,0,1.259.462,2.64,2.64,0,0,0,.924-.161,4.254,4.254,0,0,0,.924-.5l.742,1.022a4.256,4.256,0,0,1-2.744,1,3.3,3.3,0,0,1-2.611-1.037,4.113,4.113,0,0,1-.917-2.827,5.069,5.069,0,0,1,.392-2.037,3.224,3.224,0,0,1,1.134-1.414,3.373,3.373,0,0,1,4.172.476,4.069,4.069,0,0,1,.855,2.751C172.6,114.053,172.584,114.3,172.557,114.688Zm-2.115-8.33.728,1.4-3.164,1.26-.5-.91Zm.378,7.084q0-1.947-1.442-1.946a1.219,1.219,0,0,0-1.028.483,2.873,2.873,0,0,0-.442,1.547h2.912Z"/><path class="cls-7" d="M179.5,107.268v10.57h-1.792V107.464Zm4.437,3.164-2.463,3.262,2.7,4.144h-2.058l-2.548-4.046,2.478-3.36Z"/><path class="cls-7" d="M190.791,116.514a.85.85,0,0,0,.428.316l-.378,1.19a2.3,2.3,0,0,1-1.03-.308,1.587,1.587,0,0,1-.609-.77,2.381,2.381,0,0,1-.944.833,2.886,2.886,0,0,1-1.268.273,2.4,2.4,0,0,1-1.75-.63,2.209,2.209,0,0,1-.643-1.652,2.134,2.134,0,0,1,.875-1.841,4.194,4.194,0,0,1,2.5-.637h.923v-.421a1.281,1.281,0,0,0-.329-1,1.591,1.591,0,0,0-1.056-.286,6.271,6.271,0,0,0-1.96.391l-.42-1.217a7.47,7.47,0,0,1,2.687-.533q2.843,0,2.842,2.549v3.108A1.179,1.179,0,0,0,190.791,116.514Zm-1.9-.678v-1.5h-.742q-1.735,0-1.736,1.288a1.182,1.182,0,0,0,.267.825,1,1,0,0,0,.784.3A1.584,1.584,0,0,0,188.894,115.836Z"/><path class="cls-7" d="M198.323,110.817a2.346,2.346,0,0,1,.553,1.659v5.362h-1.792v-5.082a1.414,1.414,0,0,0-.232-.924.844.844,0,0,0-.678-.266,1.323,1.323,0,0,0-.833.287,3.252,3.252,0,0,0-.721.833v5.152h-1.792v-7.406h1.554l.14.966a2.751,2.751,0,0,1,2.254-1.177A2.009,2.009,0,0,1,198.323,110.817Z"/><path class="cls-7" d="M207.191,107.464v10.374h-1.582l-.126-.938a2.58,2.58,0,0,1-.888.839,2.421,2.421,0,0,1-1.225.309,2.386,2.386,0,0,1-2.086-1.05,4.944,4.944,0,0,1-.728-2.856,5.3,5.3,0,0,1,.364-2.024,3.185,3.185,0,0,1,1.043-1.392,2.628,2.628,0,0,1,3.436.294v-3.752Zm-2.477,9a2.387,2.387,0,0,0,.685-.721V112.35a2.578,2.578,0,0,0-.65-.589,1.472,1.472,0,0,0-.764-.195,1.281,1.281,0,0,0-1.127.637,3.59,3.59,0,0,0-.413,1.925,3.942,3.942,0,0,0,.365,1.966,1.173,1.173,0,0,0,1.064.6A1.535,1.535,0,0,0,204.714,116.459Z"/><path class="cls-7" d="M211.05,107a1.055,1.055,0,0,1,.314.777,1.031,1.031,0,0,1-.314.77,1.125,1.125,0,0,1-.82.308,1.1,1.1,0,0,1-.8-.308,1.033,1.033,0,0,1-.316-.77,1.057,1.057,0,0,1,.316-.777,1.084,1.084,0,0,1,.8-.316A1.107,1.107,0,0,1,211.05,107Zm.091,3.437v7.406h-1.792v-7.406Z"/><path class="cls-7" d="M219.525,107.464v10.374h-1.582l-.126-.938a2.58,2.58,0,0,1-.888.839,2.421,2.421,0,0,1-1.225.309,2.386,2.386,0,0,1-2.086-1.05,4.944,4.944,0,0,1-.728-2.856,5.3,5.3,0,0,1,.364-2.024,3.185,3.185,0,0,1,1.043-1.392,2.628,2.628,0,0,1,3.436.294v-3.752Zm-2.477,9a2.4,2.4,0,0,0,.685-.721V112.35a2.6,2.6,0,0,0-.65-.589,1.472,1.472,0,0,0-.764-.195,1.281,1.281,0,0,0-1.127.637,3.59,3.59,0,0,0-.413,1.925,3.955,3.955,0,0,0,.364,1.966,1.176,1.176,0,0,0,1.065.6A1.535,1.535,0,0,0,217.048,116.459Z"/><path class="cls-7" d="M227.289,116.514a.85.85,0,0,0,.428.316l-.378,1.19a2.294,2.294,0,0,1-1.029-.308,1.583,1.583,0,0,1-.61-.77,2.381,2.381,0,0,1-.944.833,2.886,2.886,0,0,1-1.268.273,2.4,2.4,0,0,1-1.75-.63,2.212,2.212,0,0,1-.643-1.652,2.134,2.134,0,0,1,.875-1.841,4.194,4.194,0,0,1,2.5-.637h.924v-.421a1.281,1.281,0,0,0-.33-1,1.591,1.591,0,0,0-1.056-.286,6.271,6.271,0,0,0-1.96.391l-.42-1.217a7.47,7.47,0,0,1,2.687-.533q2.843,0,2.842,2.549v3.108A1.179,1.179,0,0,0,227.289,116.514Zm-1.9-10.156.727,1.4-3.164,1.26-.5-.91Zm0,9.478v-1.5h-.743q-1.736,0-1.736,1.288a1.182,1.182,0,0,0,.267.825,1,1,0,0,0,.784.3A1.586,1.586,0,0,0,225.393,115.836Z"/><path class="cls-7" d="M233.568,117.488a2.821,2.821,0,0,1-.875.419,3.5,3.5,0,0,1-.987.141,2.2,2.2,0,0,1-1.659-.623,2.553,2.553,0,0,1-.567-1.8v-3.907h-1.162v-1.287h1.162v-1.638l1.792-.21v1.848h1.722l-.182,1.287h-1.54v3.865a1.27,1.27,0,0,0,.189.783.71.71,0,0,0,.595.239,1.833,1.833,0,0,0,.882-.266Z"/><path class="cls-7" d="M236.368,107.268v10.57h-1.792V107.464Zm4.438,3.164-2.464,3.262,2.7,4.144h-2.058l-2.548-4.046,2.478-3.36Z"/><path class="cls-7" d="M245.636,117.865A4.549,4.549,0,0,1,244.277,120a4.318,4.318,0,0,1-2.492.888l-.182-1.3a4.5,4.5,0,0,0,1.169-.315,1.894,1.894,0,0,0,.707-.539,3.629,3.629,0,0,0,.491-.9h-.617L241,110.432h1.9l1.611,6.216,1.679-6.216h1.849Z"/><circle class="cls-7" cx="71.761" cy="174.873" r="7.732"/><circle class="cls-7" cx="333.784" cy="101.388" r="7.732"/><circle class="cls-6" cx="71.761" cy="211.987" r="7.732"/><circle class="cls-6" cx="333.539" cy="181.739" r="7.732"/><circle class="cls-5" cx="71.761" cy="310.338" r="7.732"/><circle class="cls-5" cx="333.784" cy="158.358" r="7.732"/><path class="cls-5" d="M172.715,268.242a1.935,1.935,0,0,1-.484-1.407v-8.68l1.792-.2v8.82c0,.345.141.518.42.518a1.3,1.3,0,0,0,.42-.07l.378,1.26a2.861,2.861,0,0,1-1.189.252A1.778,1.778,0,0,1,172.715,268.242Z"/><path class="cls-5" d="M178.392,257.049l.727,1.4-3.164,1.26-.5-.91Zm-.168,4.074v7.406h-1.792v-7.406Z"/><path class="cls-5" d="M186.609,258.155v10.374h-1.582l-.126-.938a2.583,2.583,0,0,1-.888.84,2.431,2.431,0,0,1-1.225.308,2.384,2.384,0,0,1-2.086-1.05,4.941,4.941,0,0,1-.728-2.856,5.3,5.3,0,0,1,.364-2.023,3.183,3.183,0,0,1,1.043-1.393,2.631,2.631,0,0,1,3.436.294v-3.752Zm-2.477,9a2.387,2.387,0,0,0,.685-.721v-3.388a2.59,2.59,0,0,0-.65-.588,1.463,1.463,0,0,0-.764-.2,1.281,1.281,0,0,0-1.127.637,3.592,3.592,0,0,0-.413,1.925,3.959,3.959,0,0,0,.364,1.967,1.175,1.175,0,0,0,1.065.595A1.535,1.535,0,0,0,184.132,267.15Z"/><path class="cls-5" d="M193.161,261.025l-.308,1.736a2.7,2.7,0,0,0-.658-.084,1.258,1.258,0,0,0-1.036.469,3.6,3.6,0,0,0-.6,1.435v3.948h-1.792v-7.406h1.553l.168,1.456a2.672,2.672,0,0,1,.771-1.225,1.746,1.746,0,0,1,1.162-.427A2.652,2.652,0,0,1,193.161,261.025Z"/><path class="cls-5" d="M197.865,268.557a4.557,4.557,0,0,1-1.358,2.135,4.324,4.324,0,0,1-2.492.889l-.182-1.3a4.511,4.511,0,0,0,1.169-.315,1.892,1.892,0,0,0,.707-.539,3.578,3.578,0,0,0,.49-.9h-.616l-2.352-7.406h1.9l1.61,6.216,1.68-6.216h1.848Z"/><path class="cls-5" d="M206.86,261.508a2.348,2.348,0,0,1,.553,1.659v5.362h-1.792v-5.082a1.421,1.421,0,0,0-.231-.924.851.851,0,0,0-.679-.266,1.328,1.328,0,0,0-.833.287,3.306,3.306,0,0,0-.721.833v5.152h-1.792v-7.406h1.554l.141.966a2.75,2.75,0,0,1,2.253-1.176A2.01,2.01,0,0,1,206.86,261.508Z"/><path class="cls-5" d="M215.533,265.379h-4.648a2.347,2.347,0,0,0,.56,1.54,1.731,1.731,0,0,0,1.26.462,2.644,2.644,0,0,0,.924-.161,4.29,4.29,0,0,0,.924-.5l.742,1.022a4.261,4.261,0,0,1-2.744.994,3.306,3.306,0,0,1-2.612-1.036,4.117,4.117,0,0,1-.917-2.828,5.056,5.056,0,0,1,.393-2.037,3.23,3.23,0,0,1,1.134-1.414,3.377,3.377,0,0,1,4.172.476,4.072,4.072,0,0,1,.854,2.751C215.575,264.744,215.56,264.987,215.533,265.379Zm-1.358-8.05.686.784-1.946,1.75H211.8l-1.946-1.75.686-.784,1.819,1.232Zm-.378,6.8q0-1.945-1.443-1.946a1.223,1.223,0,0,0-1.028.483,2.877,2.877,0,0,0-.441,1.547H213.8Z"/><path class="cls-5" d="M175,273.147a21.06,21.06,0,0,0-1.191,1.967,8.832,8.832,0,0,0-.72,1.967,11.984,11.984,0,0,0,0,5.1,8.832,8.832,0,0,0,.72,1.967A21.06,21.06,0,0,0,175,286.111l-.519.336q-.867-1.218-1.364-2.086a8.8,8.8,0,0,1-.819-2.03,11.463,11.463,0,0,1,0-5.4,8.817,8.817,0,0,1,.819-2.03q.5-.867,1.364-2.086Z"/><path class="cls-5" d="M179.848,275.219v9.31h-.812v-8.414l-2.3,1.428-.379-.6,2.786-1.722Z"/><path class="cls-5" d="M183.466,283.542a.636.636,0,0,1,.189.469.673.673,0,0,1-1.148.476.646.646,0,0,1-.2-.476.624.624,0,0,1,.2-.469.7.7,0,0,1,.959,0Z"/><path class="cls-5" d="M194.848,278.04a4.975,4.975,0,0,1,.665,2.793,4.862,4.862,0,0,1-.721,2.807,2.359,2.359,0,0,1-2.065,1.043,2.568,2.568,0,0,1-1.19-.273,2.689,2.689,0,0,1-.9-.735v3.612l-.812.112V277.207h.7l.071,1.064a2.945,2.945,0,0,1,.987-.9,2.563,2.563,0,0,1,1.266-.322A2.247,2.247,0,0,1,194.848,278.04Zm-.736,5.159a4.277,4.277,0,0,0,.532-2.366q0-3.108-1.946-3.108a1.946,1.946,0,0,0-1.14.336,3.98,3.98,0,0,0-.917.924v3.892a2.211,2.211,0,0,0,1.931,1.12A1.735,1.735,0,0,0,194.112,283.2Z"/><path class="cls-5" d="M202.759,278.054a5.161,5.161,0,0,1-.015,5.6,3.043,3.043,0,0,1-4.55.014,4.33,4.33,0,0,1-.818-2.793,5.05,5.05,0,0,1,.378-2.03,2.82,2.82,0,0,1,2.729-1.792A2.78,2.78,0,0,1,202.759,278.054Zm-3.928.483a4.94,4.94,0,0,0-.007,4.662,1.917,1.917,0,0,0,1.646.8,1.954,1.954,0,0,0,1.659-.8,4.928,4.928,0,0,0,.014-4.669,2.123,2.123,0,0,0-3.312.007Z"/><path class="cls-5" d="M209.9,277.207v.63l-4.088,5.992h4.061l-.084.7h-4.929v-.63l4.089-5.992H205.2v-.7Z"/><path class="cls-5" d="M212.705,274.155a.609.609,0,0,1,0,.84.607.607,0,0,1-.448.168.586.586,0,0,1-.434-.168.609.609,0,0,1,0-.84.586.586,0,0,1,.434-.168A.607.607,0,0,1,212.705,274.155Zm-.028,3.052v7.322h-.812v-7.322Z"/><path class="cls-5" d="M219.271,277.228a3.087,3.087,0,0,1,.952.567l-.406.532a2.637,2.637,0,0,0-.749-.434,2.562,2.562,0,0,0-.875-.14,1.973,1.973,0,0,0-1.652.805,3.805,3.805,0,0,0-.616,2.345,3.652,3.652,0,0,0,.609,2.3,1.985,1.985,0,0,0,1.645.77,2.443,2.443,0,0,0,.889-.154,3.316,3.316,0,0,0,.8-.462l.392.546a3.155,3.155,0,0,1-2.1.784,2.979,2.979,0,0,1-1.638-.448,2.921,2.921,0,0,1-1.085-1.3,4.856,4.856,0,0,1-.384-2.023,5.016,5.016,0,0,1,.384-2.037,3.082,3.082,0,0,1,1.085-1.351,2.822,2.822,0,0,1,1.624-.476A3.338,3.338,0,0,1,219.271,277.228Z"/><path class="cls-5" d="M227.377,281.183H222.49a3.411,3.411,0,0,0,.68,2.121,2.027,2.027,0,0,0,1.6.693,2.729,2.729,0,0,0,1.015-.175,4.434,4.434,0,0,0,.959-.553l.379.518a4.145,4.145,0,0,1-1.12.672,3.49,3.49,0,0,1-1.275.224,2.806,2.806,0,0,1-2.282-.994,4.189,4.189,0,0,1-.825-2.758,5.364,5.364,0,0,1,.356-2.037A3.067,3.067,0,0,1,223,277.536a2.56,2.56,0,0,1,1.547-.483,2.525,2.525,0,0,1,2.128.945,4.161,4.161,0,0,1,.727,2.6Q227.4,280.9,227.377,281.183Zm-.771-.84a3.193,3.193,0,0,0-.51-1.925,1.768,1.768,0,0,0-1.52-.693,1.791,1.791,0,0,0-1.47.7,3.607,3.607,0,0,0-.616,2.128h4.116Z"/><path class="cls-5" d="M230.869,274.9a8.817,8.817,0,0,1,.819,2.03,11.463,11.463,0,0,1,0,5.4,8.8,8.8,0,0,1-.819,2.03q-.5.869-1.364,2.086l-.519-.336a21.06,21.06,0,0,0,1.191-1.967,8.832,8.832,0,0,0,.72-1.967,11.984,11.984,0,0,0,0-5.1,8.832,8.832,0,0,0-.72-1.967,21.06,21.06,0,0,0-1.191-1.967l.519-.336Q230.372,274.029,230.869,274.9Z"/><path d="M9.936,5.792V7.424l-5.1,7.7H9.985l-.224,1.728H2.369V15.232l5.2-7.76H2.9V5.792ZM8.465,2l.784.9L7.025,4.816H5.745L3.52,2.9,4.305,2l2.08,1.328Z"/><path d="M18.337,13.248H13.025a2.684,2.684,0,0,0,.64,1.76,1.979,1.979,0,0,0,1.44.528,3.007,3.007,0,0,0,1.056-.184,4.951,4.951,0,0,0,1.056-.568l.848,1.168a4.875,4.875,0,0,1-3.136,1.136A3.773,3.773,0,0,1,11.945,15.9,4.7,4.7,0,0,1,10.9,12.672a5.785,5.785,0,0,1,.448-2.328,3.683,3.683,0,0,1,1.3-1.616,3.467,3.467,0,0,1,2.016-.584,3.444,3.444,0,0,1,2.752,1.128,4.65,4.65,0,0,1,.976,3.144Q18.385,12.577,18.337,13.248Zm-1.985-1.424q0-2.223-1.647-2.224a1.4,1.4,0,0,0-1.176.552,3.286,3.286,0,0,0-.5,1.768h3.327Z"/><path d="M26.505,8.824a2.676,2.676,0,0,1,.632,1.9v6.128H25.089V11.04a1.626,1.626,0,0,0-.264-1.056.97.97,0,0,0-.776-.3,1.515,1.515,0,0,0-.952.328,3.748,3.748,0,0,0-.824.952v5.888H20.226V8.384H22l.16,1.1a3.145,3.145,0,0,1,2.576-1.344A2.3,2.3,0,0,1,26.505,8.824Z"/><path d="M33.521,16.88a5.2,5.2,0,0,1-1.551,2.44,4.944,4.944,0,0,1-2.849,1.016l-.208-1.488a5.17,5.17,0,0,0,1.336-.36,2.178,2.178,0,0,0,.809-.616,4.165,4.165,0,0,0,.559-1.024h-.7L28.226,8.384H30.4l1.84,7.1,1.92-7.1h2.112Z"/><path d="M47.8,8.824a2.676,2.676,0,0,1,.632,1.9v6.128H46.385V11.04a1.626,1.626,0,0,0-.264-1.056.972.972,0,0,0-.776-.3,1.515,1.515,0,0,0-.952.328,3.748,3.748,0,0,0-.824.952v5.888H41.521V8.384H43.3l.16,1.1a3.145,3.145,0,0,1,2.576-1.344A2.3,2.3,0,0,1,47.8,8.824Z"/><path d="M57.225,15.336a.973.973,0,0,0,.488.36l-.432,1.36A2.629,2.629,0,0,1,56.1,16.7a1.806,1.806,0,0,1-.7-.88,2.71,2.71,0,0,1-1.08.952,3.3,3.3,0,0,1-1.448.312,2.735,2.735,0,0,1-2-.72,2.527,2.527,0,0,1-.737-1.888,2.445,2.445,0,0,1,1-2.1A4.8,4.8,0,0,1,54,11.648h1.056v-.48a1.458,1.458,0,0,0-.376-1.144A1.816,1.816,0,0,0,53.473,9.7a7.126,7.126,0,0,0-2.24.448l-.48-1.392a8.535,8.535,0,0,1,3.072-.608q3.248,0,3.248,2.912v3.552A1.352,1.352,0,0,0,57.225,15.336Zm-2.168-.776V12.848h-.848q-1.984,0-1.984,1.472a1.356,1.356,0,0,0,.3.944,1.146,1.146,0,0,0,.9.336A1.813,1.813,0,0,0,55.057,14.56Z"/><path d="M70.352,8.384,67.6,16.848H65.152l-2.8-8.464h2.224L66.385,15.2,68.24,8.384Z"/><path d="M77.9,9.336a4.783,4.783,0,0,1,1.048,3.272,5.429,5.429,0,0,1-.48,2.344,3.647,3.647,0,0,1-1.376,1.576,3.938,3.938,0,0,1-2.128.56A3.708,3.708,0,0,1,72.033,15.9a4.785,4.785,0,0,1-1.056-3.288,5.373,5.373,0,0,1,.48-2.336A3.632,3.632,0,0,1,72.841,8.7a3.974,3.974,0,0,1,2.136-.56A3.683,3.683,0,0,1,77.9,9.336Zm-4.76,3.272a4.2,4.2,0,0,0,.456,2.216,1.665,1.665,0,0,0,2.736-.008,4.211,4.211,0,0,0,.456-2.208,4.166,4.166,0,0,0-.456-2.2A1.5,1.5,0,0,0,74.977,9.7Q73.137,9.7,73.137,12.608Z"/><path d="M81.337,16.52a2.213,2.213,0,0,1-.552-1.608V4.992l2.048-.224v10.08c0,.394.16.592.479.592a1.521,1.521,0,0,0,.481-.08l.432,1.44a3.277,3.277,0,0,1-1.36.288A2.034,2.034,0,0,1,81.337,16.52Z"/><path d="M87.528,4.456a1.207,1.207,0,0,1,.361.888,1.182,1.182,0,0,1-.361.88,1.278,1.278,0,0,1-.935.352,1.257,1.257,0,0,1-.92-.352,1.182,1.182,0,0,1-.361-.88,1.207,1.207,0,0,1,.361-.888,1.243,1.243,0,0,1,.92-.36A1.264,1.264,0,0,1,87.528,4.456Zm.1,3.928v8.464H85.585V8.384Z"/><path d="M94.944,16.448a3.293,3.293,0,0,1-1,.48,4.056,4.056,0,0,1-1.128.16,2.513,2.513,0,0,1-1.9-.712,2.916,2.916,0,0,1-.648-2.056V9.856H88.944V8.384h1.328V6.512l2.048-.24V8.384h1.968L94.08,9.856H92.32v4.416a1.46,1.46,0,0,0,.216.9.819.819,0,0,0,.68.272,2.1,2.1,0,0,0,1.009-.3Z"/><path d="M102.721,13.248H97.409a2.679,2.679,0,0,0,.64,1.76,1.979,1.979,0,0,0,1.44.528,3.007,3.007,0,0,0,1.056-.184,4.975,4.975,0,0,0,1.056-.568l.848,1.168a4.875,4.875,0,0,1-3.137,1.136A3.771,3.771,0,0,1,96.329,15.9a4.7,4.7,0,0,1-1.048-3.232,5.8,5.8,0,0,1,.447-2.328,3.7,3.7,0,0,1,1.3-1.616,3.861,3.861,0,0,1,4.769.544,4.655,4.655,0,0,1,.975,3.144C102.768,12.523,102.753,12.8,102.721,13.248Zm-1.985-1.424q0-2.223-1.647-2.224a1.4,1.4,0,0,0-1.176.552,3.286,3.286,0,0,0-.5,1.768h3.327Z"/><path d="M105.081,16.52a2.213,2.213,0,0,1-.552-1.608V4.992l2.048-.224v10.08c0,.394.16.592.48.592a1.519,1.519,0,0,0,.48-.08l.432,1.44a3.277,3.277,0,0,1-1.36.288A2.034,2.034,0,0,1,105.081,16.52Z"/><path d="M115.608,8.824a2.676,2.676,0,0,1,.632,1.9v6.128h-2.048V11.04a1.633,1.633,0,0,0-.263-1.056.972.972,0,0,0-.777-.3,1.517,1.517,0,0,0-.952.328,3.747,3.747,0,0,0-.823.952v5.888h-2.048V8.384H111.1l.161,1.1a3.144,3.144,0,0,1,2.576-1.344A2.293,2.293,0,0,1,115.608,8.824Z"/><path d="M122.625,16.88a5.2,5.2,0,0,1-1.552,2.44,4.938,4.938,0,0,1-2.848,1.016l-.208-1.488a5.161,5.161,0,0,0,1.335-.36,2.17,2.17,0,0,0,.809-.616,4.164,4.164,0,0,0,.56-1.024h-.7l-2.688-8.464h2.176l1.84,7.1,1.92-7.1h2.112ZM122.56,3.728l.833,1.6-3.616,1.44-.576-1.04Z"/><path d="M131.433,8.384a4,4,0,0,1,1.255.752l-.911,1.232a3.281,3.281,0,0,0-.832-.464,2.584,2.584,0,0,0-.881-.144q-1.9,0-1.9,2.9a3.532,3.532,0,0,0,.5,2.12,1.667,1.667,0,0,0,1.407.648,2.291,2.291,0,0,0,.825-.144,5.392,5.392,0,0,0,.888-.464l.911,1.3a4.216,4.216,0,0,1-2.735.976,4.04,4.04,0,0,1-2.112-.536,3.514,3.514,0,0,1-1.376-1.528,5.3,5.3,0,0,1-.48-2.336,5.561,5.561,0,0,1,.48-2.376,3.677,3.677,0,0,1,1.376-1.6,3.826,3.826,0,0,1,2.1-.568A4.386,4.386,0,0,1,131.433,8.384Z"/><path d="M140.448,8.832a2.663,2.663,0,0,1,.64,1.888v6.128H139.04V11.04a1.626,1.626,0,0,0-.264-1.056.969.969,0,0,0-.776-.3,1.523,1.523,0,0,0-.943.328,3.72,3.72,0,0,0-.832.936v5.9h-2.048V5.008l2.048-.208V9.392a3.088,3.088,0,0,1,2.463-1.248A2.285,2.285,0,0,1,140.448,8.832Z"/><path d="M158.08,8.84a2.758,2.758,0,0,1,.608,1.88v6.128h-2.047V11.04q0-1.36-.929-1.36a1.267,1.267,0,0,0-.856.312,3.887,3.887,0,0,0-.744.968v5.888h-2.048V11.04q0-1.36-.927-1.36a1.283,1.283,0,0,0-.872.312,3.863,3.863,0,0,0-.745.968v5.888h-2.047V8.384h1.775l.16,1.1a2.9,2.9,0,0,1,2.448-1.344,2.157,2.157,0,0,1,1.272.376,2.108,2.108,0,0,1,.776,1.048,3.958,3.958,0,0,1,1.128-1.056,2.71,2.71,0,0,1,1.416-.368A2.057,2.057,0,0,1,158.08,8.84Z"/><path d="M163.311,3.728l.832,1.6-3.615,1.44-.576-1.04Zm-.191,4.656v8.464h-2.048V8.384Z"/><path d="M171.264,9.152l-.8,1.2a3.976,3.976,0,0,0-2.128-.688,1.64,1.64,0,0,0-.944.232.714.714,0,0,0-.336.616.777.777,0,0,0,.143.48,1.321,1.321,0,0,0,.521.36,8.548,8.548,0,0,0,1.112.376,4.873,4.873,0,0,1,2.039.976,2.184,2.184,0,0,1,.664,1.7,2.275,2.275,0,0,1-1.023,1.976,4.358,4.358,0,0,1-2.544.712,5.39,5.39,0,0,1-1.9-.32,4.622,4.622,0,0,1-1.479-.88l1.023-1.152a3.778,3.778,0,0,0,2.3.832,1.956,1.956,0,0,0,1.1-.272.86.86,0,0,0,.408-.752.994.994,0,0,0-.153-.584,1.245,1.245,0,0,0-.544-.384,11.409,11.409,0,0,0-1.223-.408,4.093,4.093,0,0,1-1.9-.984,2.182,2.182,0,0,1-.609-1.576,2.1,2.1,0,0,1,.408-1.264,2.709,2.709,0,0,1,1.153-.88,4.28,4.28,0,0,1,1.7-.32A4.765,4.765,0,0,1,171.264,9.152Z"/><path d="M178.048,16.448a3.293,3.293,0,0,1-1,.48,4.056,4.056,0,0,1-1.128.16,2.517,2.517,0,0,1-1.9-.712,2.921,2.921,0,0,1-.647-2.056V9.856h-1.328V8.384h1.328V6.512l2.048-.24V8.384h1.968l-.208,1.472h-1.76v4.416a1.454,1.454,0,0,0,.216.9.816.816,0,0,0,.679.272,2.089,2.089,0,0,0,1.009-.3Z"/><path d="M185.824,13.248h-5.311a2.679,2.679,0,0,0,.639,1.76,1.981,1.981,0,0,0,1.441.528,3,3,0,0,0,1.055-.184,4.951,4.951,0,0,0,1.056-.568l.849,1.168a4.879,4.879,0,0,1-3.137,1.136,3.771,3.771,0,0,1-2.983-1.184,4.7,4.7,0,0,1-1.048-3.232,5.785,5.785,0,0,1,.447-2.328,3.69,3.69,0,0,1,1.3-1.616,3.859,3.859,0,0,1,4.768.544,4.65,4.65,0,0,1,.976,3.144Q185.872,12.577,185.824,13.248Zm-1.984-1.424q0-2.223-1.648-2.224a1.4,1.4,0,0,0-1.175.552,3.269,3.269,0,0,0-.5,1.768h3.327Z"/><path d="M192.616,8.384a4,4,0,0,1,1.256.752l-.911,1.232a3.3,3.3,0,0,0-.832-.464,2.593,2.593,0,0,0-.881-.144q-1.9,0-1.9,2.9a3.532,3.532,0,0,0,.5,2.12,1.667,1.667,0,0,0,1.407.648,2.286,2.286,0,0,0,.824-.144,5.4,5.4,0,0,0,.889-.464l.911,1.3a4.22,4.22,0,0,1-2.735.976,4.044,4.044,0,0,1-2.113-.536,3.526,3.526,0,0,1-1.376-1.528,5.309,5.309,0,0,1-.479-2.336,5.576,5.576,0,0,1,.479-2.376,3.69,3.69,0,0,1,1.376-1.6,3.829,3.829,0,0,1,2.1-.568A4.376,4.376,0,0,1,192.616,8.384Z"/><path d="M201.632,8.832a2.662,2.662,0,0,1,.639,1.888v6.128h-2.047V11.04a1.626,1.626,0,0,0-.264-1.056.972.972,0,0,0-.776-.3,1.526,1.526,0,0,0-.944.328,3.759,3.759,0,0,0-.832.936v5.9H195.36V5.008l2.048-.208V9.392a3.091,3.091,0,0,1,2.464-1.248A2.286,2.286,0,0,1,201.632,8.832Z"/><path d="M7.749,28.5a2.258,2.258,0,0,1,.84,1.914,2.362,2.362,0,0,1-.876,2.016,3.776,3.776,0,0,1-2.328.66H4.341v3.036H3.2V27.856H5.373A3.846,3.846,0,0,1,7.749,28.5ZM6.854,31.8a1.605,1.605,0,0,0,.523-1.38,1.506,1.506,0,0,0-.523-1.284,2.429,2.429,0,0,0-1.493-.4H4.341v3.444h1A2.533,2.533,0,0,0,6.854,31.8Z"/><path d="M14.2,30.544a3.658,3.658,0,0,1,.738,2.412A4.221,4.221,0,0,1,14.6,34.69a2.643,2.643,0,0,1-.973,1.164,2.71,2.71,0,0,1-1.512.414,2.56,2.56,0,0,1-2.076-.888A3.638,3.638,0,0,1,9.3,32.968a4.2,4.2,0,0,1,.336-1.734,2.641,2.641,0,0,1,.972-1.164,2.732,2.732,0,0,1,1.524-.414A2.541,2.541,0,0,1,14.2,30.544Zm-3.714,2.424q0,2.412,1.632,2.412t1.632-2.424q0-2.412-1.62-2.412Q10.485,30.544,10.485,32.968Z"/><path d="M21.657,27.256v8.868h-.972l-.108-.876a2.288,2.288,0,0,1-.78.75A2.174,2.174,0,0,1,17,35.38a4.052,4.052,0,0,1-.63-2.388,4.657,4.657,0,0,1,.3-1.728,2.675,2.675,0,0,1,.864-1.182,2.135,2.135,0,0,1,1.32-.426,2.27,2.27,0,0,1,1.7.78V27.124Zm-1.8,7.9a2.7,2.7,0,0,0,.7-.7v-3.1a2.421,2.421,0,0,0-.666-.618,1.534,1.534,0,0,0-.8-.21,1.281,1.281,0,0,0-1.134.612,3.342,3.342,0,0,0-.4,1.824,3.532,3.532,0,0,0,.372,1.824,1.186,1.186,0,0,0,1.068.6A1.551,1.551,0,0,0,19.857,35.158Z"/><path d="M25.593,26.512l.492.924-2.544,1.032-.336-.588ZM25.2,29.8v6.324h-1.1V29.8Z"/><path d="M27.878,35.9a1.419,1.419,0,0,1-.354-1.026v-7.62l1.1-.132v7.728a.639.639,0,0,0,.091.384.355.355,0,0,0,.3.12,1.1,1.1,0,0,0,.409-.072l.288.768a1.8,1.8,0,0,1-.876.216A1.282,1.282,0,0,1,27.878,35.9Z"/><path d="M37.988,29.8v.84l-3.3,4.56h3.336l-.131.924H33.44V35.3l3.288-4.56H33.717V29.8Zm-.7-3.1.468.54L36.141,28.6h-.733l-1.632-1.356.481-.54,1.511,1.008Z"/><path d="M44.192,33.34H40.161a2.47,2.47,0,0,0,.527,1.536,1.534,1.534,0,0,0,1.177.492,2.573,2.573,0,0,0,.84-.132,3.406,3.406,0,0,0,.8-.42l.48.66a3.5,3.5,0,0,1-2.208.792,2.559,2.559,0,0,1-2.058-.864,3.537,3.537,0,0,1-.739-2.376,4.5,4.5,0,0,1,.319-1.746,2.732,2.732,0,0,1,.912-1.194,2.31,2.31,0,0,1,1.4-.432,2.345,2.345,0,0,1,1.933.828,3.54,3.54,0,0,1,.672,2.292C44.217,32.96,44.209,33.148,44.192,33.34Zm-1.067-.888a2.338,2.338,0,0,0-.372-1.428,1.31,1.31,0,0,0-1.116-.492q-1.358,0-1.476,1.992h2.964Z"/><path d="M50.307,30.172a1.982,1.982,0,0,1,.486,1.416v4.536h-1.1v-4.38a1.4,1.4,0,0,0-.252-.948.957.957,0,0,0-.744-.276,1.435,1.435,0,0,0-.887.288,3,3,0,0,0-.72.828v4.488H45.98V29.8h.949l.095.936a2.509,2.509,0,0,1,.834-.792,2.158,2.158,0,0,1,1.1-.288A1.766,1.766,0,0,1,50.307,30.172Z"/><path d="M60.518,30.172a1.979,1.979,0,0,1,.487,1.416v4.536H59.9v-4.38a1.4,1.4,0,0,0-.252-.948.957.957,0,0,0-.744-.276,1.435,1.435,0,0,0-.887.288,2.98,2.98,0,0,0-.72.828v4.488h-1.1V29.8h.949l.095.936a2.509,2.509,0,0,1,.834-.792,2.155,2.155,0,0,1,1.1-.288A1.762,1.762,0,0,1,60.518,30.172Z"/><path d="M67.616,35.218a.8.8,0,0,0,.4.282l-.252.768a1.688,1.688,0,0,1-.792-.276,1.263,1.263,0,0,1-.444-.672,2.121,2.121,0,0,1-1.884.948,2.021,2.021,0,0,1-1.476-.528,1.844,1.844,0,0,1-.54-1.38,1.813,1.813,0,0,1,.726-1.548,3.4,3.4,0,0,1,2.058-.54h.972V31.8a1.23,1.23,0,0,0-.324-.96,1.466,1.466,0,0,0-1-.288,5.571,5.571,0,0,0-1.7.336l-.276-.8a6.365,6.365,0,0,1,2.184-.432,2.284,2.284,0,0,1,1.668.546,2.089,2.089,0,0,1,.552,1.554v2.892A.991.991,0,0,0,67.616,35.218Zm-1.236-.762V33h-.828Q63.8,33,63.8,34.3a1.187,1.187,0,0,0,.276.852,1.079,1.079,0,0,0,.816.288A1.65,1.65,0,0,0,66.38,34.456Z"/><path d="M74.036,27.124v9h-1.1V27.256ZM77.672,29.8l-2.328,2.8,2.591,3.528H76.616l-2.508-3.456L76.435,29.8Z"/><path d="M83.288,35.218a.8.8,0,0,0,.4.282l-.252.768a1.683,1.683,0,0,1-.792-.276,1.257,1.257,0,0,1-.444-.672,2.124,2.124,0,0,1-1.885.948,2.018,2.018,0,0,1-1.475-.528,1.844,1.844,0,0,1-.54-1.38,1.815,1.815,0,0,1,.725-1.548,3.4,3.4,0,0,1,2.059-.54h.972V31.8a1.227,1.227,0,0,0-.325-.96,1.463,1.463,0,0,0-1-.288,5.571,5.571,0,0,0-1.7.336l-.276-.8a6.364,6.364,0,0,1,2.183-.432A2.281,2.281,0,0,1,82.6,30.2a2.085,2.085,0,0,1,.553,1.554v2.892A.991.991,0,0,0,83.288,35.218Zm-1.236-.762V33h-.828q-1.752,0-1.752,1.3a1.182,1.182,0,0,0,.276.852,1.078,1.078,0,0,0,.815.288A1.65,1.65,0,0,0,82.052,34.456Z"/><path d="M89.75,30.172a1.982,1.982,0,0,1,.486,1.416v4.536h-1.1v-4.38a1.4,1.4,0,0,0-.252-.948.957.957,0,0,0-.744-.276,1.44,1.44,0,0,0-.888.288,3,3,0,0,0-.72.828v4.488h-1.1V29.8h.948l.1.936a2.5,2.5,0,0,1,.834-.792,2.154,2.154,0,0,1,1.1-.288A1.763,1.763,0,0,1,89.75,30.172Z"/><path d="M97.352,27.256v8.868h-.971l-.109-.876a2.279,2.279,0,0,1-.78.75,2.174,2.174,0,0,1-2.8-.618,4.052,4.052,0,0,1-.63-2.388,4.657,4.657,0,0,1,.3-1.728,2.677,2.677,0,0,1,.865-1.182,2.132,2.132,0,0,1,1.319-.426,2.268,2.268,0,0,1,1.7.78V27.124Zm-1.8,7.9a2.708,2.708,0,0,0,.7-.7v-3.1a2.421,2.421,0,0,0-.666-.618,1.532,1.532,0,0,0-.8-.21,1.281,1.281,0,0,0-1.134.612,3.351,3.351,0,0,0-.4,1.824,3.532,3.532,0,0,0,.372,1.824,1.187,1.187,0,0,0,1.068.6A1.556,1.556,0,0,0,95.553,35.158Z"/><path d="M100.736,26.98a.733.733,0,0,1,.216.54.713.713,0,0,1-.216.534.775.775,0,0,1-.564.21.761.761,0,0,1-.552-.21.717.717,0,0,1-.216-.534.737.737,0,0,1,.216-.54.749.749,0,0,1,.552-.216A.763.763,0,0,1,100.736,26.98Zm0,2.82v6.324h-1.1V29.8Z"/><path d="M107.912,27.256v8.868h-.972l-.108-.876a2.288,2.288,0,0,1-.78.75,2.174,2.174,0,0,1-2.8-.618,4.052,4.052,0,0,1-.63-2.388,4.657,4.657,0,0,1,.3-1.728,2.675,2.675,0,0,1,.864-1.182,2.134,2.134,0,0,1,1.319-.426,2.27,2.27,0,0,1,1.705.78V27.124Zm-1.8,7.9a2.7,2.7,0,0,0,.7-.7v-3.1a2.421,2.421,0,0,0-.666-.618,1.534,1.534,0,0,0-.8-.21,1.279,1.279,0,0,0-1.134.612,3.342,3.342,0,0,0-.4,1.824,3.532,3.532,0,0,0,.372,1.824,1.186,1.186,0,0,0,1.068.6A1.551,1.551,0,0,0,106.112,35.158Z"/><path d="M114.584,35.218a.806.806,0,0,0,.395.282l-.252.768a1.692,1.692,0,0,1-.792-.276,1.262,1.262,0,0,1-.443-.672,2.124,2.124,0,0,1-1.885.948,2.018,2.018,0,0,1-1.475-.528,1.84,1.84,0,0,1-.54-1.38,1.815,1.815,0,0,1,.725-1.548,3.4,3.4,0,0,1,2.059-.54h.972V31.8a1.227,1.227,0,0,0-.325-.96,1.463,1.463,0,0,0-1-.288,5.566,5.566,0,0,0-1.7.336l-.276-.8a6.364,6.364,0,0,1,2.183-.432,2.281,2.281,0,0,1,1.668.546,2.085,2.085,0,0,1,.553,1.554v2.892A.991.991,0,0,0,114.584,35.218Zm-1.452-8.706.492.924-2.544,1.032-.336-.588Zm.216,7.944V33h-.829q-1.751,0-1.751,1.3a1.182,1.182,0,0,0,.276.852,1.077,1.077,0,0,0,.815.288A1.65,1.65,0,0,0,113.348,34.456Z"/><path d="M119.912,35.836a2.428,2.428,0,0,1-1.416.432,1.67,1.67,0,0,1-1.254-.462,1.841,1.841,0,0,1-.45-1.338V30.652h-1.1V29.8h1.1V28.372l1.1-.132V29.8h1.5l-.12.852H117.9V34.42a1.158,1.158,0,0,0,.174.713.692.692,0,0,0,.582.223,1.81,1.81,0,0,0,.84-.252Z"/><path d="M122.156,27.124v9h-1.1V27.256Zm3.636,2.676-2.328,2.8,2.592,3.528h-1.32l-2.508-3.456,2.328-2.868Z"/><path d="M131.408,35.218a.8.8,0,0,0,.4.282l-.252.768a1.688,1.688,0,0,1-.792-.276,1.263,1.263,0,0,1-.444-.672,2.121,2.121,0,0,1-1.884.948,2.021,2.021,0,0,1-1.476-.528,1.844,1.844,0,0,1-.54-1.38,1.813,1.813,0,0,1,.726-1.548,3.4,3.4,0,0,1,2.058-.54h.972V31.8a1.23,1.23,0,0,0-.324-.96,1.466,1.466,0,0,0-1-.288,5.571,5.571,0,0,0-1.7.336l-.276-.8a6.365,6.365,0,0,1,2.184-.432,2.284,2.284,0,0,1,1.668.546,2.089,2.089,0,0,1,.552,1.554v2.892A.991.991,0,0,0,131.408,35.218Zm-1.452-8.706.492.924L127.9,28.468l-.336-.588Zm.216,7.944V33h-.828q-1.752,0-1.752,1.3a1.187,1.187,0,0,0,.276.852,1.079,1.079,0,0,0,.816.288A1.65,1.65,0,0,0,130.172,34.456Z"/><path d="M136.879,29.818a2.86,2.86,0,0,1,.9.522l-.528.7a2.705,2.705,0,0,0-.653-.354,2.073,2.073,0,0,0-.7-.114,1.372,1.372,0,0,0-1.194.612,3.174,3.174,0,0,0-.426,1.812,3,3,0,0,0,.42,1.77,1.4,1.4,0,0,0,1.2.57,1.979,1.979,0,0,0,.684-.114,3.477,3.477,0,0,0,.7-.366l.5.72a3,3,0,0,1-1.931.7,2.52,2.52,0,0,1-2.023-.864,3.561,3.561,0,0,1-.738-2.388,4.31,4.31,0,0,1,.336-1.764,2.714,2.714,0,0,1,.954-1.176,2.553,2.553,0,0,1,1.471-.42A3.132,3.132,0,0,1,136.879,29.818Z"/><path d="M143.6,30.172a1.979,1.979,0,0,1,.487,1.416v4.536h-1.105v-4.38a1.379,1.379,0,0,0-.258-.948.974.974,0,0,0-.75-.276,1.422,1.422,0,0,0-.876.288,3.048,3.048,0,0,0-.719.816v4.5h-1.1V27.268l1.1-.12v3.527a2.239,2.239,0,0,1,1.872-1.019A1.762,1.762,0,0,1,143.6,30.172Z"/><path d="M152.371,29.836a3.476,3.476,0,0,1,.984.54l-.467.7a3.825,3.825,0,0,0-.823-.408,2.542,2.542,0,0,0-.822-.132,1.444,1.444,0,0,0-.851.222.75.75,0,0,0-.018,1.206,3.4,3.4,0,0,0,1.061.42,3.793,3.793,0,0,1,1.579.72,1.574,1.574,0,0,1,.521,1.248,1.617,1.617,0,0,1-.725,1.428,3.086,3.086,0,0,1-1.77.492,3.5,3.5,0,0,1-2.389-.828l.588-.672a2.871,2.871,0,0,0,1.777.612,1.689,1.689,0,0,0,.99-.258.815.815,0,0,0,.365-.7.926.926,0,0,0-.132-.522,1.065,1.065,0,0,0-.456-.348,6.277,6.277,0,0,0-.947-.318,3.23,3.23,0,0,1-1.458-.708,1.514,1.514,0,0,1-.45-1.128,1.473,1.473,0,0,1,.294-.894,1.9,1.9,0,0,1,.815-.624,2.967,2.967,0,0,1,1.171-.222A3.514,3.514,0,0,1,152.371,29.836Z"/><path d="M159.847,33.34h-4.032a2.464,2.464,0,0,0,.528,1.536,1.531,1.531,0,0,0,1.176.492,2.573,2.573,0,0,0,.84-.132,3.387,3.387,0,0,0,.8-.42l.48.66a3.5,3.5,0,0,1-2.208.792,2.561,2.561,0,0,1-2.058-.864,3.542,3.542,0,0,1-.738-2.376,4.5,4.5,0,0,1,.318-1.746,2.739,2.739,0,0,1,.912-1.194,2.313,2.313,0,0,1,1.4-.432,2.344,2.344,0,0,1,1.932.828,3.54,3.54,0,0,1,.672,2.292Q159.871,33.052,159.847,33.34Zm-1.068-.888a2.338,2.338,0,0,0-.372-1.428,1.31,1.31,0,0,0-1.116-.492q-1.356,0-1.476,1.992h2.964Z"/><path d="M169.262,30.544A3.658,3.658,0,0,1,170,32.956a4.2,4.2,0,0,1-.336,1.734,2.643,2.643,0,0,1-.973,1.164,2.7,2.7,0,0,1-1.511.414,2.564,2.564,0,0,1-2.077-.888,3.638,3.638,0,0,1-.744-2.412,4.22,4.22,0,0,1,.336-1.734,2.643,2.643,0,0,1,.973-1.164,2.731,2.731,0,0,1,1.523-.414A2.545,2.545,0,0,1,169.262,30.544Zm-3.714,2.424q0,2.412,1.632,2.412t1.631-2.424q0-2.412-1.62-2.412Q165.549,30.544,165.548,32.968Z"/><path d="M176.72,27.256v8.868h-.972l-.108-.876a2.282,2.282,0,0,1-.781.75,2.172,2.172,0,0,1-2.8-.618,4.052,4.052,0,0,1-.63-2.388,4.657,4.657,0,0,1,.3-1.728,2.685,2.685,0,0,1,.865-1.182,2.132,2.132,0,0,1,1.319-.426,2.267,2.267,0,0,1,1.7.78V27.124Zm-1.8,7.9a2.693,2.693,0,0,0,.7-.7v-3.1a2.421,2.421,0,0,0-.666-.618,1.532,1.532,0,0,0-.8-.21,1.278,1.278,0,0,0-1.133.612,3.341,3.341,0,0,0-.4,1.824,3.532,3.532,0,0,0,.372,1.824,1.187,1.187,0,0,0,1.069.6A1.551,1.551,0,0,0,174.92,35.158Z"/><path d="M185.551,29.728l-.2,1.08a2.275,2.275,0,0,0-.552-.072,1.174,1.174,0,0,0-.948.432,3.21,3.21,0,0,0-.564,1.344v3.612h-1.1V29.8h.948l.108,1.284a2.4,2.4,0,0,1,.684-1.068,1.527,1.527,0,0,1,1.008-.36A2.568,2.568,0,0,1,185.551,29.728Z"/><path d="M190.9,30.544a3.653,3.653,0,0,1,.739,2.412,4.22,4.22,0,0,1-.336,1.734,2.643,2.643,0,0,1-.973,1.164,2.71,2.71,0,0,1-1.512.414,2.562,2.562,0,0,1-2.076-.888A3.638,3.638,0,0,1,186,32.968a4.2,4.2,0,0,1,.336-1.734,2.643,2.643,0,0,1,.973-1.164,2.726,2.726,0,0,1,1.523-.414A2.541,2.541,0,0,1,190.9,30.544Zm-3.713,2.424q0,2.412,1.631,2.412t1.632-2.424q0-2.412-1.62-2.412Q187.183,30.544,187.184,32.968Z"/><path d="M194.563,27.124v9h-1.1V27.256ZM198.2,29.8l-2.328,2.8,2.592,3.528h-1.32l-2.507-3.456,2.327-2.868Z"/><path d="M204.223,36.124h-.948l-.085-.984a2.4,2.4,0,0,1-.827.858,2.247,2.247,0,0,1-1.14.27,1.681,1.681,0,0,1-1.3-.5,2.021,2.021,0,0,1-.468-1.428V29.8h1.1v4.416a1.429,1.429,0,0,0,.229.917.918.918,0,0,0,.744.271,1.88,1.88,0,0,0,1.584-1.092V29.8h1.1Z"/><path d="M212.545,28.264a2.092,2.092,0,0,1,1.146,1.908,3.147,3.147,0,0,1-.33,1.4,6.849,6.849,0,0,1-1.014,1.452q-.684.782-2.077,2.172h3.613l-.132.924h-4.74v-.876q1.608-1.668,2.28-2.442a6.855,6.855,0,0,0,.96-1.35,2.726,2.726,0,0,0,.288-1.236,1.232,1.232,0,0,0-1.32-1.332,1.772,1.772,0,0,0-.865.2,3.176,3.176,0,0,0-.792.672l-.719-.576a3.312,3.312,0,0,1,1.092-.912,2.963,2.963,0,0,1,1.344-.3A2.674,2.674,0,0,1,212.545,28.264Z"/><path d="M219.842,29.038a5.759,5.759,0,0,1,.677,3.078,5.792,5.792,0,0,1-.677,3.084,2.426,2.426,0,0,1-4.021,0,5.782,5.782,0,0,1-.678-3.084,5.749,5.749,0,0,1,.678-3.078,2.434,2.434,0,0,1,4.021,0Zm-3.168.582a6.034,6.034,0,0,0-.379,2.5,6.076,6.076,0,0,0,.379,2.5,1.248,1.248,0,0,0,2.309,0,5.994,5.994,0,0,0,.384-2.5,5.955,5.955,0,0,0-.384-2.49,1.25,1.25,0,0,0-2.309-.006Z"/><path d="M226.537,29.038a5.759,5.759,0,0,1,.678,3.078,5.791,5.791,0,0,1-.678,3.084,2.425,2.425,0,0,1-4.02,0,5.773,5.773,0,0,1-.678-3.084,5.74,5.74,0,0,1,.678-3.078,2.433,2.433,0,0,1,4.02,0Zm-3.168.582a6.034,6.034,0,0,0-.379,2.5,6.076,6.076,0,0,0,.379,2.5,1.249,1.249,0,0,0,2.31,0,6,6,0,0,0,.383-2.5,5.958,5.958,0,0,0-.383-2.49,1.251,1.251,0,0,0-2.31-.006Z"/><path d="M232.686,31.132a2.053,2.053,0,0,1,.805.864,3.022,3.022,0,0,1,.3,1.4,3.2,3.2,0,0,1-.342,1.506,2.509,2.509,0,0,1-.924,1.008,2.434,2.434,0,0,1-1.29.354,2.241,2.241,0,0,1-2.052-1.038,5.414,5.414,0,0,1-.648-2.874,6.612,6.612,0,0,1,.366-2.3,3.422,3.422,0,0,1,1.05-1.536,2.518,2.518,0,0,1,1.62-.546,2.94,2.94,0,0,1,1.656.492l-.432.732a2.309,2.309,0,0,0-1.236-.348,1.539,1.539,0,0,0-1.368.828,4.554,4.554,0,0,0-.552,2.22,2.268,2.268,0,0,1,1.932-1.056A2.206,2.206,0,0,1,232.686,31.132Zm-.383,3.732a2.438,2.438,0,0,0,.372-1.428q0-1.716-1.3-1.716a1.725,1.725,0,0,0-.972.294,2.5,2.5,0,0,0-.756.81,4.086,4.086,0,0,0,.414,1.944,1.272,1.272,0,0,0,1.17.624A1.225,1.225,0,0,0,232.3,34.864Z"/><path d="M242.3,29.8v.84L239,35.2h3.336l-.132.924h-4.452V35.3l3.288-4.56h-3.012V29.8Z"/><path d="M248.478,29.8l-2.148,6.324H245L242.814,29.8h1.2l1.655,5.34,1.644-5.34Z"/><path d="M252.27,36.16a4.256,4.256,0,0,1-1.038,1.746,3.131,3.131,0,0,1-1.9.774l-.12-.864a3.25,3.25,0,0,0,1-.312,1.734,1.734,0,0,0,.594-.522,3.7,3.7,0,0,0,.414-.858h-.372L248.719,29.8h1.175l1.693,5.52,1.655-5.52h1.141Zm.229-9.648.491.924-2.544,1.032-.336-.588Z"/><path d="M258.438,29.836a3.5,3.5,0,0,1,.985.54l-.468.7a3.819,3.819,0,0,0-.822-.408,2.548,2.548,0,0,0-.823-.132,1.444,1.444,0,0,0-.851.222.75.75,0,0,0-.018,1.206,3.412,3.412,0,0,0,1.062.42,3.794,3.794,0,0,1,1.578.72,1.571,1.571,0,0,1,.521,1.248,1.617,1.617,0,0,1-.725,1.428,3.081,3.081,0,0,1-1.77.492,3.5,3.5,0,0,1-2.388-.828l.588-.672a2.871,2.871,0,0,0,1.776.612,1.689,1.689,0,0,0,.99-.258.815.815,0,0,0,.365-.7.934.934,0,0,0-.131-.522,1.071,1.071,0,0,0-.456-.348,6.3,6.3,0,0,0-.948-.318,3.23,3.23,0,0,1-1.458-.708A1.514,1.514,0,0,1,255,31.4a1.479,1.479,0,0,1,.294-.894,1.91,1.91,0,0,1,.815-.624,2.97,2.97,0,0,1,1.171-.222A3.51,3.51,0,0,1,258.438,29.836Zm.445-3.132.468.54L257.73,28.6H257l-1.632-1.356.48-.54,1.512,1.008Z"/><path d="M262.267,26.98a.736.736,0,0,1,.215.54.716.716,0,0,1-.215.534.777.777,0,0,1-.565.21.761.761,0,0,1-.552-.21.716.716,0,0,1-.215-.534.736.736,0,0,1,.215-.54.749.749,0,0,1,.552-.216A.765.765,0,0,1,262.267,26.98Zm0,2.82v6.324h-1.105V29.8Z"/><path d="M264.84,35.9a1.415,1.415,0,0,1-.354-1.026v-7.62l1.1-.132v7.728a.639.639,0,0,0,.091.384.355.355,0,0,0,.305.12,1.091,1.091,0,0,0,.408-.072l.289.768a1.8,1.8,0,0,1-.876.216A1.282,1.282,0,0,1,264.84,35.9Z"/><path d="M275.688,30.544a3.653,3.653,0,0,1,.739,2.412,4.22,4.22,0,0,1-.336,1.734,2.643,2.643,0,0,1-.973,1.164,2.71,2.71,0,0,1-1.512.414,2.562,2.562,0,0,1-2.076-.888,3.638,3.638,0,0,1-.744-2.412,4.2,4.2,0,0,1,.336-1.734,2.643,2.643,0,0,1,.973-1.164,2.726,2.726,0,0,1,1.523-.414A2.541,2.541,0,0,1,275.688,30.544Zm-3.713,2.424q0,2.412,1.631,2.412t1.632-2.424q0-2.412-1.62-2.412Q271.974,30.544,271.975,32.968Z"/><path d="M286.315,33.268v.876h-1.044v1.98H284.2v-1.98h-3.432v-.792l2.412-5.376.924.384-2.172,4.908h2.28l.1-2.16h.961v2.16Z"/><path d="M295.675,30.52a4.444,4.444,0,0,1,.563,2.436,4.064,4.064,0,0,1-.647,2.4,2.121,2.121,0,0,1-1.836.912,2.038,2.038,0,0,1-1.656-.72v3l-1.1.132V29.8h.948l.084.852a2.429,2.429,0,0,1,.84-.738,2.193,2.193,0,0,1,1.032-.258A1.969,1.969,0,0,1,295.675,30.52Zm-.624,2.436q0-2.423-1.429-2.424a1.426,1.426,0,0,0-.852.276,2.709,2.709,0,0,0-.671.708V34.6a1.663,1.663,0,0,0,.6.57,1.616,1.616,0,0,0,.792.2Q295.05,35.368,295.051,32.956Z"/><path d="M301.494,29.728l-.2,1.08a2.269,2.269,0,0,0-.552-.072,1.175,1.175,0,0,0-.948.432,3.211,3.211,0,0,0-.563,1.344v3.612h-1.1V29.8h.948l.109,1.284a2.4,2.4,0,0,1,.683-1.068,1.527,1.527,0,0,1,1.008-.36A2.557,2.557,0,0,1,301.494,29.728Z"/><path d="M306.84,30.544a3.658,3.658,0,0,1,.738,2.412,4.2,4.2,0,0,1-.336,1.734,2.637,2.637,0,0,1-.973,1.164,2.7,2.7,0,0,1-1.511.414,2.56,2.56,0,0,1-2.076-.888,3.633,3.633,0,0,1-.745-2.412,4.22,4.22,0,0,1,.336-1.734,2.643,2.643,0,0,1,.973-1.164,2.731,2.731,0,0,1,1.523-.414A2.543,2.543,0,0,1,306.84,30.544Zm-3.714,2.424q0,2.412,1.632,2.412t1.632-2.424q0-2.412-1.621-2.412Q303.126,30.544,303.126,32.968Z"/><path d="M312.738,29.818a2.853,2.853,0,0,1,.9.522l-.529.7a2.687,2.687,0,0,0-.653-.354,2.068,2.068,0,0,0-.7-.114,1.374,1.374,0,0,0-1.195.612,3.174,3.174,0,0,0-.425,1.812,2.989,2.989,0,0,0,.42,1.77,1.4,1.4,0,0,0,1.2.57,1.974,1.974,0,0,0,.683-.114,3.482,3.482,0,0,0,.7-.366l.5.72a3,3,0,0,1-1.932.7,2.519,2.519,0,0,1-2.022-.864,3.556,3.556,0,0,1-.739-2.388,4.327,4.327,0,0,1,.336-1.764,2.721,2.721,0,0,1,.954-1.176,2.555,2.555,0,0,1,1.471-.42A3.127,3.127,0,0,1,312.738,29.818Z"/><path d="M319.65,33.34h-4.031a2.47,2.47,0,0,0,.527,1.536,1.534,1.534,0,0,0,1.177.492,2.573,2.573,0,0,0,.84-.132,3.406,3.406,0,0,0,.8-.42l.48.66a3.5,3.5,0,0,1-2.208.792,2.559,2.559,0,0,1-2.058-.864,3.537,3.537,0,0,1-.739-2.376,4.5,4.5,0,0,1,.319-1.746,2.732,2.732,0,0,1,.912-1.194,2.31,2.31,0,0,1,1.4-.432,2.345,2.345,0,0,1,1.933.828,3.54,3.54,0,0,1,.672,2.292C319.675,32.96,319.667,33.148,319.65,33.34Zm-1.067-.888a2.338,2.338,0,0,0-.372-1.428,1.31,1.31,0,0,0-1.116-.492q-1.358,0-1.476,1.992h2.964Z"/><path d="M325.765,30.172a1.982,1.982,0,0,1,.486,1.416v4.536h-1.1v-4.38a1.4,1.4,0,0,0-.252-.948.956.956,0,0,0-.744-.276,1.435,1.435,0,0,0-.887.288,3,3,0,0,0-.72.828v4.488h-1.105V29.8h.949l.1.936a2.509,2.509,0,0,1,.834-.792,2.158,2.158,0,0,1,1.1-.288A1.766,1.766,0,0,1,325.765,30.172Z"/><path d="M331.662,35.836a2.428,2.428,0,0,1-1.416.432,1.67,1.67,0,0,1-1.254-.462,1.841,1.841,0,0,1-.45-1.338V30.652h-1.1V29.8h1.1V28.372l1.1-.132V29.8h1.5l-.12.852h-1.38V34.42a1.158,1.158,0,0,0,.174.713.692.692,0,0,0,.582.223,1.81,1.81,0,0,0,.84-.252Z"/><path d="M337.128,30.172a1.982,1.982,0,0,1,.486,1.416v4.536h-1.1v-4.38a1.4,1.4,0,0,0-.252-.948.957.957,0,0,0-.744-.276,1.44,1.44,0,0,0-.888.288,3,3,0,0,0-.72.828v4.488h-1.1V29.8h.948l.1.936a2.5,2.5,0,0,1,.834-.792,2.154,2.154,0,0,1,1.1-.288A1.765,1.765,0,0,1,337.128,30.172Z"/><path d="M341.334,26.512l.492.924-2.544,1.032-.336-.588Zm-.4,3.288v6.324h-1.1V29.8Z"/><path d="M351.006,30.526a4.054,4.054,0,0,1,.636,2.43,4.645,4.645,0,0,1-.3,1.734,2.6,2.6,0,0,1-.865,1.164,2.165,2.165,0,0,1-1.319.414,2.094,2.094,0,0,1-1.681-.84l-.107.7H346.4V27.256l1.105-.132v3.468a2.116,2.116,0,0,1,1.788-.936A2.017,2.017,0,0,1,351.006,30.526ZM350.04,34.8a3.267,3.267,0,0,0,.414-1.842,3.407,3.407,0,0,0-.385-1.854,1.239,1.239,0,0,0-1.092-.57,1.788,1.788,0,0,0-1.475.984V34.54a1.96,1.96,0,0,0,.618.624,1.437,1.437,0,0,0,.773.228A1.321,1.321,0,0,0,350.04,34.8Z"/><path d="M357.972,30.544a3.658,3.658,0,0,1,.738,2.412,4.2,4.2,0,0,1-.336,1.734,2.643,2.643,0,0,1-.973,1.164,2.706,2.706,0,0,1-1.511.414,2.564,2.564,0,0,1-2.077-.888,3.638,3.638,0,0,1-.744-2.412,4.22,4.22,0,0,1,.336-1.734,2.643,2.643,0,0,1,.973-1.164,2.731,2.731,0,0,1,1.523-.414A2.545,2.545,0,0,1,357.972,30.544Zm-3.714,2.424q0,2.412,1.632,2.412t1.631-2.424q0-2.412-1.62-2.412Q354.258,30.544,354.258,32.968Z"/><path d="M365.431,27.256v8.868h-.972l-.108-.876a2.282,2.282,0,0,1-.781.75,2.174,2.174,0,0,1-2.8-.618,4.059,4.059,0,0,1-.629-2.388,4.657,4.657,0,0,1,.3-1.728,2.685,2.685,0,0,1,.865-1.182,2.132,2.132,0,0,1,1.319-.426,2.268,2.268,0,0,1,1.7.78V27.124Zm-1.8,7.9a2.708,2.708,0,0,0,.7-.7v-3.1a2.421,2.421,0,0,0-.666-.618,1.532,1.532,0,0,0-.8-.21,1.281,1.281,0,0,0-1.134.612,3.351,3.351,0,0,0-.4,1.824,3.532,3.532,0,0,0,.372,1.824,1.187,1.187,0,0,0,1.069.6A1.553,1.553,0,0,0,363.631,35.158Z"/><path d="M370.242,36.16a4.266,4.266,0,0,1-1.038,1.746,3.131,3.131,0,0,1-1.9.774l-.12-.864a3.25,3.25,0,0,0,1-.312,1.721,1.721,0,0,0,.593-.522,3.616,3.616,0,0,0,.414-.858h-.372L366.69,29.8h1.176l1.693,5.52,1.655-5.52h1.14Z"/><path d="M374.022,34.84a.8.8,0,0,1,.24.588,2.119,2.119,0,0,1-.216.852l-.8,1.836h-.792l.48-1.992a.843.843,0,0,1-.245-.3.861.861,0,0,1-.091-.4.82.82,0,0,1,.828-.828A.814.814,0,0,1,374.022,34.84Z"/><path d="M7.821,44.92a4.443,4.443,0,0,1,.564,2.436,4.057,4.057,0,0,1-.648,2.4,2.119,2.119,0,0,1-1.836.912,2.041,2.041,0,0,1-1.656-.72v3l-1.1.132V44.2h.948l.084.851a2.427,2.427,0,0,1,.84-.737,2.193,2.193,0,0,1,1.032-.258A1.966,1.966,0,0,1,7.821,44.92ZM7.2,47.356q0-2.424-1.429-2.424a1.426,1.426,0,0,0-.851.276,2.7,2.7,0,0,0-.672.708V49a1.658,1.658,0,0,0,.6.57,1.616,1.616,0,0,0,.792.2Q7.2,49.768,7.2,47.356Z"/><path d="M14.715,44.944a3.658,3.658,0,0,1,.738,2.412,4.2,4.2,0,0,1-.336,1.734,2.637,2.637,0,0,1-.973,1.164,2.7,2.7,0,0,1-1.511.414,2.56,2.56,0,0,1-2.076-.888,3.635,3.635,0,0,1-.745-2.412,4.225,4.225,0,0,1,.336-1.735,2.654,2.654,0,0,1,.973-1.164,2.738,2.738,0,0,1,1.523-.413A2.543,2.543,0,0,1,14.715,44.944ZM11,47.368q0,2.412,1.632,2.412t1.632-2.424q0-2.412-1.621-2.412Q11,44.944,11,47.368Z"/><path d="M22.173,41.656v8.868H21.2l-.108-.876a2.3,2.3,0,0,1-.781.75,2.172,2.172,0,0,1-2.8-.618,4.052,4.052,0,0,1-.63-2.388,4.637,4.637,0,0,1,.3-1.728,2.675,2.675,0,0,1,.864-1.182,2.126,2.126,0,0,1,1.319-.426,2.267,2.267,0,0,1,1.7.78V41.524Zm-1.8,7.9a2.693,2.693,0,0,0,.7-.7v-3.1a2.387,2.387,0,0,0-.666-.617,1.532,1.532,0,0,0-.8-.21,1.276,1.276,0,0,0-1.133.612,3.341,3.341,0,0,0-.4,1.824,3.532,3.532,0,0,0,.372,1.824,1.187,1.187,0,0,0,1.069.6A1.551,1.551,0,0,0,20.373,49.558Z"/><path d="M26.108,40.912l.493.924-2.544,1.032-.336-.588ZM25.713,44.2v6.324H24.608V44.2Z"/><path d="M28.394,50.3a1.415,1.415,0,0,1-.353-1.025v-7.62l1.1-.132v7.728a.64.64,0,0,0,.091.383.355.355,0,0,0,.306.121,1.1,1.1,0,0,0,.408-.072l.288.768a1.81,1.81,0,0,1-.876.216A1.282,1.282,0,0,1,28.394,50.3Z"/><path d="M35.09,50.3a1.411,1.411,0,0,1-.354-1.025v-7.62l1.1-.132v7.728a.633.633,0,0,0,.091.383.353.353,0,0,0,.3.121,1.091,1.091,0,0,0,.408-.072l.289.768a1.816,1.816,0,0,1-.876.216A1.279,1.279,0,0,1,35.09,50.3Z"/><path d="M39.812,40.912l.493.924-2.544,1.032-.336-.588ZM39.417,44.2v6.324H38.312V44.2Z"/><path d="M46.593,41.656v8.868h-.972l-.108-.876a2.3,2.3,0,0,1-.781.75,2.172,2.172,0,0,1-2.8-.618,4.052,4.052,0,0,1-.63-2.388,4.637,4.637,0,0,1,.3-1.728,2.675,2.675,0,0,1,.864-1.182,2.126,2.126,0,0,1,1.319-.426,2.267,2.267,0,0,1,1.7.78V41.524Zm-1.8,7.9a2.693,2.693,0,0,0,.7-.7v-3.1a2.387,2.387,0,0,0-.666-.617,1.532,1.532,0,0,0-.8-.21,1.276,1.276,0,0,0-1.133.612,3.341,3.341,0,0,0-.4,1.824,3.532,3.532,0,0,0,.372,1.824,1.187,1.187,0,0,0,1.069.6A1.551,1.551,0,0,0,44.793,49.558Z"/><path d="M52.244,44.128l-.2,1.08a2.272,2.272,0,0,0-.552-.073,1.176,1.176,0,0,0-.948.433,3.211,3.211,0,0,0-.563,1.344v3.612h-1.1V44.2h.948l.109,1.284a2.4,2.4,0,0,1,.683-1.068,1.522,1.522,0,0,1,1.008-.36A2.557,2.557,0,0,1,52.244,44.128Z"/><path d="M56.036,50.56A4.266,4.266,0,0,1,55,52.306a3.131,3.131,0,0,1-1.9.774l-.12-.864a3.25,3.25,0,0,0,1-.312,1.742,1.742,0,0,0,.593-.522,3.675,3.675,0,0,0,.414-.858h-.372L52.484,44.2H53.66l1.692,5.519L57.008,44.2h1.14Z"/><path d="M63.733,44.572a1.977,1.977,0,0,1,.487,1.416v4.536h-1.1v-4.38a1.4,1.4,0,0,0-.252-.948.957.957,0,0,0-.744-.276,1.44,1.44,0,0,0-.888.288,2.98,2.98,0,0,0-.719.828v4.488H59.407V44.2h.948l.1.935a2.529,2.529,0,0,1,.834-.792,2.164,2.164,0,0,1,1.1-.287A1.762,1.762,0,0,1,63.733,44.572ZM63.367,41.1l.469.54L62.216,43h-.733l-1.631-1.356.48-.54,1.512,1.008Z"/><path d="M74.066,44.944a3.653,3.653,0,0,1,.739,2.412,4.22,4.22,0,0,1-.336,1.734,2.643,2.643,0,0,1-.973,1.164,2.71,2.71,0,0,1-1.512.414,2.562,2.562,0,0,1-2.076-.888,3.64,3.64,0,0,1-.744-2.412,4.209,4.209,0,0,1,.336-1.735,2.654,2.654,0,0,1,.973-1.164A2.734,2.734,0,0,1,72,44.056,2.541,2.541,0,0,1,74.066,44.944Zm-3.714,2.424q0,2.412,1.632,2.412t1.632-2.424q0-2.412-1.62-2.412Q70.352,44.944,70.352,47.368Z"/><path d="M84.74,48.376a2.057,2.057,0,0,1-.354,1.182,2.356,2.356,0,0,1-.991.816,3.706,3.706,0,0,1-2.879.006,2.263,2.263,0,0,1-.966-.8,2.08,2.08,0,0,1-.342-1.176,1.938,1.938,0,0,1,.4-1.248,2.976,2.976,0,0,1,1.182-.84,2.409,2.409,0,0,1-.942-.786,1.913,1.913,0,0,1-.306-1.086,1.838,1.838,0,0,1,.342-1.116,2.127,2.127,0,0,1,.9-.708,2.988,2.988,0,0,1,1.193-.24,3.1,3.1,0,0,1,1.183.228,2.108,2.108,0,0,1,.906.69,1.792,1.792,0,0,1,.348,1.11,1.631,1.631,0,0,1-.336,1.032,2.966,2.966,0,0,1-1.032.78A2.286,2.286,0,0,1,84.74,48.376Zm-1.59,1.032a1.29,1.29,0,0,0,.438-1.021,1.443,1.443,0,0,0-.168-.725,1.463,1.463,0,0,0-.54-.516,5.636,5.636,0,0,0-1.044-.45l-.3-.108a2.128,2.128,0,0,0-.888.726A1.933,1.933,0,0,0,80.36,48.4a1.268,1.268,0,0,0,.432,1.025,1.756,1.756,0,0,0,1.176.367A1.731,1.731,0,0,0,83.15,49.408Zm-2.16-5.88a1.168,1.168,0,0,0-.366.924,1.087,1.087,0,0,0,.353.876,3.439,3.439,0,0,0,1.135.552l.2.072a2.374,2.374,0,0,0,.78-.66,1.464,1.464,0,0,0,.24-.852,1.182,1.182,0,0,0-.354-.9,1.4,1.4,0,0,0-1-.336A1.437,1.437,0,0,0,80.99,43.528Z"/><path d="M94.28,44.92a4.443,4.443,0,0,1,.564,2.436,4.057,4.057,0,0,1-.648,2.4,2.119,2.119,0,0,1-1.836.912,2.041,2.041,0,0,1-1.656-.72v3l-1.1.132V44.2h.948l.084.851a2.418,2.418,0,0,1,.84-.737,2.19,2.19,0,0,1,1.032-.258A1.966,1.966,0,0,1,94.28,44.92Zm-.624,2.436q0-2.424-1.429-2.424a1.426,1.426,0,0,0-.851.276,2.7,2.7,0,0,0-.672.708V49a1.658,1.658,0,0,0,.6.57,1.616,1.616,0,0,0,.792.2Q93.656,49.768,93.656,47.356Z"/><path d="M100.1,44.128l-.2,1.08a2.271,2.271,0,0,0-.551-.073,1.178,1.178,0,0,0-.949.433,3.224,3.224,0,0,0-.563,1.344v3.612h-1.1V44.2h.949l.108,1.284a2.4,2.4,0,0,1,.684-1.068,1.522,1.522,0,0,1,1.008-.36A2.568,2.568,0,0,1,100.1,44.128Z"/><path d="M105.445,44.944a3.659,3.659,0,0,1,.739,2.412,4.22,4.22,0,0,1-.336,1.734,2.643,2.643,0,0,1-.973,1.164,2.71,2.71,0,0,1-1.512.414,2.562,2.562,0,0,1-2.076-.888,3.64,3.64,0,0,1-.744-2.412,4.209,4.209,0,0,1,.336-1.735,2.648,2.648,0,0,1,.973-1.164,2.734,2.734,0,0,1,1.523-.413A2.541,2.541,0,0,1,105.445,44.944Zm-3.714,2.424q0,2.412,1.632,2.412T105,47.356q0-2.412-1.62-2.412Q101.731,44.944,101.731,47.368Z"/><path d="M111.343,44.217a2.9,2.9,0,0,1,.9.523l-.528.7a2.71,2.71,0,0,0-.654-.354,2.063,2.063,0,0,0-.7-.115,1.373,1.373,0,0,0-1.194.613,3.174,3.174,0,0,0-.426,1.812,3,3,0,0,0,.42,1.77,1.4,1.4,0,0,0,1.2.57,1.979,1.979,0,0,0,.684-.114,3.477,3.477,0,0,0,.7-.366l.5.72a3,3,0,0,1-1.932.7,2.517,2.517,0,0,1-2.022-.865,3.556,3.556,0,0,1-.738-2.387,4.31,4.31,0,0,1,.336-1.764,2.714,2.714,0,0,1,.954-1.176,2.552,2.552,0,0,1,1.47-.42A3.164,3.164,0,0,1,111.343,44.217Z"/><path d="M118.255,47.74h-4.031a2.458,2.458,0,0,0,.527,1.536,1.533,1.533,0,0,0,1.177.492,2.551,2.551,0,0,0,.84-.133,3.358,3.358,0,0,0,.8-.419l.481.66a3.5,3.5,0,0,1-2.208.792,2.559,2.559,0,0,1-2.059-.865,3.538,3.538,0,0,1-.738-2.376,4.5,4.5,0,0,1,.318-1.745,2.739,2.739,0,0,1,.912-1.194,2.315,2.315,0,0,1,1.4-.432,2.345,2.345,0,0,1,1.932.827,3.538,3.538,0,0,1,.672,2.292C118.279,47.36,118.271,47.548,118.255,47.74Zm-1.068-.888a2.338,2.338,0,0,0-.372-1.428,1.31,1.31,0,0,0-1.116-.492q-1.356,0-1.475,1.992h2.963Z"/><path d="M124.369,44.572a1.981,1.981,0,0,1,.486,1.416v4.536h-1.1v-4.38a1.4,1.4,0,0,0-.252-.948.957.957,0,0,0-.744-.276,1.44,1.44,0,0,0-.888.288,2.982,2.982,0,0,0-.72.828v4.488h-1.1V44.2h.948l.1.935a2.519,2.519,0,0,1,.834-.792,2.163,2.163,0,0,1,1.1-.287A1.763,1.763,0,0,1,124.369,44.572Z"/><path d="M130.268,50.236a2.428,2.428,0,0,1-1.416.432,1.667,1.667,0,0,1-1.254-.462,1.841,1.841,0,0,1-.451-1.338V45.051h-1.1V44.2h1.1V42.772l1.105-.132V44.2h1.5l-.12.851h-1.38V48.82a1.163,1.163,0,0,0,.174.714.693.693,0,0,0,.582.222,1.813,1.813,0,0,0,.84-.252Z"/><path d="M135.733,44.572a1.977,1.977,0,0,1,.487,1.416v4.536h-1.1v-4.38a1.4,1.4,0,0,0-.252-.948.957.957,0,0,0-.744-.276,1.44,1.44,0,0,0-.888.288,2.98,2.98,0,0,0-.719.828v4.488h-1.1V44.2h.948l.1.935a2.529,2.529,0,0,1,.834-.792,2.164,2.164,0,0,1,1.1-.287A1.762,1.762,0,0,1,135.733,44.572Z"/><path d="M139.939,40.912l.493.924-2.544,1.032-.336-.588Zm-.395,3.288v6.324h-1.105V44.2Z"/><path d="M145.159,44.217a2.907,2.907,0,0,1,.9.523l-.529.7a2.687,2.687,0,0,0-.653-.354,2.067,2.067,0,0,0-.7-.115,1.375,1.375,0,0,0-1.195.613,3.174,3.174,0,0,0-.425,1.812,2.991,2.991,0,0,0,.42,1.77,1.4,1.4,0,0,0,1.2.57,1.974,1.974,0,0,0,.683-.114,3.482,3.482,0,0,0,.7-.366l.5.72a3,3,0,0,1-1.932.7A2.519,2.519,0,0,1,142.1,49.8a3.556,3.556,0,0,1-.738-2.387,4.31,4.31,0,0,1,.336-1.764,2.721,2.721,0,0,1,.954-1.176,2.555,2.555,0,0,1,1.471-.42A3.154,3.154,0,0,1,145.159,44.217Z"/><path d="M151.886,44.572a1.981,1.981,0,0,1,.486,1.416v4.536h-1.1v-4.38a1.379,1.379,0,0,0-.258-.948.977.977,0,0,0-.75-.276,1.422,1.422,0,0,0-.876.288,3.05,3.05,0,0,0-.72.816v4.5h-1.1V41.668l1.1-.12v3.528a2.238,2.238,0,0,1,1.872-1.02A1.766,1.766,0,0,1,151.886,44.572Z"/><path d="M162.38,44.925a4.059,4.059,0,0,1,.636,2.431,4.645,4.645,0,0,1-.3,1.734,2.6,2.6,0,0,1-.864,1.164,2.17,2.17,0,0,1-1.32.414,2.09,2.09,0,0,1-1.68-.84l-.108.7h-.973V41.656l1.105-.132v3.468a2.116,2.116,0,0,1,1.788-.936A2.018,2.018,0,0,1,162.38,44.925Zm-.966,4.273a3.269,3.269,0,0,0,.414-1.842,3.407,3.407,0,0,0-.385-1.854,1.238,1.238,0,0,0-1.091-.57,1.788,1.788,0,0,0-1.476.984V48.94a1.96,1.96,0,0,0,.618.624,1.438,1.438,0,0,0,.774.228A1.323,1.323,0,0,0,161.414,49.2Z"/><path d="M169.346,44.944a3.658,3.658,0,0,1,.738,2.412,4.2,4.2,0,0,1-.336,1.734,2.643,2.643,0,0,1-.973,1.164,2.7,2.7,0,0,1-1.511.414,2.564,2.564,0,0,1-2.077-.888,3.64,3.64,0,0,1-.744-2.412,4.225,4.225,0,0,1,.336-1.735,2.654,2.654,0,0,1,.973-1.164,2.738,2.738,0,0,1,1.523-.413A2.545,2.545,0,0,1,169.346,44.944Zm-3.714,2.424q0,2.412,1.632,2.412t1.631-2.424q0-2.412-1.62-2.412Q165.633,44.944,165.632,47.368Z"/><path d="M176.8,41.656v8.868h-.972l-.108-.876a2.3,2.3,0,0,1-.781.75,2.172,2.172,0,0,1-2.8-.618,4.052,4.052,0,0,1-.63-2.388,4.657,4.657,0,0,1,.3-1.728,2.685,2.685,0,0,1,.865-1.182A2.126,2.126,0,0,1,174,44.056a2.268,2.268,0,0,1,1.7.78V41.524Zm-1.8,7.9a2.693,2.693,0,0,0,.7-.7v-3.1a2.4,2.4,0,0,0-.666-.617,1.532,1.532,0,0,0-.8-.21,1.276,1.276,0,0,0-1.133.612,3.341,3.341,0,0,0-.4,1.824,3.532,3.532,0,0,0,.372,1.824,1.187,1.187,0,0,0,1.069.6A1.551,1.551,0,0,0,175,49.558Z"/><path d="M183.787,50.524h-.947l-.085-.984a2.415,2.415,0,0,1-.827.858,2.253,2.253,0,0,1-1.141.27,1.683,1.683,0,0,1-1.3-.5,2.025,2.025,0,0,1-.468-1.428V44.2h1.1v4.416a1.434,1.434,0,0,0,.228.918.924.924,0,0,0,.745.269,1.88,1.88,0,0,0,1.584-1.091V44.2h1.1ZM182.4,40.858a1.261,1.261,0,0,1,0,1.812,1.5,1.5,0,0,1-1.967,0,1.259,1.259,0,0,1,0-1.812,1.5,1.5,0,0,1,1.967,0Zm-1.452.414a.8.8,0,0,0,0,.984.691.691,0,0,0,.93,0,.68.68,0,0,0,.174-.492.693.693,0,0,0-.168-.492.7.7,0,0,0-.936,0Z"/><path class="cls-9" d="M45.66,374.9v.962l-4.029,6.955h4.016l-.129,1.026H40.305v-.961L44.36,375.9H40.707v-1Z"/><path class="cls-9" d="M51.744,374.236v9.606H50.705l-.078-.9a2.018,2.018,0,0,1-1.781,1.065,1.96,1.96,0,0,1-1.737-.948,4.766,4.766,0,0,1-.617-2.614,5.409,5.409,0,0,1,.306-1.9,2.87,2.87,0,0,1,.864-1.267,2.043,2.043,0,0,1,2.912.37v-3.548Zm-1.812,8.592a2.6,2.6,0,0,0,.642-.766V378.63a1.654,1.654,0,0,0-1.365-.872,1.232,1.232,0,0,0-1.092.664,3.87,3.87,0,0,0-.39,2,4.274,4.274,0,0,0,.365,2.015,1.129,1.129,0,0,0,1.027.65A1.311,1.311,0,0,0,49.932,382.828Z"/><path class="cls-9" d="M57.243,376.926l-.194,1.131a1.8,1.8,0,0,0-.533-.077,1.127,1.127,0,0,0-.93.454,3.508,3.508,0,0,0-.566,1.391v4.017H53.851v-6.837h1.013l.091,1.352q.507-1.509,1.7-1.509A1.983,1.983,0,0,1,57.243,376.926Z"/><path class="cls-9" d="M62.443,377.758a5.115,5.115,0,0,1-.013,5.285,2.66,2.66,0,0,1-4.088.02,5.1,5.1,0,0,1,.006-5.285,2.715,2.715,0,0,1,4.095-.02Zm-3.211.657a3.882,3.882,0,0,0-.4,2.009q0,2.664,1.56,2.665t1.56-2.679a3.959,3.959,0,0,0-.39-2,1.271,1.271,0,0,0-1.157-.636A1.3,1.3,0,0,0,59.232,378.415Z"/><path class="cls-9" d="M66.031,383.57a3.792,3.792,0,0,1-.227,1.423,2.239,2.239,0,0,1-.65.9,5.658,5.658,0,0,1-1.138.682l-.364-.845a3.019,3.019,0,0,0,.7-.468,1.466,1.466,0,0,0,.377-.624,3.33,3.33,0,0,0,.131-1.04v-6.59h1.17ZM66,374a.775.775,0,0,1-1.105,1.085.73.73,0,0,1-.213-.539.751.751,0,0,1,.213-.546A.8.8,0,0,1,66,374Z"/><path class="cls-9" d="M76.055,374.236v9.606H75.014l-.079-.9a2.015,2.015,0,0,1-1.78,1.065,1.957,1.957,0,0,1-1.735-.948,4.757,4.757,0,0,1-.617-2.614,5.434,5.434,0,0,1,.3-1.9,2.857,2.857,0,0,1,.866-1.267,2.043,2.043,0,0,1,2.912.37v-3.548Zm-1.815,8.592a2.58,2.58,0,0,0,.645-.766V378.63a1.658,1.658,0,0,0-1.366-.872,1.227,1.227,0,0,0-1.091.664,3.839,3.839,0,0,0-.391,2,4.276,4.276,0,0,0,.364,2.015,1.129,1.129,0,0,0,1.027.65A1.3,1.3,0,0,0,74.24,382.828Z"/><path class="cls-9" d="M82.541,382.9a.732.732,0,0,0,.363.305l-.246.793a1.633,1.633,0,0,1-.793-.311,1.284,1.284,0,0,1-.4-.716,2.089,2.089,0,0,1-1.859,1.04,1.888,1.888,0,0,1-1.443-.565,2.12,2.12,0,0,1-.533-1.515,2,2,0,0,1,.715-1.664,3.2,3.2,0,0,1,2.041-.571h.885v-.585a1.5,1.5,0,0,0-.293-1.034,1.249,1.249,0,0,0-.956-.319,4.758,4.758,0,0,0-1.664.364l-.287-.819a5.663,5.663,0,0,1,2.133-.467,1.964,1.964,0,0,1,2.223,2.222v3.224A1.266,1.266,0,0,0,82.541,382.9Zm-1.273-.838v-1.613h-.755q-1.689,0-1.691,1.417a1.416,1.416,0,0,0,.274.936.96.96,0,0,0,.78.326A1.521,1.521,0,0,0,81.268,382.062Z"/><path class="cls-9" d="M87.767,383.544a2.415,2.415,0,0,1-1.443.467,1.664,1.664,0,0,1-1.281-.481,1.905,1.905,0,0,1-.448-1.352v-4.29h-.976v-.883H84.6v-1.574l1.17-.143v1.717h1.507l-.129.883H85.765v4.278q0,.883.741.884a1.261,1.261,0,0,0,.409-.065,2.734,2.734,0,0,0,.423-.2Z"/><path class="cls-9" d="M89.736,377.765a.81.81,0,0,1,.228.578.831.831,0,0,1-.228.585.767.767,0,0,1-.592.247.75.75,0,0,1-.578-.247.83.83,0,0,1-.227-.585.809.809,0,0,1,.227-.578.762.762,0,0,1,.578-.24A.779.779,0,0,1,89.736,377.765Zm0,4.836a.81.81,0,0,1,.228.578.831.831,0,0,1-.228.585.767.767,0,0,1-.592.247.75.75,0,0,1-.578-.247.83.83,0,0,1-.227-.585.809.809,0,0,1,.227-.578.762.762,0,0,1,.578-.24A.779.779,0,0,1,89.736,382.6Z"/><path class="cls-9" d="M100.1,374.9l-2.47,8.943H96.19L93.682,374.9H94.93l2,7.774,1.975-7.774Z"/><path class="cls-9" d="M105.355,377.758a5.115,5.115,0,0,1-.013,5.285,2.66,2.66,0,0,1-4.088.02,5.1,5.1,0,0,1,.006-5.285,2.715,2.715,0,0,1,4.095-.02Zm-3.211.657a3.882,3.882,0,0,0-.4,2.009q0,2.664,1.56,2.665t1.56-2.679a3.959,3.959,0,0,0-.39-2,1.271,1.271,0,0,0-1.157-.636A1.3,1.3,0,0,0,102.144,378.415Z"/><path class="cls-9" d="M108.072,383.634a1.455,1.455,0,0,1-.364-1.053v-8.345l1.171-.13v8.437c0,.338.138.507.416.507a1.075,1.075,0,0,0,.377-.079l.26.82a1.841,1.841,0,0,1-.872.22A1.306,1.306,0,0,1,108.072,383.634Z"/><path class="cls-9" d="M115.813,377.752a4.925,4.925,0,0,1,.591,2.658,4.711,4.711,0,0,1-.642,2.633,2,2,0,0,1-1.749.968,1.909,1.909,0,0,1-.949-.24,2.263,2.263,0,0,1-.742-.682l-.078.753h-1.039v-9.594l1.17-.13v3.719a2.5,2.5,0,0,1,.773-.735,1.918,1.918,0,0,1,1-.266A1.877,1.877,0,0,1,115.813,377.752Zm-.63,2.658a4.337,4.337,0,0,0-.351-2.047,1.1,1.1,0,0,0-1-.605,1.251,1.251,0,0,0-.8.273,3.056,3.056,0,0,0-.656.768v3.393a2.153,2.153,0,0,0,.6.65,1.31,1.31,0,0,0,.767.247Q115.182,383.089,115.183,380.41Z"/><path class="cls-9" d="M120.643,383.868a4.365,4.365,0,0,1-1.027,1.872,3.269,3.269,0,0,1-1.886.846l-.128-.871a3.153,3.153,0,0,0,.974-.352,1.756,1.756,0,0,0,.585-.571,4.746,4.746,0,0,0,.429-.95h-.429l-2.028-6.837h1.209l1.586,6.019,1.586-6.019h1.2Z"/><path class="cls-9" d="M124.25,382.6a.81.81,0,0,1,.228.578.831.831,0,0,1-.228.585.765.765,0,0,1-.591.247.752.752,0,0,1-.579-.247.835.835,0,0,1-.227-.585.813.813,0,0,1,.227-.578.764.764,0,0,1,.579-.24A.777.777,0,0,1,124.25,382.6Z"/><path class="cls-9" d="M129.353,377.017a2.961,2.961,0,0,1,.872.559l-.521.7a2.471,2.471,0,0,0-.624-.371,1.83,1.83,0,0,0-.676-.124,1.34,1.34,0,0,0-1.189.65,3.8,3.8,0,0,0-.423,2.029q0,2.572,1.612,2.573a1.723,1.723,0,0,0,.662-.123,3.13,3.13,0,0,0,.638-.37l.546.715a2.736,2.736,0,0,1-1.885.753,2.518,2.518,0,0,1-2.06-.91,4.044,4.044,0,0,1-.748-2.626,4.992,4.992,0,0,1,.344-1.937,2.827,2.827,0,0,1,.976-1.26,2.5,2.5,0,0,1,1.475-.442A2.681,2.681,0,0,1,129.353,377.017Z"/><path class="cls-9" d="M135.268,377.005v.871l-3.237,5h3.25l-.117.961h-4.42v-.871l3.236-5h-2.962v-.962Z"/><path class="cls-9" d="M144.588,373.351v11.818H143.5V373.351Z"/><path class="cls-9" d="M158.967,374.9l-2.471,8.943h-1.443l-2.509-8.943h1.248l2,7.774,1.975-7.774Z"/><path class="cls-9" d="M161.26,374a.8.8,0,0,1,.007,1.085.829.829,0,0,1-1.112,0,.731.731,0,0,1-.214-.539.752.752,0,0,1,.214-.546.8.8,0,0,1,1.1,0Zm.033,3v6.837h-1.17v-6.837Z"/><path class="cls-9" d="M167.13,377.005v.871l-3.237,5h3.25l-.118.961H162.6v-.871l3.238-5h-2.964v-.962Z"/><path class="cls-9" d="M173.123,383.842h-1.014l-.065-1.026a2.157,2.157,0,0,1-1.911,1.2,1.624,1.624,0,0,1-1.287-.532,2.113,2.113,0,0,1-.468-1.444v-5.03h1.17v4.926a1.38,1.38,0,0,0,.227.878.83.83,0,0,0,.683.28q.871,0,1.5-1.144v-4.94h1.17Z"/><path class="cls-9" d="M179.609,382.9a.732.732,0,0,0,.365.305l-.247.793a1.633,1.633,0,0,1-.793-.311,1.284,1.284,0,0,1-.4-.716,2.088,2.088,0,0,1-1.859,1.04,1.889,1.889,0,0,1-1.444-.565,2.12,2.12,0,0,1-.533-1.515,2.008,2.008,0,0,1,.715-1.664,3.2,3.2,0,0,1,2.041-.571h.885v-.585a1.5,1.5,0,0,0-.293-1.034,1.246,1.246,0,0,0-.955-.319,4.763,4.763,0,0,0-1.664.364l-.286-.819a5.65,5.65,0,0,1,2.131-.467,1.964,1.964,0,0,1,2.223,2.222v3.224A1.266,1.266,0,0,0,179.609,382.9Zm-1.273-.838v-1.613h-.754q-1.69,0-1.69,1.417a1.416,1.416,0,0,0,.272.936.965.965,0,0,0,.781.326A1.518,1.518,0,0,0,178.336,382.062Z"/><path class="cls-9" d="M181.768,383.634a1.451,1.451,0,0,1-.365-1.053v-8.345l1.171-.13v8.437c0,.338.138.507.416.507a1.071,1.071,0,0,0,.377-.079l.26.82a1.835,1.835,0,0,1-.871.22A1.306,1.306,0,0,1,181.768,383.634Z"/><path class="cls-9" d="M186.038,374a.774.774,0,0,1-1.1,1.085.728.728,0,0,1-.215-.539.749.749,0,0,1,.215-.546.8.8,0,0,1,1.1,0Zm.032,3v6.837H184.9v-6.837Z"/><path class="cls-9" d="M191.908,377.005v.871l-3.238,5h3.25l-.116.961h-4.421v-.871l3.238-5h-2.965v-.962Z"/><path class="cls-9" d="M197.537,382.9a.732.732,0,0,0,.363.305l-.247.793a1.633,1.633,0,0,1-.793-.311,1.29,1.29,0,0,1-.4-.716,2.085,2.085,0,0,1-1.858,1.04,1.887,1.887,0,0,1-1.443-.565,2.12,2.12,0,0,1-.533-1.515,2,2,0,0,1,.715-1.664,3.2,3.2,0,0,1,2.041-.571h.884v-.585a1.508,1.508,0,0,0-.292-1.034,1.249,1.249,0,0,0-.956-.319,4.749,4.749,0,0,0-1.664.364l-.287-.819a5.655,5.655,0,0,1,2.133-.467,1.964,1.964,0,0,1,2.223,2.222v3.224A1.266,1.266,0,0,0,197.537,382.9Zm-1.274-.838v-1.613h-.755q-1.689,0-1.69,1.417a1.416,1.416,0,0,0,.274.936.958.958,0,0,0,.779.326A1.52,1.52,0,0,0,196.263,382.062Z"/><path class="cls-9" d="M202.905,377.017a2.932,2.932,0,0,1,.871.559l-.52.7a2.466,2.466,0,0,0-.623-.371,1.835,1.835,0,0,0-.677-.124,1.342,1.342,0,0,0-1.189.65,3.8,3.8,0,0,0-.423,2.029q0,2.572,1.612,2.573a1.725,1.725,0,0,0,.663-.123,3.125,3.125,0,0,0,.637-.37l.547.715a2.737,2.737,0,0,1-1.886.753,2.522,2.522,0,0,1-2.061-.91,4.044,4.044,0,0,1-.747-2.626,5.011,5.011,0,0,1,.344-1.937,2.834,2.834,0,0,1,.976-1.26,2.5,2.5,0,0,1,1.475-.442A2.677,2.677,0,0,1,202.905,377.017Z"/><path class="cls-9" d="M209.613,380.826h-3.978a2.95,2.95,0,0,0,.481,1.723,1.428,1.428,0,0,0,1.17.526,2.307,2.307,0,0,0,.839-.143,2.969,2.969,0,0,0,.773-.467l.52.689a3.2,3.2,0,0,1-2.184.857,2.492,2.492,0,0,1-2.074-.929,4.113,4.113,0,0,1-.734-2.607,4.488,4.488,0,0,1,.7-2.658,2.264,2.264,0,0,1,1.95-.981,2.239,2.239,0,0,1,1.9.877,4.094,4.094,0,0,1,.662,2.5C209.639,380.4,209.631,380.6,209.613,380.826Zm-1.1-.962q0-2.145-1.417-2.145a1.191,1.191,0,0,0-1.027.54,3.384,3.384,0,0,0-.429,1.749h2.873Z"/><path class="cls-9" d="M212.168,377.765a.816.816,0,0,1,.226.578.838.838,0,0,1-.226.585.768.768,0,0,1-.592.247.747.747,0,0,1-.578-.247.832.832,0,0,1-.229-.585.811.811,0,0,1,.229-.578.759.759,0,0,1,.578-.24A.781.781,0,0,1,212.168,377.765Zm0,4.836a.816.816,0,0,1,.226.578.838.838,0,0,1-.226.585.768.768,0,0,1-.592.247.747.747,0,0,1-.578-.247.832.832,0,0,1-.229-.585A.811.811,0,0,1,211,382.6a.759.759,0,0,1,.578-.24A.781.781,0,0,1,212.168,382.6Z"/><path class="cls-9" d="M218.213,374a.756.756,0,0,1,.214.546.783.783,0,0,1-1.32.539.735.735,0,0,1-.214-.539.756.756,0,0,1,.214-.546.8.8,0,0,1,1.106,0Zm.032,3v6.837h-1.17v-6.837Z"/><path class="cls-9" d="M224.8,383.842l-1.924-3.809h-1.262v3.809H220.4V374.9H222.5q3.2,0,3.2,2.522a2.538,2.538,0,0,1-.428,1.5,2.466,2.466,0,0,1-1.261.9l2.132,4.029Zm-.819-5.141a1.641,1.641,0,0,0,.455-1.28,1.493,1.493,0,0,0-.462-1.209,2.31,2.31,0,0,0-1.5-.391h-.859v3.29h.976A2.029,2.029,0,0,0,223.978,378.7Z"/><path class="cls-9" d="M232.863,375.906a6.99,6.99,0,0,1,.007,6.91,3.269,3.269,0,0,1-5.038.019,5.546,5.546,0,0,1-.916-3.452,6.81,6.81,0,0,1,.422-2.541,3.4,3.4,0,0,1,1.2-1.58,3.116,3.116,0,0,1,1.813-.532A3.014,3.014,0,0,1,232.863,375.906Zm-4.674,3.477q0,3.654,2.159,3.653a1.783,1.783,0,0,0,1.612-.87,7.386,7.386,0,0,0-.007-5.591,1.778,1.778,0,0,0-1.6-.883Q228.189,375.692,228.189,379.383Z"/><path class="cls-9" d="M239.786,374.9v.962l-4.03,6.955h4.017l-.13,1.026H234.43v-.961l4.056-6.981h-3.653v-1Z"/><path class="cls-9" d="M245.805,383.842v-4.2h-3.25v4.2h-1.209V374.9h1.209v3.756h3.25V374.9h1.209v8.943Z"/><path class="cls-9" d="M250.433,374.9v7.917H253.7l-.13,1.026h-4.341V374.9Z"/><path class="cls-9" d="M259.377,383.842l-.6-2.274h-3l-.6,2.274h-1.209l2.587-8.943h1.481l2.588,8.943Zm-3.355-3.224h2.509l-1.248-4.757Z"/><path class="cls-9" d="M265.324,374.989a3.676,3.676,0,0,1,1.111.78l-.611.69a3.36,3.36,0,0,0-.877-.579,2.363,2.363,0,0,0-.943-.188,1.5,1.5,0,0,0-1.046.357,1.2,1.2,0,0,0-.4.942,1.352,1.352,0,0,0,.156.67,1.446,1.446,0,0,0,.533.507,5.715,5.715,0,0,0,1.066.462,6.54,6.54,0,0,1,1.3.61,2.242,2.242,0,0,1,.78.832,2.964,2.964,0,0,1-.078,2.646,2.453,2.453,0,0,1-1.008.949,3.263,3.263,0,0,1-1.54.344A3.73,3.73,0,0,1,261,382.842l.637-.689a3.925,3.925,0,0,0,.98.656,2.654,2.654,0,0,0,1.112.227,1.72,1.72,0,0,0,1.229-.435,1.572,1.572,0,0,0,.462-1.2,1.469,1.469,0,0,0-.371-1.054,3.478,3.478,0,0,0-1.359-.728,4.56,4.56,0,0,1-1.813-1.026,2.124,2.124,0,0,1-.553-1.521,2.23,2.23,0,0,1,1.262-2.041,2.966,2.966,0,0,1,1.351-.3A3.423,3.423,0,0,1,265.324,374.989Z"/><path class="cls-9" d="M269.119,382.6a.811.811,0,0,1,.229.578.832.832,0,0,1-.229.585.765.765,0,0,1-.591.247.754.754,0,0,1-.579-.247.834.834,0,0,1-.226-.585.812.812,0,0,1,.226-.578.766.766,0,0,1,.579-.24A.777.777,0,0,1,269.119,382.6Z"/><path class="cls-9" d="M274.223,377.017a2.97,2.97,0,0,1,.871.559l-.521.7a2.471,2.471,0,0,0-.624-.371,1.826,1.826,0,0,0-.676-.124,1.34,1.34,0,0,0-1.189.65,3.8,3.8,0,0,0-.423,2.029q0,2.572,1.612,2.573a1.72,1.72,0,0,0,.662-.123,3.1,3.1,0,0,0,.638-.37l.546.715a2.736,2.736,0,0,1-1.885.753,2.518,2.518,0,0,1-2.06-.91,4.044,4.044,0,0,1-.748-2.626,4.992,4.992,0,0,1,.344-1.937,2.827,2.827,0,0,1,.976-1.26,2.5,2.5,0,0,1,1.475-.442A2.69,2.69,0,0,1,274.223,377.017Z"/><path class="cls-9" d="M280.137,377.005v.871l-3.237,5h3.25l-.117.961h-4.42v-.871l3.237-5h-2.963v-.962Z"/><path class="cls-9" d="M282.412,382.594a.806.806,0,0,1,.221.573,1.318,1.318,0,0,1-.059.377c-.039.13-.1.316-.188.558l-.715,1.833h-.728l.481-2.067a.777.777,0,0,1-.377-.689.811.811,0,0,1,.227-.585.777.777,0,0,1,.579-.233A.74.74,0,0,1,282.412,382.594Z"/><path class="cls-9" d="M288.574,374.9v8.943h-1.209V374.9Zm4.394,0-3.029,4.082,3.237,4.861h-1.391l-3.159-4.784,3.055-4.159Z"/><path class="cls-9" d="M297.582,376.926l-.194,1.131a1.8,1.8,0,0,0-.534-.077,1.125,1.125,0,0,0-.928.454,3.493,3.493,0,0,0-.567,1.391v4.017h-1.17v-6.837H295.2l.092,1.352q.507-1.509,1.7-1.509A1.976,1.976,0,0,1,297.582,376.926Z"/><path class="cls-9" d="M299.863,374a.774.774,0,0,1-1.1,1.085.727.727,0,0,1-.214-.539.748.748,0,0,1,.214-.546.8.8,0,0,1,1.1,0Zm.033,3v6.837h-1.169v-6.837Z"/><path class="cls-9" d="M305.877,377.615l-.494.689a3.944,3.944,0,0,0-.781-.428,2.068,2.068,0,0,0-.766-.143,1.275,1.275,0,0,0-.839.253.855.855,0,0,0-.306.695.841.841,0,0,0,.293.677,3.523,3.523,0,0,0,1.112.506,3.688,3.688,0,0,1,1.5.793,1.746,1.746,0,0,1,.468,1.288,1.824,1.824,0,0,1-.7,1.514,2.752,2.752,0,0,1-1.755.552,3.275,3.275,0,0,1-2.354-.922l.6-.65a2.706,2.706,0,0,0,1.729.662,1.415,1.415,0,0,0,.922-.285.968.968,0,0,0,.352-.793,1.2,1.2,0,0,0-.123-.585,1.1,1.1,0,0,0-.443-.4,5.353,5.353,0,0,0-.93-.37,3.389,3.389,0,0,1-1.4-.781,1.614,1.614,0,0,1-.43-1.156,1.719,1.719,0,0,1,.287-.976,1.949,1.949,0,0,1,.793-.675,2.628,2.628,0,0,1,1.169-.247A3.172,3.172,0,0,1,305.877,377.615Z"/><path class="cls-9" d="M310.791,383.544a2.415,2.415,0,0,1-1.443.467,1.668,1.668,0,0,1-1.282-.481,1.91,1.91,0,0,1-.447-1.352v-4.29h-.976v-.883h.976v-1.574l1.17-.143v1.717H310.3l-.131.883h-1.377v4.278q0,.883.74.884a1.259,1.259,0,0,0,.41-.065,2.771,2.771,0,0,0,.422-.2Z"/><path class="cls-9" d="M313.248,373.482l.494.936-2.5,1.131-.339-.6Zm-.273,3.523v6.837h-1.17v-6.837Z"/><path class="cls-9" d="M319.416,377.375a2.216,2.216,0,0,1,.461,1.488v4.979h-1.17v-4.835a1.605,1.605,0,0,0-.221-.956.793.793,0,0,0-.676-.293q-.858,0-1.56,1.223v4.861h-1.17v-6.837H316.1l.09,1.013a2.31,2.31,0,0,1,1.951-1.182A1.593,1.593,0,0,1,319.416,377.375Z"/><path class="cls-9" d="M326.311,382.9a.737.737,0,0,0,.365.305l-.247.793a1.629,1.629,0,0,1-.793-.311,1.278,1.278,0,0,1-.4-.716,2.088,2.088,0,0,1-1.859,1.04,1.888,1.888,0,0,1-1.443-.565,2.116,2.116,0,0,1-.534-1.515,2.006,2.006,0,0,1,.716-1.664,3.2,3.2,0,0,1,2.041-.571h.884v-.585a1.5,1.5,0,0,0-.293-1.034,1.245,1.245,0,0,0-.955-.319,4.763,4.763,0,0,0-1.664.364l-.286-.819a5.651,5.651,0,0,1,2.132-.467,1.964,1.964,0,0,1,2.223,2.222v3.224A1.279,1.279,0,0,0,326.311,382.9Zm-1.273-.838v-1.613h-.754q-1.691,0-1.69,1.417a1.416,1.416,0,0,0,.273.936.961.961,0,0,0,.779.326A1.518,1.518,0,0,0,325.038,382.062Z"/><path class="cls-9" d="M335.983,374.9v.962l-4.029,6.955h4.017l-.13,1.026h-5.213v-.961l4.056-6.981H331.03v-1Z"/><path class="cls-9" d="M341.678,382.9a.73.73,0,0,0,.364.305L341.8,384a1.629,1.629,0,0,1-.793-.311,1.277,1.277,0,0,1-.4-.716,2.09,2.09,0,0,1-1.86,1.04,1.888,1.888,0,0,1-1.443-.565,2.116,2.116,0,0,1-.533-1.515,2,2,0,0,1,.715-1.664,3.2,3.2,0,0,1,2.041-.571h.884v-.585a1.5,1.5,0,0,0-.293-1.034,1.243,1.243,0,0,0-.955-.319,4.767,4.767,0,0,0-1.664.364l-.286-.819a5.659,5.659,0,0,1,2.132-.467,1.964,1.964,0,0,1,2.223,2.222v3.224A1.278,1.278,0,0,0,341.678,382.9Zm-1.494-9.418.493.936-2.5,1.131-.338-.6Zm.22,8.58v-1.613h-.754q-1.69,0-1.69,1.417a1.416,1.416,0,0,0,.273.936.961.961,0,0,0,.78.326A1.518,1.518,0,0,0,340.4,382.062Z"/><path class="cls-9" d="M344.836,374.106v9.736h-1.17v-9.606Zm3.6,2.9-2.314,3.042,2.535,3.795h-1.3L344.9,380.1l2.314-3.093Z"/><path class="cls-9" d="M354.027,377.758a5.118,5.118,0,0,1-.012,5.285,2.661,2.661,0,0,1-4.089.02,5.1,5.1,0,0,1,.007-5.285,2.714,2.714,0,0,1,4.094-.02Zm-3.211.657a3.893,3.893,0,0,0-.4,2.009q0,2.664,1.56,2.665t1.559-2.679a3.959,3.959,0,0,0-.39-2,1.27,1.27,0,0,0-1.157-.636A1.3,1.3,0,0,0,350.816,378.415Z"/><path class="cls-9" d="M361.08,377.758a5.088,5.088,0,0,1,.565,2.64,4.814,4.814,0,0,1-.63,2.638,2.065,2.065,0,0,1-3.4.157v3.25l-1.17.143v-9.581h1.028l.064.922a2.128,2.128,0,0,1,1.859-1.091A1.849,1.849,0,0,1,361.08,377.758Zm-.656,2.652a4.582,4.582,0,0,0-.332-2.021,1.075,1.075,0,0,0-1.007-.631,1.28,1.28,0,0,0-.807.273,3.164,3.164,0,0,0-.663.742v3.458a1.577,1.577,0,0,0,1.365.844Q360.423,383.075,360.424,380.41Z"/><path class="cls-9" d="M366.741,377.017a2.919,2.919,0,0,1,.871.559l-.519.7a2.471,2.471,0,0,0-.624-.371,1.83,1.83,0,0,0-.676-.124,1.342,1.342,0,0,0-1.19.65,3.806,3.806,0,0,0-.422,2.029q0,2.572,1.612,2.573a1.732,1.732,0,0,0,.663-.123,3.152,3.152,0,0,0,.637-.37l.546.715a2.734,2.734,0,0,1-1.885.753,2.52,2.52,0,0,1-2.061-.91,4.038,4.038,0,0,1-.748-2.626,4.973,4.973,0,0,1,.345-1.937,2.825,2.825,0,0,1,.975-1.26,2.5,2.5,0,0,1,1.475-.442A2.677,2.677,0,0,1,366.741,377.017Zm.469-3.354.455.52-1.573,1.509h-.729l-1.572-1.509.454-.52,1.482,1.144Z"/><path class="cls-9" d="M373.176,382.9a.73.73,0,0,0,.364.305l-.247.793a1.629,1.629,0,0,1-.793-.311,1.283,1.283,0,0,1-.4-.716,2.09,2.09,0,0,1-1.86,1.04,1.888,1.888,0,0,1-1.443-.565,2.116,2.116,0,0,1-.533-1.515,2,2,0,0,1,.715-1.664,3.2,3.2,0,0,1,2.041-.571h.884v-.585a1.5,1.5,0,0,0-.293-1.034,1.243,1.243,0,0,0-.955-.319,4.767,4.767,0,0,0-1.664.364l-.286-.819a5.659,5.659,0,0,1,2.132-.467,1.965,1.965,0,0,1,2.224,2.222v3.224A1.279,1.279,0,0,0,373.176,382.9Zm-1.274-.838v-1.613h-.754q-1.691,0-1.69,1.417a1.416,1.416,0,0,0,.273.936.961.961,0,0,0,.78.326A1.518,1.518,0,0,0,371.9,382.062Z"/><path class="cls-9" d="M379.5,377.375a2.216,2.216,0,0,1,.461,1.488v4.979h-1.17v-4.835a1.605,1.605,0,0,0-.221-.956.793.793,0,0,0-.676-.293q-.858,0-1.56,1.223v4.861h-1.17v-6.837h1.015l.09,1.013a2.31,2.31,0,0,1,1.951-1.182A1.593,1.593,0,0,1,379.5,377.375Z"/><path class="cls-9" d="M386.435,377.758a5.118,5.118,0,0,1-.012,5.285,2.661,2.661,0,0,1-4.089.02,5.1,5.1,0,0,1,.007-5.285,2.714,2.714,0,0,1,4.094-.02Zm-3.21.657a3.882,3.882,0,0,0-.4,2.009q0,2.664,1.56,2.665t1.559-2.679a3.971,3.971,0,0,0-.389-2,1.273,1.273,0,0,0-1.158-.636A1.3,1.3,0,0,0,383.225,378.415Z"/><path class="cls-9" d="M393.417,377.005l-2.041,6.837h-1.4l-2.106-6.837h1.222l1.586,5.85,1.573-5.85Z"/><path class="cls-9" d="M398.785,382.9a.73.73,0,0,0,.364.305L398.9,384a1.633,1.633,0,0,1-.793-.311,1.283,1.283,0,0,1-.4-.716,2.089,2.089,0,0,1-1.859,1.04,1.89,1.89,0,0,1-1.444-.565,2.12,2.12,0,0,1-.533-1.515,2,2,0,0,1,.716-1.664,3.2,3.2,0,0,1,2.041-.571h.884v-.585a1.5,1.5,0,0,0-.293-1.034,1.246,1.246,0,0,0-.955-.319,4.758,4.758,0,0,0-1.664.364l-.287-.819a5.659,5.659,0,0,1,2.132-.467,1.964,1.964,0,0,1,2.224,2.222v3.224A1.279,1.279,0,0,0,398.785,382.9Zm-1.494-9.418.493.936-2.5,1.131-.338-.6Zm.221,8.58v-1.613h-.754q-1.69,0-1.691,1.417a1.411,1.411,0,0,0,.274.936.958.958,0,0,0,.779.326A1.52,1.52,0,0,0,397.512,382.062Z"/></svg>