<svg id="Layer_1" data-name="Layer 1" xmlns="http://www.w3.org/2000/svg" viewBox="0 0 620 487.954"><defs><style>.cls-1,.cls-2,.cls-3,.cls-4{fill:none;}.cls-1{stroke:#d9d9d9;stroke-width:0.75px;}.cls-1,.cls-4{stroke-linejoin:round;}.cls-2{stroke:#c44536;}.cls-2,.cls-3{stroke-miterlimit:10;}.cls-2,.cls-3,.cls-4{stroke-width:2px;}.cls-3{stroke:#ee9b00;}.cls-4{stroke:#4c4c61;stroke-linecap:round;}.cls-5{fill:#c44536;}.cls-6{fill:#ee9b00;}.cls-7{fill:#4c4c61;}.cls-8{fill:#595959;}.cls-9{isolation:isolate;}.cls-10{fill:#999;}</style></defs><line class="cls-1" x1="2.414" y1="398.369" x2="570.11" y2="398.369"/><line class="cls-1" x1="2.414" y1="300.946" x2="570.11" y2="300.946"/><line class="cls-1" x1="2.414" y1="203.522" x2="570.11" y2="203.522"/><line class="cls-1" x1="2.414" y1="106.099" x2="570.11" y2="106.099"/><line class="cls-2" x1="177.168" y1="381.205" x2="439.191" y2="229.224"/><line class="cls-3" x1="177.168" y1="282.853" x2="439.191" y2="252.606"/><line class="cls-4" x1="177.168" y1="245.74" x2="439.191" y2="172.254"/><path class="cls-5" d="M103.711,379.371a2.441,2.441,0,0,1,1.337,2.226,3.663,3.663,0,0,1-.385,1.638,8,8,0,0,1-1.183,1.694q-.8.911-2.422,2.534h4.214l-.154,1.078h-5.53v-1.022q1.877-1.947,2.66-2.849a8.069,8.069,0,0,0,1.12-1.575,3.178,3.178,0,0,0,.336-1.442,1.438,1.438,0,0,0-1.54-1.554,2.058,2.058,0,0,0-1.008.238,3.686,3.686,0,0,0-.924.784l-.84-.672a3.862,3.862,0,0,1,1.274-1.064,3.462,3.462,0,0,1,1.568-.35A3.121,3.121,0,0,1,103.711,379.371Z"/><path class="cls-5" d="M112.223,380.274a8.563,8.563,0,0,1,0,7.189,2.831,2.831,0,0,1-4.691,0,8.563,8.563,0,0,1,0-7.189,2.84,2.84,0,0,1,4.691,0Zm-3.7.679a9.879,9.879,0,0,0,0,5.831,1.458,1.458,0,0,0,2.7,0,9.688,9.688,0,0,0,0-5.824,1.46,1.46,0,0,0-2.7-.007Z"/><path class="cls-5" d="M116.15,387.043a.934.934,0,0,1,.281.686,2.479,2.479,0,0,1-.253.994l-.938,2.142h-.924l.56-2.324a1,1,0,0,1-.287-.35,1.021,1.021,0,0,1-.105-.462.958.958,0,0,1,.966-.966A.949.949,0,0,1,116.15,387.043Z"/><path class="cls-5" d="M123.023,380.008a4.186,4.186,0,0,1,.771,2.667,7.7,7.7,0,0,1-.519,3.087,4.208,4.208,0,0,1-1.582,1.862,10.991,10.991,0,0,1-2.883,1.225l-.294-.966a7.118,7.118,0,0,0,2.877-1.442,3.338,3.338,0,0,0,1.071-2.422,2.422,2.422,0,0,1-.868.812,2.464,2.464,0,0,1-1.233.308,2.413,2.413,0,0,1-1.315-.371,2.577,2.577,0,0,1-.932-1.051,3.483,3.483,0,0,1-.343-1.588,3.235,3.235,0,0,1,.407-1.652,2.764,2.764,0,0,1,1.085-1.071,3.087,3.087,0,0,1,1.5-.371A2.7,2.7,0,0,1,123.023,380.008Zm-.532,2.961a4.336,4.336,0,0,0-.385-2.233,1.418,1.418,0,0,0-1.308-.679,1.556,1.556,0,0,0-1.275.546,2.394,2.394,0,0,0-.448,1.554,2.242,2.242,0,0,0,.42,1.476,1.4,1.4,0,0,0,1.135.5A2.192,2.192,0,0,0,122.491,382.969Z"/><path class="cls-5" d="M132.747,379.679a2.646,2.646,0,0,1,0,3.444,2.405,2.405,0,0,1-3.276,0,2.646,2.646,0,0,1,0-3.444,2.405,2.405,0,0,1,3.276,0Zm-2.52.644a2.358,2.358,0,0,0,0,2.149.94.94,0,0,0,.875.427q1.134,0,1.134-1.5a2.078,2.078,0,0,0-.252-1.071,1.123,1.123,0,0,0-1.757-.007Zm6.559-1.736.9.588-6.482,9.8-.9-.588Zm1.722,6.034a2.668,2.668,0,0,1,0,3.444,2.413,2.413,0,0,1-3.282,0,2.643,2.643,0,0,1,0-3.444,2.413,2.413,0,0,1,3.282,0Zm-2.513.651a1.985,1.985,0,0,0-.259,1.07,2.031,2.031,0,0,0,.259,1.072.941.941,0,0,0,.875.427q1.134,0,1.134-1.5a2.04,2.04,0,0,0-.252-1.063,1.135,1.135,0,0,0-1.757-.007Z"/><path class="cls-5" d="M463.518,224.831a2.436,2.436,0,0,1,1.337,2.225,3.675,3.675,0,0,1-.384,1.638,8.014,8.014,0,0,1-1.183,1.694q-.8.91-2.423,2.535h4.215L464.926,234H459.4v-1.023q1.877-1.945,2.661-2.848a8.071,8.071,0,0,0,1.12-1.576,3.191,3.191,0,0,0,.336-1.442,1.438,1.438,0,0,0-1.54-1.554,2.047,2.047,0,0,0-1.008.239,3.648,3.648,0,0,0-.924.784l-.841-.672a3.866,3.866,0,0,1,1.275-1.065,3.458,3.458,0,0,1,1.568-.349A3.1,3.1,0,0,1,463.518,224.831Z"/><path class="cls-5" d="M472.863,231.5a2.4,2.4,0,0,1-.413,1.379,2.765,2.765,0,0,1-1.155.952,4.326,4.326,0,0,1-3.36.007,2.638,2.638,0,0,1-1.126-.939,2.418,2.418,0,0,1-.4-1.372,2.263,2.263,0,0,1,.469-1.456,3.469,3.469,0,0,1,1.379-.979,2.808,2.808,0,0,1-1.1-.917,2.246,2.246,0,0,1-.356-1.268,2.154,2.154,0,0,1,.4-1.3,2.5,2.5,0,0,1,1.05-.826,3.5,3.5,0,0,1,1.393-.279,3.633,3.633,0,0,1,1.379.265,2.471,2.471,0,0,1,1.057.805,2.09,2.09,0,0,1,.406,1.3,1.909,1.909,0,0,1-.391,1.2,3.451,3.451,0,0,1-1.2.91A2.668,2.668,0,0,1,472.863,231.5Zm-1.855,1.2a1.5,1.5,0,0,0,.511-1.191,1.678,1.678,0,0,0-.2-.846,1.715,1.715,0,0,0-.63-.6,6.534,6.534,0,0,0-1.217-.524l-.351-.126a2.479,2.479,0,0,0-1.036.847,2.253,2.253,0,0,0-.336,1.266,1.481,1.481,0,0,0,.5,1.2,2.051,2.051,0,0,0,1.372.427A2.019,2.019,0,0,0,471.008,232.7Zm-2.52-6.86a1.362,1.362,0,0,0-.427,1.078,1.262,1.262,0,0,0,.414,1.021,3.974,3.974,0,0,0,1.322.645l.238.084a2.74,2.74,0,0,0,.91-.771,1.7,1.7,0,0,0,.281-.994,1.38,1.38,0,0,0-.414-1.05,1.637,1.637,0,0,0-1.169-.391A1.679,1.679,0,0,0,468.488,225.839Z"/><path class="cls-5" d="M475.859,232.5a.93.93,0,0,1,.281.685,2.471,2.471,0,0,1-.253.994l-.938,2.143h-.924l.56-2.324a1,1,0,0,1-.287-.351,1.018,1.018,0,0,1-.105-.462.959.959,0,0,1,.966-.966A.95.95,0,0,1,475.859,232.5Z"/><path class="cls-5" d="M482.649,224.634v.966l-3.5,8.54-1.175-.391,3.374-8.065H477.2v-1.05Z"/><path class="cls-5" d="M491.322,225.138a2.647,2.647,0,0,1,0,3.445,2.408,2.408,0,0,1-3.276,0,2.647,2.647,0,0,1,0-3.445,2.408,2.408,0,0,1,3.276,0Zm-2.519.645a2.348,2.348,0,0,0,0,2.148.938.938,0,0,0,.875.427q1.134,0,1.133-1.5a2.084,2.084,0,0,0-.251-1.07,1.121,1.121,0,0,0-1.757-.007Zm6.558-1.736.9.587-6.482,9.8-.9-.588Zm1.722,6.034a2.667,2.667,0,0,1,0,3.443,2.41,2.41,0,0,1-3.282,0,2.642,2.642,0,0,1,0-3.443,2.41,2.41,0,0,1,3.282,0Zm-2.513.65a1.989,1.989,0,0,0-.259,1.071,2.034,2.034,0,0,0,.259,1.072.942.942,0,0,0,.875.426q1.134,0,1.134-1.5a2.044,2.044,0,0,0-.252-1.064,1.135,1.135,0,0,0-1.757-.007Z"/><path class="cls-6" d="M103.711,280.967a2.441,2.441,0,0,1,1.337,2.227,3.669,3.669,0,0,1-.385,1.638,8.028,8.028,0,0,1-1.183,1.694q-.8.91-2.422,2.533h4.214l-.154,1.078h-5.53v-1.021q1.877-1.947,2.66-2.85a8.067,8.067,0,0,0,1.12-1.574,3.181,3.181,0,0,0,.336-1.442,1.438,1.438,0,0,0-1.54-1.554,2.068,2.068,0,0,0-1.008.237,3.686,3.686,0,0,0-.924.784l-.84-.671a3.862,3.862,0,0,1,1.274-1.064,3.462,3.462,0,0,1,1.568-.35A3.133,3.133,0,0,1,103.711,280.967Z"/><path class="cls-6" d="M111.852,281.78H108.2v2.758a3.256,3.256,0,0,1,1.5-.364,2.5,2.5,0,0,1,1.933.791,3.09,3.09,0,0,1,.727,2.176,3.282,3.282,0,0,1-.406,1.646,2.838,2.838,0,0,1-1.14,1.12,3.513,3.513,0,0,1-1.7.4,3.7,3.7,0,0,1-1.525-.3,4.074,4.074,0,0,1-1.246-.889l.756-.742a3.192,3.192,0,0,0,.924.665,2.578,2.578,0,0,0,1.078.217,1.813,1.813,0,0,0,1.407-.56,2.268,2.268,0,0,0,.511-1.582,2.036,2.036,0,0,0-.462-1.484,1.686,1.686,0,0,0-1.246-.462,2.725,2.725,0,0,0-.672.077,3.467,3.467,0,0,0-.658.245h-1.008v-4.719h5.067Z"/><path class="cls-6" d="M115.352,288.639a.939.939,0,0,1,.28.687,2.479,2.479,0,0,1-.253.994l-.938,2.142h-.923l.559-2.325a1,1,0,0,1-.287-.349,1.035,1.035,0,0,1-.105-.462.956.956,0,0,1,.966-.966A.954.954,0,0,1,115.352,288.639Z"/><path class="cls-6" d="M122.226,281.6a4.194,4.194,0,0,1,.77,2.667,7.7,7.7,0,0,1-.519,3.088,4.211,4.211,0,0,1-1.582,1.861,10.974,10.974,0,0,1-2.883,1.226l-.294-.967a7.117,7.117,0,0,0,2.877-1.441,3.339,3.339,0,0,0,1.071-2.422,2.419,2.419,0,0,1-.868.811,2.462,2.462,0,0,1-1.233.309,2.415,2.415,0,0,1-1.315-.371,2.583,2.583,0,0,1-.932-1.051,3.484,3.484,0,0,1-.342-1.589,3.233,3.233,0,0,1,.406-1.651A2.77,2.77,0,0,1,118.467,281a3.088,3.088,0,0,1,1.5-.371A2.7,2.7,0,0,1,122.226,281.6Zm-.533,2.962a4.349,4.349,0,0,0-.384-2.233,1.419,1.419,0,0,0-1.309-.679,1.553,1.553,0,0,0-1.274.546,2.386,2.386,0,0,0-.449,1.554,2.242,2.242,0,0,0,.42,1.476,1.407,1.407,0,0,0,1.135.5A2.191,2.191,0,0,0,121.693,284.566Z"/><path class="cls-6" d="M131.948,281.276a2.645,2.645,0,0,1,0,3.443,2.4,2.4,0,0,1-3.276,0,2.645,2.645,0,0,1,0-3.443,2.405,2.405,0,0,1,3.276,0Zm-2.519.644a2.35,2.35,0,0,0,0,2.149.941.941,0,0,0,.875.427q1.134,0,1.133-1.5a2.085,2.085,0,0,0-.252-1.072,1.123,1.123,0,0,0-1.756-.006Zm6.558-1.737.9.588-6.482,9.8-.9-.588Zm1.722,6.034a2.67,2.67,0,0,1,0,3.445,2.415,2.415,0,0,1-3.282,0,2.644,2.644,0,0,1,0-3.445,2.415,2.415,0,0,1,3.282,0Zm-2.513.652a1.983,1.983,0,0,0-.259,1.07,2.028,2.028,0,0,0,.259,1.071.939.939,0,0,0,.875.427q1.134,0,1.134-1.5a2.038,2.038,0,0,0-.252-1.063,1.135,1.135,0,0,0-1.757-.007Z"/><path class="cls-6" d="M463.518,248.245a2.461,2.461,0,0,1,.988.917,2.486,2.486,0,0,1,.349,1.308,3.675,3.675,0,0,1-.384,1.638,7.989,7.989,0,0,1-1.183,1.694q-.8.91-2.423,2.535h4.215l-.154,1.078H459.4v-1.023q1.877-1.945,2.661-2.848a8.071,8.071,0,0,0,1.12-1.576,3.191,3.191,0,0,0,.336-1.442,1.438,1.438,0,0,0-1.54-1.554,2.047,2.047,0,0,0-1.008.239,3.648,3.648,0,0,0-.924.784l-.841-.672a3.866,3.866,0,0,1,1.275-1.065,3.458,3.458,0,0,1,1.568-.349A3.1,3.1,0,0,1,463.518,248.245Z"/><path class="cls-6" d="M471.575,248.049v.965l-3.5,8.54-1.176-.391,3.374-8.065h-4.144v-1.049Z"/><path class="cls-6" d="M474.361,255.917a.93.93,0,0,1,.281.685,2.471,2.471,0,0,1-.253.994l-.938,2.143h-.924l.56-2.324a1,1,0,0,1-.287-.351,1.015,1.015,0,0,1-.105-.462.959.959,0,0,1,.966-.966A.95.95,0,0,1,474.361,255.917Z"/><path class="cls-6" d="M481.235,249.056h-3.654v2.758a3.268,3.268,0,0,1,1.5-.363,2.5,2.5,0,0,1,1.933.791,3.093,3.093,0,0,1,.727,2.177,3.285,3.285,0,0,1-.406,1.644,2.816,2.816,0,0,1-1.141,1.12,3.5,3.5,0,0,1-1.7.4,3.7,3.7,0,0,1-1.525-.3,4.049,4.049,0,0,1-1.246-.89l.756-.742a3.17,3.17,0,0,0,.923.665,2.554,2.554,0,0,0,1.078.218,1.811,1.811,0,0,0,1.408-.561,2.264,2.264,0,0,0,.51-1.582,2.038,2.038,0,0,0-.461-1.483,1.684,1.684,0,0,0-1.247-.463,2.772,2.772,0,0,0-.671.077,3.617,3.617,0,0,0-.659.245H476.35v-4.717h5.067Z"/><path class="cls-6" d="M490.622,248.552a2.647,2.647,0,0,1,0,3.445,2.408,2.408,0,0,1-3.276,0,2.647,2.647,0,0,1,0-3.445,2.408,2.408,0,0,1,3.276,0Zm-2.52.645a2.356,2.356,0,0,0,0,2.148.938.938,0,0,0,.875.427q1.134,0,1.134-1.5a2.074,2.074,0,0,0-.252-1.07,1.121,1.121,0,0,0-1.757-.007Zm6.559-1.736.9.588-6.482,9.8-.9-.588Zm1.722,6.034a2.667,2.667,0,0,1,0,3.443,2.41,2.41,0,0,1-3.282,0,2.642,2.642,0,0,1,0-3.443,2.41,2.41,0,0,1,3.282,0Zm-2.513.65a1.99,1.99,0,0,0-.259,1.072,2.033,2.033,0,0,0,.259,1.071.943.943,0,0,0,.875.427q1.134,0,1.134-1.5a2.045,2.045,0,0,0-.252-1.065,1.135,1.135,0,0,0-1.757-.007Z"/><path class="cls-7" d="M103.711,243.8a2.441,2.441,0,0,1,1.337,2.226,3.666,3.666,0,0,1-.385,1.638,8.028,8.028,0,0,1-1.183,1.694q-.8.911-2.422,2.533h4.214l-.154,1.079h-5.53v-1.022q1.877-1.947,2.66-2.85a8.037,8.037,0,0,0,1.12-1.574,3.178,3.178,0,0,0,.336-1.442,1.438,1.438,0,0,0-1.54-1.554,2.068,2.068,0,0,0-1.008.237,3.693,3.693,0,0,0-.924.785l-.84-.672a3.862,3.862,0,0,1,1.274-1.064,3.462,3.462,0,0,1,1.568-.35A3.121,3.121,0,0,1,103.711,243.8Z"/><path class="cls-7" d="M111.768,243.6v.967l-3.5,8.54-1.176-.392,3.374-8.064h-4.145V243.6Z"/><path class="cls-7" d="M114.554,251.467a.937.937,0,0,1,.28.686,2.479,2.479,0,0,1-.253.994l-.938,2.142h-.923l.559-2.324a1,1,0,0,1-.287-.35,1.034,1.034,0,0,1-.1-.462.956.956,0,0,1,.965-.966A.951.951,0,0,1,114.554,251.467Z"/><path class="cls-7" d="M122.632,250.459a2.4,2.4,0,0,1-.413,1.379,2.753,2.753,0,0,1-1.156.952,4.324,4.324,0,0,1-3.359.007,2.645,2.645,0,0,1-1.127-.938,2.417,2.417,0,0,1-.4-1.372,2.264,2.264,0,0,1,.468-1.456,3.486,3.486,0,0,1,1.379-.981,2.788,2.788,0,0,1-1.1-.917,2.23,2.23,0,0,1-.357-1.266,2.144,2.144,0,0,1,.4-1.3,2.483,2.483,0,0,1,1.049-.826,3.489,3.489,0,0,1,1.394-.28,3.64,3.64,0,0,1,1.379.265,2.471,2.471,0,0,1,1.057.806,2.094,2.094,0,0,1,.406,1.295,1.9,1.9,0,0,1-.392,1.2,3.442,3.442,0,0,1-1.2.91A2.666,2.666,0,0,1,122.632,250.459Zm-1.856,1.2a1.506,1.506,0,0,0,.512-1.191,1.676,1.676,0,0,0-.2-.846,1.713,1.713,0,0,0-.63-.6,6.511,6.511,0,0,0-1.218-.525l-.351-.126a2.5,2.5,0,0,0-1.036.846,2.27,2.27,0,0,0-.336,1.268,1.483,1.483,0,0,0,.5,1.2,2.061,2.061,0,0,0,1.372.427A2.013,2.013,0,0,0,120.776,251.663Zm-2.519-6.861a1.364,1.364,0,0,0-.427,1.079,1.265,1.265,0,0,0,.413,1.022,4,4,0,0,0,1.322.644l.239.084a2.761,2.761,0,0,0,.91-.77,1.714,1.714,0,0,0,.28-.994,1.38,1.38,0,0,0-.413-1.05,1.628,1.628,0,0,0-1.169-.392A1.679,1.679,0,0,0,118.257,244.8Z"/><path class="cls-7" d="M131.515,244.1a2.649,2.649,0,0,1,0,3.444,2.406,2.406,0,0,1-3.277,0,2.649,2.649,0,0,1,0-3.444,2.406,2.406,0,0,1,3.277,0Zm-2.52.644a2.35,2.35,0,0,0,0,2.149.941.941,0,0,0,.875.427q1.134,0,1.134-1.5a2.078,2.078,0,0,0-.252-1.071,1.123,1.123,0,0,0-1.757-.007Zm6.559-1.737.9.588-6.481,9.8-.9-.588Zm1.721,6.035a2.668,2.668,0,0,1,0,3.444,2.185,2.185,0,0,1-1.637.644,2.21,2.21,0,0,1-1.645-.644,2.643,2.643,0,0,1,0-3.444,2.213,2.213,0,0,1,1.645-.644A2.189,2.189,0,0,1,137.275,249.045Zm-2.512.651a1.983,1.983,0,0,0-.259,1.07,2.034,2.034,0,0,0,.259,1.072.939.939,0,0,0,.875.426q1.132,0,1.133-1.5a2.04,2.04,0,0,0-.252-1.063.941.941,0,0,0-.881-.42A.951.951,0,0,0,134.763,249.7Z"/><path class="cls-7" d="M463.49,167.793a2.316,2.316,0,0,1,.952.868,2.258,2.258,0,0,1,.329,1.19,2.026,2.026,0,0,1-.5,1.407,2.492,2.492,0,0,1-1.323.749,2.377,2.377,0,0,1,1.526.672,2.157,2.157,0,0,1,.588,1.6,2.821,2.821,0,0,1-.391,1.47,2.692,2.692,0,0,1-1.12,1.029,3.658,3.658,0,0,1-1.68.371,3.839,3.839,0,0,1-1.568-.315,3.426,3.426,0,0,1-1.246-.945l.77-.714a3.248,3.248,0,0,0,.944.7,2.493,2.493,0,0,0,1.058.224,1.89,1.89,0,0,0,1.386-.5,1.792,1.792,0,0,0,.5-1.337,1.576,1.576,0,0,0-.476-1.3,2.193,2.193,0,0,0-1.387-.378h-.7l.154-.994h.477a1.748,1.748,0,0,0,1.211-.434,1.555,1.555,0,0,0,.482-1.218,1.343,1.343,0,0,0-.42-1.043,1.611,1.611,0,0,0-1.133-.385,2.49,2.49,0,0,0-1,.2,3.282,3.282,0,0,0-.931.644l-.673-.77A3.834,3.834,0,0,1,462,167.471,3.216,3.216,0,0,1,463.49,167.793Z"/><path class="cls-7" d="M470.358,167.611v9.366H469.07v-7.994l-2.184,1.33-.56-.91,2.9-1.792Z"/><path class="cls-7" d="M474.264,175.479a.935.935,0,0,1,.28.686,2.471,2.471,0,0,1-.253.994l-.938,2.142h-.923l.559-2.324a1.008,1.008,0,0,1-.287-.35,1.031,1.031,0,0,1-.1-.462.956.956,0,0,1,.965-.966A.955.955,0,0,1,474.264,175.479Z"/><path class="cls-7" d="M480.872,171.153a2.4,2.4,0,0,1,.938,1.008,3.515,3.515,0,0,1,.35,1.638,3.746,3.746,0,0,1-.4,1.757,2.921,2.921,0,0,1-1.078,1.176,2.836,2.836,0,0,1-1.5.413,2.613,2.613,0,0,1-2.394-1.211,6.315,6.315,0,0,1-.757-3.353,7.706,7.706,0,0,1,.428-2.681,3.99,3.99,0,0,1,1.225-1.792,2.935,2.935,0,0,1,1.889-.637,3.435,3.435,0,0,1,1.933.574l-.5.854a2.7,2.7,0,0,0-1.442-.406,1.8,1.8,0,0,0-1.6.966,5.3,5.3,0,0,0-.645,2.59,2.647,2.647,0,0,1,2.254-1.232A2.581,2.581,0,0,1,480.872,171.153Zm-.448,4.354a2.847,2.847,0,0,0,.433-1.666q0-2-1.511-2a2.016,2.016,0,0,0-1.134.343,2.914,2.914,0,0,0-.882.945,4.754,4.754,0,0,0,.482,2.268,1.483,1.483,0,0,0,1.366.728A1.431,1.431,0,0,0,480.424,175.507Z"/><path class="cls-7" d="M490.973,168.115a2.649,2.649,0,0,1,0,3.444,2.406,2.406,0,0,1-3.277,0,2.649,2.649,0,0,1,0-3.444,2.406,2.406,0,0,1,3.277,0Zm-2.52.644a2.35,2.35,0,0,0,0,2.149.94.94,0,0,0,.875.427q1.134,0,1.134-1.5a2.078,2.078,0,0,0-.252-1.071,1.123,1.123,0,0,0-1.757-.007Zm6.559-1.736.895.588-6.481,9.8-.9-.588Zm1.721,6.034a2.668,2.668,0,0,1,0,3.444,2.189,2.189,0,0,1-1.637.644,2.213,2.213,0,0,1-1.645-.644,2.643,2.643,0,0,1,0-3.444,2.213,2.213,0,0,1,1.645-.644A2.189,2.189,0,0,1,496.733,173.057Zm-2.512.651a1.987,1.987,0,0,0-.259,1.071,2.03,2.03,0,0,0,.259,1.071.941.941,0,0,0,.875.427q1.134,0,1.133-1.5a2.041,2.041,0,0,0-.252-1.064.941.941,0,0,0-.881-.42A.951.951,0,0,0,494.221,173.708Z"/><path class="cls-8" d="M7.476,384.909a2.1,2.1,0,0,1,1.146,1.908,3.147,3.147,0,0,1-.33,1.4,6.894,6.894,0,0,1-1.015,1.452q-.684.78-2.076,2.172H8.813l-.131.924H3.941v-.876q1.61-1.668,2.281-2.442a6.9,6.9,0,0,0,.96-1.35,2.726,2.726,0,0,0,.288-1.236,1.234,1.234,0,0,0-1.321-1.332,1.768,1.768,0,0,0-.864.2,3.159,3.159,0,0,0-.792.672l-.72-.576a3.332,3.332,0,0,1,1.092-.912,2.971,2.971,0,0,1,1.345-.3A2.68,2.68,0,0,1,7.476,384.909Z"/><path class="cls-8" d="M14.771,385.683a7.339,7.339,0,0,1,0,6.162,2.228,2.228,0,0,1-2.01,1.068,2.228,2.228,0,0,1-2.01-1.068,7.339,7.339,0,0,1,0-6.162,2.231,2.231,0,0,1,2.01-1.062A2.231,2.231,0,0,1,14.771,385.683Zm-3.168.582a8.45,8.45,0,0,0,0,5,1.249,1.249,0,0,0,2.31,0,8.3,8.3,0,0,0,0-4.992,1.251,1.251,0,0,0-2.31-.006Z"/><path class="cls-8" d="M23.184,385.173a2.268,2.268,0,0,1,0,2.952,2.061,2.061,0,0,1-2.808,0,2.268,2.268,0,0,1,0-2.952,2.061,2.061,0,0,1,2.808,0Zm-2.16.552a2.021,2.021,0,0,0,0,1.842.807.807,0,0,0,.75.366q.972,0,.972-1.284a1.782,1.782,0,0,0-.216-.918.963.963,0,0,0-1.506-.006Zm5.622-1.488.768.5-5.556,8.4-.768-.5Zm1.476,5.172a2.287,2.287,0,0,1,0,2.952,1.877,1.877,0,0,1-1.4.552,1.9,1.9,0,0,1-1.41-.552,2.268,2.268,0,0,1,0-2.952,1.9,1.9,0,0,1,1.41-.552A1.877,1.877,0,0,1,28.122,389.409Zm-2.154.558a1.7,1.7,0,0,0-.222.918,1.743,1.743,0,0,0,.222.918.807.807,0,0,0,.75.366q.972,0,.972-1.284a1.749,1.749,0,0,0-.216-.912.973.973,0,0,0-1.506-.006Z"/><path class="cls-8" d="M7.476,287.5A2.094,2.094,0,0,1,8.622,289.4a3.148,3.148,0,0,1-.33,1.405,6.865,6.865,0,0,1-1.015,1.451q-.684.781-2.076,2.173H8.813l-.131.924H3.941v-.876q1.61-1.668,2.281-2.442a6.928,6.928,0,0,0,.96-1.35,2.726,2.726,0,0,0,.288-1.236,1.234,1.234,0,0,0-1.321-1.332,1.779,1.779,0,0,0-.864.2,3.187,3.187,0,0,0-.792.673l-.72-.576a3.335,3.335,0,0,1,1.092-.913,2.983,2.983,0,0,1,1.345-.3A2.68,2.68,0,0,1,7.476,287.5Z"/><path class="cls-8" d="M14.453,288.194H11.321v2.364a2.791,2.791,0,0,1,1.284-.312,2.143,2.143,0,0,1,1.656.678,2.65,2.65,0,0,1,.624,1.866,2.828,2.828,0,0,1-.348,1.409,2.421,2.421,0,0,1-.977.96,3.014,3.014,0,0,1-1.458.343,3.169,3.169,0,0,1-1.309-.258,3.5,3.5,0,0,1-1.068-.762l.648-.637a2.726,2.726,0,0,0,.792.571,2.2,2.2,0,0,0,.924.186,1.551,1.551,0,0,0,1.206-.48,1.94,1.94,0,0,0,.438-1.356,1.739,1.739,0,0,0-.4-1.272,1.443,1.443,0,0,0-1.068-.4,2.366,2.366,0,0,0-.576.066,2.992,2.992,0,0,0-.564.21h-.864V287.33h4.344Z"/><path class="cls-8" d="M22.5,287.761a2.266,2.266,0,0,1,0,2.953,2.062,2.062,0,0,1-2.808,0,2.269,2.269,0,0,1,0-2.953,2.064,2.064,0,0,1,2.808,0Zm-2.159.553a2.011,2.011,0,0,0,0,1.841.8.8,0,0,0,.75.367q.97,0,.971-1.284a1.792,1.792,0,0,0-.215-.918.963.963,0,0,0-1.506-.006Zm5.622-1.489.767.5-5.555,8.4-.769-.5ZM27.437,292a2.286,2.286,0,0,1,0,2.951,1.874,1.874,0,0,1-1.4.553,1.894,1.894,0,0,1-1.41-.553,2.267,2.267,0,0,1,0-2.951,1.9,1.9,0,0,1,1.41-.552A1.877,1.877,0,0,1,27.437,292Zm-2.154.558a1.714,1.714,0,0,0-.222.918,1.753,1.753,0,0,0,.222.918.809.809,0,0,0,.75.366q.973,0,.973-1.284a1.737,1.737,0,0,0-.217-.912.807.807,0,0,0-.756-.36A.818.818,0,0,0,25.283,292.556Z"/><path class="cls-8" d="M7.451,190.074a2,2,0,0,1,.817.745,1.947,1.947,0,0,1,.282,1.02,1.742,1.742,0,0,1-.426,1.206,2.149,2.149,0,0,1-1.135.642,2.042,2.042,0,0,1,1.309.575,1.849,1.849,0,0,1,.5,1.369,2.423,2.423,0,0,1-.336,1.259,2.308,2.308,0,0,1-.96.883,3.133,3.133,0,0,1-1.441.318,3.288,3.288,0,0,1-1.343-.27,2.959,2.959,0,0,1-1.069-.811l.66-.611a2.752,2.752,0,0,0,.811.6,2.1,2.1,0,0,0,.905.193,1.617,1.617,0,0,0,1.189-.427,1.534,1.534,0,0,0,.431-1.146,1.342,1.342,0,0,0-.408-1.115,1.867,1.867,0,0,0-1.187-.325h-.6l.132-.852h.407a1.493,1.493,0,0,0,1.038-.372,1.325,1.325,0,0,0,.414-1.044,1.157,1.157,0,0,0-.359-.894,1.39,1.39,0,0,0-.973-.329,2.128,2.128,0,0,0-.857.168,2.807,2.807,0,0,0-.8.551l-.576-.66a3.278,3.278,0,0,1,2.292-.947A2.745,2.745,0,0,1,7.451,190.074Z"/><path class="cls-8" d="M14.82,190.861a7.339,7.339,0,0,1,0,6.162,2.228,2.228,0,0,1-2.01,1.068,2.228,2.228,0,0,1-2.01-1.068,7.339,7.339,0,0,1,0-6.162,2.231,2.231,0,0,1,2.01-1.062A2.231,2.231,0,0,1,14.82,190.861Zm-3.168.582a8.428,8.428,0,0,0,0,5,1.249,1.249,0,0,0,2.31,0,8.307,8.307,0,0,0,0-4.993,1.251,1.251,0,0,0-2.31,0Z"/><path class="cls-8" d="M23.231,190.35a2.265,2.265,0,0,1,0,2.952,2.058,2.058,0,0,1-2.807,0,2.268,2.268,0,0,1,0-2.952,2.063,2.063,0,0,1,2.807,0Zm-2.159.553a2.019,2.019,0,0,0,0,1.841.807.807,0,0,0,.75.367q.972,0,.972-1.285a1.787,1.787,0,0,0-.216-.918.963.963,0,0,0-1.506,0Zm5.622-1.489.768.505-5.556,8.4-.768-.5Zm1.476,5.173a2.286,2.286,0,0,1,0,2.951,1.878,1.878,0,0,1-1.4.553,1.9,1.9,0,0,1-1.411-.553,2.27,2.27,0,0,1,0-2.951,1.9,1.9,0,0,1,1.411-.553A1.874,1.874,0,0,1,28.17,194.587Zm-2.154.558a1.7,1.7,0,0,0-.222.918,1.746,1.746,0,0,0,.222.918.806.806,0,0,0,.75.365q.972,0,.972-1.283a1.737,1.737,0,0,0-.217-.912.8.8,0,0,0-.755-.36A.813.813,0,0,0,26.016,195.145Z"/><path class="cls-8" d="M7.451,92.662a2,2,0,0,1,.817.744,1.949,1.949,0,0,1,.282,1.02,1.743,1.743,0,0,1-.426,1.207,2.156,2.156,0,0,1-1.135.642A2.037,2.037,0,0,1,8.3,96.85a1.848,1.848,0,0,1,.5,1.368,2.424,2.424,0,0,1-.336,1.26,2.308,2.308,0,0,1-.96.883,3.146,3.146,0,0,1-1.441.317,3.272,3.272,0,0,1-1.343-.27,2.945,2.945,0,0,1-1.069-.81l.66-.611a2.77,2.77,0,0,0,.811.6,2.1,2.1,0,0,0,.905.193,1.621,1.621,0,0,0,1.189-.427,1.534,1.534,0,0,0,.431-1.146,1.341,1.341,0,0,0-.408-1.115,1.867,1.867,0,0,0-1.187-.325h-.6l.132-.852h.407a1.493,1.493,0,0,0,1.038-.372A1.326,1.326,0,0,0,7.445,94.5a1.156,1.156,0,0,0-.359-.894,1.385,1.385,0,0,0-.973-.329,2.128,2.128,0,0,0-.857.168,2.766,2.766,0,0,0-.8.551l-.576-.66a3.28,3.28,0,0,1,2.292-.948A2.745,2.745,0,0,1,7.451,92.662Z"/><path class="cls-8" d="M14.5,93.37H11.37v2.365a2.791,2.791,0,0,1,1.284-.312,2.147,2.147,0,0,1,1.656.677,2.653,2.653,0,0,1,.624,1.867,2.83,2.83,0,0,1-.348,1.409,2.429,2.429,0,0,1-.978.96,3.011,3.011,0,0,1-1.458.342,3.184,3.184,0,0,1-1.308-.257,3.521,3.521,0,0,1-1.069-.763l.649-.636a2.708,2.708,0,0,0,.792.57,2.185,2.185,0,0,0,.924.187,1.556,1.556,0,0,0,1.206-.48,1.94,1.94,0,0,0,.438-1.356,1.742,1.742,0,0,0-.4-1.272,1.439,1.439,0,0,0-1.068-.4,2.366,2.366,0,0,0-.576.066,2.892,2.892,0,0,0-.564.209h-.865V92.507h4.345Z"/><path class="cls-8" d="M22.547,92.938a2.265,2.265,0,0,1,0,2.952,2.059,2.059,0,0,1-2.808,0,2.268,2.268,0,0,1,0-2.952,2.062,2.062,0,0,1,2.808,0Zm-2.159.552a2.013,2.013,0,0,0,0,1.842.8.8,0,0,0,.75.366q.97,0,.971-1.284a1.785,1.785,0,0,0-.216-.918.963.963,0,0,0-1.5-.006ZM26.01,92l.767.505-5.555,8.4-.769-.5Zm1.475,5.173a2.286,2.286,0,0,1,0,2.951,1.877,1.877,0,0,1-1.4.552,1.9,1.9,0,0,1-1.41-.552,2.267,2.267,0,0,1,0-2.951,1.894,1.894,0,0,1,1.41-.553A1.874,1.874,0,0,1,27.485,97.175Zm-2.154.558a1.711,1.711,0,0,0-.222.918,1.758,1.758,0,0,0,.222.918.806.806,0,0,0,.75.365q.972,0,.973-1.283a1.75,1.75,0,0,0-.217-.913.974.974,0,0,0-1.506,0Z"/><path class="cls-8" d="M168.85,413.594a2.962,2.962,0,0,1,1.24,1.1,2.914,2.914,0,0,1,.424,1.544,4,4,0,0,1-.376,1.7,7.95,7.95,0,0,1-1.281,1.84q-.9,1.024-2.631,2.64h4.528l-.256,1.76h-6.864V422.53q2.015-2.016,2.912-3.008a9.166,9.166,0,0,0,1.264-1.68,2.957,2.957,0,0,0,.368-1.408,1.469,1.469,0,0,0-.4-1.088,1.446,1.446,0,0,0-1.071-.4,2.1,2.1,0,0,0-1.057.264,3.789,3.789,0,0,0-.975.872l-1.361-1.088a4.581,4.581,0,0,1,5.537-1.4Z"/><path class="cls-8" d="M178.913,414.634a9.106,9.106,0,0,1-.008,8.344,3.712,3.712,0,0,1-5.9,0,9.138,9.138,0,0,1,0-8.344,3.733,3.733,0,0,1,5.9,0Zm-3.888.624a2.505,2.505,0,0,0-.52,1.232,15.993,15.993,0,0,0,0,4.624,2.505,2.505,0,0,0,.52,1.232,1.211,1.211,0,0,0,.928.376,1.227,1.227,0,0,0,.928-.368,2.5,2.5,0,0,0,.528-1.224,15.59,15.59,0,0,0,0-4.672,2.444,2.444,0,0,0-.528-1.216,1.24,1.24,0,0,0-.928-.36A1.215,1.215,0,0,0,175.025,415.258Z"/><path class="cls-8" d="M188.178,414.634a9.114,9.114,0,0,1-.008,8.344,3.713,3.713,0,0,1-5.9,0,9.146,9.146,0,0,1,0-8.344,3.734,3.734,0,0,1,5.905,0Zm-3.888.624a2.514,2.514,0,0,0-.521,1.232,16.088,16.088,0,0,0,0,4.624,2.514,2.514,0,0,0,.521,1.232,1.21,1.21,0,0,0,.928.376,1.223,1.223,0,0,0,.927-.368,2.49,2.49,0,0,0,.529-1.224,15.59,15.59,0,0,0,0-4.672,2.435,2.435,0,0,0-.529-1.216,1.236,1.236,0,0,0-.927-.36A1.213,1.213,0,0,0,184.29,415.258Z"/><path class="cls-8" d="M196.81,417.378a2.875,2.875,0,0,1,1.095,1.208,4.2,4.2,0,0,1,.4,1.912,4.265,4.265,0,0,1-.473,2.016,3.5,3.5,0,0,1-1.336,1.408,3.816,3.816,0,0,1-1.983.512,3.427,3.427,0,0,1-3.008-1.384,6.548,6.548,0,0,1-.977-3.832,8.467,8.467,0,0,1,.552-3.176,4.712,4.712,0,0,1,1.576-2.112,4,4,0,0,1,2.416-.744,4.154,4.154,0,0,1,2.4.688l-.832,1.392a2.974,2.974,0,0,0-1.521-.432,1.826,1.826,0,0,0-1.567.848,4.535,4.535,0,0,0-.672,2.384,3.106,3.106,0,0,1,3.928-.688Zm-1.168,4.8a3.072,3.072,0,0,0,.376-1.648,2.569,2.569,0,0,0-.344-1.512,1.212,1.212,0,0,0-1.032-.456,2.235,2.235,0,0,0-1.76.992,6.131,6.131,0,0,0,.407,2.472,1.287,1.287,0,0,0,1.24.744A1.237,1.237,0,0,0,195.642,422.178Z"/><path class="cls-8" d="M430.8,413.594a2.956,2.956,0,0,1,1.24,1.1,2.914,2.914,0,0,1,.424,1.544,4,4,0,0,1-.376,1.7,7.973,7.973,0,0,1-1.28,1.84q-.9,1.024-2.632,2.64H432.7l-.256,1.76h-6.864V422.53q2.016-2.016,2.912-3.008a9.119,9.119,0,0,0,1.264-1.68,2.957,2.957,0,0,0,.368-1.408,1.473,1.473,0,0,0-.4-1.088,1.448,1.448,0,0,0-1.072-.4,2.1,2.1,0,0,0-1.056.264,3.775,3.775,0,0,0-.976.872l-1.36-1.088a4.58,4.58,0,0,1,5.536-1.4Z"/><path class="cls-8" d="M440.86,414.634a9.106,9.106,0,0,1-.008,8.344,3.712,3.712,0,0,1-5.9,0,9.138,9.138,0,0,1,0-8.344,3.733,3.733,0,0,1,5.9,0Zm-3.887.624a2.5,2.5,0,0,0-.521,1.232,15.993,15.993,0,0,0,0,4.624,2.5,2.5,0,0,0,.521,1.232,1.209,1.209,0,0,0,.927.376,1.225,1.225,0,0,0,.928-.368,2.5,2.5,0,0,0,.528-1.224,15.59,15.59,0,0,0,0-4.672,2.444,2.444,0,0,0-.528-1.216,1.238,1.238,0,0,0-.928-.36A1.212,1.212,0,0,0,436.973,415.258Z"/><path class="cls-8" d="M448.253,413.594a2.956,2.956,0,0,1,1.24,1.1,2.914,2.914,0,0,1,.424,1.544,4,4,0,0,1-.376,1.7,7.973,7.973,0,0,1-1.28,1.84q-.9,1.024-2.632,2.64h4.528l-.256,1.76h-6.864V422.53q2.016-2.016,2.912-3.008a9.119,9.119,0,0,0,1.264-1.68,2.957,2.957,0,0,0,.368-1.408,1.473,1.473,0,0,0-.4-1.088,1.448,1.448,0,0,0-1.072-.4,2.1,2.1,0,0,0-1.056.264,3.775,3.775,0,0,0-.976.872l-1.36-1.088a4.58,4.58,0,0,1,5.536-1.4Z"/><path class="cls-8" d="M456.6,413.394v10.784h-2.223v-8.544l-2.368,1.456-.993-1.536,3.584-2.16Z"/><path class="cls-6" d="M267.467,242.7v10.767h-2.016v-8.7l-2.4,1.456-.9-1.376,3.5-2.143Z"/><path class="cls-6" d="M271.819,251.5a1.285,1.285,0,0,1,0,1.832,1.263,1.263,0,0,1-.927.384,1.221,1.221,0,0,1-.9-.384,1.314,1.314,0,0,1-.008-1.832,1.225,1.225,0,0,1,.913-.376A1.275,1.275,0,0,1,271.819,251.5Z"/><path class="cls-6" d="M273.243,248.559v-1.632h7.488v1.632Z"/><path class="cls-6" d="M286.706,242.88a2.689,2.689,0,0,1,1.168.992,2.531,2.531,0,0,1,.393,1.376,2.4,2.4,0,0,1-.561,1.624,2.964,2.964,0,0,1-1.535.9,2.785,2.785,0,0,1,1.76.768,2.476,2.476,0,0,1,.687,1.856,3.093,3.093,0,0,1-.472,1.68,3.28,3.28,0,0,1-1.351,1.191,4.592,4.592,0,0,1-2.08.441,4.281,4.281,0,0,1-3.488-1.552l1.135-1.088a3.916,3.916,0,0,0,1.073.792,2.712,2.712,0,0,0,1.167.248,1.939,1.939,0,0,0,1.384-.488,1.724,1.724,0,0,0,.521-1.321,1.624,1.624,0,0,0-.489-1.328,2.245,2.245,0,0,0-1.448-.4h-.847l.24-1.456h.575a1.794,1.794,0,0,0,1.257-.433,1.544,1.544,0,0,0,.472-1.2,1.3,1.3,0,0,0-.432-1.032,1.693,1.693,0,0,0-1.152-.376,2.73,2.73,0,0,0-1.136.231,3.875,3.875,0,0,0-1.025.712l-1.04-1.136a4.768,4.768,0,0,1,3.376-1.376A4.266,4.266,0,0,1,286.706,242.88Z"/><path class="cls-6" d="M292.139,251.5a1.287,1.287,0,0,1,0,1.832,1.265,1.265,0,0,1-.928.384,1.219,1.219,0,0,1-.9-.384,1.314,1.314,0,0,1-.008-1.832,1.223,1.223,0,0,1,.912-.376A1.278,1.278,0,0,1,292.139,251.5Z"/><path class="cls-6" d="M305.131,245.935a5.948,5.948,0,0,1,.767,3.281,6.444,6.444,0,0,1-.391,2.328,3.535,3.535,0,0,1-1.153,1.591,2.892,2.892,0,0,1-1.8.577,2.64,2.64,0,0,1-2.128-.928v3.952l-2.048.224V245.008h1.792l.111,1.04a3.313,3.313,0,0,1,1.137-.96,2.968,2.968,0,0,1,1.344-.321A2.639,2.639,0,0,1,305.131,245.935Zm-1.376,3.3a4.667,4.667,0,0,0-.4-2.239,1.3,1.3,0,0,0-1.2-.689,1.649,1.649,0,0,0-.96.313,2.7,2.7,0,0,0-.767.84v3.807a1.8,1.8,0,0,0,1.551.88Q303.754,252.143,303.755,249.231Z"/><path class="cls-6" d="M314.291,245.96a4.787,4.787,0,0,1,1.048,3.271,5.419,5.419,0,0,1-.481,2.345,3.634,3.634,0,0,1-1.376,1.576,3.933,3.933,0,0,1-2.128.56,3.706,3.706,0,0,1-2.927-1.193,4.782,4.782,0,0,1-1.056-3.288,5.365,5.365,0,0,1,.48-2.336,3.634,3.634,0,0,1,1.383-1.567,3.98,3.98,0,0,1,2.137-.561A3.685,3.685,0,0,1,314.291,245.96Zm-4.761,3.271a4.218,4.218,0,0,0,.456,2.217,1.665,1.665,0,0,0,2.737-.009,4.218,4.218,0,0,0,.456-2.208,4.174,4.174,0,0,0-.456-2.2,1.5,1.5,0,0,0-1.352-.712Q309.529,246.32,309.53,249.231Z"/><path class="cls-6" d="M322.763,245.008v1.471l-4.1,5.393h4.177l-.208,1.6h-6.321V252l4.113-5.392h-3.761v-1.6Z"/><path class="cls-6" d="M326.386,241.08a1.206,1.206,0,0,1,.36.887,1.178,1.178,0,0,1-.36.88,1.279,1.279,0,0,1-.936.353,1.254,1.254,0,0,1-.92-.353,1.178,1.178,0,0,1-.36-.88,1.206,1.206,0,0,1,.36-.887,1.244,1.244,0,0,1,.92-.361A1.268,1.268,0,0,1,326.386,241.08Zm.1,3.928v8.463h-2.048v-8.463Z"/><path class="cls-6" d="M333.858,245.008a4,4,0,0,1,1.256.751l-.911,1.233a3.281,3.281,0,0,0-.832-.464,2.569,2.569,0,0,0-.881-.145q-1.9,0-1.9,2.9a3.534,3.534,0,0,0,.5,2.12,1.667,1.667,0,0,0,1.407.648,2.286,2.286,0,0,0,.824-.144,5.412,5.412,0,0,0,.889-.465l.911,1.3a4.22,4.22,0,0,1-2.735.976,4.029,4.029,0,0,1-2.112-.537,3.508,3.508,0,0,1-1.376-1.528,5.292,5.292,0,0,1-.48-2.336,5.567,5.567,0,0,1,.48-2.376,3.68,3.68,0,0,1,1.376-1.6,3.824,3.824,0,0,1,2.1-.569A4.351,4.351,0,0,1,333.858,245.008Z"/><path class="cls-6" d="M343.5,249.872h-5.312a2.686,2.686,0,0,0,.64,1.76,1.98,1.98,0,0,0,1.441.528,3,3,0,0,0,1.055-.185,4.9,4.9,0,0,0,1.056-.567l.849,1.168a4.879,4.879,0,0,1-3.137,1.136,3.778,3.778,0,0,1-2.984-1.184,4.7,4.7,0,0,1-1.047-3.232,5.79,5.79,0,0,1,.447-2.329,3.7,3.7,0,0,1,1.3-1.616,3.859,3.859,0,0,1,4.768.544,4.653,4.653,0,0,1,.976,3.145C343.546,249.146,343.53,249.424,343.5,249.872Zm-1.984-1.424q0-2.223-1.648-2.225a1.4,1.4,0,0,0-1.176.553,3.28,3.28,0,0,0-.5,1.768h3.328Z"/><path class="cls-7" d="M229.3,185.375a4.012,4.012,0,0,1,1.256.752l-.912,1.232a3.281,3.281,0,0,0-.832-.464,2.583,2.583,0,0,0-.88-.144q-1.9,0-1.9,2.9a3.53,3.53,0,0,0,.5,2.12,1.668,1.668,0,0,0,1.408.648,2.29,2.29,0,0,0,.824-.144,5.292,5.292,0,0,0,.888-.465l.912,1.3a4.215,4.215,0,0,1-2.736.976,4.043,4.043,0,0,1-2.112-.536,3.516,3.516,0,0,1-1.376-1.529,5.306,5.306,0,0,1-.48-2.336,5.582,5.582,0,0,1,.48-2.376,3.68,3.68,0,0,1,1.376-1.6,3.83,3.83,0,0,1,2.1-.569A4.384,4.384,0,0,1,229.3,185.375Z"/><path class="cls-7" d="M238.94,190.239h-5.311a2.681,2.681,0,0,0,.639,1.76,1.981,1.981,0,0,0,1.441.528,2.985,2.985,0,0,0,1.056-.185,4.894,4.894,0,0,0,1.055-.567l.849,1.168a4.877,4.877,0,0,1-3.137,1.136,3.774,3.774,0,0,1-2.983-1.184,4.7,4.7,0,0,1-1.048-3.232,5.785,5.785,0,0,1,.447-2.328,3.706,3.706,0,0,1,1.3-1.617,3.861,3.861,0,0,1,4.769.544,4.658,4.658,0,0,1,.975,3.145C238.988,189.513,238.973,189.791,238.94,190.239Zm-1.984-1.424q0-2.223-1.647-2.224a1.4,1.4,0,0,0-1.176.552,3.28,3.28,0,0,0-.5,1.768h3.327Z"/><path class="cls-7" d="M241.3,193.51a2.207,2.207,0,0,1-.552-1.607v-9.92l2.048-.225v10.081q0,.591.479.591a1.524,1.524,0,0,0,.481-.079l.431,1.44a3.269,3.269,0,0,1-1.359.288A2.031,2.031,0,0,1,241.3,193.51Z"/><path class="cls-7" d="M252.444,190.239h-5.311a2.681,2.681,0,0,0,.639,1.76,1.981,1.981,0,0,0,1.441.528,2.979,2.979,0,0,0,1.055-.185,4.876,4.876,0,0,0,1.056-.567l.849,1.168a4.879,4.879,0,0,1-3.137,1.136,3.774,3.774,0,0,1-2.983-1.184,4.7,4.7,0,0,1-1.048-3.232,5.785,5.785,0,0,1,.447-2.328,3.706,3.706,0,0,1,1.3-1.617,3.861,3.861,0,0,1,4.769.544,4.658,4.658,0,0,1,.975,3.145C252.492,189.513,252.477,189.791,252.444,190.239Zm-2.416-9.521.832,1.6-3.616,1.439-.576-1.04Zm.432,8.1q0-2.223-1.648-2.224a1.4,1.4,0,0,0-1.175.552,3.263,3.263,0,0,0-.5,1.768h3.327Z"/><path class="cls-7" d="M260.38,181.758v12.081h-2.048V181.983Zm5.071,3.617-2.815,3.728,3.088,4.736h-2.352l-2.912-4.624,2.832-3.84Z"/><path class="cls-7" d="M273.283,192.327a.988.988,0,0,0,.488.36l-.431,1.36a2.638,2.638,0,0,1-1.177-.352,1.8,1.8,0,0,1-.695-.88,2.717,2.717,0,0,1-1.08.952,3.3,3.3,0,0,1-1.449.312,2.738,2.738,0,0,1-2-.72,2.526,2.526,0,0,1-.736-1.889,2.442,2.442,0,0,1,1-2.1,4.8,4.8,0,0,1,2.857-.729h1.055v-.479a1.461,1.461,0,0,0-.376-1.145,1.825,1.825,0,0,0-1.208-.327,7.178,7.178,0,0,0-2.239.447l-.481-1.391a8.563,8.563,0,0,1,3.073-.609q3.247,0,3.248,2.913V191.6A1.365,1.365,0,0,0,273.283,192.327Zm-2.168-.777v-1.711h-.847q-1.986,0-1.985,1.472a1.355,1.355,0,0,0,.305.944,1.145,1.145,0,0,0,.895.336A1.81,1.81,0,0,0,271.115,191.55Z"/><path class="cls-7" d="M281.892,185.815a2.679,2.679,0,0,1,.631,1.9v6.128h-2.047v-5.808a1.625,1.625,0,0,0-.264-1.056.972.972,0,0,0-.777-.3,1.519,1.519,0,0,0-.952.328,3.749,3.749,0,0,0-.823.952v5.888h-2.048v-8.464h1.776l.16,1.1a3.146,3.146,0,0,1,2.576-1.345A2.3,2.3,0,0,1,281.892,185.815Z"/><path class="cls-7" d="M292.027,181.983v11.856H290.22l-.144-1.072a2.96,2.96,0,0,1-1.016.96,2.768,2.768,0,0,1-1.4.352,2.73,2.73,0,0,1-2.385-1.2,5.65,5.65,0,0,1-.832-3.264,6.072,6.072,0,0,1,.416-2.313,3.649,3.649,0,0,1,1.193-1.591,3,3,0,0,1,3.927.336v-4.289ZM289.2,192.262a2.7,2.7,0,0,0,.784-.823v-3.872a2.93,2.93,0,0,0-.744-.672,1.671,1.671,0,0,0-.871-.224,1.463,1.463,0,0,0-1.288.728,4.094,4.094,0,0,0-.473,2.2,4.517,4.517,0,0,0,.416,2.248,1.341,1.341,0,0,0,1.216.681A1.741,1.741,0,0,0,289.2,192.262Z"/><path class="cls-7" d="M296.435,181.447a1.2,1.2,0,0,1,.361.888,1.178,1.178,0,0,1-.361.88,1.278,1.278,0,0,1-.935.352,1.257,1.257,0,0,1-.92-.352,1.181,1.181,0,0,1-.36-.88,1.207,1.207,0,0,1,.36-.888,1.243,1.243,0,0,1,.92-.36A1.264,1.264,0,0,1,296.435,181.447Zm.105,3.928v8.464h-2.048v-8.464Z"/><path class="cls-7" d="M306.123,181.983v11.856h-1.808l-.143-1.072a2.972,2.972,0,0,1-1.017.96,2.764,2.764,0,0,1-1.4.352,2.73,2.73,0,0,1-2.385-1.2,5.642,5.642,0,0,1-.832-3.264,6.072,6.072,0,0,1,.416-2.313,3.647,3.647,0,0,1,1.192-1.591,3,3,0,0,1,3.928.336v-4.289Zm-2.832,10.279a2.709,2.709,0,0,0,.784-.823v-3.872a2.93,2.93,0,0,0-.744-.672,1.671,1.671,0,0,0-.871-.224,1.462,1.462,0,0,0-1.288.728,4.084,4.084,0,0,0-.473,2.2,4.517,4.517,0,0,0,.416,2.248,1.341,1.341,0,0,0,1.216.681A1.744,1.744,0,0,0,303.291,192.262Z"/><path class="cls-7" d="M315,192.327a.988.988,0,0,0,.488.36l-.431,1.36a2.638,2.638,0,0,1-1.177-.352,1.8,1.8,0,0,1-.695-.88,2.717,2.717,0,0,1-1.08.952,3.3,3.3,0,0,1-1.449.312,2.738,2.738,0,0,1-2-.72,2.526,2.526,0,0,1-.736-1.889,2.442,2.442,0,0,1,1-2.1,4.8,4.8,0,0,1,2.856-.729h1.056v-.479a1.461,1.461,0,0,0-.376-1.145,1.825,1.825,0,0,0-1.208-.327,7.178,7.178,0,0,0-2.239.447l-.481-1.391a8.559,8.559,0,0,1,3.073-.609q3.248,0,3.248,2.913V191.6A1.355,1.355,0,0,0,315,192.327Zm-2.168-11.609.832,1.6-3.615,1.439-.576-1.04Zm0,10.832v-1.711h-.848q-1.984,0-1.984,1.472a1.355,1.355,0,0,0,.305.944,1.145,1.145,0,0,0,.895.336A1.81,1.81,0,0,0,312.827,191.55Z"/><path class="cls-7" d="M322.172,193.439a3.293,3.293,0,0,1-1,.48,4.056,4.056,0,0,1-1.128.16,2.517,2.517,0,0,1-1.9-.712,2.922,2.922,0,0,1-.647-2.056v-4.465h-1.328v-1.471H317.5V183.5l2.048-.241v2.113h1.968l-.208,1.471h-1.76v4.416a1.459,1.459,0,0,0,.216.9.813.813,0,0,0,.679.271,2.086,2.086,0,0,0,1.009-.3Z"/><path class="cls-7" d="M325.372,181.758v12.081h-2.048V181.983Zm5.071,3.617-2.815,3.728,3.088,4.736h-2.352l-2.912-4.624,2.832-3.84Z"/><path class="cls-7" d="M335.963,193.871a5.206,5.206,0,0,1-1.552,2.44,4.939,4.939,0,0,1-2.849,1.016l-.208-1.488a5.13,5.13,0,0,0,1.336-.36,2.17,2.17,0,0,0,.809-.616,4.164,4.164,0,0,0,.56-1.024h-.705l-2.687-8.464h2.176l1.84,7.1,1.919-7.1h2.113Z"/><circle class="cls-7" cx="177.168" cy="245.74" r="7.732"/><circle class="cls-7" cx="439.191" cy="172.254" r="7.732"/><circle class="cls-6" cx="177.168" cy="282.853" r="7.732"/><circle class="cls-6" cx="438.946" cy="252.606" r="7.732"/><circle class="cls-5" cx="177.168" cy="381.205" r="7.732"/><circle class="cls-5" cx="439.191" cy="229.224" r="7.732"/><g class="cls-9"><path d="M10.929,10.992v1.836L5.186,21.487h5.8l-.252,1.943H2.415V21.613l5.85-8.73H3.009V10.992ZM9.273,6.726l.882,1.009-2.5,2.159H6.213l-2.5-2.159.882-1.009L6.933,8.22Z"/><path d="M20.379,19.381H14.4a3.031,3.031,0,0,0,.72,1.98,2.226,2.226,0,0,0,1.62.593,3.394,3.394,0,0,0,1.189-.207,5.555,5.555,0,0,0,1.187-.638l.954,1.314A5.476,5.476,0,0,1,16.545,23.7a4.245,4.245,0,0,1-3.357-1.332,5.288,5.288,0,0,1-1.178-3.636,6.515,6.515,0,0,1,.5-2.619A4.152,4.152,0,0,1,13.972,14.3a3.9,3.9,0,0,1,2.267-.658,3.874,3.874,0,0,1,3.1,1.269,5.236,5.236,0,0,1,1.1,3.538C20.434,18.565,20.415,18.876,20.379,19.381Zm-2.232-1.6q0-2.5-1.854-2.5a1.573,1.573,0,0,0-1.322.62,3.692,3.692,0,0,0-.568,1.989h3.744Z"/><path d="M29.568,14.4a3.012,3.012,0,0,1,.711,2.132V23.43h-2.3V16.9a1.828,1.828,0,0,0-.3-1.188,1.1,1.1,0,0,0-.872-.342,1.7,1.7,0,0,0-1.072.37,4.2,4.2,0,0,0-.926,1.07V23.43H22.5V13.908h2l.181,1.243a3.534,3.534,0,0,1,2.9-1.513A2.578,2.578,0,0,1,29.568,14.4Z"/><path d="M37.461,23.467a5.852,5.852,0,0,1-1.746,2.744,5.55,5.55,0,0,1-3.2,1.143l-.235-1.674a5.824,5.824,0,0,0,1.5-.4,2.43,2.43,0,0,0,.908-.694,4.57,4.57,0,0,0,.63-1.152h-.792L31.5,13.908h2.448L36.02,21.9l2.161-7.993h2.376Z"/><path d="M53.526,14.4a3.012,3.012,0,0,1,.711,2.132V23.43h-2.3V16.9a1.828,1.828,0,0,0-.3-1.188,1.1,1.1,0,0,0-.872-.342,1.7,1.7,0,0,0-1.072.37,4.2,4.2,0,0,0-.926,1.07V23.43h-2.3V13.908h2l.181,1.243a3.534,3.534,0,0,1,2.9-1.513A2.578,2.578,0,0,1,53.526,14.4Z"/><path d="M64.127,21.729a1.089,1.089,0,0,0,.549.405l-.486,1.53a2.931,2.931,0,0,1-1.323-.4,2.032,2.032,0,0,1-.783-.989,3.057,3.057,0,0,1-1.215,1.07,3.707,3.707,0,0,1-1.629.351,3.079,3.079,0,0,1-2.25-.81,2.838,2.838,0,0,1-.828-2.124A2.747,2.747,0,0,1,57.287,18.4a5.389,5.389,0,0,1,3.213-.82h1.188v-.54a1.643,1.643,0,0,0-.422-1.286,2.049,2.049,0,0,0-1.36-.37,8.033,8.033,0,0,0-2.52.5l-.539-1.566a9.609,9.609,0,0,1,3.455-.684q3.654,0,3.654,3.276v4A1.528,1.528,0,0,0,64.127,21.729Zm-2.439-.873V18.93h-.954q-2.232,0-2.232,1.656a1.525,1.525,0,0,0,.342,1.062,1.287,1.287,0,0,0,1.008.379A2.039,2.039,0,0,0,61.688,20.856Z"/><path d="M78.9,13.908,75.8,23.43H73.046L69.9,13.908h2.5l2.035,7.668,2.087-7.668Z"/><path d="M87.383,14.979a5.384,5.384,0,0,1,1.179,3.681,6.115,6.115,0,0,1-.54,2.638,4.1,4.1,0,0,1-1.547,1.773,4.439,4.439,0,0,1-2.395.629,4.172,4.172,0,0,1-3.294-1.34,5.385,5.385,0,0,1-1.187-3.7,6.033,6.033,0,0,1,.54-2.628,4.1,4.1,0,0,1,1.556-1.764,4.472,4.472,0,0,1,2.4-.63A4.147,4.147,0,0,1,87.383,14.979ZM82.028,18.66a4.736,4.736,0,0,0,.513,2.494,1.874,1.874,0,0,0,3.078-.01,4.735,4.735,0,0,0,.513-2.484,4.686,4.686,0,0,0-.513-2.475,1.691,1.691,0,0,0-1.52-.8Q82.028,15.384,82.028,18.66Z"/><path d="M91.254,23.061a2.489,2.489,0,0,1-.621-1.809V10.092l2.3-.251V21.18c0,.445.181.666.541.666a1.7,1.7,0,0,0,.54-.089l.486,1.619a3.689,3.689,0,0,1-1.53.324A2.286,2.286,0,0,1,91.254,23.061Z"/><path d="M98.22,9.489a1.36,1.36,0,0,1,.4,1,1.329,1.329,0,0,1-.4.99,1.445,1.445,0,0,1-1.054.4,1.415,1.415,0,0,1-1.034-.4,1.322,1.322,0,0,1-.405-.99,1.354,1.354,0,0,1,.405-1,1.4,1.4,0,0,1,1.034-.405A1.427,1.427,0,0,1,98.22,9.489Zm.117,4.419V23.43H96.032V13.908Z"/><path d="M106.562,22.98a3.639,3.639,0,0,1-1.125.54,4.529,4.529,0,0,1-1.268.18,2.822,2.822,0,0,1-2.133-.8,3.284,3.284,0,0,1-.729-2.314V15.564h-1.5V13.908h1.5V11.8l2.3-.27v2.376h2.214l-.233,1.656H103.61v4.968a1.634,1.634,0,0,0,.243,1.008.92.92,0,0,0,.766.306,2.349,2.349,0,0,0,1.134-.341Z"/><path d="M115.31,19.381h-5.976a3.02,3.02,0,0,0,.72,1.98,2.226,2.226,0,0,0,1.62.593,3.388,3.388,0,0,0,1.188-.207,5.561,5.561,0,0,0,1.188-.638L115,22.423a5.48,5.48,0,0,1-3.528,1.277,4.242,4.242,0,0,1-3.357-1.332,5.288,5.288,0,0,1-1.179-3.636,6.515,6.515,0,0,1,.5-2.619A4.159,4.159,0,0,1,108.9,14.3a4.339,4.339,0,0,1,5.364.611,5.236,5.236,0,0,1,1.1,3.538C115.364,18.565,115.346,18.876,115.31,19.381Zm-2.232-1.6q0-2.5-1.854-2.5a1.576,1.576,0,0,0-1.323.62,3.692,3.692,0,0,0-.567,1.989h3.744Z"/><path d="M117.966,23.061a2.489,2.489,0,0,1-.621-1.809V10.092l2.3-.251V21.18c0,.445.181.666.54.666a1.688,1.688,0,0,0,.54-.089l.487,1.619a3.689,3.689,0,0,1-1.53.324A2.286,2.286,0,0,1,117.966,23.061Z"/><path d="M129.81,14.4a3.017,3.017,0,0,1,.71,2.132V23.43h-2.3V16.9a1.828,1.828,0,0,0-.3-1.188,1.093,1.093,0,0,0-.872-.342,1.7,1.7,0,0,0-1.071.37,4.2,4.2,0,0,0-.927,1.07V23.43h-2.305V13.908h2l.181,1.243a3.534,3.534,0,0,1,2.9-1.513A2.582,2.582,0,0,1,129.81,14.4Z"/><path d="M137.7,23.467a5.852,5.852,0,0,1-1.746,2.744,5.55,5.55,0,0,1-3.2,1.143l-.234-1.674a5.8,5.8,0,0,0,1.5-.4,2.442,2.442,0,0,0,.909-.694,4.634,4.634,0,0,0,.63-1.152h-.792l-3.024-9.522h2.448l2.07,7.993,2.16-7.993H140.8Zm-.072-14.8.936,1.8L134.5,12.091l-.648-1.17Z"/><path d="M147.611,13.908a4.508,4.508,0,0,1,1.413.847L148,16.14a3.721,3.721,0,0,0-.937-.522,2.894,2.894,0,0,0-.989-.162q-2.144,0-2.142,3.259a3.972,3.972,0,0,0,.558,2.384,1.876,1.876,0,0,0,1.584.729,2.55,2.55,0,0,0,.927-.162,6.023,6.023,0,0,0,1-.522l1.026,1.458a4.738,4.738,0,0,1-3.078,1.1,4.541,4.541,0,0,1-2.376-.6,3.943,3.943,0,0,1-1.548-1.718,5.981,5.981,0,0,1-.54-2.629,6.273,6.273,0,0,1,.54-2.673,4.124,4.124,0,0,1,1.548-1.8,4.31,4.31,0,0,1,2.358-.64A4.927,4.927,0,0,1,147.611,13.908Z"/><path d="M157.755,14.412a3,3,0,0,1,.72,2.124V23.43h-2.3V16.9a1.828,1.828,0,0,0-.3-1.188,1.093,1.093,0,0,0-.872-.342,1.716,1.716,0,0,0-1.063.37A4.2,4.2,0,0,0,153,16.788V23.43h-2.3V10.111l2.3-.235v5.166a3.474,3.474,0,0,1,2.771-1.4A2.579,2.579,0,0,1,157.755,14.412Z"/><path d="M177.591,14.422a3.1,3.1,0,0,1,.683,2.114V23.43h-2.3V16.9q0-1.529-1.044-1.53a1.425,1.425,0,0,0-.963.351,4.337,4.337,0,0,0-.837,1.089V23.43h-2.305V16.9q0-1.529-1.044-1.53a1.447,1.447,0,0,0-.98.351,4.337,4.337,0,0,0-.837,1.089V23.43h-2.305V13.908h2l.181,1.243a3.26,3.26,0,0,1,2.754-1.513,2.425,2.425,0,0,1,1.43.423,2.368,2.368,0,0,1,.874,1.179,4.426,4.426,0,0,1,1.268-1.188,3.056,3.056,0,0,1,1.594-.414A2.317,2.317,0,0,1,177.591,14.422Z"/><path d="M183.477,8.671l.935,1.8-4.067,1.621-.649-1.17Zm-.216,5.237V23.43h-2.305V13.908Z"/><path d="M192.422,14.772l-.9,1.35a4.481,4.481,0,0,0-2.393-.774,1.853,1.853,0,0,0-1.063.262.8.8,0,0,0-.378.692.869.869,0,0,0,.163.54,1.451,1.451,0,0,0,.585.405,9.96,9.96,0,0,0,1.25.424,5.484,5.484,0,0,1,2.295,1.1,2.458,2.458,0,0,1,.747,1.908,2.558,2.558,0,0,1-1.152,2.224,4.9,4.9,0,0,1-2.861.8,6.082,6.082,0,0,1-2.134-.359,5.19,5.19,0,0,1-1.665-.991l1.152-1.3a4.252,4.252,0,0,0,2.592.936,2.195,2.195,0,0,0,1.234-.306.964.964,0,0,0,.459-.845,1.133,1.133,0,0,0-.171-.658,1.418,1.418,0,0,0-.613-.432,12.845,12.845,0,0,0-1.377-.459,4.591,4.591,0,0,1-2.141-1.107,2.456,2.456,0,0,1-.685-1.773,2.357,2.357,0,0,1,.459-1.422,3.059,3.059,0,0,1,1.3-.99,4.816,4.816,0,0,1,1.917-.36A5.361,5.361,0,0,1,192.422,14.772Z"/><path d="M200.054,22.98a3.66,3.66,0,0,1-1.125.54,4.536,4.536,0,0,1-1.269.18,2.825,2.825,0,0,1-2.133-.8,3.284,3.284,0,0,1-.729-2.314V15.564H193.3V13.908H194.8V11.8l2.3-.27v2.376h2.213l-.233,1.656H197.1v4.968a1.634,1.634,0,0,0,.243,1.008.918.918,0,0,0,.765.306,2.349,2.349,0,0,0,1.134-.341Z"/><path d="M208.8,19.381h-5.976a3.025,3.025,0,0,0,.72,1.98,2.226,2.226,0,0,0,1.62.593,3.388,3.388,0,0,0,1.188-.207,5.537,5.537,0,0,0,1.188-.638l.954,1.314a5.478,5.478,0,0,1-3.528,1.277,4.244,4.244,0,0,1-3.357-1.332,5.288,5.288,0,0,1-1.178-3.636,6.532,6.532,0,0,1,.5-2.619,4.159,4.159,0,0,1,1.458-1.817,4.339,4.339,0,0,1,5.364.611,5.236,5.236,0,0,1,1.1,3.538C208.856,18.565,208.838,18.876,208.8,19.381Zm-2.232-1.6q0-2.5-1.854-2.5a1.576,1.576,0,0,0-1.323.62,3.7,3.7,0,0,0-.567,1.989h3.744Z"/><path d="M216.443,13.908a4.508,4.508,0,0,1,1.413.847L216.83,16.14a3.721,3.721,0,0,0-.937-.522,2.894,2.894,0,0,0-.989-.162q-2.142,0-2.142,3.259a3.972,3.972,0,0,0,.558,2.384,1.876,1.876,0,0,0,1.584.729,2.55,2.55,0,0,0,.927-.162,6.023,6.023,0,0,0,1-.522l1.026,1.458a4.738,4.738,0,0,1-3.078,1.1,4.541,4.541,0,0,1-2.376-.6,3.943,3.943,0,0,1-1.548-1.718,5.981,5.981,0,0,1-.54-2.629,6.273,6.273,0,0,1,.54-2.673,4.124,4.124,0,0,1,1.548-1.8,4.31,4.31,0,0,1,2.358-.64A4.927,4.927,0,0,1,216.443,13.908Z"/><path d="M226.586,14.412a3,3,0,0,1,.72,2.124V23.43H225V16.9a1.828,1.828,0,0,0-.3-1.188,1.093,1.093,0,0,0-.872-.342,1.716,1.716,0,0,0-1.063.37,4.2,4.2,0,0,0-.935,1.052V23.43h-2.305V10.111l2.305-.235v5.166a3.475,3.475,0,0,1,2.771-1.4A2.579,2.579,0,0,1,226.586,14.412Z"/></g><path d="M8.893,40.318a2.745,2.745,0,0,1,.982,2.317,2.833,2.833,0,0,1-1.027,2.423,4.586,4.586,0,0,1-2.813.773H4.566v4h-.9V39.561H6.08A4.527,4.527,0,0,1,8.893,40.318ZM8.18,44.541a2.2,2.2,0,0,0,.75-1.89A2.121,2.121,0,0,0,8.2,40.843,3.516,3.516,0,0,0,6.066,40.3h-1.5v4.8H6.035A3.56,3.56,0,0,0,8.18,44.541Z"/><path d="M16.828,42.9a4.607,4.607,0,0,1,.877,2.993,4.639,4.639,0,0,1-.893,3.007A2.968,2.968,0,0,1,14.375,50a2.959,2.959,0,0,1-2.438-1.088,4.642,4.642,0,0,1-.877-2.992,5.411,5.411,0,0,1,.4-2.175,3.021,3.021,0,0,1,2.926-1.92A2.977,2.977,0,0,1,16.828,42.9Zm-4.209.518a4.189,4.189,0,0,0-.629,2.505,4.19,4.19,0,0,0,.623,2.49,2.049,2.049,0,0,0,1.762.855,2.09,2.09,0,0,0,1.777-.855,4.174,4.174,0,0,0,.639-2.52,4.17,4.17,0,0,0-.623-2.483,2.074,2.074,0,0,0-1.777-.847A2.075,2.075,0,0,0,12.619,43.416Z"/><path d="M25.85,38.8v11.04H25.1l-.1-1.2A2.585,2.585,0,0,1,22.641,50a2.517,2.517,0,0,1-2.153-1.088,4.957,4.957,0,0,1-.787-2.962,5.788,5.788,0,0,1,.367-2.145,3.267,3.267,0,0,1,1.065-1.455,2.655,2.655,0,0,1,1.642-.525,2.725,2.725,0,0,1,2.205,1.065v-4.2ZM24.043,48.921a3.265,3.265,0,0,0,.937-1.095V43.731a2.462,2.462,0,0,0-2.054-1.185,1.957,1.957,0,0,0-1.688.885,4.234,4.234,0,0,0-.607,2.505,4.492,4.492,0,0,0,.57,2.482,1.787,1.787,0,0,0,1.574.862A2.168,2.168,0,0,0,24.043,48.921Z"/><path d="M30.68,38.106l.39.779-2.926,1.276-.285-.51Zm-.69,3.884v7.846h-.871V41.99Z"/><path d="M33.523,49.626a1.521,1.521,0,0,1-.369-1.11V38.8l.871-.1v9.795q0,.765.629.765a1.27,1.27,0,0,0,.541-.1l.24.645a2,2,0,0,1-.9.21A1.351,1.351,0,0,1,33.523,49.626Z"/><path d="M45.9,41.99v.676l-4.379,6.42h4.35l-.09.75H40.5v-.675l4.381-6.421h-4.02v-.75Zm-.765-3.69.39.451-1.935,1.59h-.539L41.1,38.751l.391-.451,1.83,1.261Z"/><path d="M53.449,46.251H48.215a3.657,3.657,0,0,0,.726,2.272,2.179,2.179,0,0,0,1.719.743,2.939,2.939,0,0,0,1.088-.188,4.811,4.811,0,0,0,1.027-.592l.405.555a4.449,4.449,0,0,1-1.2.719A3.705,3.705,0,0,1,50.615,50a3.005,3.005,0,0,1-2.445-1.065,4.493,4.493,0,0,1-.885-2.955,5.732,5.732,0,0,1,.383-2.183,3.269,3.269,0,0,1,1.094-1.455,2.743,2.743,0,0,1,1.658-.517A2.7,2.7,0,0,1,52.7,42.838a4.458,4.458,0,0,1,.781,2.783C53.48,45.841,53.469,46.05,53.449,46.251Zm-.824-.9a3.431,3.431,0,0,0-.547-2.063,1.894,1.894,0,0,0-1.629-.742,1.918,1.918,0,0,0-1.574.75,3.856,3.856,0,0,0-.66,2.28h4.41Z"/><path d="M61.047,42.456a2.567,2.567,0,0,1,.562,1.77v5.61H60.74V44.345a2.087,2.087,0,0,0-.375-1.379,1.385,1.385,0,0,0-1.111-.436,2.22,2.22,0,0,0-1.326.413,4.524,4.524,0,0,0-1.1,1.208v5.685h-.869V41.99h.75l.09,1.336a3.665,3.665,0,0,1,1.14-1.1,2.819,2.819,0,0,1,1.485-.4A2.068,2.068,0,0,1,61.047,42.456Z"/><path d="M73.992,42.456a2.567,2.567,0,0,1,.563,1.77v5.61h-.87V44.345a2.087,2.087,0,0,0-.375-1.379A1.385,1.385,0,0,0,72.2,42.53a2.222,2.222,0,0,0-1.326.413,4.524,4.524,0,0,0-1.1,1.208v5.685H68.9V41.99h.75l.09,1.336a3.657,3.657,0,0,1,1.141-1.1,2.813,2.813,0,0,1,1.484-.4A2.068,2.068,0,0,1,73.992,42.456Z"/><path d="M82.691,48.981a.962.962,0,0,0,.5.4L83,50a1.541,1.541,0,0,1-.832-.406,1.617,1.617,0,0,1-.383-.914A2.679,2.679,0,0,1,79.34,50a2.437,2.437,0,0,1-1.778-.638,2.27,2.27,0,0,1-.652-1.7,2.223,2.223,0,0,1,.861-1.875,3.86,3.86,0,0,1,2.393-.66h1.5v-.765a1.542,1.542,0,0,0-1.814-1.8,6.364,6.364,0,0,0-2.129.449l-.227-.659a6.724,6.724,0,0,1,2.477-.525,2.234,2.234,0,0,1,2.564,2.49V48.1A1.879,1.879,0,0,0,82.691,48.981Zm-1.027-1.065v-2.16H80.3a3.056,3.056,0,0,0-1.83.464,1.625,1.625,0,0,0-.631,1.4,1.683,1.683,0,0,0,.435,1.246,1.642,1.642,0,0,0,1.215.435A2.381,2.381,0,0,0,81.664,47.916Z"/><path d="M90.754,38.691V49.836h-.869V38.8Zm4.4,3.3L91.85,45.5l3.644,4.335H94.445l-3.6-4.29,3.3-3.556Z"/><path d="M102.012,48.981a.949.949,0,0,0,.5.4l-.2.616a1.545,1.545,0,0,1-.832-.406,1.617,1.617,0,0,1-.383-.914A2.677,2.677,0,0,1,98.658,50a2.433,2.433,0,0,1-1.777-.638,2.275,2.275,0,0,1-.653-1.7,2.22,2.22,0,0,1,.864-1.875,3.853,3.853,0,0,1,2.392-.66h1.5v-.765a1.542,1.542,0,0,0-1.814-1.8,6.374,6.374,0,0,0-2.131.449l-.225-.659a6.714,6.714,0,0,1,2.475-.525,2.233,2.233,0,0,1,2.564,2.49V48.1A1.836,1.836,0,0,0,102.012,48.981Zm-1.028-1.065v-2.16H99.619a3.056,3.056,0,0,0-1.83.464,1.625,1.625,0,0,0-.631,1.4,1.692,1.692,0,0,0,.436,1.246,1.644,1.644,0,0,0,1.215.435A2.382,2.382,0,0,0,100.984,47.916Z"/><path d="M110.111,42.456a2.567,2.567,0,0,1,.563,1.77v5.61h-.869V44.345a2.087,2.087,0,0,0-.375-1.379,1.386,1.386,0,0,0-1.112-.436,2.222,2.222,0,0,0-1.326.413,4.505,4.505,0,0,0-1.1,1.208v5.685h-.87V41.99h.75l.09,1.336a3.678,3.678,0,0,1,1.141-1.1,2.816,2.816,0,0,1,1.484-.4A2.068,2.068,0,0,1,110.111,42.456Z"/><path d="M119.373,38.8v11.04h-.75l-.1-1.2A2.585,2.585,0,0,1,116.164,50a2.516,2.516,0,0,1-2.152-1.088,4.95,4.95,0,0,1-.787-2.962,5.788,5.788,0,0,1,.367-2.145,3.266,3.266,0,0,1,1.064-1.455,2.658,2.658,0,0,1,1.643-.525,2.727,2.727,0,0,1,2.2,1.065v-4.2Zm-1.807,10.125a3.267,3.267,0,0,0,.938-1.095V43.731a2.463,2.463,0,0,0-2.055-1.185,1.955,1.955,0,0,0-1.687.885,4.234,4.234,0,0,0-.608,2.505,4.492,4.492,0,0,0,.571,2.482,1.786,1.786,0,0,0,1.574.862A2.163,2.163,0,0,0,117.566,48.921Z"/><path d="M123.455,38.72a.654.654,0,0,1,0,.9.655.655,0,0,1-.48.179.631.631,0,0,1-.465-.179.654.654,0,0,1,0-.9.631.631,0,0,1,.465-.179A.655.655,0,0,1,123.455,38.72Zm-.031,3.27v7.846h-.869V41.99Z"/><path d="M132.2,38.8v11.04h-.75l-.105-1.2A2.583,2.583,0,0,1,128.988,50a2.516,2.516,0,0,1-2.152-1.088,4.964,4.964,0,0,1-.787-2.962,5.829,5.829,0,0,1,.367-2.145,3.292,3.292,0,0,1,1.066-1.455,2.654,2.654,0,0,1,1.643-.525,2.728,2.728,0,0,1,2.205,1.065v-4.2Zm-1.806,10.125a3.322,3.322,0,0,0,.937-1.095V43.731a2.466,2.466,0,0,0-2.057-1.185,1.96,1.96,0,0,0-1.687.885,4.256,4.256,0,0,0-.608,2.505,4.509,4.509,0,0,0,.571,2.482,1.791,1.791,0,0,0,1.576.862A2.168,2.168,0,0,0,130.393,48.921Z"/><path d="M140.41,48.981a.962.962,0,0,0,.5.4l-.195.616a1.538,1.538,0,0,1-.832-.406,1.6,1.6,0,0,1-.383-.914A2.681,2.681,0,0,1,137.059,50a2.437,2.437,0,0,1-1.778-.638,2.27,2.27,0,0,1-.652-1.7,2.223,2.223,0,0,1,.861-1.875,3.858,3.858,0,0,1,2.393-.66h1.5v-.765a1.542,1.542,0,0,0-1.815-1.8,6.374,6.374,0,0,0-2.129.449l-.226-.659a6.723,6.723,0,0,1,2.476-.525,2.235,2.235,0,0,1,2.565,2.49V48.1A1.879,1.879,0,0,0,140.41,48.981Zm-1.027-1.065v-2.16h-1.364a3.059,3.059,0,0,0-1.83.464,1.624,1.624,0,0,0-.63,1.4,1.683,1.683,0,0,0,.435,1.246,1.641,1.641,0,0,0,1.215.435A2.382,2.382,0,0,0,139.383,47.916Zm-.6-9.81.391.779-2.926,1.276-.285-.51Z"/><path d="M146.988,49.506a2.931,2.931,0,0,1-1.65.495,1.86,1.86,0,0,1-1.41-.533,2.136,2.136,0,0,1-.51-1.537V42.7H142.1V41.99h1.32V40.115l.871-.105v1.98h2.025l-.1.706h-1.92v5.189a1.559,1.559,0,0,0,.285,1.028,1.073,1.073,0,0,0,.869.338,2.381,2.381,0,0,0,1.2-.346Z"/><path d="M149.4,38.691V49.836h-.871V38.8Zm4.4,3.3L150.5,45.5l3.646,4.335h-1.05l-3.6-4.29,3.3-3.556Z"/><path d="M160.66,48.981a.962.962,0,0,0,.5.4l-.195.616a1.538,1.538,0,0,1-.832-.406,1.6,1.6,0,0,1-.383-.914A2.681,2.681,0,0,1,157.309,50a2.437,2.437,0,0,1-1.778-.638,2.27,2.27,0,0,1-.652-1.7,2.223,2.223,0,0,1,.861-1.875,3.858,3.858,0,0,1,2.393-.66h1.5v-.765a1.542,1.542,0,0,0-1.815-1.8,6.374,6.374,0,0,0-2.129.449l-.226-.659a6.723,6.723,0,0,1,2.476-.525,2.235,2.235,0,0,1,2.565,2.49V48.1A1.879,1.879,0,0,0,160.66,48.981Zm-1.027-1.065v-2.16h-1.364a3.059,3.059,0,0,0-1.83.464,1.624,1.624,0,0,0-.63,1.4,1.683,1.683,0,0,0,.435,1.246,1.641,1.641,0,0,0,1.215.435A2.382,2.382,0,0,0,159.633,47.916Zm-.6-9.81.391.779L156.5,40.161l-.285-.51Z"/><path d="M167.553,42.013a3.293,3.293,0,0,1,1.021.608l-.435.57a2.81,2.81,0,0,0-.8-.465,2.739,2.739,0,0,0-.938-.15,2.111,2.111,0,0,0-1.769.862,4.068,4.068,0,0,0-.66,2.513,3.908,3.908,0,0,0,.652,2.46,2.129,2.129,0,0,0,1.762.825,2.625,2.625,0,0,0,.953-.165,3.58,3.58,0,0,0,.863-.495l.42.585a3.382,3.382,0,0,1-2.25.84,3.188,3.188,0,0,1-1.756-.48,3.143,3.143,0,0,1-1.162-1.388,5.2,5.2,0,0,1-.412-2.167,5.381,5.381,0,0,1,.412-2.183,3.308,3.308,0,0,1,1.162-1.447,3.02,3.02,0,0,1,1.74-.51A3.557,3.557,0,0,1,167.553,42.013Z"/><path d="M175.789,42.463a2.557,2.557,0,0,1,.57,1.763v5.61h-.871V44.345q0-1.813-1.484-1.815a2.226,2.226,0,0,0-1.328.413,4.519,4.519,0,0,0-1.1,1.208v5.685H170.7V38.8l.871-.1v4.6a3.1,3.1,0,0,1,2.594-1.47A2.062,2.062,0,0,1,175.789,42.463Z"/><path d="M186.9,42.043a4.38,4.38,0,0,1,1.17.653l-.4.57a4.429,4.429,0,0,0-1.02-.548,3.084,3.084,0,0,0-1.05-.172,2.053,2.053,0,0,0-1.26.359,1.144,1.144,0,0,0-.481.96,1.051,1.051,0,0,0,.414.886,4.528,4.528,0,0,0,1.493.6,4.758,4.758,0,0,1,1.927.869,1.9,1.9,0,0,1,.592,1.5,1.975,1.975,0,0,1-.81,1.665,3.246,3.246,0,0,1-2.026.616,4.326,4.326,0,0,1-1.574-.263,4.213,4.213,0,0,1-1.23-.742l.48-.555a3.871,3.871,0,0,0,1.072.622,3.554,3.554,0,0,0,1.239.2,2.288,2.288,0,0,0,1.4-.4,1.3,1.3,0,0,0,.531-1.1,1.482,1.482,0,0,0-.18-.78,1.428,1.428,0,0,0-.615-.518,7.039,7.039,0,0,0-1.273-.442,4.392,4.392,0,0,1-1.793-.825,1.692,1.692,0,0,1-.547-1.32,1.742,1.742,0,0,1,.344-1.058,2.275,2.275,0,0,1,.937-.735,3.245,3.245,0,0,1,1.328-.262A3.877,3.877,0,0,1,186.9,42.043Z"/><path d="M196.143,46.251h-5.235a3.651,3.651,0,0,0,.727,2.272,2.177,2.177,0,0,0,1.718.743,2.935,2.935,0,0,0,1.088-.188,4.791,4.791,0,0,0,1.028-.592l.4.555a4.459,4.459,0,0,1-1.2.719,3.705,3.705,0,0,1-1.365.241,3.007,3.007,0,0,1-2.446-1.065,4.493,4.493,0,0,1-.885-2.955,5.732,5.732,0,0,1,.383-2.183,3.269,3.269,0,0,1,1.094-1.455,2.745,2.745,0,0,1,1.658-.517,2.7,2.7,0,0,1,2.28,1.012,4.464,4.464,0,0,1,.781,2.783C196.174,45.841,196.162,46.05,196.143,46.251Zm-.825-.9a3.424,3.424,0,0,0-.547-2.063,1.894,1.894,0,0,0-1.628-.742,1.92,1.92,0,0,0-1.575.75,3.856,3.856,0,0,0-.66,2.28h4.41Z"/><path d="M207.971,42.9a4.607,4.607,0,0,1,.877,2.993,4.639,4.639,0,0,1-.893,3.007,3.26,3.26,0,0,1-4.875.015,4.642,4.642,0,0,1-.877-2.992,5.429,5.429,0,0,1,.4-2.175,3.169,3.169,0,0,1,1.155-1.425,3.132,3.132,0,0,1,1.771-.495A2.979,2.979,0,0,1,207.971,42.9Zm-4.209.518a4.189,4.189,0,0,0-.629,2.505,4.19,4.19,0,0,0,.623,2.49,2.049,2.049,0,0,0,1.762.855,2.093,2.093,0,0,0,1.777-.855,4.174,4.174,0,0,0,.639-2.52,4.162,4.162,0,0,0-.624-2.483,2.275,2.275,0,0,0-3.548.008Z"/><path d="M216.992,38.8v11.04h-.75l-.1-1.2A2.587,2.587,0,0,1,213.783,50a2.516,2.516,0,0,1-2.152-1.088,4.95,4.95,0,0,1-.787-2.962,5.788,5.788,0,0,1,.367-2.145,3.266,3.266,0,0,1,1.064-1.455,2.658,2.658,0,0,1,1.643-.525,2.725,2.725,0,0,1,2.2,1.065v-4.2Zm-1.807,10.125a3.267,3.267,0,0,0,.938-1.095V43.731a2.463,2.463,0,0,0-2.055-1.185,1.955,1.955,0,0,0-1.687.885,4.242,4.242,0,0,0-.608,2.505,4.492,4.492,0,0,0,.571,2.482,1.787,1.787,0,0,0,1.574.862A2.163,2.163,0,0,0,215.185,48.921Z"/><path d="M228.182,41.916l-.164.824a2.674,2.674,0,0,0-.692-.089,1.593,1.593,0,0,0-1.281.577,4.727,4.727,0,0,0-.818,1.808v4.8h-.87V41.99h.75l.075,1.756a3.149,3.149,0,0,1,.863-1.448,2,2,0,0,1,1.357-.472A2.872,2.872,0,0,1,228.182,41.916Z"/><path d="M234.641,42.9a4.607,4.607,0,0,1,.877,2.993,4.639,4.639,0,0,1-.893,3.007,3.26,3.26,0,0,1-4.875.015,4.642,4.642,0,0,1-.877-2.992,5.429,5.429,0,0,1,.4-2.175,3.169,3.169,0,0,1,1.155-1.425,3.13,3.13,0,0,1,1.771-.495A2.979,2.979,0,0,1,234.641,42.9Zm-4.209.518a4.189,4.189,0,0,0-.629,2.505,4.19,4.19,0,0,0,.623,2.49,2.049,2.049,0,0,0,1.761.855,2.093,2.093,0,0,0,1.778-.855,4.174,4.174,0,0,0,.638-2.52,4.17,4.17,0,0,0-.623-2.483,2.275,2.275,0,0,0-3.548.008Z"/><path d="M238.937,38.691V49.836h-.871V38.8Zm4.395,3.3-3.3,3.511,3.647,4.335h-1.051l-3.6-4.29,3.3-3.556Z"/><path d="M250.8,49.836h-.75l-.045-1.395A2.863,2.863,0,0,1,247.443,50a2.126,2.126,0,0,1-1.642-.623,2.508,2.508,0,0,1-.578-1.777V41.99h.869v5.52a1.98,1.98,0,0,0,.383,1.343,1.48,1.48,0,0,0,1.162.427,2.679,2.679,0,0,0,2.295-1.605V41.99h.871Z"/><path d="M261.955,40.431a2.546,2.546,0,0,1,.742,1.89,4.208,4.208,0,0,1-.406,1.83,8.858,8.858,0,0,1-1.268,1.875q-.861,1.02-2.781,3.045h4.725l-.121.765h-5.625V49.1q2.056-2.19,2.949-3.248a9.1,9.1,0,0,0,1.26-1.83,3.822,3.822,0,0,0,.367-1.658,1.916,1.916,0,0,0-.518-1.409,1.84,1.84,0,0,0-1.373-.525,2.552,2.552,0,0,0-1.222.285,3.5,3.5,0,0,0-1.012.855l-.6-.45a3.958,3.958,0,0,1,1.3-1.08,3.52,3.52,0,0,1,1.582-.345A2.727,2.727,0,0,1,261.955,40.431Z"/><path d="M270.227,41.008a7.517,7.517,0,0,1,.794,3.848,7.428,7.428,0,0,1-.8,3.832,2.735,2.735,0,0,1-4.672,0,7.533,7.533,0,0,1-.8-3.847,7.491,7.491,0,0,1,.8-3.84,2.747,2.747,0,0,1,4.68.007Zm-4.575,3.833q0,4.44,2.235,4.439a1.784,1.784,0,0,0,1.658-1.079,7.565,7.565,0,0,0,.562-3.345,7.62,7.62,0,0,0-.562-3.353,1.784,1.784,0,0,0-1.658-1.087Q265.651,40.416,265.652,44.841Z"/><path d="M278.477,41.008a7.538,7.538,0,0,1,.794,3.848,7.428,7.428,0,0,1-.8,3.832,2.735,2.735,0,0,1-4.672,0,7.512,7.512,0,0,1-.8-3.847,7.471,7.471,0,0,1,.8-3.84,2.747,2.747,0,0,1,4.68.007ZM273.9,44.841q0,4.44,2.237,4.439a1.783,1.783,0,0,0,1.656-1.079,7.565,7.565,0,0,0,.562-3.345,7.62,7.62,0,0,0-.562-3.353,1.783,1.783,0,0,0-1.656-1.087Q273.9,40.416,273.9,44.841Z"/><path d="M286.605,44.143a3.3,3.3,0,0,1,.75,2.333,4.322,4.322,0,0,1-.38,1.867,2.905,2.905,0,0,1-1.051,1.23,2.737,2.737,0,0,1-1.508.428,2.6,2.6,0,0,1-2.408-1.268,6.6,6.6,0,0,1-.756-3.4,9.336,9.336,0,0,1,.433-3,4.317,4.317,0,0,1,1.247-1.958,2.88,2.88,0,0,1,1.92-.682,3.233,3.233,0,0,1,1.859.584l-.375.6a2.731,2.731,0,0,0-1.5-.465,2.179,2.179,0,0,0-1.936,1.215,6.5,6.5,0,0,0-.763,3.18,3,3,0,0,1,2.564-1.47A2.491,2.491,0,0,1,286.605,44.143Zm-.666,4.38a3.451,3.451,0,0,0,.532-2.017,2.766,2.766,0,0,0-.518-1.845,1.721,1.721,0,0,0-1.371-.6,2.315,2.315,0,0,0-1.373.442,3.8,3.8,0,0,0-1.072,1.208,5.566,5.566,0,0,0,.584,2.654,1.826,1.826,0,0,0,1.695.915A1.749,1.749,0,0,0,285.939,48.523Z"/><path d="M298.127,41.99v.676l-4.381,6.42h4.35l-.09.75h-5.279v-.675l4.378-6.421h-4.019v-.75Z"/><path d="M305.461,41.99l-2.715,7.846h-1.08l-2.805-7.846h.959l2.387,7.081,2.324-7.081Z"/><path d="M309.781,49.865a7.087,7.087,0,0,1-.689,1.5,3.146,3.146,0,0,1-.977.968,4.375,4.375,0,0,1-1.545.563l-.09-.676a4.119,4.119,0,0,0,1.223-.48,2.218,2.218,0,0,0,.705-.712,6.335,6.335,0,0,0,.533-1.192h-.3L305.91,41.99h.945l2.372,7.2,2.324-7.2h.916Zm.539-11.759.391.779-2.926,1.276-.283-.51Z"/><path d="M317.461,42.043a4.426,4.426,0,0,1,1.17.653l-.4.57a4.522,4.522,0,0,0-1.022-.548,3.082,3.082,0,0,0-1.049-.172,2.049,2.049,0,0,0-1.26.359,1.143,1.143,0,0,0-.48.96,1.049,1.049,0,0,0,.412.886,4.56,4.56,0,0,0,1.492.6,4.737,4.737,0,0,1,1.928.869,1.9,1.9,0,0,1,.592,1.5,1.98,1.98,0,0,1-.809,1.665,3.249,3.249,0,0,1-2.025.616,4.322,4.322,0,0,1-1.574-.263A4.154,4.154,0,0,1,313.2,49l.481-.555a3.857,3.857,0,0,0,1.072.622,3.537,3.537,0,0,0,1.236.2,2.287,2.287,0,0,0,1.4-.4,1.3,1.3,0,0,0,.533-1.1,1.511,1.511,0,0,0-.18-.78,1.452,1.452,0,0,0-.615-.518,7.056,7.056,0,0,0-1.276-.442,4.4,4.4,0,0,1-1.793-.825,1.692,1.692,0,0,1-.546-1.32,1.75,1.75,0,0,1,.345-1.058,2.252,2.252,0,0,1,.938-.735,3.232,3.232,0,0,1,1.326-.262A3.9,3.9,0,0,1,317.461,42.043Zm.57-3.743.389.451-1.934,1.59h-.541L314,38.751l.389-.451,1.83,1.261Z"/><path d="M322.066,38.72a.654.654,0,0,1,0,.9.655.655,0,0,1-.48.179.631.631,0,0,1-.465-.179.654.654,0,0,1,0-.9.631.631,0,0,1,.465-.179A.655.655,0,0,1,322.066,38.72Zm-.031,3.27v7.846h-.869V41.99Z"/><path d="M325.508,49.626a1.529,1.529,0,0,1-.367-1.11V38.8l.869-.1v9.795q0,.765.631.765a1.264,1.264,0,0,0,.539-.1l.24.645a2,2,0,0,1-.9.21A1.349,1.349,0,0,1,325.508,49.626Z"/><path d="M338.8,42.9a4.6,4.6,0,0,1,.879,2.993,4.651,4.651,0,0,1-.893,3.007,3.26,3.26,0,0,1-4.875.015,4.631,4.631,0,0,1-.879-2.992,5.394,5.394,0,0,1,.406-2.175,3.169,3.169,0,0,1,1.155-1.425,3.13,3.13,0,0,1,1.769-.495A2.974,2.974,0,0,1,338.8,42.9Zm-4.207.518a4.189,4.189,0,0,0-.631,2.505,4.2,4.2,0,0,0,.623,2.49,2.053,2.053,0,0,0,1.764.855,2.093,2.093,0,0,0,1.777-.855,4.188,4.188,0,0,0,.637-2.52,4.156,4.156,0,0,0-.623-2.483,2.273,2.273,0,0,0-3.547.008Z"/><path d="M352.064,46.49v.721h-1.349v2.625h-.856V47.211h-4.365v-.645l3.045-6.87.736.3-2.849,6.494h3.433l.106-2.924h.75V46.49Z"/><path d="M363.742,42.883a5.329,5.329,0,0,1,.713,2.993,5.205,5.205,0,0,1-.773,3.007A2.525,2.525,0,0,1,361.471,50a2.75,2.75,0,0,1-1.276-.293,2.874,2.874,0,0,1-.961-.787v3.87l-.869.12V41.99h.75l.074,1.141a3.174,3.174,0,0,1,1.059-.96,2.75,2.75,0,0,1,1.357-.345A2.4,2.4,0,0,1,363.742,42.883Zm-.787,5.528a4.605,4.605,0,0,0,.57-2.535q0-3.331-2.086-3.33a2.1,2.1,0,0,0-1.222.359,4.359,4.359,0,0,0-.983.991v4.17a2.373,2.373,0,0,0,2.071,1.2A1.863,1.863,0,0,0,362.955,48.411Z"/><path d="M370.9,41.916l-.164.824a2.666,2.666,0,0,0-.691-.089,1.592,1.592,0,0,0-1.281.577,4.726,4.726,0,0,0-.819,1.808v4.8h-.869V41.99h.75l.074,1.756a3.141,3.141,0,0,1,.864-1.448,2,2,0,0,1,1.357-.472A2.87,2.87,0,0,1,370.9,41.916Z"/><path d="M377.361,42.9a4.6,4.6,0,0,1,.879,2.993,4.656,4.656,0,0,1-.892,3.007,3.26,3.26,0,0,1-4.875.015,4.631,4.631,0,0,1-.879-2.992A5.377,5.377,0,0,1,372,43.746a3.021,3.021,0,0,1,2.924-1.92A2.972,2.972,0,0,1,377.361,42.9Zm-4.207.518a4.189,4.189,0,0,0-.631,2.505,4.2,4.2,0,0,0,.623,2.49,2.053,2.053,0,0,0,1.764.855,2.09,2.09,0,0,0,1.777-.855,4.188,4.188,0,0,0,.637-2.52,4.156,4.156,0,0,0-.623-2.483,2.274,2.274,0,0,0-3.547.008Z"/><path d="M384.674,42.013a3.293,3.293,0,0,1,1.021.608l-.435.57a2.81,2.81,0,0,0-.8-.465,2.735,2.735,0,0,0-.938-.15,2.111,2.111,0,0,0-1.769.862,4.074,4.074,0,0,0-.66,2.513,3.915,3.915,0,0,0,.652,2.46,2.129,2.129,0,0,0,1.762.825,2.625,2.625,0,0,0,.953-.165,3.58,3.58,0,0,0,.863-.495l.42.585a3.382,3.382,0,0,1-2.25.84,3.188,3.188,0,0,1-1.756-.48,3.143,3.143,0,0,1-1.162-1.388,5.2,5.2,0,0,1-.412-2.167,5.381,5.381,0,0,1,.412-2.183,3.308,3.308,0,0,1,1.162-1.447,3.021,3.021,0,0,1,1.741-.51A3.555,3.555,0,0,1,384.674,42.013Z"/><path d="M393.105,46.251h-5.236a3.651,3.651,0,0,0,.729,2.272,2.175,2.175,0,0,0,1.716.743,2.928,2.928,0,0,0,1.088-.188,4.768,4.768,0,0,0,1.028-.592l.406.555a4.438,4.438,0,0,1-1.2.719,3.711,3.711,0,0,1-1.366.241,3.008,3.008,0,0,1-2.445-1.065,4.493,4.493,0,0,1-.885-2.955,5.771,5.771,0,0,1,.383-2.183,3.287,3.287,0,0,1,1.1-1.455,2.743,2.743,0,0,1,1.656-.517,2.705,2.705,0,0,1,2.281,1.012,4.457,4.457,0,0,1,.78,2.783C393.135,45.841,393.125,46.05,393.105,46.251Zm-.826-.9a3.41,3.41,0,0,0-.547-2.063,1.893,1.893,0,0,0-1.627-.742,1.923,1.923,0,0,0-1.576.75,3.885,3.885,0,0,0-.66,2.28h4.41Z"/><path d="M400.7,42.456a2.567,2.567,0,0,1,.563,1.77v5.61h-.87V44.345a2.087,2.087,0,0,0-.375-1.379,1.385,1.385,0,0,0-1.111-.436,2.222,2.222,0,0,0-1.326.413,4.524,4.524,0,0,0-1.1,1.208v5.685h-.869V41.99h.75l.09,1.336a3.657,3.657,0,0,1,1.141-1.1,2.813,2.813,0,0,1,1.484-.4A2.068,2.068,0,0,1,400.7,42.456Z"/><path d="M407.939,49.506a2.929,2.929,0,0,1-1.65.495,1.86,1.86,0,0,1-1.41-.533,2.136,2.136,0,0,1-.51-1.537V42.7h-1.32V41.99h1.32V40.115l.871-.105v1.98h2.026l-.106.706h-1.92v5.189a1.559,1.559,0,0,0,.285,1.028,1.073,1.073,0,0,0,.869.338,2.388,2.388,0,0,0,1.2-.346Z"/><path d="M414.576,42.456a2.567,2.567,0,0,1,.563,1.77v5.61h-.87V44.345a2.087,2.087,0,0,0-.375-1.379,1.385,1.385,0,0,0-1.111-.436,2.222,2.222,0,0,0-1.326.413,4.524,4.524,0,0,0-1.1,1.208v5.685h-.869V41.99h.75l.09,1.336a3.657,3.657,0,0,1,1.141-1.1,2.813,2.813,0,0,1,1.484-.4A2.068,2.068,0,0,1,414.576,42.456Z"/><path d="M419.805,38.106l.388.779-2.924,1.276-.285-.51Zm-.692,3.884v7.846h-.869V41.99Z"/><path d="M431.818,42.876a5.113,5.113,0,0,1,.75,3,5.115,5.115,0,0,1-.787,3.015,2.543,2.543,0,0,1-2.2,1.11,2.63,2.63,0,0,1-1.283-.315,2.941,2.941,0,0,1-.967-.841l-.09.991h-.766V38.8l.872-.1v4.395a2.816,2.816,0,0,1,2.355-1.26A2.446,2.446,0,0,1,431.818,42.876Zm-.756,5.542a4.586,4.586,0,0,0,.577-2.542q0-3.331-2.116-3.33a2.082,2.082,0,0,0-1.214.352,3.878,3.878,0,0,0-.959,1v4.125a2.973,2.973,0,0,0,.9.922,2.113,2.113,0,0,0,1.17.337A1.862,1.862,0,0,0,431.062,48.418Z"/><path d="M440.332,42.9a4.607,4.607,0,0,1,.877,2.993,4.639,4.639,0,0,1-.893,3.007,3.26,3.26,0,0,1-4.875.015,4.642,4.642,0,0,1-.877-2.992,5.411,5.411,0,0,1,.4-2.175,3.021,3.021,0,0,1,2.925-1.92A2.978,2.978,0,0,1,440.332,42.9Zm-4.209.518a4.189,4.189,0,0,0-.629,2.505,4.19,4.19,0,0,0,.623,2.49,2.049,2.049,0,0,0,1.762.855,2.091,2.091,0,0,0,1.777-.855,4.174,4.174,0,0,0,.639-2.52,4.17,4.17,0,0,0-.623-2.483,2.276,2.276,0,0,0-3.549.008Z"/><path d="M449.353,38.8v11.04h-.75l-.105-1.2A2.581,2.581,0,0,1,446.143,50a2.517,2.517,0,0,1-2.153-1.088,4.971,4.971,0,0,1-.787-2.962,5.829,5.829,0,0,1,.367-2.145,3.286,3.286,0,0,1,1.067-1.455,2.651,2.651,0,0,1,1.642-.525,2.728,2.728,0,0,1,2.2,1.065v-4.2Zm-1.806,10.125a3.311,3.311,0,0,0,.937-1.095V43.731a2.465,2.465,0,0,0-2.056-1.185,1.962,1.962,0,0,0-1.688.885,4.249,4.249,0,0,0-.607,2.505,4.51,4.51,0,0,0,.57,2.482,1.791,1.791,0,0,0,1.576.862A2.168,2.168,0,0,0,447.547,48.921Z"/><path d="M455.039,49.865a7.087,7.087,0,0,1-.689,1.5,3.156,3.156,0,0,1-.977.968,4.375,4.375,0,0,1-1.545.563l-.09-.676a4.119,4.119,0,0,0,1.223-.48,2.218,2.218,0,0,0,.7-.712,6.4,6.4,0,0,0,.533-1.192h-.3l-2.73-7.846h.945l2.371,7.2,2.325-7.2h.916Z"/><path d="M459.426,48.778a.687.687,0,0,1,.2.5,2.076,2.076,0,0,1-.225.826l-.84,1.995h-.63l.6-2.2a.624.624,0,0,1-.254-.255.741.741,0,0,1-.09-.361.669.669,0,0,1,.209-.5.71.71,0,0,1,.51-.2A.7.7,0,0,1,459.426,48.778Z"/><path d="M471.621,42.883a5.329,5.329,0,0,1,.713,2.993,5.2,5.2,0,0,1-.774,3.007A2.522,2.522,0,0,1,469.35,50a2.75,2.75,0,0,1-1.276-.293,2.874,2.874,0,0,1-.961-.787v3.87l-.869.12V41.99h.75l.074,1.141a3.174,3.174,0,0,1,1.059-.96,2.75,2.75,0,0,1,1.357-.345A2.4,2.4,0,0,1,471.621,42.883Zm-.787,5.528a4.605,4.605,0,0,0,.57-2.535q0-3.331-2.086-3.33a2.1,2.1,0,0,0-1.222.359,4.359,4.359,0,0,0-.983.991v4.17a2.373,2.373,0,0,0,2.071,1.2A1.863,1.863,0,0,0,470.834,48.411Z"/><path d="M480.1,42.9a4.6,4.6,0,0,1,.879,2.993,4.651,4.651,0,0,1-.893,3.007,3.26,3.26,0,0,1-4.875.015,4.631,4.631,0,0,1-.879-2.992,5.394,5.394,0,0,1,.406-2.175,3.169,3.169,0,0,1,1.155-1.425,3.128,3.128,0,0,1,1.769-.495A2.974,2.974,0,0,1,480.1,42.9Zm-4.207.518a4.189,4.189,0,0,0-.631,2.505,4.2,4.2,0,0,0,.623,2.49,2.052,2.052,0,0,0,1.763.855,2.093,2.093,0,0,0,1.778-.855,4.188,4.188,0,0,0,.637-2.52,4.148,4.148,0,0,0-.624-2.483,2.272,2.272,0,0,0-3.546.008Z"/><path d="M489.117,38.8v11.04h-.75l-.1-1.2A2.587,2.587,0,0,1,485.908,50a2.516,2.516,0,0,1-2.152-1.088,4.95,4.95,0,0,1-.787-2.962,5.788,5.788,0,0,1,.367-2.145,3.266,3.266,0,0,1,1.064-1.455,2.658,2.658,0,0,1,1.643-.525,2.725,2.725,0,0,1,2.2,1.065v-4.2ZM487.31,48.921a3.267,3.267,0,0,0,.938-1.095V43.731a2.463,2.463,0,0,0-2.055-1.185,1.955,1.955,0,0,0-1.687.885,4.242,4.242,0,0,0-.608,2.505,4.492,4.492,0,0,0,.571,2.482,1.787,1.787,0,0,0,1.574.862A2.163,2.163,0,0,0,487.31,48.921Z"/><path d="M493.949,38.106l.389.779-2.924,1.276-.285-.51Zm-.691,3.884v7.846h-.869V41.99Z"/><path d="M496.791,49.626a1.521,1.521,0,0,1-.369-1.11V38.8l.871-.1v9.795q0,.765.629.765a1.273,1.273,0,0,0,.541-.1l.24.645a2,2,0,0,1-.9.21A1.35,1.35,0,0,1,496.791,49.626Z"/><path d="M505.236,49.626a1.521,1.521,0,0,1-.369-1.11V38.8l.871-.1v9.795q0,.765.629.765a1.27,1.27,0,0,0,.541-.1l.24.645a2,2,0,0,1-.9.21A1.35,1.35,0,0,1,505.236,49.626Z"/><path d="M510.764,38.106l.388.779-2.924,1.276-.285-.51Zm-.692,3.884v7.846H509.2V41.99Z"/><path d="M518.848,38.8v11.04h-.75l-.106-1.2A2.581,2.581,0,0,1,515.637,50a2.518,2.518,0,0,1-2.153-1.088,4.971,4.971,0,0,1-.787-2.962,5.829,5.829,0,0,1,.367-2.145,3.286,3.286,0,0,1,1.067-1.455,2.653,2.653,0,0,1,1.642-.525,2.728,2.728,0,0,1,2.2,1.065v-4.2Zm-1.807,10.125a3.311,3.311,0,0,0,.937-1.095V43.731a2.465,2.465,0,0,0-2.056-1.185,1.962,1.962,0,0,0-1.688.885,4.249,4.249,0,0,0-.607,2.505,4.51,4.51,0,0,0,.57,2.482,1.792,1.792,0,0,0,1.576.862A2.168,2.168,0,0,0,517.041,48.921Z"/><path d="M525.852,41.916l-.165.824a2.66,2.66,0,0,0-.691-.089,1.593,1.593,0,0,0-1.281.577,4.741,4.741,0,0,0-.819,1.808v4.8h-.869V41.99h.75l.075,1.756a3.14,3.14,0,0,1,.863-1.448,2,2,0,0,1,1.357-.472A2.872,2.872,0,0,1,525.852,41.916Z"/><path d="M530.127,49.865a7.085,7.085,0,0,1-.69,1.5,3.153,3.153,0,0,1-.976.968,4.382,4.382,0,0,1-1.545.563l-.09-.676a4.119,4.119,0,0,0,1.223-.48,2.218,2.218,0,0,0,.705-.712,6.4,6.4,0,0,0,.533-1.192h-.3l-2.73-7.846h.945l2.371,7.2,2.324-7.2h.916Z"/><path d="M539.734,42.456a2.567,2.567,0,0,1,.563,1.77v5.61h-.869V44.345a2.087,2.087,0,0,0-.375-1.379,1.386,1.386,0,0,0-1.112-.436,2.222,2.222,0,0,0-1.326.413,4.505,4.505,0,0,0-1.1,1.208v5.685h-.869V41.99h.75l.089,1.336a3.678,3.678,0,0,1,1.141-1.1,2.816,2.816,0,0,1,1.484-.4A2.068,2.068,0,0,1,539.734,42.456Zm-.412-4.156.391.451-1.936,1.59h-.541l-1.949-1.59.391-.451,1.83,1.261Z"/><path d="M8.728,60.9a5.53,5.53,0,0,1-.015,6A2.97,2.97,0,0,1,6.275,68a2.958,2.958,0,0,1-2.437-1.088,4.642,4.642,0,0,1-.877-2.992,5.429,5.429,0,0,1,.4-2.175,3.167,3.167,0,0,1,1.154-1.425,3.133,3.133,0,0,1,1.772-.495A2.976,2.976,0,0,1,8.728,60.9Zm-4.209.518a5.3,5.3,0,0,0,0,5,2.049,2.049,0,0,0,1.761.855,2.093,2.093,0,0,0,1.778-.855,5.278,5.278,0,0,0,.015-5,2.074,2.074,0,0,0-1.777-.847A2.075,2.075,0,0,0,4.519,61.416Z"/><path d="M21.492,63.643a2.367,2.367,0,0,1,.533,1.6,2.551,2.551,0,0,1-.412,1.448,2.72,2.72,0,0,1-1.156.967,3.994,3.994,0,0,1-1.7.346,3.9,3.9,0,0,1-1.688-.346,2.555,2.555,0,0,1-1.523-2.4,2.9,2.9,0,0,1,2.146-2.775,3.383,3.383,0,0,1-1.3-.938,2.144,2.144,0,0,1-.413-1.357,2.29,2.29,0,0,1,.391-1.335,2.453,2.453,0,0,1,1.035-.863,3.3,3.3,0,0,1,1.379-.292,3.381,3.381,0,0,1,1.381.285,2.487,2.487,0,0,1,1.041.84,2.251,2.251,0,0,1,.4,1.35,2.122,2.122,0,0,1-.435,1.342,4.017,4.017,0,0,1-1.365,1.043A4.275,4.275,0,0,1,21.492,63.643Zm-1.019,3.09a1.837,1.837,0,0,0,.638-1.493,2,2,0,0,0-.226-1,1.961,1.961,0,0,0-.69-.69,7.339,7.339,0,0,0-1.3-.607l-.51-.2a3.245,3.245,0,0,0-1.463,1,2.434,2.434,0,0,0-.457,1.508,1.821,1.821,0,0,0,.629,1.484,2.534,2.534,0,0,0,1.679.526A2.575,2.575,0,0,0,20.473,66.733Zm-3.209-5.392a3.931,3.931,0,0,0,1.431.794l.465.165a3.672,3.672,0,0,0,1.207-.929,1.865,1.865,0,0,0,.369-1.17,1.706,1.706,0,0,0-.533-1.336,2.043,2.043,0,0,0-1.418-.48,2.022,2.022,0,0,0-1.394.48A1.7,1.7,0,0,0,16.85,60.2,1.553,1.553,0,0,0,17.264,61.341Z"/><path d="M33.973,60.883a5.337,5.337,0,0,1,.712,2.993,5.2,5.2,0,0,1-.773,3.007A2.525,2.525,0,0,1,31.7,68a2.746,2.746,0,0,1-1.275-.293,2.874,2.874,0,0,1-.961-.787v3.87l-.869.12V59.99h.75l.074,1.141a3.171,3.171,0,0,1,1.058-.96,2.756,2.756,0,0,1,1.358-.345A2.4,2.4,0,0,1,33.973,60.883Zm-.788,5.528a4.6,4.6,0,0,0,.571-2.535q0-3.331-2.086-3.33a2.1,2.1,0,0,0-1.223.359,4.336,4.336,0,0,0-.982.991v4.17a2.372,2.372,0,0,0,2.07,1.2A1.86,1.86,0,0,0,33.185,66.411Z"/><path d="M41.135,59.916l-.164.824a2.674,2.674,0,0,0-.692-.089A1.593,1.593,0,0,0,39,61.228a4.727,4.727,0,0,0-.818,1.808v4.8h-.87V59.99h.75l.075,1.756A3.149,3.149,0,0,1,39,60.3a2,2,0,0,1,1.357-.472A2.872,2.872,0,0,1,41.135,59.916Z"/><path d="M47.592,60.9a4.6,4.6,0,0,1,.879,2.993,4.651,4.651,0,0,1-.893,3.007,3.26,3.26,0,0,1-4.875.015,4.631,4.631,0,0,1-.879-2.992,5.394,5.394,0,0,1,.406-2.175,3.169,3.169,0,0,1,1.155-1.425,3.13,3.13,0,0,1,1.769-.495A2.974,2.974,0,0,1,47.592,60.9Zm-4.207.518a5.288,5.288,0,0,0-.008,5,2.053,2.053,0,0,0,1.764.855,2.093,2.093,0,0,0,1.777-.855,5.281,5.281,0,0,0,.014-5,2.273,2.273,0,0,0-3.547.008Z"/><path d="M54.9,60.013a3.286,3.286,0,0,1,1.022.608l-.436.57a2.8,2.8,0,0,0-.8-.465,2.729,2.729,0,0,0-.937-.15,2.114,2.114,0,0,0-1.77.862,4.074,4.074,0,0,0-.66,2.513,3.908,3.908,0,0,0,.653,2.46,2.126,2.126,0,0,0,1.761.825,2.621,2.621,0,0,0,.953-.165,3.566,3.566,0,0,0,.864-.5l.42.585a3.386,3.386,0,0,1-2.25.84,3.188,3.188,0,0,1-1.756-.48A3.137,3.137,0,0,1,50.8,66.133a5.189,5.189,0,0,1-.412-2.167,5.364,5.364,0,0,1,.412-2.183,3.3,3.3,0,0,1,1.162-1.447,3.02,3.02,0,0,1,1.74-.51A3.551,3.551,0,0,1,54.9,60.013Z"/><path d="M63.334,64.251H58.1a3.651,3.651,0,0,0,.726,2.272,2.179,2.179,0,0,0,1.719.743,2.943,2.943,0,0,0,1.088-.188,4.811,4.811,0,0,0,1.027-.592l.4.555a4.444,4.444,0,0,1-1.2.719A3.705,3.705,0,0,1,60.5,68a3,3,0,0,1-2.445-1.065,4.493,4.493,0,0,1-.885-2.955,5.732,5.732,0,0,1,.383-2.183,3.274,3.274,0,0,1,1.093-1.455,2.748,2.748,0,0,1,1.659-.517,2.7,2.7,0,0,1,2.279,1.012,4.464,4.464,0,0,1,.781,2.783C63.365,63.841,63.353,64.05,63.334,64.251Zm-.824-.9a3.431,3.431,0,0,0-.547-2.063,1.894,1.894,0,0,0-1.629-.742,1.918,1.918,0,0,0-1.574.75,3.849,3.849,0,0,0-.66,2.28h4.41Z"/><path d="M70.932,60.456a2.567,2.567,0,0,1,.562,1.77v5.61h-.869V62.345a2.087,2.087,0,0,0-.375-1.379,1.385,1.385,0,0,0-1.111-.436,2.225,2.225,0,0,0-1.327.413,4.538,4.538,0,0,0-1.1,1.208v5.685H65.84V59.99h.75l.09,1.336a3.665,3.665,0,0,1,1.14-1.1,2.819,2.819,0,0,1,1.485-.4A2.068,2.068,0,0,1,70.932,60.456Z"/><path d="M78.17,67.506a2.937,2.937,0,0,1-1.651.5,1.862,1.862,0,0,1-1.41-.533,2.136,2.136,0,0,1-.509-1.537V60.7H73.279V59.99H74.6V58.115l.869-.105v1.98h2.025l-.105.706h-1.92v5.189a1.565,1.565,0,0,0,.285,1.028,1.075,1.075,0,0,0,.871.338,2.383,2.383,0,0,0,1.2-.346Z"/><path d="M84.807,60.456a2.567,2.567,0,0,1,.562,1.77v5.61H84.5V62.345a2.087,2.087,0,0,0-.375-1.379,1.385,1.385,0,0,0-1.111-.436,2.225,2.225,0,0,0-1.327.413,4.538,4.538,0,0,0-1.1,1.208v5.685h-.869V59.99h.75l.09,1.336a3.665,3.665,0,0,1,1.14-1.1,2.819,2.819,0,0,1,1.485-.4A2.068,2.068,0,0,1,84.807,60.456Z"/><path d="M90.035,56.106l.389.779L87.5,58.161l-.285-.51Zm-.691,3.884v7.846h-.869V59.99Z"/><path d="M96.408,60.013a3.286,3.286,0,0,1,1.022.608l-.436.57a2.8,2.8,0,0,0-.8-.465,2.733,2.733,0,0,0-.937-.15,2.114,2.114,0,0,0-1.77.862,4.074,4.074,0,0,0-.66,2.513,3.908,3.908,0,0,0,.653,2.46,2.126,2.126,0,0,0,1.761.825,2.621,2.621,0,0,0,.953-.165,3.566,3.566,0,0,0,.864-.5l.42.585a3.386,3.386,0,0,1-2.25.84,3.188,3.188,0,0,1-1.756-.48,3.137,3.137,0,0,1-1.162-1.388,5.188,5.188,0,0,1-.413-2.167,5.364,5.364,0,0,1,.413-2.183,3.3,3.3,0,0,1,1.162-1.447,3.02,3.02,0,0,1,1.74-.51A3.551,3.551,0,0,1,96.408,60.013Z"/><path d="M104.644,60.463a2.557,2.557,0,0,1,.571,1.763v5.61h-.871V62.345q0-1.813-1.485-1.815a2.228,2.228,0,0,0-1.328.413,4.5,4.5,0,0,0-1.1,1.208v5.685h-.871V56.8l.871-.1v4.6a3.1,3.1,0,0,1,2.593-1.47A2.059,2.059,0,0,1,104.644,60.463Z"/><path d="M117.844,60.876a6.27,6.27,0,0,1-.037,6.015,2.544,2.544,0,0,1-2.2,1.11,2.636,2.636,0,0,1-1.283-.315,2.941,2.941,0,0,1-.967-.841l-.09.991H112.5V56.8l.871-.1v4.395a2.816,2.816,0,0,1,2.355-1.26A2.447,2.447,0,0,1,117.844,60.876Zm-.756,5.542a4.587,4.587,0,0,0,.576-2.542q0-3.331-2.115-3.33a2.085,2.085,0,0,0-1.215.352,3.894,3.894,0,0,0-.959,1v4.125a2.984,2.984,0,0,0,.9.922,2.115,2.115,0,0,0,1.17.337A1.865,1.865,0,0,0,117.088,66.418Z"/><path d="M126.357,60.9a5.53,5.53,0,0,1-.015,6,3.26,3.26,0,0,1-4.875.015,4.642,4.642,0,0,1-.877-2.992,5.429,5.429,0,0,1,.4-2.175,3.167,3.167,0,0,1,1.154-1.425,3.133,3.133,0,0,1,1.772-.495A2.977,2.977,0,0,1,126.357,60.9Zm-4.209.518a5.291,5.291,0,0,0,0,5,2.048,2.048,0,0,0,1.761.855,2.093,2.093,0,0,0,1.778-.855,5.278,5.278,0,0,0,.015-5,2.276,2.276,0,0,0-3.549.008Z"/><path d="M135.379,56.8v11.04h-.75l-.106-1.2A2.581,2.581,0,0,1,132.168,68a2.516,2.516,0,0,1-2.152-1.088,4.964,4.964,0,0,1-.788-2.962,5.828,5.828,0,0,1,.368-2.145,3.284,3.284,0,0,1,1.066-1.455,2.654,2.654,0,0,1,1.643-.525,2.73,2.73,0,0,1,2.2,1.065v-4.2Zm-1.807,10.125a3.324,3.324,0,0,0,.938-1.1V61.731a2.466,2.466,0,0,0-2.057-1.185,1.96,1.96,0,0,0-1.687.885,4.249,4.249,0,0,0-.608,2.505,4.518,4.518,0,0,0,.57,2.482,1.792,1.792,0,0,0,1.577.862A2.163,2.163,0,0,0,133.572,66.921Z"/><path d="M144.064,67.836h-.75l-.045-1.395A2.861,2.861,0,0,1,140.705,68a2.13,2.13,0,0,1-1.643-.623,2.513,2.513,0,0,1-.578-1.777V59.99h.869v5.52a1.98,1.98,0,0,0,.383,1.343,1.483,1.483,0,0,0,1.162.427,2.676,2.676,0,0,0,2.3-1.605V59.99h.871Zm-1.732-11.918a1.45,1.45,0,0,1,0,2.025,1.465,1.465,0,0,1-1.059.4,1.483,1.483,0,0,1-1.072-.4,1.45,1.45,0,0,1,0-2.025,1.487,1.487,0,0,1,1.072-.4A1.469,1.469,0,0,1,142.332,55.918Zm-1.68.375a1.053,1.053,0,0,0,0,1.283.823.823,0,0,0,.621.224.806.806,0,0,0,.608-.224,1.049,1.049,0,0,0,0-1.283.792.792,0,0,0-.608-.232A.809.809,0,0,0,140.652,56.293Z"/><path class="cls-5" d="M302.359,328.684a2.21,2.21,0,0,1-.551-1.608v-9.92l2.047-.224v10.08c0,.395.161.592.48.592a1.518,1.518,0,0,0,.48-.079l.432,1.44a3.292,3.292,0,0,1-1.359.288A2.031,2.031,0,0,1,302.359,328.684Z"/><path class="cls-5" d="M308.847,315.892l.832,1.6-3.616,1.44-.576-1.04Zm-.192,4.657v8.463h-2.048v-8.463Z"/><path class="cls-5" d="M318.239,317.156v11.856h-1.807l-.144-1.071a2.972,2.972,0,0,1-1.017.96,2.774,2.774,0,0,1-1.4.352,2.728,2.728,0,0,1-2.385-1.2,5.647,5.647,0,0,1-.832-3.264,6.07,6.07,0,0,1,.416-2.312,3.652,3.652,0,0,1,1.193-1.592,3.007,3.007,0,0,1,3.927.336v-4.288Zm-2.832,10.28a2.709,2.709,0,0,0,.784-.823V322.74a2.925,2.925,0,0,0-.744-.671,1.662,1.662,0,0,0-.871-.225,1.462,1.462,0,0,0-1.288.728,4.1,4.1,0,0,0-.473,2.2,4.517,4.517,0,0,0,.416,2.248,1.34,1.34,0,0,0,1.216.68A1.743,1.743,0,0,0,315.407,327.436Z"/><path class="cls-5" d="M325.727,320.436l-.351,1.985a3.1,3.1,0,0,0-.752-.1,1.438,1.438,0,0,0-1.185.537,4.1,4.1,0,0,0-.687,1.639v4.512H320.7v-8.463h1.775l.193,1.664a3.04,3.04,0,0,1,.88-1.4,1.993,1.993,0,0,1,1.328-.488A3.041,3.041,0,0,1,325.727,320.436Z"/><path class="cls-5" d="M331.1,329.045a5.2,5.2,0,0,1-1.551,2.44A4.944,4.944,0,0,1,326.7,332.5l-.208-1.488a5.133,5.133,0,0,0,1.336-.359,2.18,2.18,0,0,0,.809-.617,4.146,4.146,0,0,0,.559-1.024h-.7l-2.687-8.463h2.175l1.84,7.1,1.92-7.1h2.112Z"/><path class="cls-5" d="M341.383,320.988a2.678,2.678,0,0,1,.632,1.9v6.128h-2.048V323.2a1.621,1.621,0,0,0-.264-1.055.972.972,0,0,0-.776-.305,1.516,1.516,0,0,0-.952.329,3.725,3.725,0,0,0-.824.951v5.888H335.1v-8.463h1.776l.16,1.1a3.146,3.146,0,0,1,2.576-1.345A2.3,2.3,0,0,1,341.383,320.988Z"/><path class="cls-5" d="M351.3,325.412h-5.312a2.687,2.687,0,0,0,.64,1.761,1.978,1.978,0,0,0,1.44.527,3.007,3.007,0,0,0,1.056-.184,4.907,4.907,0,0,0,1.056-.568l.848,1.168a4.87,4.87,0,0,1-3.136,1.137,3.778,3.778,0,0,1-2.984-1.184,4.7,4.7,0,0,1-1.048-3.232,5.787,5.787,0,0,1,.448-2.329,3.7,3.7,0,0,1,1.3-1.616,3.859,3.859,0,0,1,4.768.544,4.652,4.652,0,0,1,.976,3.144C351.343,324.687,351.327,324.965,351.3,325.412Zm-1.552-9.2.784.9-2.224,2h-1.28l-2.224-2,.784-.9,2.08,1.407Zm-.433,7.775q0-2.223-1.647-2.224a1.4,1.4,0,0,0-1.176.553,3.279,3.279,0,0,0-.5,1.767h3.327Z"/><path class="cls-5" d="M304.976,335.205a23.941,23.941,0,0,0-1.361,2.248,10.077,10.077,0,0,0-.824,2.247,13.75,13.75,0,0,0,0,5.825,10.1,10.1,0,0,0,.824,2.248,24.07,24.07,0,0,0,1.361,2.248l-.593.383q-.992-1.391-1.56-2.383a10.033,10.033,0,0,1-.935-2.321,13.1,13.1,0,0,1,0-6.175,10.024,10.024,0,0,1,.935-2.32q.569-.993,1.56-2.384Z"/><path class="cls-5" d="M310.511,337.572v10.641h-.928V338.6l-2.624,1.633-.432-.688,3.184-1.969Z"/><path class="cls-5" d="M314.647,347.085a.727.727,0,0,1,.216.536.77.77,0,0,1-1.312.544.74.74,0,0,1-.224-.544.711.711,0,0,1,.224-.536.756.756,0,0,1,.545-.217A.748.748,0,0,1,314.647,347.085Z"/><path class="cls-5" d="M327.654,340.8a5.678,5.678,0,0,1,.761,3.191,5.551,5.551,0,0,1-.824,3.208,2.7,2.7,0,0,1-2.361,1.192,2.931,2.931,0,0,1-1.359-.312,3.061,3.061,0,0,1-1.024-.839v4.127l-.928.128V339.844h.8l.08,1.217a3.354,3.354,0,0,1,1.128-1.024,2.928,2.928,0,0,1,1.448-.368A2.565,2.565,0,0,1,327.654,340.8Zm-.84,5.9a4.9,4.9,0,0,0,.609-2.7q0-3.55-2.225-3.551a2.229,2.229,0,0,0-1.3.384,4.523,4.523,0,0,0-1.047,1.056v4.447a2.528,2.528,0,0,0,2.208,1.281A1.987,1.987,0,0,0,326.814,346.693Z"/><path class="cls-5" d="M336.694,340.813a4.9,4.9,0,0,1,.937,3.192,4.961,4.961,0,0,1-.952,3.208,3.481,3.481,0,0,1-5.2.016,4.949,4.949,0,0,1-.935-3.192,5.755,5.755,0,0,1,.432-2.32,3.38,3.38,0,0,1,1.232-1.521,3.346,3.346,0,0,1,1.888-.527A3.172,3.172,0,0,1,336.694,340.813Zm-4.487.551a5.644,5.644,0,0,0-.009,5.329,2.192,2.192,0,0,0,1.88.912,2.235,2.235,0,0,0,1.9-.912,5.636,5.636,0,0,0,.015-5.336,2.425,2.425,0,0,0-3.783.007Z"/><path class="cls-5" d="M344.862,339.844v.721l-4.672,6.848h4.64l-.1.8H339.1v-.721l4.672-6.847h-4.288v-.8Z"/><path class="cls-5" d="M348.062,336.357a.7.7,0,0,1,0,.96.689.689,0,0,1-.512.191.669.669,0,0,1-.5-.191.693.693,0,0,1,0-.96.67.67,0,0,1,.5-.192A.689.689,0,0,1,348.062,336.357Zm-.032,3.487v8.369H347.1v-8.369Z"/><path class="cls-5" d="M355.566,339.868a3.521,3.521,0,0,1,1.088.649l-.464.608a3,3,0,0,0-.855-.5,2.91,2.91,0,0,0-1-.161,2.261,2.261,0,0,0-1.889.92,4.357,4.357,0,0,0-.7,2.681,4.184,4.184,0,0,0,.7,2.624,2.272,2.272,0,0,0,1.88.879,2.819,2.819,0,0,0,1.017-.175,3.825,3.825,0,0,0,.92-.529l.447.624a3.6,3.6,0,0,1-2.4.9,3.4,3.4,0,0,1-1.872-.511,3.346,3.346,0,0,1-1.241-1.48,5.562,5.562,0,0,1-.439-2.312,5.742,5.742,0,0,1,.439-2.328,3.519,3.519,0,0,1,1.241-1.544,3.217,3.217,0,0,1,1.855-.544A3.823,3.823,0,0,1,355.566,339.868Z"/><path class="cls-5" d="M364.83,344.388h-5.584a3.909,3.909,0,0,0,.776,2.425,2.321,2.321,0,0,0,1.832.792,3.117,3.117,0,0,0,1.161-.2,5.045,5.045,0,0,0,1.1-.631l.432.591a4.726,4.726,0,0,1-1.279.769,3.992,3.992,0,0,1-1.456.255,3.209,3.209,0,0,1-2.609-1.135,4.794,4.794,0,0,1-.943-3.152,6.151,6.151,0,0,1,.407-2.328,3.5,3.5,0,0,1,1.168-1.553,2.938,2.938,0,0,1,1.769-.551,2.881,2.881,0,0,1,2.431,1.08,4.748,4.748,0,0,1,.832,2.968A6.548,6.548,0,0,1,364.83,344.388Zm-.88-.96a3.637,3.637,0,0,0-.584-2.2,2.016,2.016,0,0,0-1.735-.792,2.046,2.046,0,0,0-1.681.8,4.12,4.12,0,0,0-.7,2.432h4.7Z"/><path class="cls-5" d="M368.821,337.205a10.069,10.069,0,0,1,.937,2.32,13.136,13.136,0,0,1,0,6.175,10.078,10.078,0,0,1-.937,2.321q-.567.992-1.559,2.383l-.592-.383a24.223,24.223,0,0,0,1.359-2.248,10.1,10.1,0,0,0,.824-2.248,13.707,13.707,0,0,0,0-5.825,10.077,10.077,0,0,0-.824-2.247,24.092,24.092,0,0,0-1.359-2.248l.592-.384Q368.254,336.213,368.821,337.205Z"/><path class="cls-10" d="M260.547,467.381v.961l-4.029,6.956h4.015l-.129,1.026h-5.213v-.962l4.055-6.98h-3.652v-1Z"/><path class="cls-10" d="M266.631,466.717v9.607H265.59l-.078-.9a2.016,2.016,0,0,1-1.782,1.066,1.96,1.96,0,0,1-1.734-.948,4.757,4.757,0,0,1-.617-2.614,5.41,5.41,0,0,1,.305-1.9,2.859,2.859,0,0,1,.865-1.268,2.042,2.042,0,0,1,2.912.371v-3.548Zm-1.815,8.593a2.578,2.578,0,0,0,.645-.766v-3.433a1.659,1.659,0,0,0-1.365-.871A1.229,1.229,0,0,0,263,470.9a3.851,3.851,0,0,0-.391,2,4.28,4.28,0,0,0,.364,2.016,1.132,1.132,0,0,0,1.027.649A1.3,1.3,0,0,0,264.816,475.31Z"/><path class="cls-10" d="M272.131,469.408l-.2,1.131a1.77,1.77,0,0,0-.533-.077,1.127,1.127,0,0,0-.929.454,3.5,3.5,0,0,0-.567,1.391v4.017h-1.17v-6.838h1.016l.09,1.353q.507-1.509,1.7-1.509A1.971,1.971,0,0,1,272.131,469.408Z"/><path class="cls-10" d="M277.33,470.24a5.112,5.112,0,0,1-.014,5.285,2.66,2.66,0,0,1-4.088.02,5.108,5.108,0,0,1,.006-5.286,2.715,2.715,0,0,1,4.1-.019Zm-3.211.656a3.888,3.888,0,0,0-.4,2.009q0,2.666,1.558,2.665t1.561-2.678a3.955,3.955,0,0,0-.391-2,1.269,1.269,0,0,0-1.156-.636A1.3,1.3,0,0,0,274.119,470.9Z"/><path class="cls-10" d="M280.918,476.051a3.745,3.745,0,0,1-.229,1.423,2.22,2.22,0,0,1-.648.9,5.669,5.669,0,0,1-1.139.682l-.363-.845a3.051,3.051,0,0,0,.7-.468,1.457,1.457,0,0,0,.377-.624,3.339,3.339,0,0,0,.131-1.04v-6.591h1.17Zm-.033-9.568a.775.775,0,0,1-1.1,1.086.73.73,0,0,1-.215-.54.75.75,0,0,1,.215-.546.8.8,0,0,1,1.1,0Z"/><path class="cls-10" d="M290.939,466.717v9.607H289.9l-.078-.9a2.015,2.015,0,0,1-1.781,1.066,1.961,1.961,0,0,1-1.736-.948,4.766,4.766,0,0,1-.618-2.614,5.385,5.385,0,0,1,.307-1.9,2.856,2.856,0,0,1,.863-1.268,2.042,2.042,0,0,1,2.912.371v-3.548Zm-1.812,8.593a2.617,2.617,0,0,0,.642-.766v-3.433a1.651,1.651,0,0,0-1.365-.871,1.233,1.233,0,0,0-1.092.663,3.865,3.865,0,0,0-.388,2,4.3,4.3,0,0,0,.363,2.016,1.128,1.128,0,0,0,1.027.649A1.313,1.313,0,0,0,289.127,475.31Z"/><path class="cls-10" d="M297.428,475.382a.732.732,0,0,0,.363.305l-.246.793a1.625,1.625,0,0,1-.793-.311,1.265,1.265,0,0,1-.4-.716,2.093,2.093,0,0,1-1.86,1.04,1.887,1.887,0,0,1-1.443-.566,2.113,2.113,0,0,1-.533-1.514,2.007,2.007,0,0,1,.714-1.664,3.2,3.2,0,0,1,2.041-.572h.885v-.585a1.5,1.5,0,0,0-.293-1.034,1.245,1.245,0,0,0-.955-.318,4.767,4.767,0,0,0-1.664.364l-.287-.819a5.67,5.67,0,0,1,2.133-.468,1.964,1.964,0,0,1,2.222,2.223v3.224A1.265,1.265,0,0,0,297.428,475.382Zm-1.274-.838v-1.613H295.4q-1.69,0-1.691,1.417a1.422,1.422,0,0,0,.273.936.961.961,0,0,0,.78.325A1.519,1.519,0,0,0,296.154,474.544Z"/><path class="cls-10" d="M302.652,476.025a2.4,2.4,0,0,1-1.443.468,1.658,1.658,0,0,1-1.279-.481,1.906,1.906,0,0,1-.45-1.352v-4.29h-.974v-.884h.974v-1.573l1.17-.143v1.716h1.508l-.129.884H300.65v4.277q0,.885.743.884a1.278,1.278,0,0,0,.408-.064,2.741,2.741,0,0,0,.424-.2Z"/><path class="cls-10" d="M304.621,470.247a.811.811,0,0,1,.229.578.834.834,0,0,1-.229.585.816.816,0,0,1-1.17,0,.84.84,0,0,1-.226-.585.816.816,0,0,1,.226-.578.833.833,0,0,1,1.17,0Zm0,4.836a.811.811,0,0,1,.229.578.834.834,0,0,1-.229.585.816.816,0,0,1-1.17,0,.84.84,0,0,1-.226-.585.816.816,0,0,1,.226-.578.83.83,0,0,1,1.17,0Z"/><path class="cls-10" d="M314.99,467.381l-2.471,8.943h-1.443l-2.508-8.943h1.248l2,7.773,1.977-7.773Z"/><path class="cls-10" d="M320.242,470.24a5.112,5.112,0,0,1-.014,5.285,2.659,2.659,0,0,1-4.087.02,5.1,5.1,0,0,1,0-5.286,2.715,2.715,0,0,1,4.1-.019Zm-3.211.656a3.888,3.888,0,0,0-.4,2.009q0,2.666,1.558,2.665t1.561-2.678a3.955,3.955,0,0,0-.391-2,1.268,1.268,0,0,0-1.156-.636A1.3,1.3,0,0,0,317.031,470.9Z"/><path class="cls-10" d="M322.957,476.116a1.455,1.455,0,0,1-.363-1.053v-8.346l1.17-.129v8.436c0,.338.138.507.416.507a1.063,1.063,0,0,0,.377-.078l.259.819a1.818,1.818,0,0,1-.871.221A1.309,1.309,0,0,1,322.957,476.116Z"/><path class="cls-10" d="M330.7,470.234a4.913,4.913,0,0,1,.592,2.658,4.711,4.711,0,0,1-.643,2.633,2,2,0,0,1-1.748.968,1.907,1.907,0,0,1-.949-.24,2.266,2.266,0,0,1-.742-.683l-.078.754h-1.039V466.73l1.17-.13v3.718a2.482,2.482,0,0,1,.773-.734,1.908,1.908,0,0,1,.994-.267A1.878,1.878,0,0,1,330.7,470.234Zm-.629,2.658a4.344,4.344,0,0,0-.351-2.048,1.105,1.105,0,0,0-1-.6,1.25,1.25,0,0,0-.8.273,2.99,2.99,0,0,0-.656.767v3.394a2.147,2.147,0,0,0,.6.649,1.308,1.308,0,0,0,.768.247Q330.069,475.57,330.07,472.892Z"/><path class="cls-10" d="M335.529,476.35a4.408,4.408,0,0,1-1.027,1.872,3.259,3.259,0,0,1-1.885.845l-.131-.871a3.142,3.142,0,0,0,.975-.351,1.753,1.753,0,0,0,.586-.572,4.845,4.845,0,0,0,.43-.949h-.43l-2.028-6.838h1.209l1.586,6.02,1.586-6.02h1.2Z"/><path class="cls-10" d="M339.137,475.083a.808.808,0,0,1,.226.578.831.831,0,0,1-.226.585.77.77,0,0,1-.592.247.749.749,0,0,1-.578-.247.83.83,0,0,1-.229-.585.806.806,0,0,1,.229-.578.761.761,0,0,1,.578-.241A.783.783,0,0,1,339.137,475.083Z"/><path class="cls-10" d="M344.238,469.5a2.907,2.907,0,0,1,.871.559l-.519.7a2.5,2.5,0,0,0-.623-.371,1.833,1.833,0,0,0-.676-.123,1.339,1.339,0,0,0-1.189.65,3.781,3.781,0,0,0-.424,2.028q0,2.574,1.613,2.574a1.7,1.7,0,0,0,.662-.124,3.079,3.079,0,0,0,.637-.37l.547.715a2.733,2.733,0,0,1-1.885.754,2.519,2.519,0,0,1-2.061-.91,4.035,4.035,0,0,1-.748-2.626,5.007,5.007,0,0,1,.344-1.937,2.842,2.842,0,0,1,.975-1.261,2.514,2.514,0,0,1,1.476-.442A2.672,2.672,0,0,1,344.238,469.5Z"/><path class="cls-10" d="M350.154,469.486v.871l-3.236,5h3.25l-.117.962h-4.42v-.871l3.236-5H345.9v-.962Z"/><path class="cls-10" d="M356.42,465.833V477.65h-1.092V465.833Z"/><path class="cls-10" d="M370.8,467.381l-2.469,8.943h-1.443l-2.51-8.943h1.248l2,7.773,1.977-7.773Z"/><path class="cls-10" d="M373.092,466.483a.759.759,0,0,1,.215.546.783.783,0,0,1-1.321.54.738.738,0,0,1-.215-.54.759.759,0,0,1,.215-.546.8.8,0,0,1,1.106,0Zm.031,3v6.838h-1.17v-6.838Z"/><path class="cls-10" d="M378.961,469.486v.871l-3.236,5h3.25l-.118.962h-4.42v-.871l3.237-5h-2.963v-.962Z"/><path class="cls-10" d="M384.955,476.324h-1.014l-.066-1.026a2.158,2.158,0,0,1-1.91,1.195,1.623,1.623,0,0,1-1.287-.532,2.109,2.109,0,0,1-.469-1.444v-5.031h1.17v4.927a1.382,1.382,0,0,0,.228.878.827.827,0,0,0,.682.279q.87,0,1.5-1.144v-4.94h1.17Z"/><path class="cls-10" d="M391.441,475.382a.734.734,0,0,0,.364.305l-.246.793a1.625,1.625,0,0,1-.793-.311,1.266,1.266,0,0,1-.4-.716,2.091,2.091,0,0,1-1.859,1.04,1.89,1.89,0,0,1-1.444-.566,2.118,2.118,0,0,1-.533-1.514,2.008,2.008,0,0,1,.715-1.664,3.2,3.2,0,0,1,2.041-.572h.885v-.585a1.506,1.506,0,0,0-.293-1.034,1.246,1.246,0,0,0-.955-.318,4.763,4.763,0,0,0-1.664.364l-.287-.819a5.662,5.662,0,0,1,2.133-.468,1.964,1.964,0,0,1,2.222,2.223v3.224A1.266,1.266,0,0,0,391.441,475.382Zm-1.273-.838v-1.613h-.754q-1.691,0-1.691,1.417a1.416,1.416,0,0,0,.273.936.959.959,0,0,0,.779.325A1.519,1.519,0,0,0,390.168,474.544Z"/><path class="cls-10" d="M393.6,476.116a1.451,1.451,0,0,1-.364-1.053v-8.346l1.17-.129v8.436q0,.507.416.507a1.055,1.055,0,0,0,.377-.078l.26.819a1.818,1.818,0,0,1-.871.221A1.309,1.309,0,0,1,393.6,476.116Z"/><path class="cls-10" d="M397.869,466.483a.774.774,0,0,1-1.1,1.086.726.726,0,0,1-.215-.54.746.746,0,0,1,.215-.546.8.8,0,0,1,1.1,0Zm.033,3v6.838h-1.17v-6.838Z"/><path class="cls-10" d="M403.738,469.486v.871l-3.236,5h3.25l-.117.962h-4.42v-.871l3.236-5h-2.963v-.962Z"/><path class="cls-10" d="M409.367,475.382a.728.728,0,0,0,.365.305l-.248.793a1.637,1.637,0,0,1-.793-.311,1.3,1.3,0,0,1-.4-.716,2.088,2.088,0,0,1-1.859,1.04,1.893,1.893,0,0,1-1.444-.566,2.118,2.118,0,0,1-.533-1.514,2,2,0,0,1,.717-1.664,3.2,3.2,0,0,1,2.041-.572h.883v-.585a1.506,1.506,0,0,0-.293-1.034,1.245,1.245,0,0,0-.955-.318,4.758,4.758,0,0,0-1.664.364l-.286-.819a5.653,5.653,0,0,1,2.131-.468,1.966,1.966,0,0,1,2.225,2.223v3.224A1.293,1.293,0,0,0,409.367,475.382Zm-1.273-.838v-1.613h-.754q-1.69,0-1.69,1.417a1.405,1.405,0,0,0,.274.936.957.957,0,0,0,.779.325A1.517,1.517,0,0,0,408.094,474.544Z"/><path class="cls-10" d="M414.736,469.5a2.907,2.907,0,0,1,.871.559l-.519.7a2.5,2.5,0,0,0-.623-.371,1.833,1.833,0,0,0-.676-.123,1.339,1.339,0,0,0-1.189.65,3.781,3.781,0,0,0-.424,2.028q0,2.574,1.613,2.574a1.7,1.7,0,0,0,.662-.124,3.079,3.079,0,0,0,.637-.37l.547.715a2.733,2.733,0,0,1-1.885.754,2.519,2.519,0,0,1-2.061-.91,4.035,4.035,0,0,1-.748-2.626,5.007,5.007,0,0,1,.344-1.937,2.842,2.842,0,0,1,.975-1.261,2.514,2.514,0,0,1,1.476-.442A2.668,2.668,0,0,1,414.736,469.5Z"/><path class="cls-10" d="M421.445,473.308h-3.978a2.963,2.963,0,0,0,.48,1.723,1.429,1.429,0,0,0,1.17.526,2.33,2.33,0,0,0,.84-.143,2.948,2.948,0,0,0,.773-.468l.52.689a3.194,3.194,0,0,1-2.184.858,2.492,2.492,0,0,1-2.074-.93,4.1,4.1,0,0,1-.734-2.606,4.5,4.5,0,0,1,.7-2.658,2.265,2.265,0,0,1,1.951-.982,2.236,2.236,0,0,1,1.9.878,4.079,4.079,0,0,1,.664,2.5C421.471,472.88,421.461,473.083,421.445,473.308Zm-1.105-.962q0-2.145-1.418-2.145a1.186,1.186,0,0,0-1.026.54,3.379,3.379,0,0,0-.429,1.748h2.873Z"/><path class="cls-10" d="M424,470.247a.811.811,0,0,1,.229.578.834.834,0,0,1-.229.585.816.816,0,0,1-1.17,0,.84.84,0,0,1-.226-.585.816.816,0,0,1,.226-.578.833.833,0,0,1,1.17,0Zm0,4.836a.811.811,0,0,1,.229.578.834.834,0,0,1-.229.585.816.816,0,0,1-1.17,0,.84.84,0,0,1-.226-.585.816.816,0,0,1,.226-.578.83.83,0,0,1,1.17,0Z"/><path class="cls-10" d="M430.043,466.483a.775.775,0,0,1-1.1,1.086.729.729,0,0,1-.214-.54.75.75,0,0,1,.214-.546.8.8,0,0,1,1.1,0Zm.033,3v6.838h-1.17v-6.838Z"/><path class="cls-10" d="M436.629,476.324l-1.924-3.809h-1.262v3.809h-1.209v-8.943h2.094q3.2,0,3.2,2.521a2.527,2.527,0,0,1-.429,1.5,2.467,2.467,0,0,1-1.26.9l2.131,4.029Zm-.82-5.142a1.635,1.635,0,0,0,.455-1.28,1.494,1.494,0,0,0-.461-1.209,2.319,2.319,0,0,0-1.5-.39h-.858v3.289h.975A2.021,2.021,0,0,0,435.809,471.182Z"/><path class="cls-10" d="M444.7,468.387a7,7,0,0,1,.006,6.911,3.268,3.268,0,0,1-5.037.019,5.54,5.54,0,0,1-.916-3.452,6.806,6.806,0,0,1,.422-2.541,3.39,3.39,0,0,1,1.195-1.58,3.123,3.123,0,0,1,1.815-.532A3.013,3.013,0,0,1,444.7,468.387Zm-4.674,3.478q0,3.653,2.159,3.653a1.779,1.779,0,0,0,1.611-.871,7.377,7.377,0,0,0-.006-5.59,1.779,1.779,0,0,0-1.605-.883Q440.02,468.174,440.021,471.865Z"/><path class="cls-10" d="M451.617,467.381v.961l-4.029,6.956H451.6l-.128,1.026h-5.213v-.962l4.054-6.98h-3.652v-1Z"/><path class="cls-10" d="M457.637,476.324v-4.2h-3.25v4.2h-1.209v-8.943h1.209v3.756h3.25v-3.756h1.209v8.943Z"/><path class="cls-10" d="M462.264,467.381V475.3h3.263l-.131,1.026h-4.341v-8.943Z"/><path class="cls-10" d="M471.207,476.324l-.6-2.274h-3l-.6,2.274H465.8l2.588-8.943h1.482l2.586,8.943Zm-3.354-3.224h2.51l-1.248-4.758Z"/><path class="cls-10" d="M477.154,467.471a3.65,3.65,0,0,1,1.112.78l-.61.689a3.346,3.346,0,0,0-.879-.578,2.329,2.329,0,0,0-.941-.188,1.5,1.5,0,0,0-1.047.357,1.207,1.207,0,0,0-.4.942,1.348,1.348,0,0,0,.156.669,1.424,1.424,0,0,0,.533.508,5.635,5.635,0,0,0,1.064.461,6.522,6.522,0,0,1,1.3.611,2.25,2.25,0,0,1,.78.832,2.968,2.968,0,0,1-.079,2.646,2.445,2.445,0,0,1-1.005.949,3.27,3.27,0,0,1-1.541.344,3.733,3.733,0,0,1-2.77-1.17l.637-.689a3.894,3.894,0,0,0,.982.657,2.662,2.662,0,0,0,1.111.227,1.72,1.72,0,0,0,1.229-.435,1.576,1.576,0,0,0,.461-1.2,1.472,1.472,0,0,0-.369-1.054,3.486,3.486,0,0,0-1.36-.728,4.58,4.58,0,0,1-1.814-1.027,2.13,2.13,0,0,1-.551-1.521,2.224,2.224,0,0,1,1.26-2.041,2.984,2.984,0,0,1,1.351-.3A3.42,3.42,0,0,1,477.154,467.471Z"/><path class="cls-10" d="M480.951,475.083a.809.809,0,0,1,.227.578.832.832,0,0,1-.227.585.767.767,0,0,1-.592.247.752.752,0,0,1-.578-.247.833.833,0,0,1-.228-.585.81.81,0,0,1,.228-.578.764.764,0,0,1,.578-.241A.78.78,0,0,1,480.951,475.083Z"/><path class="cls-10" d="M486.053,469.5a2.932,2.932,0,0,1,.871.559l-.52.7a2.5,2.5,0,0,0-.623-.371,1.829,1.829,0,0,0-.676-.123,1.34,1.34,0,0,0-1.189.65,3.79,3.79,0,0,0-.424,2.028q0,2.574,1.613,2.574a1.71,1.71,0,0,0,.663-.124,3.048,3.048,0,0,0,.636-.37l.547.715a2.731,2.731,0,0,1-1.885.754,2.517,2.517,0,0,1-2.06-.91,4.035,4.035,0,0,1-.748-2.626,4.988,4.988,0,0,1,.344-1.937,2.833,2.833,0,0,1,.974-1.261,2.515,2.515,0,0,1,1.477-.442A2.676,2.676,0,0,1,486.053,469.5Z"/><path class="cls-10" d="M491.969,469.486v.871l-3.239,5h3.25l-.117.962h-4.42v-.871l3.239-5h-2.965v-.962Z"/><path class="cls-10" d="M494.242,475.076a.8.8,0,0,1,.221.572,1.308,1.308,0,0,1-.057.377c-.039.13-.1.317-.189.559l-.715,1.833h-.729l.481-2.067a.783.783,0,0,1-.377-.689.8.8,0,0,1,.228-.585.778.778,0,0,1,.579-.234A.737.737,0,0,1,494.242,475.076Z"/><path class="cls-10" d="M500.406,467.381v8.943H499.2v-8.943Zm4.393,0-3.03,4.082,3.239,4.861h-1.391l-3.16-4.784,3.055-4.159Z"/><path class="cls-10" d="M509.414,469.408l-.195,1.131a1.758,1.758,0,0,0-.534-.077,1.128,1.128,0,0,0-.929.454,3.517,3.517,0,0,0-.565,1.391v4.017h-1.17v-6.838h1.014l.092,1.353q.507-1.509,1.7-1.509A1.943,1.943,0,0,1,509.414,469.408Z"/><path class="cls-10" d="M511.7,466.483a.774.774,0,0,1-1.1,1.086.726.726,0,0,1-.215-.54.746.746,0,0,1,.215-.546.8.8,0,0,1,1.1,0Zm.033,3v6.838h-1.169v-6.838Z"/><path class="cls-10" d="M517.707,470.1l-.494.689a4,4,0,0,0-.779-.429,2.07,2.07,0,0,0-.768-.142,1.276,1.276,0,0,0-.838.252.859.859,0,0,0-.3.7.845.845,0,0,0,.291.677,3.528,3.528,0,0,0,1.114.506,3.7,3.7,0,0,1,1.494.793,1.741,1.741,0,0,1,.469,1.287,1.822,1.822,0,0,1-.7,1.515,2.744,2.744,0,0,1-1.753.552,3.273,3.273,0,0,1-2.354-.923l.6-.649a2.715,2.715,0,0,0,1.728.662,1.422,1.422,0,0,0,.924-.285.97.97,0,0,0,.352-.793,1.2,1.2,0,0,0-.125-.585,1.068,1.068,0,0,0-.442-.4,5.423,5.423,0,0,0-.93-.371,3.412,3.412,0,0,1-1.4-.78,1.621,1.621,0,0,1-.428-1.156,1.708,1.708,0,0,1,.286-.976,1.965,1.965,0,0,1,.793-.676,2.646,2.646,0,0,1,1.17-.247A3.168,3.168,0,0,1,517.707,470.1Z"/><path class="cls-10" d="M522.621,476.025a2.407,2.407,0,0,1-1.443.468,1.662,1.662,0,0,1-1.28-.481,1.91,1.91,0,0,1-.449-1.352v-4.29h-.974v-.884h.974v-1.573l1.17-.143v1.716h1.508l-.129.884h-1.379v4.277q0,.885.742.884a1.274,1.274,0,0,0,.408-.064,2.7,2.7,0,0,0,.424-.2Z"/><path class="cls-10" d="M525.078,465.964l.494.935-2.5,1.131-.338-.6Zm-.273,3.522v6.838h-1.17v-6.838Z"/><path class="cls-10" d="M531.248,469.857a2.221,2.221,0,0,1,.461,1.488v4.979h-1.17v-4.836a1.609,1.609,0,0,0-.221-.955.794.794,0,0,0-.675-.293q-.86,0-1.561,1.223v4.861h-1.17v-6.838h1.014l.092,1.014a2.306,2.306,0,0,1,1.949-1.183A1.6,1.6,0,0,1,531.248,469.857Z"/><path class="cls-10" d="M538.143,475.382a.728.728,0,0,0,.365.305l-.248.793a1.633,1.633,0,0,1-.793-.311,1.3,1.3,0,0,1-.4-.716,2.088,2.088,0,0,1-1.859,1.04,1.89,1.89,0,0,1-1.443-.566,2.114,2.114,0,0,1-.534-1.514,2,2,0,0,1,.717-1.664,3.2,3.2,0,0,1,2.041-.572h.883v-.585a1.506,1.506,0,0,0-.293-1.034,1.243,1.243,0,0,0-.955-.318,4.763,4.763,0,0,0-1.664.364l-.285-.819a5.649,5.649,0,0,1,2.131-.468,1.966,1.966,0,0,1,2.224,2.223v3.224A1.279,1.279,0,0,0,538.143,475.382Zm-1.274-.838v-1.613h-.754q-1.69,0-1.689,1.417a1.411,1.411,0,0,0,.273.936.96.96,0,0,0,.779.325A1.515,1.515,0,0,0,536.869,474.544Z"/><path class="cls-10" d="M547.814,467.381v.961l-4.029,6.956H547.8l-.131,1.026h-5.213v-.962l4.057-6.98h-3.655v-1Z"/><path class="cls-10" d="M553.508,475.382a.728.728,0,0,0,.365.305l-.248.793a1.633,1.633,0,0,1-.793-.311,1.3,1.3,0,0,1-.4-.716,2.091,2.091,0,0,1-1.86,1.04,1.89,1.89,0,0,1-1.443-.566,2.113,2.113,0,0,1-.533-1.514,2,2,0,0,1,.716-1.664,3.2,3.2,0,0,1,2.042-.572h.882v-.585a1.5,1.5,0,0,0-.293-1.034,1.242,1.242,0,0,0-.955-.318,4.767,4.767,0,0,0-1.664.364l-.285-.819a5.653,5.653,0,0,1,2.131-.468,1.966,1.966,0,0,1,2.225,2.223v3.224A1.293,1.293,0,0,0,553.508,475.382Zm-1.494-9.418.494.935-2.5,1.131-.338-.6Zm.22,8.58v-1.613h-.754q-1.691,0-1.689,1.417a1.411,1.411,0,0,0,.273.936.961.961,0,0,0,.78.325A1.514,1.514,0,0,0,552.234,474.544Z"/><path class="cls-10" d="M556.668,466.588v9.736H555.5v-9.607Zm3.6,2.9-2.314,3.042,2.535,3.8h-1.3l-2.457-3.744,2.315-3.094Z"/><path class="cls-10" d="M565.859,470.24a5.115,5.115,0,0,1-.013,5.285,2.66,2.66,0,0,1-4.088.02,5.1,5.1,0,0,1,.006-5.286,2.714,2.714,0,0,1,4.1-.019Zm-3.211.656a3.888,3.888,0,0,0-.4,2.009q0,2.666,1.559,2.665t1.56-2.678a3.967,3.967,0,0,0-.39-2,1.271,1.271,0,0,0-1.157-.636A1.3,1.3,0,0,0,562.648,470.9Z"/><path class="cls-10" d="M572.912,470.24a5.083,5.083,0,0,1,.565,2.64,4.8,4.8,0,0,1-.631,2.638,2.064,2.064,0,0,1-3.4.157v3.25l-1.17.142v-9.581H569.3l.064.923a2.129,2.129,0,0,1,1.859-1.092A1.851,1.851,0,0,1,572.912,470.24Zm-.656,2.652a4.6,4.6,0,0,0-.332-2.021,1.076,1.076,0,0,0-1.008-.631,1.282,1.282,0,0,0-.807.273,3.122,3.122,0,0,0-.662.742v3.458a1.577,1.577,0,0,0,1.365.844Q572.254,475.557,572.256,472.892Z"/><path class="cls-10" d="M578.572,469.5a2.907,2.907,0,0,1,.871.559l-.519.7a2.5,2.5,0,0,0-.623-.371,1.833,1.833,0,0,0-.676-.123,1.342,1.342,0,0,0-1.19.65,3.791,3.791,0,0,0-.423,2.028q0,2.574,1.613,2.574a1.7,1.7,0,0,0,.662-.124,3.079,3.079,0,0,0,.637-.37l.547.715a2.733,2.733,0,0,1-1.885.754,2.519,2.519,0,0,1-2.061-.91,4.035,4.035,0,0,1-.748-2.626,5.007,5.007,0,0,1,.344-1.937,2.842,2.842,0,0,1,.975-1.261,2.514,2.514,0,0,1,1.476-.442A2.676,2.676,0,0,1,578.572,469.5Zm.469-3.354.455.52-1.572,1.509H577.2l-1.572-1.509.453-.52,1.483,1.144Z"/><path class="cls-10" d="M585.008,475.382a.732.732,0,0,0,.363.305l-.246.793a1.625,1.625,0,0,1-.793-.311,1.271,1.271,0,0,1-.4-.716,2.093,2.093,0,0,1-1.86,1.04,1.887,1.887,0,0,1-1.443-.566,2.113,2.113,0,0,1-.533-1.514,2,2,0,0,1,.715-1.664,3.2,3.2,0,0,1,2.041-.572h.884v-.585a1.5,1.5,0,0,0-.293-1.034,1.245,1.245,0,0,0-.955-.318,4.767,4.767,0,0,0-1.664.364l-.287-.819a5.67,5.67,0,0,1,2.133-.468,1.965,1.965,0,0,1,2.223,2.223v3.224A1.266,1.266,0,0,0,585.008,475.382Zm-1.274-.838v-1.613h-.754q-1.691,0-1.691,1.417a1.422,1.422,0,0,0,.273.936.961.961,0,0,0,.78.325A1.519,1.519,0,0,0,583.734,474.544Z"/><path class="cls-10" d="M591.332,469.857a2.21,2.21,0,0,1,.461,1.488v4.979h-1.17v-4.836a1.594,1.594,0,0,0-.221-.955.791.791,0,0,0-.675-.293q-.859,0-1.561,1.223v4.861H587v-6.838h1.016l.09,1.014a2.311,2.311,0,0,1,1.951-1.183A1.592,1.592,0,0,1,591.332,469.857Z"/><path class="cls-10" d="M598.268,470.24a5.118,5.118,0,0,1-.014,5.285,2.66,2.66,0,0,1-4.088.02,5.108,5.108,0,0,1,.006-5.286,2.715,2.715,0,0,1,4.1-.019Zm-3.211.656a3.876,3.876,0,0,0-.4,2.009q0,2.666,1.559,2.665t1.56-2.678a3.956,3.956,0,0,0-.39-2,1.271,1.271,0,0,0-1.156-.636A1.294,1.294,0,0,0,595.057,470.9Z"/><path class="cls-10" d="M605.248,469.486l-2.041,6.838h-1.4l-2.106-6.838h1.223l1.586,5.851,1.572-5.851Z"/><path class="cls-10" d="M610.617,475.382a.732.732,0,0,0,.363.305l-.246.793a1.629,1.629,0,0,1-.793-.311,1.271,1.271,0,0,1-.4-.716,2.091,2.091,0,0,1-1.859,1.04,1.89,1.89,0,0,1-1.444-.566,2.118,2.118,0,0,1-.533-1.514,2,2,0,0,1,.715-1.664,3.2,3.2,0,0,1,2.041-.572h.885v-.585a1.506,1.506,0,0,0-.293-1.034,1.248,1.248,0,0,0-.955-.318,4.758,4.758,0,0,0-1.664.364l-.288-.819a5.67,5.67,0,0,1,2.133-.468,1.964,1.964,0,0,1,2.223,2.223v3.224A1.266,1.266,0,0,0,610.617,475.382Zm-1.494-9.418.492.935-2.5,1.131-.338-.6Zm.221,8.58v-1.613h-.754q-1.691,0-1.692,1.417a1.416,1.416,0,0,0,.274.936.957.957,0,0,0,.779.325A1.52,1.52,0,0,0,609.344,474.544Z"/></svg>