<svg id="Layer_1" data-name="Layer 1" xmlns="http://www.w3.org/2000/svg" viewBox="0 0 403 487.954"><defs><style>.cls-1,.cls-2,.cls-3,.cls-4{fill:none;}.cls-1{stroke:#d9d9d9;stroke-width:0.75px;}.cls-1,.cls-4{stroke-linejoin:round;}.cls-2{stroke:#c44536;}.cls-2,.cls-3{stroke-miterlimit:10;}.cls-2,.cls-3,.cls-4{stroke-width:2px;}.cls-3{stroke:#ee9b00;}.cls-4{stroke:#4c4c61;stroke-linecap:round;}.cls-5{fill:#c44536;}.cls-6{fill:#ee9b00;}.cls-7{fill:#4c4c61;}.cls-8{fill:#595959;}.cls-9{fill:#999;}</style></defs><line class="cls-1" x1="2.414" y1="398.369" x2="399.252" y2="398.369"/><line class="cls-1" x1="2.414" y1="300.946" x2="399.252" y2="300.946"/><line class="cls-1" x1="2.414" y1="203.522" x2="399.252" y2="203.522"/><line class="cls-1" x1="2.414" y1="106.099" x2="399.252" y2="106.099"/><line class="cls-2" x1="71.761" y1="381.205" x2="333.784" y2="229.224"/><line class="cls-3" x1="71.761" y1="282.853" x2="333.784" y2="252.606"/><line class="cls-4" x1="71.761" y1="245.74" x2="333.784" y2="172.254"/><path class="cls-5" d="M60.319,356.49a2.436,2.436,0,0,1,1.337,2.227,3.661,3.661,0,0,1-.385,1.637,8,8,0,0,1-1.182,1.695q-.8.909-2.423,2.533h4.215l-.154,1.078H56.2v-1.022q1.877-1.945,2.66-2.849a8.065,8.065,0,0,0,1.121-1.574,3.2,3.2,0,0,0,.335-1.443,1.438,1.438,0,0,0-1.54-1.554,2.067,2.067,0,0,0-1.007.238,3.669,3.669,0,0,0-.924.784L56,357.569a3.858,3.858,0,0,1,1.274-1.064,3.453,3.453,0,0,1,1.569-.351A3.12,3.12,0,0,1,60.319,356.49Z"/><path class="cls-5" d="M68.831,357.393a8.563,8.563,0,0,1,0,7.189,2.83,2.83,0,0,1-4.69,0,8.563,8.563,0,0,1,0-7.189,2.839,2.839,0,0,1,4.69,0Zm-3.7.679a9.861,9.861,0,0,0,0,5.832,1.458,1.458,0,0,0,2.695,0,9.691,9.691,0,0,0,0-5.825,1.459,1.459,0,0,0-2.695-.007Z"/><path class="cls-5" d="M72.759,364.162a.937.937,0,0,1,.28.686,2.471,2.471,0,0,1-.253.994l-.937,2.143h-.924l.559-2.325a1.01,1.01,0,0,1-.287-.35,1.031,1.031,0,0,1-.1-.462.954.954,0,0,1,.966-.965A.954.954,0,0,1,72.759,364.162Z"/><path class="cls-5" d="M79.632,357.127a4.192,4.192,0,0,1,.77,2.667,7.727,7.727,0,0,1-.518,3.088,4.217,4.217,0,0,1-1.582,1.861,10.984,10.984,0,0,1-2.884,1.225L75.124,365A7.105,7.105,0,0,0,78,363.56a3.338,3.338,0,0,0,1.071-2.422,2.422,2.422,0,0,1-.868.812,2.457,2.457,0,0,1-1.232.308,2.408,2.408,0,0,1-1.316-.371,2.578,2.578,0,0,1-.931-1.05,3.474,3.474,0,0,1-.343-1.589,3.245,3.245,0,0,1,.406-1.652,2.781,2.781,0,0,1,1.085-1.07,3.077,3.077,0,0,1,1.5-.372A2.705,2.705,0,0,1,79.632,357.127Zm-.532,2.962a4.359,4.359,0,0,0-.385-2.234,1.421,1.421,0,0,0-1.309-.679,1.557,1.557,0,0,0-1.274.546,2.389,2.389,0,0,0-.448,1.555,2.242,2.242,0,0,0,.419,1.476,1.409,1.409,0,0,0,1.135.5A2.193,2.193,0,0,0,79.1,360.089Z"/><path class="cls-5" d="M89.355,356.8a2.645,2.645,0,0,1,0,3.443,2.405,2.405,0,0,1-3.276,0,2.645,2.645,0,0,1,0-3.443,2.4,2.4,0,0,1,3.276,0Zm-2.519.644a2.35,2.35,0,0,0,0,2.149.941.941,0,0,0,.875.426q1.134,0,1.134-1.5a2.081,2.081,0,0,0-.252-1.071,1.122,1.122,0,0,0-1.757-.006Zm6.558-1.737.9.588-6.481,9.8-.9-.587Zm1.722,6.034a2.668,2.668,0,0,1,0,3.444,2.413,2.413,0,0,1-3.282,0,2.643,2.643,0,0,1,0-3.444,2.413,2.413,0,0,1,3.282,0Zm-2.513.651a2,2,0,0,0-.258,1.071,2.037,2.037,0,0,0,.258,1.071.941.941,0,0,0,.875.427q1.134,0,1.134-1.5a2.041,2.041,0,0,0-.252-1.064,1.135,1.135,0,0,0-1.757-.007Z"/><path class="cls-5" d="M322.958,207.063a2.441,2.441,0,0,1,1.337,2.226,3.666,3.666,0,0,1-.385,1.638,8,8,0,0,1-1.183,1.694q-.8.91-2.422,2.534h4.214l-.154,1.078h-5.53v-1.022q1.877-1.946,2.66-2.849a7.984,7.984,0,0,0,1.12-1.575,3.178,3.178,0,0,0,.336-1.442,1.438,1.438,0,0,0-1.54-1.554,2.058,2.058,0,0,0-1.008.238,3.686,3.686,0,0,0-.924.784l-.84-.672a3.862,3.862,0,0,1,1.274-1.064,3.462,3.462,0,0,1,1.568-.35A3.121,3.121,0,0,1,322.958,207.063Z"/><path class="cls-5" d="M332.3,213.727a2.4,2.4,0,0,1-.413,1.379,2.76,2.76,0,0,1-1.156.952,4.324,4.324,0,0,1-3.359.007,2.638,2.638,0,0,1-1.127-.938,2.417,2.417,0,0,1-.4-1.372,2.264,2.264,0,0,1,.468-1.456,3.485,3.485,0,0,1,1.379-.98,2.8,2.8,0,0,1-1.1-.917,2.233,2.233,0,0,1-.357-1.267,2.146,2.146,0,0,1,.4-1.3,2.491,2.491,0,0,1,1.049-.826,3.506,3.506,0,0,1,1.394-.28,3.622,3.622,0,0,1,1.379.266,2.466,2.466,0,0,1,1.056.805,2.089,2.089,0,0,1,.407,1.295,1.9,1.9,0,0,1-.392,1.2,3.451,3.451,0,0,1-1.2.91A2.668,2.668,0,0,1,332.3,213.727Zm-1.856,1.2a1.5,1.5,0,0,0,.512-1.19,1.692,1.692,0,0,0-.2-.847,1.72,1.72,0,0,0-.63-.6,6.608,6.608,0,0,0-1.218-.525l-.351-.126a2.5,2.5,0,0,0-1.036.847,2.267,2.267,0,0,0-.336,1.267,1.481,1.481,0,0,0,.5,1.2,2.056,2.056,0,0,0,1.372.427A2.015,2.015,0,0,0,330.447,214.931Zm-2.519-6.86a1.362,1.362,0,0,0-.427,1.078,1.265,1.265,0,0,0,.413,1.022,3.986,3.986,0,0,0,1.322.644l.239.084a2.771,2.771,0,0,0,.91-.77,1.712,1.712,0,0,0,.28-.994,1.38,1.38,0,0,0-.413-1.05,1.633,1.633,0,0,0-1.169-.392A1.679,1.679,0,0,0,327.928,208.071Z"/><path class="cls-5" d="M335.3,214.735a.937.937,0,0,1,.28.686,2.471,2.471,0,0,1-.253.994l-.937,2.142h-.924l.559-2.324a1.01,1.01,0,0,1-.287-.35,1.031,1.031,0,0,1-.1-.462.956.956,0,0,1,.966-.966A.954.954,0,0,1,335.3,214.735Z"/><path class="cls-5" d="M342.089,206.867v.966l-3.5,8.54-1.176-.392,3.374-8.064h-4.144v-1.05Z"/><path class="cls-5" d="M350.762,207.371a2.649,2.649,0,0,1,0,3.444,2.406,2.406,0,0,1-3.277,0,2.649,2.649,0,0,1,0-3.444,2.406,2.406,0,0,1,3.277,0Zm-2.52.644a2.35,2.35,0,0,0,0,2.149.94.94,0,0,0,.875.427q1.134,0,1.134-1.5a2.081,2.081,0,0,0-.252-1.071,1.123,1.123,0,0,0-1.757-.007Zm6.559-1.736.9.588-6.481,9.8-.9-.588Zm1.721,6.034a2.668,2.668,0,0,1,0,3.444,2.185,2.185,0,0,1-1.637.644,2.21,2.21,0,0,1-1.645-.644,2.643,2.643,0,0,1,0-3.444,2.213,2.213,0,0,1,1.645-.644A2.189,2.189,0,0,1,356.522,212.313Zm-2.512.651a1.984,1.984,0,0,0-.259,1.071,2.03,2.03,0,0,0,.259,1.071.941.941,0,0,0,.875.427q1.134,0,1.133-1.5a2.041,2.041,0,0,0-.251-1.064,1.135,1.135,0,0,0-1.757-.007Z"/><path class="cls-6" d="M60.719,260.844a2.441,2.441,0,0,1,1.337,2.226,3.669,3.669,0,0,1-.385,1.638,8.04,8.04,0,0,1-1.183,1.694q-.8.909-2.423,2.534H62.28l-.154,1.078H56.6v-1.022q1.877-1.946,2.66-2.849a8.069,8.069,0,0,0,1.12-1.575,3.181,3.181,0,0,0,.336-1.442,1.438,1.438,0,0,0-1.54-1.554,2.058,2.058,0,0,0-1.008.238,3.648,3.648,0,0,0-.924.784l-.841-.672a3.875,3.875,0,0,1,1.275-1.064,3.462,3.462,0,0,1,1.568-.35A3.121,3.121,0,0,1,60.719,260.844Z"/><path class="cls-6" d="M68.859,261.656H65.205v2.758a3.256,3.256,0,0,1,1.5-.364,2.5,2.5,0,0,1,1.933.791,3.093,3.093,0,0,1,.727,2.177,3.292,3.292,0,0,1-.406,1.645,2.828,2.828,0,0,1-1.141,1.12,3.507,3.507,0,0,1-1.7.4,3.7,3.7,0,0,1-1.525-.3,4.074,4.074,0,0,1-1.246-.889l.756-.742a3.189,3.189,0,0,0,.923.665,2.57,2.57,0,0,0,1.079.217,1.809,1.809,0,0,0,1.407-.56,2.268,2.268,0,0,0,.51-1.582,2.039,2.039,0,0,0-.461-1.484,1.687,1.687,0,0,0-1.247-.462,2.772,2.772,0,0,0-.671.077,3.5,3.5,0,0,0-.659.245H63.974v-4.718h5.067Z"/><path class="cls-6" d="M72.359,268.516a.932.932,0,0,1,.281.686,2.479,2.479,0,0,1-.253.994l-.938,2.142h-.924l.56-2.324a1,1,0,0,1-.287-.35,1.018,1.018,0,0,1-.105-.462.958.958,0,0,1,.966-.966A.949.949,0,0,1,72.359,268.516Z"/><path class="cls-6" d="M79.233,261.481A4.186,4.186,0,0,1,80,264.148a7.7,7.7,0,0,1-.519,3.087A4.213,4.213,0,0,1,77.9,269.1a11.018,11.018,0,0,1-2.884,1.225l-.293-.966a7.113,7.113,0,0,0,2.876-1.442,3.34,3.34,0,0,0,1.072-2.422,2.422,2.422,0,0,1-.868.812,2.474,2.474,0,0,1-1.233.308,2.413,2.413,0,0,1-1.315-.371,2.58,2.58,0,0,1-.932-1.05,3.49,3.49,0,0,1-.343-1.589,3.232,3.232,0,0,1,.407-1.652,2.764,2.764,0,0,1,1.085-1.071,3.087,3.087,0,0,1,1.5-.371A2.7,2.7,0,0,1,79.233,261.481Zm-.532,2.961a4.336,4.336,0,0,0-.385-2.233,1.418,1.418,0,0,0-1.308-.679,1.556,1.556,0,0,0-1.275.546,2.394,2.394,0,0,0-.448,1.554,2.245,2.245,0,0,0,.42,1.477,1.41,1.41,0,0,0,1.135.5A2.192,2.192,0,0,0,78.7,264.442Z"/><path class="cls-6" d="M88.956,261.152a2.646,2.646,0,0,1,0,3.444,2.405,2.405,0,0,1-3.276,0,2.646,2.646,0,0,1,0-3.444,2.405,2.405,0,0,1,3.276,0Zm-2.52.644a2.358,2.358,0,0,0,0,2.149.94.94,0,0,0,.875.427q1.134,0,1.134-1.5a2.081,2.081,0,0,0-.252-1.071,1.123,1.123,0,0,0-1.757-.007ZM93,260.06l.9.588-6.482,9.8-.9-.588Zm1.722,6.034a2.668,2.668,0,0,1,0,3.444,2.413,2.413,0,0,1-3.282,0,2.643,2.643,0,0,1,0-3.444,2.413,2.413,0,0,1,3.282,0Zm-2.513.651a1.984,1.984,0,0,0-.259,1.071,2.033,2.033,0,0,0,.259,1.071.941.941,0,0,0,.875.427q1.134,0,1.134-1.5a2.041,2.041,0,0,0-.252-1.064,1.135,1.135,0,0,0-1.757-.007Z"/><path class="cls-6" d="M323.309,265.8a2.438,2.438,0,0,1,1.336,2.226,3.66,3.66,0,0,1-.384,1.637,8.043,8.043,0,0,1-1.183,1.695q-.8.909-2.423,2.533h4.215l-.154,1.078h-5.531v-1.022q1.876-1.946,2.661-2.849a8.1,8.1,0,0,0,1.12-1.574,3.2,3.2,0,0,0,.336-1.443,1.437,1.437,0,0,0-1.54-1.553,2.068,2.068,0,0,0-1.008.237,3.655,3.655,0,0,0-.924.785l-.841-.672a3.863,3.863,0,0,1,1.275-1.064,3.446,3.446,0,0,1,1.568-.35A3.109,3.109,0,0,1,323.309,265.8Z"/><path class="cls-6" d="M331.365,265.6v.967l-3.5,8.54-1.176-.393,3.374-8.063h-4.144V265.6Z"/><path class="cls-6" d="M334.151,273.471a.934.934,0,0,1,.281.686,2.479,2.479,0,0,1-.253,1l-.938,2.142h-.924l.56-2.325a1,1,0,0,1-.287-.35,1.018,1.018,0,0,1-.1-.462.956.956,0,0,1,.966-.965A.952.952,0,0,1,334.151,273.471Z"/><path class="cls-6" d="M341.025,266.612h-3.654v2.757a3.268,3.268,0,0,1,1.5-.363,2.5,2.5,0,0,1,1.933.791,3.092,3.092,0,0,1,.727,2.176,3.286,3.286,0,0,1-.406,1.645,2.828,2.828,0,0,1-1.141,1.12,3.5,3.5,0,0,1-1.7.4,3.7,3.7,0,0,1-1.525-.3,4.061,4.061,0,0,1-1.246-.89l.756-.742a3.17,3.17,0,0,0,.923.665,2.571,2.571,0,0,0,1.079.218,1.813,1.813,0,0,0,1.407-.56,2.268,2.268,0,0,0,.51-1.582,2.036,2.036,0,0,0-.461-1.484,1.688,1.688,0,0,0-1.247-.463,2.772,2.772,0,0,0-.671.077,3.645,3.645,0,0,0-.659.245H336.14V265.6h5.067Z"/><path class="cls-6" d="M350.412,266.108a2.645,2.645,0,0,1,0,3.443,2.4,2.4,0,0,1-3.276,0,2.645,2.645,0,0,1,0-3.443,2.405,2.405,0,0,1,3.276,0Zm-2.519.644a2.35,2.35,0,0,0,0,2.149.939.939,0,0,0,.875.426q1.133,0,1.133-1.5a2.081,2.081,0,0,0-.252-1.071,1.121,1.121,0,0,0-1.756-.006Zm6.558-1.737.9.588-6.482,9.8-.9-.588Zm1.722,6.035a2.667,2.667,0,0,1,0,3.443,2.413,2.413,0,0,1-3.282,0,2.642,2.642,0,0,1,0-3.443,2.41,2.41,0,0,1,3.282,0Zm-2.513.65a1.989,1.989,0,0,0-.259,1.071,2.028,2.028,0,0,0,.259,1.071.941.941,0,0,0,.875.427q1.134,0,1.134-1.5a2.044,2.044,0,0,0-.252-1.064,1.135,1.135,0,0,0-1.757-.007Z"/><path class="cls-7" d="M60.935,224a2.436,2.436,0,0,1,1.337,2.225,3.678,3.678,0,0,1-.384,1.638,8.014,8.014,0,0,1-1.183,1.694q-.8.911-2.423,2.534H62.5l-.154,1.079H56.812V232.15q1.877-1.946,2.661-2.849a8.039,8.039,0,0,0,1.12-1.575,3.191,3.191,0,0,0,.336-1.442,1.438,1.438,0,0,0-1.54-1.554,2.058,2.058,0,0,0-1.008.238,3.655,3.655,0,0,0-.924.785l-.841-.672a3.866,3.866,0,0,1,1.275-1.065,3.458,3.458,0,0,1,1.568-.349A3.105,3.105,0,0,1,60.935,224Z"/><path class="cls-7" d="M68.992,223.806v.966l-3.5,8.54-1.176-.391,3.374-8.065H63.546v-1.05Z"/><path class="cls-7" d="M71.778,231.675a.93.93,0,0,1,.281.685,2.471,2.471,0,0,1-.253.994l-.938,2.143h-.924l.56-2.324a1,1,0,0,1-.287-.351,1.018,1.018,0,0,1-.105-.462.959.959,0,0,1,.966-.966A.95.95,0,0,1,71.778,231.675Z"/><path class="cls-7" d="M79.856,230.667a2.4,2.4,0,0,1-.413,1.379,2.765,2.765,0,0,1-1.155.952,4.324,4.324,0,0,1-3.359.007,2.642,2.642,0,0,1-1.127-.939,2.418,2.418,0,0,1-.4-1.372,2.268,2.268,0,0,1,.469-1.456,3.477,3.477,0,0,1,1.379-.98,2.805,2.805,0,0,1-1.1-.916,2.246,2.246,0,0,1-.356-1.268,2.152,2.152,0,0,1,.4-1.3,2.5,2.5,0,0,1,1.05-.826,3.489,3.489,0,0,1,1.394-.279,3.64,3.64,0,0,1,1.379.265,2.474,2.474,0,0,1,1.056.805,2.088,2.088,0,0,1,.406,1.3,1.9,1.9,0,0,1-.391,1.2,3.451,3.451,0,0,1-1.2.91A2.667,2.667,0,0,1,79.856,230.667ZM78,231.871a1.506,1.506,0,0,0,.512-1.191,1.676,1.676,0,0,0-.2-.846,1.707,1.707,0,0,0-.63-.6,6.467,6.467,0,0,0-1.217-.524l-.351-.126a2.483,2.483,0,0,0-1.036.846,2.259,2.259,0,0,0-.336,1.267,1.481,1.481,0,0,0,.5,1.2,2.056,2.056,0,0,0,1.372.427A2.019,2.019,0,0,0,78,231.871Zm-2.52-6.861a1.364,1.364,0,0,0-.426,1.079,1.261,1.261,0,0,0,.413,1.021,4,4,0,0,0,1.322.645l.238.084a2.752,2.752,0,0,0,.91-.771,1.7,1.7,0,0,0,.281-.994,1.381,1.381,0,0,0-.413-1.05,1.634,1.634,0,0,0-1.169-.391A1.682,1.682,0,0,0,75.481,225.01Z"/><path class="cls-7" d="M88.739,224.31a2.647,2.647,0,0,1,0,3.445,2.408,2.408,0,0,1-3.276,0,2.647,2.647,0,0,1,0-3.445,2.408,2.408,0,0,1,3.276,0Zm-2.519.645a2.348,2.348,0,0,0,0,2.148.94.94,0,0,0,.875.427q1.134,0,1.133-1.5a2.084,2.084,0,0,0-.251-1.07,1.121,1.121,0,0,0-1.757-.007Zm6.558-1.737.9.588-6.482,9.8-.9-.588Zm1.722,6.035a2.667,2.667,0,0,1,0,3.443,2.41,2.41,0,0,1-3.282,0,2.642,2.642,0,0,1,0-3.443,2.41,2.41,0,0,1,3.282,0Zm-2.513.65a1.987,1.987,0,0,0-.259,1.071,2.036,2.036,0,0,0,.259,1.072.942.942,0,0,0,.875.426q1.134,0,1.134-1.5a2.044,2.044,0,0,0-.252-1.064,1.135,1.135,0,0,0-1.757-.007Z"/><path class="cls-7" d="M323.1,150.431a2.321,2.321,0,0,1,.953.869,2.265,2.265,0,0,1,.329,1.19,2.024,2.024,0,0,1-.5,1.406,2.494,2.494,0,0,1-1.324.749,2.383,2.383,0,0,1,1.527.673,2.161,2.161,0,0,1,.588,1.6,2.816,2.816,0,0,1-.392,1.469,2.688,2.688,0,0,1-1.12,1.03,3.656,3.656,0,0,1-1.68.371,3.84,3.84,0,0,1-1.568-.316,3.424,3.424,0,0,1-1.246-.944l.77-.715a3.2,3.2,0,0,0,.945.7,2.471,2.471,0,0,0,1.057.225,1.89,1.89,0,0,0,1.386-.5,1.792,1.792,0,0,0,.5-1.337,1.575,1.575,0,0,0-.476-1.3,2.192,2.192,0,0,0-1.386-.378h-.7l.155-.994h.476a1.746,1.746,0,0,0,1.211-.433,1.557,1.557,0,0,0,.483-1.218,1.345,1.345,0,0,0-.42-1.043,1.616,1.616,0,0,0-1.134-.386,2.5,2.5,0,0,0-1,.2,3.255,3.255,0,0,0-.931.644l-.673-.77a3.83,3.83,0,0,1,2.675-1.106A3.216,3.216,0,0,1,323.1,150.431Z"/><path class="cls-7" d="M329.973,150.25v9.366h-1.288v-7.994l-2.185,1.33-.56-.91,2.9-1.792Z"/><path class="cls-7" d="M333.878,158.118a.933.933,0,0,1,.28.685,2.475,2.475,0,0,1-.253,1l-.937,2.142h-.924l.559-2.324a1.014,1.014,0,0,1-.287-.351,1.028,1.028,0,0,1-.1-.462.956.956,0,0,1,.966-.965A.951.951,0,0,1,333.878,158.118Z"/><path class="cls-7" d="M340.486,153.792a2.392,2.392,0,0,1,.938,1.008,3.514,3.514,0,0,1,.35,1.637,3.741,3.741,0,0,1-.4,1.758,2.927,2.927,0,0,1-1.078,1.176,2.84,2.84,0,0,1-1.505.413,2.613,2.613,0,0,1-2.394-1.211,6.32,6.32,0,0,1-.756-3.354,7.7,7.7,0,0,1,.427-2.68,3.992,3.992,0,0,1,1.225-1.792,2.936,2.936,0,0,1,1.89-.637,3.433,3.433,0,0,1,1.932.573l-.5.855a2.693,2.693,0,0,0-1.442-.406,1.8,1.8,0,0,0-1.6.965,5.315,5.315,0,0,0-.644,2.59,2.649,2.649,0,0,1,2.254-1.231A2.578,2.578,0,0,1,340.486,153.792Zm-.448,4.353a2.845,2.845,0,0,0,.434-1.666q0-2-1.512-2a2.009,2.009,0,0,0-1.134.344,2.92,2.92,0,0,0-.882.944,4.766,4.766,0,0,0,.483,2.269,1.484,1.484,0,0,0,1.365.727A1.431,1.431,0,0,0,340.038,158.145Z"/><path class="cls-7" d="M350.587,150.754a2.646,2.646,0,0,1,0,3.444,2.406,2.406,0,0,1-3.277,0,2.649,2.649,0,0,1,0-3.444,2.406,2.406,0,0,1,3.277,0Zm-2.52.644a2.358,2.358,0,0,0,0,2.149.939.939,0,0,0,.875.426q1.134,0,1.134-1.5a2.077,2.077,0,0,0-.252-1.07,1.121,1.121,0,0,0-1.757-.007Zm6.559-1.736.9.588-6.481,9.8-.9-.588Zm1.722,6.034a2.67,2.67,0,0,1,0,3.443,2.188,2.188,0,0,1-1.638.645,2.21,2.21,0,0,1-1.645-.645,2.645,2.645,0,0,1,0-3.443,2.21,2.21,0,0,1,1.645-.645A2.188,2.188,0,0,1,356.348,155.7Zm-2.513.65a1.99,1.99,0,0,0-.259,1.072,2.033,2.033,0,0,0,.259,1.071.943.943,0,0,0,.875.427q1.134,0,1.134-1.5a2.045,2.045,0,0,0-.252-1.065,1.135,1.135,0,0,0-1.757-.007Z"/><path class="cls-8" d="M7.81,384.254a2.266,2.266,0,0,1,1.241,2.067,3.4,3.4,0,0,1-.358,1.521,7.428,7.428,0,0,1-1.1,1.573q-.741.844-2.249,2.353H9.259l-.144,1H3.98v-.949q1.743-1.807,2.47-2.646a7.439,7.439,0,0,0,1.04-1.462,2.956,2.956,0,0,0,.313-1.339,1.334,1.334,0,0,0-1.43-1.443,1.925,1.925,0,0,0-.937.221,3.418,3.418,0,0,0-.857.728l-.78-.624a3.589,3.589,0,0,1,1.182-.988,3.209,3.209,0,0,1,1.456-.325A2.9,2.9,0,0,1,7.81,384.254Z"/><path class="cls-8" d="M15.713,385.092a7.957,7.957,0,0,1,0,6.676,2.416,2.416,0,0,1-2.178,1.157,2.417,2.417,0,0,1-2.178-1.157,7.957,7.957,0,0,1,0-6.676,2.419,2.419,0,0,1,2.178-1.15A2.418,2.418,0,0,1,15.713,385.092Zm-3.433.631a9.163,9.163,0,0,0,0,5.414,1.353,1.353,0,0,0,2.5,0,9,9,0,0,0,0-5.408,1.355,1.355,0,0,0-2.5-.006Z"/><path class="cls-8" d="M24.826,384.54a2.459,2.459,0,0,1,0,3.2,2.233,2.233,0,0,1-3.042,0,2.455,2.455,0,0,1,0-3.2,2.233,2.233,0,0,1,3.042,0Zm-2.34.6a2.185,2.185,0,0,0,0,2,.873.873,0,0,0,.813.4q1.052,0,1.053-1.391a1.933,1.933,0,0,0-.235-1,1.043,1.043,0,0,0-1.631-.006Zm6.09-1.612.832.546-6.018,9.1-.832-.546Zm1.6,5.6a2.478,2.478,0,0,1,0,3.2,2.242,2.242,0,0,1-3.049,0,2.455,2.455,0,0,1,0-3.2,2.242,2.242,0,0,1,3.049,0Zm-2.334.6a1.853,1.853,0,0,0-.24,1,1.888,1.888,0,0,0,.24.994.872.872,0,0,0,.812.4q1.053,0,1.053-1.391a1.894,1.894,0,0,0-.233-.988,1.055,1.055,0,0,0-1.632-.007Z"/><path class="cls-8" d="M7.81,286.842a2.269,2.269,0,0,1,1.241,2.067,3.4,3.4,0,0,1-.358,1.522A7.428,7.428,0,0,1,7.6,292q-.741.844-2.249,2.353H9.259l-.144,1H3.98v-.95q1.743-1.806,2.47-2.645A7.412,7.412,0,0,0,7.49,290.3a2.952,2.952,0,0,0,.313-1.338,1.334,1.334,0,0,0-1.43-1.443,1.925,1.925,0,0,0-.937.22,3.461,3.461,0,0,0-.857.728l-.78-.624a3.585,3.585,0,0,1,1.182-.987,3.209,3.209,0,0,1,1.456-.326A2.9,2.9,0,0,1,7.81,286.842Z"/><path class="cls-8" d="M15.368,287.6H11.976v2.561a3.02,3.02,0,0,1,1.39-.337,2.324,2.324,0,0,1,1.794.734,2.874,2.874,0,0,1,.676,2.021,3.05,3.05,0,0,1-.377,1.528,2.627,2.627,0,0,1-1.06,1.04,3.257,3.257,0,0,1-1.579.37,3.42,3.42,0,0,1-1.417-.279,3.762,3.762,0,0,1-1.157-.826l.7-.689a2.96,2.96,0,0,0,.859.618,2.389,2.389,0,0,0,1,.2,1.681,1.681,0,0,0,1.3-.52,2.1,2.1,0,0,0,.475-1.469,1.888,1.888,0,0,0-.429-1.378,1.561,1.561,0,0,0-1.157-.43,2.594,2.594,0,0,0-.624.072,3.21,3.21,0,0,0-.61.228h-.937v-4.381h4.706Z"/><path class="cls-8" d="M24.085,287.129a2.459,2.459,0,0,1,0,3.2,2.233,2.233,0,0,1-3.042,0,2.455,2.455,0,0,1,0-3.2,2.231,2.231,0,0,1,3.042,0Zm-2.34.6a2.185,2.185,0,0,0,0,2,.873.873,0,0,0,.813.4q1.052,0,1.052-1.391a1.933,1.933,0,0,0-.234-1,1.043,1.043,0,0,0-1.631-.006Zm6.09-1.613.832.547-6.019,9.1-.832-.545Zm1.6,5.6a2.482,2.482,0,0,1,0,3.2,2.245,2.245,0,0,1-3.049,0,2.457,2.457,0,0,1,0-3.2,2.245,2.245,0,0,1,3.049,0Zm-2.334.605a1.842,1.842,0,0,0-.241,1,1.879,1.879,0,0,0,.241.994.874.874,0,0,0,.812.4q1.053,0,1.053-1.391a1.884,1.884,0,0,0-.234-.988,1.054,1.054,0,0,0-1.631-.007Z"/><path class="cls-8" d="M7.783,189.419a2.149,2.149,0,0,1,.884.8,2.1,2.1,0,0,1,.306,1.105,1.884,1.884,0,0,1-.462,1.307,2.322,2.322,0,0,1-1.229.695,2.213,2.213,0,0,1,1.417.624,2.007,2.007,0,0,1,.547,1.483,2.62,2.62,0,0,1-.364,1.364,2.5,2.5,0,0,1-1.04.956,3.389,3.389,0,0,1-1.561.344,3.573,3.573,0,0,1-1.456-.292,3.191,3.191,0,0,1-1.156-.878l.715-.662a3.019,3.019,0,0,0,.877.65,2.313,2.313,0,0,0,.981.208,1.749,1.749,0,0,0,1.287-.462A1.659,1.659,0,0,0,8,195.425a1.456,1.456,0,0,0-.442-1.209,2.036,2.036,0,0,0-1.288-.352h-.65l.144-.922H6.2a1.619,1.619,0,0,0,1.124-.4,1.44,1.44,0,0,0,.448-1.131,1.251,1.251,0,0,0-.389-.968,1.5,1.5,0,0,0-1.053-.358,2.331,2.331,0,0,0-.93.182,3.044,3.044,0,0,0-.864.6l-.624-.715A3.552,3.552,0,0,1,6.4,189.119,2.977,2.977,0,0,1,7.783,189.419Z"/><path class="cls-8" d="M15.766,190.27a7.957,7.957,0,0,1,0,6.676,2.416,2.416,0,0,1-2.178,1.156,2.415,2.415,0,0,1-2.178-1.156,7.957,7.957,0,0,1,0-6.676,2.419,2.419,0,0,1,2.178-1.151A2.42,2.42,0,0,1,15.766,190.27Zm-3.433.631a9.163,9.163,0,0,0,0,5.414,1.353,1.353,0,0,0,2.5,0,9,9,0,0,0,0-5.408,1.355,1.355,0,0,0-2.5-.006Z"/><path class="cls-8" d="M24.878,189.717a2.46,2.46,0,0,1,0,3.2,2.236,2.236,0,0,1-3.042,0,2.457,2.457,0,0,1,0-3.2,2.233,2.233,0,0,1,3.042,0Zm-2.34.6a2.185,2.185,0,0,0,0,2,.875.875,0,0,0,.813.4q1.052,0,1.052-1.391a1.933,1.933,0,0,0-.234-1,1.041,1.041,0,0,0-1.631-.006Zm6.09-1.613.832.547-6.019,9.1-.832-.546Zm1.6,5.6a2.479,2.479,0,0,1,0,3.2,2.244,2.244,0,0,1-3.048,0,2.457,2.457,0,0,1,0-3.2,2.244,2.244,0,0,1,3.048,0Zm-2.334.6a1.85,1.85,0,0,0-.24.994,1.892,1.892,0,0,0,.24,1,.877.877,0,0,0,.813.4q1.053,0,1.053-1.392a1.881,1.881,0,0,0-.234-.987.874.874,0,0,0-.819-.39A.884.884,0,0,0,27.893,194.911Z"/><path class="cls-8" d="M7.783,92.007a2.149,2.149,0,0,1,.884.8,2.1,2.1,0,0,1,.306,1.105,1.884,1.884,0,0,1-.462,1.307,2.322,2.322,0,0,1-1.229.695,2.207,2.207,0,0,1,1.417.624,2.006,2.006,0,0,1,.547,1.483,2.62,2.62,0,0,1-.364,1.364,2.5,2.5,0,0,1-1.04.956,3.4,3.4,0,0,1-1.561.344,3.573,3.573,0,0,1-1.456-.292,3.191,3.191,0,0,1-1.156-.878l.715-.662a3.019,3.019,0,0,0,.877.65,2.313,2.313,0,0,0,.981.208,1.749,1.749,0,0,0,1.287-.462A1.663,1.663,0,0,0,8,98.012,1.459,1.459,0,0,0,7.556,96.8a2.042,2.042,0,0,0-1.288-.351h-.65l.144-.923H6.2a1.618,1.618,0,0,0,1.124-.4A1.44,1.44,0,0,0,7.776,94a1.251,1.251,0,0,0-.389-.968,1.5,1.5,0,0,0-1.053-.358,2.331,2.331,0,0,0-.93.182,3.059,3.059,0,0,0-.864.6l-.624-.714A3.552,3.552,0,0,1,6.4,91.707,2.977,2.977,0,0,1,7.783,92.007Z"/><path class="cls-8" d="M15.421,92.773H12.028v2.561A3.028,3.028,0,0,1,13.419,95a2.322,2.322,0,0,1,1.794.735,2.872,2.872,0,0,1,.676,2.021,3.053,3.053,0,0,1-.377,1.528,2.633,2.633,0,0,1-1.06,1.04,3.257,3.257,0,0,1-1.579.37,3.436,3.436,0,0,1-1.417-.279,3.767,3.767,0,0,1-1.157-.826L11,98.9a2.943,2.943,0,0,0,.858.618,2.389,2.389,0,0,0,1,.2,1.682,1.682,0,0,0,1.306-.52,2.106,2.106,0,0,0,.475-1.47,1.89,1.89,0,0,0-.429-1.378,1.564,1.564,0,0,0-1.157-.429,2.594,2.594,0,0,0-.624.072,3.235,3.235,0,0,0-.611.227h-.936v-4.38H15.59Z"/><path class="cls-8" d="M24.137,92.305a2.463,2.463,0,0,1,0,3.2,2.059,2.059,0,0,1-1.528.6,2.036,2.036,0,0,1-1.514-.6,2.457,2.457,0,0,1,0-3.2,2.037,2.037,0,0,1,1.514-.6A2.06,2.06,0,0,1,24.137,92.305Zm-2.34.6a2.185,2.185,0,0,0,0,2,.873.873,0,0,0,.812.4q1.051,0,1.053-1.392a1.932,1.932,0,0,0-.234-.994A1.041,1.041,0,0,0,21.8,92.9Zm6.09-1.613.832.547-6.019,9.1-.832-.546Zm1.6,5.6a2.478,2.478,0,0,1,0,3.2,2.032,2.032,0,0,1-1.521.6,2.056,2.056,0,0,1-1.528-.6,2.459,2.459,0,0,1,0-3.2,2.059,2.059,0,0,1,1.528-.6A2.035,2.035,0,0,1,29.486,96.894Zm-2.334.6a1.85,1.85,0,0,0-.24.994,1.892,1.892,0,0,0,.24,1,.875.875,0,0,0,.813.4q1.053,0,1.053-1.391a1.89,1.89,0,0,0-.234-.987,1.053,1.053,0,0,0-1.632-.007Z"/><path class="cls-8" d="M63.442,413.594a2.965,2.965,0,0,1,1.241,1.1,2.914,2.914,0,0,1,.423,1.544,4,4,0,0,1-.376,1.7,7.942,7.942,0,0,1-1.28,1.84q-.9,1.024-2.632,2.64h4.529l-.256,1.76H58.227V422.53q2.015-2.016,2.912-3.008a9.152,9.152,0,0,0,1.263-1.68,2.957,2.957,0,0,0,.368-1.408,1.469,1.469,0,0,0-.4-1.088,1.447,1.447,0,0,0-1.071-.4,2.1,2.1,0,0,0-1.057.264,3.773,3.773,0,0,0-.975.872l-1.361-1.088a4.58,4.58,0,0,1,5.536-1.4Z"/><path class="cls-8" d="M73.506,414.634a9.106,9.106,0,0,1-.008,8.344,3.712,3.712,0,0,1-5.9,0,9.138,9.138,0,0,1,0-8.344,3.733,3.733,0,0,1,5.9,0Zm-3.888.624a2.505,2.505,0,0,0-.52,1.232,15.993,15.993,0,0,0,0,4.624,2.505,2.505,0,0,0,.52,1.232,1.21,1.21,0,0,0,.928.376,1.227,1.227,0,0,0,.928-.368A2.5,2.5,0,0,0,72,421.13a15.59,15.59,0,0,0,0-4.672,2.444,2.444,0,0,0-.528-1.216,1.24,1.24,0,0,0-.928-.36A1.213,1.213,0,0,0,69.618,415.258Z"/><path class="cls-8" d="M82.77,414.634a9.11,9.11,0,0,1-.007,8.344,3.713,3.713,0,0,1-5.9,0,9.138,9.138,0,0,1,0-8.344,3.733,3.733,0,0,1,5.9,0Zm-3.887.624a2.505,2.505,0,0,0-.521,1.232,15.993,15.993,0,0,0,0,4.624,2.505,2.505,0,0,0,.521,1.232,1.209,1.209,0,0,0,.927.376,1.225,1.225,0,0,0,.928-.368,2.5,2.5,0,0,0,.529-1.224,15.678,15.678,0,0,0,0-4.672,2.444,2.444,0,0,0-.529-1.216,1.238,1.238,0,0,0-.928-.36A1.212,1.212,0,0,0,78.883,415.258Z"/><path class="cls-8" d="M91.4,417.378a2.877,2.877,0,0,1,1.1,1.208,4.2,4.2,0,0,1,.4,1.912,4.265,4.265,0,0,1-.472,2.016,3.5,3.5,0,0,1-1.336,1.408,3.82,3.82,0,0,1-1.984.512A3.426,3.426,0,0,1,86.1,423.05a6.548,6.548,0,0,1-.977-3.832,8.467,8.467,0,0,1,.552-3.176,4.7,4.7,0,0,1,1.576-2.112,4,4,0,0,1,2.416-.744,4.151,4.151,0,0,1,2.4.688l-.832,1.392a2.967,2.967,0,0,0-1.52-.432,1.827,1.827,0,0,0-1.568.848,4.535,4.535,0,0,0-.671,2.384,3.105,3.105,0,0,1,3.927-.688Zm-1.168,4.8a3.072,3.072,0,0,0,.376-1.648,2.57,2.57,0,0,0-.343-1.512,1.214,1.214,0,0,0-1.033-.456,2.235,2.235,0,0,0-1.759.992,6.131,6.131,0,0,0,.407,2.472,1.287,1.287,0,0,0,1.24.744A1.236,1.236,0,0,0,90.234,422.178Z"/><path class="cls-8" d="M325.39,413.594a2.956,2.956,0,0,1,1.24,1.1,2.914,2.914,0,0,1,.424,1.544,4,4,0,0,1-.376,1.7,7.95,7.95,0,0,1-1.281,1.84q-.9,1.024-2.631,2.64h4.528l-.256,1.76h-6.864V422.53q2.016-2.016,2.912-3.008a9.166,9.166,0,0,0,1.264-1.68,2.957,2.957,0,0,0,.368-1.408,1.469,1.469,0,0,0-.4-1.088,1.446,1.446,0,0,0-1.071-.4,2.1,2.1,0,0,0-1.057.264,3.789,3.789,0,0,0-.975.872l-1.361-1.088a4.581,4.581,0,0,1,5.537-1.4Z"/><path class="cls-8" d="M335.453,414.634a9.106,9.106,0,0,1-.008,8.344,3.712,3.712,0,0,1-5.9,0,9.138,9.138,0,0,1,0-8.344,3.733,3.733,0,0,1,5.9,0Zm-3.888.624a2.505,2.505,0,0,0-.52,1.232,15.993,15.993,0,0,0,0,4.624,2.505,2.505,0,0,0,.52,1.232,1.211,1.211,0,0,0,.928.376,1.227,1.227,0,0,0,.928-.368,2.5,2.5,0,0,0,.528-1.224,15.59,15.59,0,0,0,0-4.672,2.444,2.444,0,0,0-.528-1.216,1.24,1.24,0,0,0-.928-.36A1.215,1.215,0,0,0,331.565,415.258Z"/><path class="cls-8" d="M342.846,413.594a2.956,2.956,0,0,1,1.24,1.1,2.914,2.914,0,0,1,.424,1.544,4,4,0,0,1-.376,1.7,7.95,7.95,0,0,1-1.281,1.84q-.9,1.024-2.631,2.64h4.528l-.256,1.76H337.63V422.53q2.016-2.016,2.912-3.008a9.166,9.166,0,0,0,1.264-1.68,2.957,2.957,0,0,0,.368-1.408,1.469,1.469,0,0,0-.4-1.088,1.446,1.446,0,0,0-1.071-.4,2.1,2.1,0,0,0-1.057.264,3.789,3.789,0,0,0-.975.872l-1.36-1.088a4.58,4.58,0,0,1,5.536-1.4Z"/><path class="cls-8" d="M351.2,413.394v10.784h-2.223v-8.544l-2.369,1.456-.992-1.536,3.584-2.16Z"/><path class="cls-6" d="M162.06,242.7v10.767h-2.016v-8.7l-2.4,1.456-.9-1.376,3.5-2.143Z"/><path class="cls-6" d="M166.412,251.5a1.285,1.285,0,0,1,0,1.832,1.264,1.264,0,0,1-.928.384,1.22,1.22,0,0,1-.9-.384,1.314,1.314,0,0,1-.008-1.832,1.223,1.223,0,0,1,.912-.376A1.276,1.276,0,0,1,166.412,251.5Z"/><path class="cls-6" d="M167.836,248.559v-1.632h7.488v1.632Z"/><path class="cls-6" d="M181.3,242.88a2.7,2.7,0,0,1,1.168.992,2.539,2.539,0,0,1,.392,1.376,2.4,2.4,0,0,1-.56,1.624,2.964,2.964,0,0,1-1.535.9,2.785,2.785,0,0,1,1.759.768,2.477,2.477,0,0,1,.688,1.856,3.093,3.093,0,0,1-.472,1.68,3.28,3.28,0,0,1-1.351,1.191,4.6,4.6,0,0,1-2.08.441,4.284,4.284,0,0,1-3.489-1.552l1.136-1.088a3.913,3.913,0,0,0,1.072.792,2.717,2.717,0,0,0,1.168.248,1.942,1.942,0,0,0,1.384-.488,1.724,1.724,0,0,0,.521-1.321,1.627,1.627,0,0,0-.489-1.328,2.245,2.245,0,0,0-1.448-.4h-.848l.241-1.456h.575a1.794,1.794,0,0,0,1.257-.433,1.543,1.543,0,0,0,.471-1.2,1.3,1.3,0,0,0-.431-1.032,1.694,1.694,0,0,0-1.153-.376,2.722,2.722,0,0,0-1.135.231,3.875,3.875,0,0,0-1.025.712l-1.04-1.136a4.768,4.768,0,0,1,3.376-1.376A4.266,4.266,0,0,1,181.3,242.88Z"/><path class="cls-6" d="M186.731,251.5a1.285,1.285,0,0,1,0,1.832,1.262,1.262,0,0,1-.927.384,1.221,1.221,0,0,1-.905-.384,1.312,1.312,0,0,1-.007-1.832,1.221,1.221,0,0,1,.912-.376A1.274,1.274,0,0,1,186.731,251.5Z"/><path class="cls-6" d="M199.724,245.935a5.957,5.957,0,0,1,.767,3.281,6.466,6.466,0,0,1-.391,2.328,3.535,3.535,0,0,1-1.153,1.591,2.9,2.9,0,0,1-1.8.577,2.643,2.643,0,0,1-2.128-.928v3.952l-2.047.224V245.008h1.792l.111,1.04a3.313,3.313,0,0,1,1.137-.96,2.964,2.964,0,0,1,1.343-.321A2.639,2.639,0,0,1,199.724,245.935Zm-1.376,3.3a4.667,4.667,0,0,0-.4-2.239,1.3,1.3,0,0,0-1.2-.689,1.649,1.649,0,0,0-.96.313,2.7,2.7,0,0,0-.768.84v3.807a1.8,1.8,0,0,0,1.552.88Q198.347,252.143,198.348,249.231Z"/><path class="cls-6" d="M208.884,245.96a4.787,4.787,0,0,1,1.048,3.271,5.433,5.433,0,0,1-.481,2.345,3.634,3.634,0,0,1-1.376,1.576,3.938,3.938,0,0,1-2.128.56,3.71,3.71,0,0,1-2.928-1.193,4.781,4.781,0,0,1-1.055-3.288,5.38,5.38,0,0,1,.479-2.336,3.642,3.642,0,0,1,1.384-1.567,3.98,3.98,0,0,1,2.137-.561A3.685,3.685,0,0,1,208.884,245.96Zm-4.761,3.271a4.208,4.208,0,0,0,.456,2.217,1.664,1.664,0,0,0,2.736-.009,4.208,4.208,0,0,0,.456-2.208,4.165,4.165,0,0,0-.456-2.2,1.5,1.5,0,0,0-1.351-.712Q204.122,246.32,204.123,249.231Z"/><path class="cls-6" d="M217.355,245.008v1.471l-4.1,5.393h4.176l-.208,1.6h-6.32V252l4.112-5.392h-3.76v-1.6Z"/><path class="cls-6" d="M220.978,241.08a1.2,1.2,0,0,1,.361.887,1.175,1.175,0,0,1-.361.88,1.275,1.275,0,0,1-.935.353,1.254,1.254,0,0,1-.92-.353,1.178,1.178,0,0,1-.36-.88,1.206,1.206,0,0,1,.36-.887,1.244,1.244,0,0,1,.92-.361A1.265,1.265,0,0,1,220.978,241.08Zm.1,3.928v8.463h-2.048v-8.463Z"/><path class="cls-6" d="M228.451,245.008a4.027,4.027,0,0,1,1.256.751l-.911,1.233a3.3,3.3,0,0,0-.832-.464,2.569,2.569,0,0,0-.881-.145q-1.905,0-1.9,2.9a3.534,3.534,0,0,0,.5,2.12,1.667,1.667,0,0,0,1.407.648,2.286,2.286,0,0,0,.824-.144,5.412,5.412,0,0,0,.889-.465l.911,1.3a4.22,4.22,0,0,1-2.735.976,4.035,4.035,0,0,1-2.113-.537,3.52,3.52,0,0,1-1.376-1.528,5.306,5.306,0,0,1-.479-2.336,5.582,5.582,0,0,1,.479-2.376,3.693,3.693,0,0,1,1.376-1.6,3.83,3.83,0,0,1,2.1-.569A4.351,4.351,0,0,1,228.451,245.008Z"/><path class="cls-6" d="M238.091,249.872h-5.312a2.686,2.686,0,0,0,.64,1.76,1.979,1.979,0,0,0,1.44.528,3.007,3.007,0,0,0,1.056-.185,4.9,4.9,0,0,0,1.056-.567l.848,1.168a4.875,4.875,0,0,1-3.136,1.136,3.776,3.776,0,0,1-2.984-1.184,4.7,4.7,0,0,1-1.048-3.232,5.79,5.79,0,0,1,.448-2.329,3.7,3.7,0,0,1,1.3-1.616,3.48,3.48,0,0,1,2.017-.584,3.444,3.444,0,0,1,2.752,1.128,4.658,4.658,0,0,1,.976,3.145C238.139,249.146,238.123,249.424,238.091,249.872Zm-1.985-1.424q0-2.223-1.647-2.225a1.4,1.4,0,0,0-1.176.553,3.28,3.28,0,0,0-.5,1.768h3.327Z"/><path class="cls-7" d="M123.893,185.375a4,4,0,0,1,1.255.752l-.911,1.232a3.281,3.281,0,0,0-.832-.464,2.584,2.584,0,0,0-.881-.144q-1.9,0-1.9,2.9a3.53,3.53,0,0,0,.5,2.12,1.667,1.667,0,0,0,1.407.648,2.291,2.291,0,0,0,.825-.144,5.331,5.331,0,0,0,.888-.465l.911,1.3a4.212,4.212,0,0,1-2.735.976,4.038,4.038,0,0,1-2.112-.536,3.516,3.516,0,0,1-1.376-1.529,5.292,5.292,0,0,1-.48-2.336,5.567,5.567,0,0,1,.48-2.376,3.68,3.68,0,0,1,1.376-1.6,3.827,3.827,0,0,1,2.095-.569A4.385,4.385,0,0,1,123.893,185.375Z"/><path class="cls-7" d="M133.533,190.239h-5.311a2.681,2.681,0,0,0,.639,1.76,1.981,1.981,0,0,0,1.441.528,2.979,2.979,0,0,0,1.055-.185,4.9,4.9,0,0,0,1.056-.567l.849,1.168a4.879,4.879,0,0,1-3.137,1.136,3.774,3.774,0,0,1-2.983-1.184,4.7,4.7,0,0,1-1.048-3.232,5.785,5.785,0,0,1,.447-2.328,3.7,3.7,0,0,1,1.3-1.617,3.859,3.859,0,0,1,4.768.544,4.653,4.653,0,0,1,.976,3.145C133.581,189.513,133.565,189.791,133.533,190.239Zm-1.984-1.424q0-2.223-1.648-2.224a1.4,1.4,0,0,0-1.175.552,3.263,3.263,0,0,0-.5,1.768h3.327Z"/><path class="cls-7" d="M135.893,193.51a2.2,2.2,0,0,1-.552-1.607v-9.92l2.048-.225v10.081q0,.591.479.591a1.529,1.529,0,0,0,.481-.079l.431,1.44a3.276,3.276,0,0,1-1.359.288A2.029,2.029,0,0,1,135.893,193.51Z"/><path class="cls-7" d="M147.037,190.239h-5.311a2.681,2.681,0,0,0,.639,1.76,1.98,1.98,0,0,0,1.441.528,2.979,2.979,0,0,0,1.055-.185,4.9,4.9,0,0,0,1.056-.567l.849,1.168a4.879,4.879,0,0,1-3.137,1.136,3.778,3.778,0,0,1-2.984-1.184,4.7,4.7,0,0,1-1.047-3.232,5.785,5.785,0,0,1,.447-2.328,3.7,3.7,0,0,1,1.3-1.617,3.859,3.859,0,0,1,4.768.544,4.653,4.653,0,0,1,.976,3.145C147.085,189.513,147.069,189.791,147.037,190.239Zm-2.416-9.521.832,1.6-3.616,1.439-.576-1.04Zm.432,8.1q0-2.223-1.648-2.224a1.4,1.4,0,0,0-1.176.552,3.272,3.272,0,0,0-.5,1.768h3.327Z"/><path class="cls-7" d="M154.973,181.758v12.081h-2.048V181.983Zm5.071,3.617-2.816,3.728,3.088,4.736h-2.351l-2.912-4.624,2.832-3.84Z"/><path class="cls-7" d="M167.876,192.327a.983.983,0,0,0,.488.36l-.431,1.36a2.634,2.634,0,0,1-1.177-.352,1.8,1.8,0,0,1-.7-.88,2.71,2.71,0,0,1-1.08.952,3.3,3.3,0,0,1-1.448.312,2.735,2.735,0,0,1-2-.72,2.526,2.526,0,0,1-.736-1.889,2.442,2.442,0,0,1,1-2.1,4.8,4.8,0,0,1,2.856-.729h1.056v-.479a1.461,1.461,0,0,0-.376-1.145,1.825,1.825,0,0,0-1.208-.327,7.178,7.178,0,0,0-2.239.447l-.481-1.391a8.559,8.559,0,0,1,3.073-.609q3.247,0,3.248,2.913V191.6A1.355,1.355,0,0,0,167.876,192.327Zm-2.168-.777v-1.711h-.848q-1.985,0-1.984,1.472a1.35,1.35,0,0,0,.305.944,1.145,1.145,0,0,0,.895.336A1.812,1.812,0,0,0,165.708,191.55Z"/><path class="cls-7" d="M176.484,185.815a2.674,2.674,0,0,1,.632,1.9v6.128h-2.048v-5.808a1.631,1.631,0,0,0-.263-1.056.972.972,0,0,0-.777-.3,1.517,1.517,0,0,0-.952.328,3.729,3.729,0,0,0-.823.952v5.888h-2.048v-8.464h1.775l.161,1.1a3.145,3.145,0,0,1,2.576-1.345A2.294,2.294,0,0,1,176.484,185.815Z"/><path class="cls-7" d="M186.62,181.983v11.856h-1.808l-.143-1.072a2.972,2.972,0,0,1-1.017.96,2.764,2.764,0,0,1-1.4.352,2.73,2.73,0,0,1-2.385-1.2,5.642,5.642,0,0,1-.832-3.264,6.072,6.072,0,0,1,.416-2.313,3.647,3.647,0,0,1,1.192-1.591,3,3,0,0,1,3.928.336v-4.289Zm-2.832,10.279a2.709,2.709,0,0,0,.784-.823v-3.872a2.93,2.93,0,0,0-.744-.672,1.671,1.671,0,0,0-.871-.224,1.462,1.462,0,0,0-1.288.728,4.084,4.084,0,0,0-.473,2.2,4.517,4.517,0,0,0,.416,2.248,1.341,1.341,0,0,0,1.216.681A1.744,1.744,0,0,0,183.788,192.262Z"/><path class="cls-7" d="M191.028,181.447a1.207,1.207,0,0,1,.361.888,1.182,1.182,0,0,1-.361.88,1.278,1.278,0,0,1-.935.352,1.257,1.257,0,0,1-.92-.352,1.182,1.182,0,0,1-.361-.88,1.207,1.207,0,0,1,.361-.888,1.243,1.243,0,0,1,.92-.36A1.264,1.264,0,0,1,191.028,181.447Zm.105,3.928v8.464h-2.048v-8.464Z"/><path class="cls-7" d="M200.716,181.983v11.856h-1.808l-.143-1.072a2.972,2.972,0,0,1-1.017.96,2.764,2.764,0,0,1-1.4.352,2.727,2.727,0,0,1-2.385-1.2,5.642,5.642,0,0,1-.832-3.264,6.053,6.053,0,0,1,.416-2.313,3.647,3.647,0,0,1,1.192-1.591,3,3,0,0,1,3.928.336v-4.289Zm-2.832,10.279a2.709,2.709,0,0,0,.784-.823v-3.872a2.93,2.93,0,0,0-.744-.672,1.671,1.671,0,0,0-.871-.224,1.462,1.462,0,0,0-1.288.728,4.084,4.084,0,0,0-.473,2.2,4.517,4.517,0,0,0,.416,2.248,1.34,1.34,0,0,0,1.216.681A1.746,1.746,0,0,0,197.884,192.262Z"/><path class="cls-7" d="M209.588,192.327a.979.979,0,0,0,.488.36l-.432,1.36a2.634,2.634,0,0,1-1.176-.352,1.8,1.8,0,0,1-.7-.88,2.71,2.71,0,0,1-1.08.952,3.3,3.3,0,0,1-1.448.312,2.735,2.735,0,0,1-2-.72,2.526,2.526,0,0,1-.736-1.889,2.442,2.442,0,0,1,1-2.1,4.8,4.8,0,0,1,2.856-.729h1.056v-.479a1.461,1.461,0,0,0-.376-1.145,1.825,1.825,0,0,0-1.208-.327,7.178,7.178,0,0,0-2.239.447l-.481-1.391a8.558,8.558,0,0,1,3.072-.609q3.248,0,3.248,2.913V191.6A1.354,1.354,0,0,0,209.588,192.327Zm-2.168-11.609.832,1.6-3.615,1.439-.577-1.04Zm0,10.832v-1.711h-.848q-1.985,0-1.984,1.472a1.35,1.35,0,0,0,.305.944,1.143,1.143,0,0,0,.9.336A1.812,1.812,0,0,0,207.42,191.55Z"/><path class="cls-7" d="M216.765,193.439a3.293,3.293,0,0,1-1,.48,4.067,4.067,0,0,1-1.128.16,2.517,2.517,0,0,1-1.9-.712,2.922,2.922,0,0,1-.647-2.056v-4.465h-1.328v-1.471h1.328V183.5l2.048-.241v2.113h1.967l-.208,1.471h-1.759v4.416a1.466,1.466,0,0,0,.215.9.815.815,0,0,0,.68.271,2.086,2.086,0,0,0,1.009-.3Z"/><path class="cls-7" d="M219.965,181.758v12.081h-2.048V181.983Zm5.071,3.617-2.815,3.728,3.088,4.736h-2.352l-2.912-4.624,2.832-3.84Z"/><path class="cls-7" d="M230.556,193.871a5.206,5.206,0,0,1-1.552,2.44,4.942,4.942,0,0,1-2.849,1.016l-.208-1.488a5.13,5.13,0,0,0,1.336-.36,2.17,2.17,0,0,0,.809-.616,4.165,4.165,0,0,0,.559-1.024h-.7l-2.687-8.464h2.175l1.84,7.1,1.92-7.1h2.113Z"/><circle class="cls-7" cx="71.761" cy="245.74" r="7.732"/><circle class="cls-7" cx="333.784" cy="172.254" r="7.732"/><circle class="cls-6" cx="71.761" cy="282.853" r="7.732"/><circle class="cls-6" cx="333.539" cy="252.606" r="7.732"/><circle class="cls-5" cx="71.761" cy="381.205" r="7.732"/><circle class="cls-5" cx="333.784" cy="229.224" r="7.732"/><path class="cls-5" d="M180.076,344.684a2.21,2.21,0,0,1-.552-1.608v-9.92l2.048-.224v10.08q0,.592.48.592a1.518,1.518,0,0,0,.48-.079l.432,1.44a3.293,3.293,0,0,1-1.36.288A2.031,2.031,0,0,1,180.076,344.684Z"/><path class="cls-5" d="M186.563,331.892l.832,1.6-3.615,1.44-.576-1.04Zm-.191,4.657v8.463h-2.048v-8.463Z"/><path class="cls-5" d="M195.956,333.156v11.856h-1.808l-.143-1.071a2.981,2.981,0,0,1-1.017.96,2.774,2.774,0,0,1-1.4.352,2.728,2.728,0,0,1-2.385-1.2,5.64,5.64,0,0,1-.832-3.264,6.07,6.07,0,0,1,.416-2.312,3.65,3.65,0,0,1,1.192-1.592,3.008,3.008,0,0,1,3.928.336v-4.288Zm-2.832,10.28a2.721,2.721,0,0,0,.784-.823V338.74a2.925,2.925,0,0,0-.744-.671,1.662,1.662,0,0,0-.871-.225,1.462,1.462,0,0,0-1.288.728,4.088,4.088,0,0,0-.473,2.2,4.517,4.517,0,0,0,.416,2.248,1.34,1.34,0,0,0,1.216.68A1.743,1.743,0,0,0,193.124,343.436Z"/><path class="cls-5" d="M203.444,336.436l-.351,1.985a3.1,3.1,0,0,0-.752-.1,1.438,1.438,0,0,0-1.185.537,4.1,4.1,0,0,0-.687,1.639v4.512h-2.048v-8.463H200.2l.193,1.664a3.047,3.047,0,0,1,.879-1.4,2,2,0,0,1,1.329-.488A3.046,3.046,0,0,1,203.444,336.436Z"/><path class="cls-5" d="M208.82,345.045a5.2,5.2,0,0,1-1.552,2.44,4.938,4.938,0,0,1-2.848,1.015l-.208-1.488a5.133,5.133,0,0,0,1.336-.359,2.168,2.168,0,0,0,.808-.617,4.113,4.113,0,0,0,.56-1.024h-.7l-2.688-8.463H205.7l1.84,7.1,1.92-7.1h2.112Z"/><path class="cls-5" d="M219.1,336.988a2.682,2.682,0,0,1,.631,1.9v6.128h-2.047V339.2a1.621,1.621,0,0,0-.264-1.055.973.973,0,0,0-.777-.305,1.52,1.52,0,0,0-.952.329,3.742,3.742,0,0,0-.823.951v5.888H212.82v-8.463H214.6l.16,1.1a3.146,3.146,0,0,1,2.576-1.345A2.3,2.3,0,0,1,219.1,336.988Z"/><path class="cls-5" d="M229.012,341.412H223.7a2.687,2.687,0,0,0,.64,1.761,1.978,1.978,0,0,0,1.44.527,3.007,3.007,0,0,0,1.056-.184,4.93,4.93,0,0,0,1.056-.568l.848,1.168a4.871,4.871,0,0,1-3.137,1.137,3.774,3.774,0,0,1-2.983-1.184,4.7,4.7,0,0,1-1.048-3.232,5.8,5.8,0,0,1,.447-2.329,3.708,3.708,0,0,1,1.3-1.616,3.861,3.861,0,0,1,4.769.544,4.657,4.657,0,0,1,.976,3.144C229.06,340.687,229.044,340.965,229.012,341.412Zm-1.552-9.2.784.9-2.225,2H224.74l-2.224-2,.784-.9,2.08,1.407Zm-.433,7.775q0-2.223-1.647-2.224a1.4,1.4,0,0,0-1.176.553,3.279,3.279,0,0,0-.5,1.767h3.327Z"/><path class="cls-5" d="M182.422,348.818a22.575,22.575,0,0,0-1.275,2.107,9.421,9.421,0,0,0-.772,2.107,12.865,12.865,0,0,0,0,5.46,9.43,9.43,0,0,0,.772,2.108,22.575,22.575,0,0,0,1.275,2.107l-.555.361q-.93-1.306-1.463-2.236a9.451,9.451,0,0,1-.877-2.175,12.319,12.319,0,0,1,0-5.79,9.479,9.479,0,0,1,.877-2.174q.534-.931,1.463-2.236Z"/><path class="cls-5" d="M187.611,351.037v9.975h-.87V352l-2.46,1.531-.405-.645,2.985-1.846Z"/><path class="cls-5" d="M191.489,359.955a.682.682,0,0,1,.2.5.692.692,0,0,1-.719.72.717.717,0,0,1-.72-.72.667.667,0,0,1,.21-.5.754.754,0,0,1,1.027,0Z"/><path class="cls-5" d="M203.685,354.06a5.334,5.334,0,0,1,.711,2.992,5.2,5.2,0,0,1-.772,3.008,2.526,2.526,0,0,1-2.212,1.117,2.748,2.748,0,0,1-1.275-.292,2.873,2.873,0,0,1-.96-.788v3.87l-.87.121V353.167h.75l.075,1.14a3.178,3.178,0,0,1,1.057-.96,2.755,2.755,0,0,1,1.358-.344A2.407,2.407,0,0,1,203.685,354.06Zm-.789,5.528a4.6,4.6,0,0,0,.571-2.536q0-3.33-2.085-3.33a2.088,2.088,0,0,0-1.223.36,4.291,4.291,0,0,0-.982.99v4.17a2.37,2.37,0,0,0,2.07,1.2A1.861,1.861,0,0,0,202.9,359.588Z"/><path class="cls-5" d="M212.159,354.075a5.525,5.525,0,0,1-.015,6,3.261,3.261,0,0,1-4.875.015,4.645,4.645,0,0,1-.877-2.993,5.389,5.389,0,0,1,.405-2.174,3.018,3.018,0,0,1,2.925-1.92A2.974,2.974,0,0,1,212.159,354.075Zm-4.208.517a5.293,5.293,0,0,0-.007,5,2.054,2.054,0,0,0,1.763.855,2.093,2.093,0,0,0,1.777-.855,5.278,5.278,0,0,0,.015-5,2.275,2.275,0,0,0-3.548.007Z"/><path class="cls-5" d="M219.816,353.167v.675l-4.38,6.42h4.35l-.09.75h-5.28v-.674l4.38-6.421h-4.02v-.75Z"/><path class="cls-5" d="M222.816,349.9a.654.654,0,0,1,0,.9.652.652,0,0,1-.48.179.632.632,0,0,1-.465-.179.654.654,0,0,1,0-.9.633.633,0,0,1,.465-.18A.653.653,0,0,1,222.816,349.9Zm-.03,3.27v7.845h-.87v-7.845Z"/><path class="cls-5" d="M229.851,353.19a3.3,3.3,0,0,1,1.02.608l-.436.569a2.8,2.8,0,0,0-.8-.464,2.715,2.715,0,0,0-.938-.15,2.114,2.114,0,0,0-1.77.862,4.074,4.074,0,0,0-.66,2.513,3.91,3.91,0,0,0,.653,2.46,2.127,2.127,0,0,0,1.762.824,2.608,2.608,0,0,0,.953-.165,3.583,3.583,0,0,0,.862-.494l.42.585a3.381,3.381,0,0,1-2.25.839,3.185,3.185,0,0,1-1.755-.48,3.13,3.13,0,0,1-1.163-1.387,5.222,5.222,0,0,1-.412-2.168,5.4,5.4,0,0,1,.412-2.182,3.312,3.312,0,0,1,1.163-1.448,3.026,3.026,0,0,1,1.74-.509A3.557,3.557,0,0,1,229.851,353.19Z"/><path class="cls-5" d="M238.536,357.427H233.3a3.66,3.66,0,0,0,.727,2.273,2.179,2.179,0,0,0,1.718.743,2.939,2.939,0,0,0,1.088-.188,4.8,4.8,0,0,0,1.027-.593l.406.555a4.417,4.417,0,0,1-1.2.72,3.726,3.726,0,0,1-1.365.24,3.009,3.009,0,0,1-2.445-1.064,4.494,4.494,0,0,1-.885-2.956,5.746,5.746,0,0,1,.383-2.182,3.272,3.272,0,0,1,1.095-1.455,2.742,2.742,0,0,1,1.657-.517,2.7,2.7,0,0,1,2.28,1.012,4.455,4.455,0,0,1,.78,2.783Q238.566,357.126,238.536,357.427Zm-.825-.9a3.424,3.424,0,0,0-.547-2.063,1.894,1.894,0,0,0-1.628-.743,1.92,1.92,0,0,0-1.575.75,3.867,3.867,0,0,0-.66,2.281h4.41Z"/><path class="cls-5" d="M242.278,350.693a9.39,9.39,0,0,1,.878,2.174,12.319,12.319,0,0,1,0,5.79,9.363,9.363,0,0,1-.878,2.175q-.531.93-1.462,2.236l-.555-.361a22.575,22.575,0,0,0,1.275-2.107,9.529,9.529,0,0,0,.773-2.108,12.865,12.865,0,0,0,0-5.46,9.52,9.52,0,0,0-.773-2.107,22.575,22.575,0,0,0-1.275-2.107l.555-.361Q241.746,349.762,242.278,350.693Z"/><path d="M9.936,5.792V7.424l-5.1,7.7H9.985l-.224,1.728H2.369V15.232l5.2-7.76H2.9V5.792ZM8.465,2l.784.9L7.025,4.816H5.745L3.52,2.9,4.305,2l2.08,1.328Z"/><path d="M18.337,13.248H13.025a2.684,2.684,0,0,0,.64,1.76,1.979,1.979,0,0,0,1.44.528,3.007,3.007,0,0,0,1.056-.184,4.951,4.951,0,0,0,1.056-.568l.848,1.168a4.875,4.875,0,0,1-3.136,1.136A3.773,3.773,0,0,1,11.945,15.9,4.7,4.7,0,0,1,10.9,12.672a5.785,5.785,0,0,1,.448-2.328,3.683,3.683,0,0,1,1.3-1.616,3.467,3.467,0,0,1,2.016-.584,3.444,3.444,0,0,1,2.752,1.128,4.65,4.65,0,0,1,.976,3.144Q18.385,12.577,18.337,13.248Zm-1.985-1.424q0-2.223-1.647-2.224a1.4,1.4,0,0,0-1.176.552,3.286,3.286,0,0,0-.5,1.768h3.327Z"/><path d="M26.505,8.824a2.676,2.676,0,0,1,.632,1.9v6.128H25.089V11.04a1.626,1.626,0,0,0-.264-1.056.97.97,0,0,0-.776-.3,1.515,1.515,0,0,0-.952.328,3.748,3.748,0,0,0-.824.952v5.888H20.226V8.384H22l.16,1.1a3.145,3.145,0,0,1,2.576-1.344A2.3,2.3,0,0,1,26.505,8.824Z"/><path d="M33.521,16.88a5.2,5.2,0,0,1-1.551,2.44,4.944,4.944,0,0,1-2.849,1.016l-.208-1.488a5.17,5.17,0,0,0,1.336-.36,2.178,2.178,0,0,0,.809-.616,4.165,4.165,0,0,0,.559-1.024h-.7L28.226,8.384H30.4l1.84,7.1,1.92-7.1h2.112Z"/><path d="M47.8,8.824a2.676,2.676,0,0,1,.632,1.9v6.128H46.385V11.04a1.626,1.626,0,0,0-.264-1.056.972.972,0,0,0-.776-.3,1.515,1.515,0,0,0-.952.328,3.748,3.748,0,0,0-.824.952v5.888H41.521V8.384H43.3l.16,1.1a3.145,3.145,0,0,1,2.576-1.344A2.3,2.3,0,0,1,47.8,8.824Z"/><path d="M57.225,15.336a.973.973,0,0,0,.488.36l-.432,1.36A2.629,2.629,0,0,1,56.1,16.7a1.806,1.806,0,0,1-.7-.88,2.71,2.71,0,0,1-1.08.952,3.3,3.3,0,0,1-1.448.312,2.735,2.735,0,0,1-2-.72,2.527,2.527,0,0,1-.737-1.888,2.445,2.445,0,0,1,1-2.1A4.8,4.8,0,0,1,54,11.648h1.056v-.48a1.458,1.458,0,0,0-.376-1.144A1.816,1.816,0,0,0,53.473,9.7a7.126,7.126,0,0,0-2.24.448l-.48-1.392a8.535,8.535,0,0,1,3.072-.608q3.248,0,3.248,2.912v3.552A1.352,1.352,0,0,0,57.225,15.336Zm-2.168-.776V12.848h-.848q-1.984,0-1.984,1.472a1.356,1.356,0,0,0,.3.944,1.146,1.146,0,0,0,.9.336A1.813,1.813,0,0,0,55.057,14.56Z"/><path d="M70.352,8.384,67.6,16.848H65.152l-2.8-8.464h2.224L66.385,15.2,68.24,8.384Z"/><path d="M77.9,9.336a4.783,4.783,0,0,1,1.048,3.272,5.429,5.429,0,0,1-.48,2.344,3.647,3.647,0,0,1-1.376,1.576,3.938,3.938,0,0,1-2.128.56A3.708,3.708,0,0,1,72.033,15.9a4.785,4.785,0,0,1-1.056-3.288,5.373,5.373,0,0,1,.48-2.336A3.632,3.632,0,0,1,72.841,8.7a3.974,3.974,0,0,1,2.136-.56A3.683,3.683,0,0,1,77.9,9.336Zm-4.76,3.272a4.2,4.2,0,0,0,.456,2.216,1.665,1.665,0,0,0,2.736-.008,4.211,4.211,0,0,0,.456-2.208,4.166,4.166,0,0,0-.456-2.2A1.5,1.5,0,0,0,74.977,9.7Q73.137,9.7,73.137,12.608Z"/><path d="M81.337,16.52a2.213,2.213,0,0,1-.552-1.608V4.992l2.048-.224v10.08c0,.394.16.592.479.592a1.521,1.521,0,0,0,.481-.08l.432,1.44a3.277,3.277,0,0,1-1.36.288A2.034,2.034,0,0,1,81.337,16.52Z"/><path d="M87.528,4.456a1.207,1.207,0,0,1,.361.888,1.182,1.182,0,0,1-.361.88,1.278,1.278,0,0,1-.935.352,1.257,1.257,0,0,1-.92-.352,1.182,1.182,0,0,1-.361-.88,1.207,1.207,0,0,1,.361-.888,1.243,1.243,0,0,1,.92-.36A1.264,1.264,0,0,1,87.528,4.456Zm.1,3.928v8.464H85.585V8.384Z"/><path d="M94.944,16.448a3.293,3.293,0,0,1-1,.48,4.056,4.056,0,0,1-1.128.16,2.513,2.513,0,0,1-1.9-.712,2.916,2.916,0,0,1-.648-2.056V9.856H88.944V8.384h1.328V6.512l2.048-.24V8.384h1.968L94.08,9.856H92.32v4.416a1.46,1.46,0,0,0,.216.9.819.819,0,0,0,.68.272,2.1,2.1,0,0,0,1.009-.3Z"/><path d="M102.721,13.248H97.409a2.679,2.679,0,0,0,.64,1.76,1.979,1.979,0,0,0,1.44.528,3.007,3.007,0,0,0,1.056-.184,4.975,4.975,0,0,0,1.056-.568l.848,1.168a4.875,4.875,0,0,1-3.137,1.136A3.771,3.771,0,0,1,96.329,15.9a4.7,4.7,0,0,1-1.048-3.232,5.8,5.8,0,0,1,.447-2.328,3.7,3.7,0,0,1,1.3-1.616,3.861,3.861,0,0,1,4.769.544,4.655,4.655,0,0,1,.975,3.144C102.768,12.523,102.753,12.8,102.721,13.248Zm-1.985-1.424q0-2.223-1.647-2.224a1.4,1.4,0,0,0-1.176.552,3.286,3.286,0,0,0-.5,1.768h3.327Z"/><path d="M105.081,16.52a2.213,2.213,0,0,1-.552-1.608V4.992l2.048-.224v10.08c0,.394.16.592.48.592a1.519,1.519,0,0,0,.48-.08l.432,1.44a3.277,3.277,0,0,1-1.36.288A2.034,2.034,0,0,1,105.081,16.52Z"/><path d="M115.608,8.824a2.676,2.676,0,0,1,.632,1.9v6.128h-2.048V11.04a1.633,1.633,0,0,0-.263-1.056.972.972,0,0,0-.777-.3,1.517,1.517,0,0,0-.952.328,3.747,3.747,0,0,0-.823.952v5.888h-2.048V8.384H111.1l.161,1.1a3.144,3.144,0,0,1,2.576-1.344A2.293,2.293,0,0,1,115.608,8.824Z"/><path d="M122.625,16.88a5.2,5.2,0,0,1-1.552,2.44,4.938,4.938,0,0,1-2.848,1.016l-.208-1.488a5.161,5.161,0,0,0,1.335-.36,2.17,2.17,0,0,0,.809-.616,4.164,4.164,0,0,0,.56-1.024h-.7l-2.688-8.464h2.176l1.84,7.1,1.92-7.1h2.112ZM122.56,3.728l.833,1.6-3.616,1.44-.576-1.04Z"/><path d="M131.433,8.384a4,4,0,0,1,1.255.752l-.911,1.232a3.281,3.281,0,0,0-.832-.464,2.584,2.584,0,0,0-.881-.144q-1.9,0-1.9,2.9a3.532,3.532,0,0,0,.5,2.12,1.667,1.667,0,0,0,1.407.648,2.291,2.291,0,0,0,.825-.144,5.392,5.392,0,0,0,.888-.464l.911,1.3a4.216,4.216,0,0,1-2.735.976,4.04,4.04,0,0,1-2.112-.536,3.514,3.514,0,0,1-1.376-1.528,5.3,5.3,0,0,1-.48-2.336,5.561,5.561,0,0,1,.48-2.376,3.677,3.677,0,0,1,1.376-1.6,3.826,3.826,0,0,1,2.1-.568A4.386,4.386,0,0,1,131.433,8.384Z"/><path d="M140.448,8.832a2.663,2.663,0,0,1,.64,1.888v6.128H139.04V11.04a1.626,1.626,0,0,0-.264-1.056.969.969,0,0,0-.776-.3,1.523,1.523,0,0,0-.943.328,3.72,3.72,0,0,0-.832.936v5.9h-2.048V5.008l2.048-.208V9.392a3.088,3.088,0,0,1,2.463-1.248A2.285,2.285,0,0,1,140.448,8.832Z"/><path d="M158.08,8.84a2.758,2.758,0,0,1,.608,1.88v6.128h-2.047V11.04q0-1.36-.929-1.36a1.267,1.267,0,0,0-.856.312,3.887,3.887,0,0,0-.744.968v5.888h-2.048V11.04q0-1.36-.927-1.36a1.283,1.283,0,0,0-.872.312,3.863,3.863,0,0,0-.745.968v5.888h-2.047V8.384h1.775l.16,1.1a2.9,2.9,0,0,1,2.448-1.344,2.157,2.157,0,0,1,1.272.376,2.108,2.108,0,0,1,.776,1.048,3.958,3.958,0,0,1,1.128-1.056,2.71,2.71,0,0,1,1.416-.368A2.057,2.057,0,0,1,158.08,8.84Z"/><path d="M163.311,3.728l.832,1.6-3.615,1.44-.576-1.04Zm-.191,4.656v8.464h-2.048V8.384Z"/><path d="M171.264,9.152l-.8,1.2a3.976,3.976,0,0,0-2.128-.688,1.64,1.64,0,0,0-.944.232.714.714,0,0,0-.336.616.777.777,0,0,0,.143.48,1.321,1.321,0,0,0,.521.36,8.548,8.548,0,0,0,1.112.376,4.873,4.873,0,0,1,2.039.976,2.184,2.184,0,0,1,.664,1.7,2.275,2.275,0,0,1-1.023,1.976,4.358,4.358,0,0,1-2.544.712,5.39,5.39,0,0,1-1.9-.32,4.622,4.622,0,0,1-1.479-.88l1.023-1.152a3.778,3.778,0,0,0,2.3.832,1.956,1.956,0,0,0,1.1-.272.86.86,0,0,0,.408-.752.994.994,0,0,0-.153-.584,1.245,1.245,0,0,0-.544-.384,11.409,11.409,0,0,0-1.223-.408,4.093,4.093,0,0,1-1.9-.984,2.182,2.182,0,0,1-.609-1.576,2.1,2.1,0,0,1,.408-1.264,2.709,2.709,0,0,1,1.153-.88,4.28,4.28,0,0,1,1.7-.32A4.765,4.765,0,0,1,171.264,9.152Z"/><path d="M178.048,16.448a3.293,3.293,0,0,1-1,.48,4.056,4.056,0,0,1-1.128.16,2.517,2.517,0,0,1-1.9-.712,2.921,2.921,0,0,1-.647-2.056V9.856h-1.328V8.384h1.328V6.512l2.048-.24V8.384h1.968l-.208,1.472h-1.76v4.416a1.454,1.454,0,0,0,.216.9.816.816,0,0,0,.679.272,2.089,2.089,0,0,0,1.009-.3Z"/><path d="M185.824,13.248h-5.311a2.679,2.679,0,0,0,.639,1.76,1.981,1.981,0,0,0,1.441.528,3,3,0,0,0,1.055-.184,4.951,4.951,0,0,0,1.056-.568l.849,1.168a4.879,4.879,0,0,1-3.137,1.136,3.771,3.771,0,0,1-2.983-1.184,4.7,4.7,0,0,1-1.048-3.232,5.785,5.785,0,0,1,.447-2.328,3.69,3.69,0,0,1,1.3-1.616,3.859,3.859,0,0,1,4.768.544,4.65,4.65,0,0,1,.976,3.144Q185.872,12.577,185.824,13.248Zm-1.984-1.424q0-2.223-1.648-2.224a1.4,1.4,0,0,0-1.175.552,3.269,3.269,0,0,0-.5,1.768h3.327Z"/><path d="M192.616,8.384a4,4,0,0,1,1.256.752l-.911,1.232a3.3,3.3,0,0,0-.832-.464,2.593,2.593,0,0,0-.881-.144q-1.9,0-1.9,2.9a3.532,3.532,0,0,0,.5,2.12,1.667,1.667,0,0,0,1.407.648,2.286,2.286,0,0,0,.824-.144,5.4,5.4,0,0,0,.889-.464l.911,1.3a4.22,4.22,0,0,1-2.735.976,4.044,4.044,0,0,1-2.113-.536,3.526,3.526,0,0,1-1.376-1.528,5.309,5.309,0,0,1-.479-2.336,5.576,5.576,0,0,1,.479-2.376,3.69,3.69,0,0,1,1.376-1.6,3.829,3.829,0,0,1,2.1-.568A4.376,4.376,0,0,1,192.616,8.384Z"/><path d="M201.632,8.832a2.662,2.662,0,0,1,.639,1.888v6.128h-2.047V11.04a1.626,1.626,0,0,0-.264-1.056.972.972,0,0,0-.776-.3,1.526,1.526,0,0,0-.944.328,3.759,3.759,0,0,0-.832.936v5.9H195.36V5.008l2.048-.208V9.392a3.091,3.091,0,0,1,2.464-1.248A2.286,2.286,0,0,1,201.632,8.832Z"/><path d="M7.749,28.5a2.258,2.258,0,0,1,.84,1.914,2.362,2.362,0,0,1-.876,2.016,3.776,3.776,0,0,1-2.328.66H4.341v3.036H3.2V27.856H5.373A3.846,3.846,0,0,1,7.749,28.5ZM6.854,31.8a1.605,1.605,0,0,0,.523-1.38,1.506,1.506,0,0,0-.523-1.284,2.429,2.429,0,0,0-1.493-.4H4.341v3.444h1A2.533,2.533,0,0,0,6.854,31.8Z"/><path d="M14.2,30.544a3.658,3.658,0,0,1,.738,2.412A4.221,4.221,0,0,1,14.6,34.69a2.643,2.643,0,0,1-.973,1.164,2.71,2.71,0,0,1-1.512.414,2.56,2.56,0,0,1-2.076-.888A3.638,3.638,0,0,1,9.3,32.968a4.2,4.2,0,0,1,.336-1.734,2.641,2.641,0,0,1,.972-1.164,2.732,2.732,0,0,1,1.524-.414A2.541,2.541,0,0,1,14.2,30.544Zm-3.714,2.424q0,2.412,1.632,2.412t1.632-2.424q0-2.412-1.62-2.412Q10.485,30.544,10.485,32.968Z"/><path d="M21.657,27.256v8.868h-.972l-.108-.876a2.288,2.288,0,0,1-.78.75A2.174,2.174,0,0,1,17,35.38a4.052,4.052,0,0,1-.63-2.388,4.657,4.657,0,0,1,.3-1.728,2.675,2.675,0,0,1,.864-1.182,2.135,2.135,0,0,1,1.32-.426,2.27,2.27,0,0,1,1.7.78V27.124Zm-1.8,7.9a2.7,2.7,0,0,0,.7-.7v-3.1a2.421,2.421,0,0,0-.666-.618,1.534,1.534,0,0,0-.8-.21,1.281,1.281,0,0,0-1.134.612,3.342,3.342,0,0,0-.4,1.824,3.532,3.532,0,0,0,.372,1.824,1.186,1.186,0,0,0,1.068.6A1.551,1.551,0,0,0,19.857,35.158Z"/><path d="M25.593,26.512l.492.924-2.544,1.032-.336-.588ZM25.2,29.8v6.324h-1.1V29.8Z"/><path d="M27.878,35.9a1.419,1.419,0,0,1-.354-1.026v-7.62l1.1-.132v7.728a.639.639,0,0,0,.091.384.355.355,0,0,0,.3.12,1.1,1.1,0,0,0,.409-.072l.288.768a1.8,1.8,0,0,1-.876.216A1.282,1.282,0,0,1,27.878,35.9Z"/><path d="M37.988,29.8v.84l-3.3,4.56h3.336l-.131.924H33.44V35.3l3.288-4.56H33.717V29.8Zm-.7-3.1.468.54L36.141,28.6h-.733l-1.632-1.356.481-.54,1.511,1.008Z"/><path d="M44.192,33.34H40.161a2.47,2.47,0,0,0,.527,1.536,1.534,1.534,0,0,0,1.177.492,2.573,2.573,0,0,0,.84-.132,3.406,3.406,0,0,0,.8-.42l.48.66a3.5,3.5,0,0,1-2.208.792,2.559,2.559,0,0,1-2.058-.864,3.537,3.537,0,0,1-.739-2.376,4.5,4.5,0,0,1,.319-1.746,2.732,2.732,0,0,1,.912-1.194,2.31,2.31,0,0,1,1.4-.432,2.345,2.345,0,0,1,1.933.828,3.54,3.54,0,0,1,.672,2.292C44.217,32.96,44.209,33.148,44.192,33.34Zm-1.067-.888a2.338,2.338,0,0,0-.372-1.428,1.31,1.31,0,0,0-1.116-.492q-1.358,0-1.476,1.992h2.964Z"/><path d="M50.307,30.172a1.982,1.982,0,0,1,.486,1.416v4.536h-1.1v-4.38a1.4,1.4,0,0,0-.252-.948.957.957,0,0,0-.744-.276,1.435,1.435,0,0,0-.887.288,3,3,0,0,0-.72.828v4.488H45.98V29.8h.949l.095.936a2.509,2.509,0,0,1,.834-.792,2.158,2.158,0,0,1,1.1-.288A1.766,1.766,0,0,1,50.307,30.172Z"/><path d="M60.518,30.172a1.979,1.979,0,0,1,.487,1.416v4.536H59.9v-4.38a1.4,1.4,0,0,0-.252-.948.957.957,0,0,0-.744-.276,1.435,1.435,0,0,0-.887.288,2.98,2.98,0,0,0-.72.828v4.488h-1.1V29.8h.949l.095.936a2.509,2.509,0,0,1,.834-.792,2.155,2.155,0,0,1,1.1-.288A1.762,1.762,0,0,1,60.518,30.172Z"/><path d="M67.616,35.218a.8.8,0,0,0,.4.282l-.252.768a1.688,1.688,0,0,1-.792-.276,1.263,1.263,0,0,1-.444-.672,2.121,2.121,0,0,1-1.884.948,2.021,2.021,0,0,1-1.476-.528,1.844,1.844,0,0,1-.54-1.38,1.813,1.813,0,0,1,.726-1.548,3.4,3.4,0,0,1,2.058-.54h.972V31.8a1.23,1.23,0,0,0-.324-.96,1.466,1.466,0,0,0-1-.288,5.571,5.571,0,0,0-1.7.336l-.276-.8a6.365,6.365,0,0,1,2.184-.432,2.284,2.284,0,0,1,1.668.546,2.089,2.089,0,0,1,.552,1.554v2.892A.991.991,0,0,0,67.616,35.218Zm-1.236-.762V33h-.828Q63.8,33,63.8,34.3a1.187,1.187,0,0,0,.276.852,1.079,1.079,0,0,0,.816.288A1.65,1.65,0,0,0,66.38,34.456Z"/><path d="M74.036,27.124v9h-1.1V27.256ZM77.672,29.8l-2.328,2.8,2.591,3.528H76.616l-2.508-3.456L76.435,29.8Z"/><path d="M83.288,35.218a.8.8,0,0,0,.4.282l-.252.768a1.683,1.683,0,0,1-.792-.276,1.257,1.257,0,0,1-.444-.672,2.124,2.124,0,0,1-1.885.948,2.018,2.018,0,0,1-1.475-.528,1.844,1.844,0,0,1-.54-1.38,1.815,1.815,0,0,1,.725-1.548,3.4,3.4,0,0,1,2.059-.54h.972V31.8a1.227,1.227,0,0,0-.325-.96,1.463,1.463,0,0,0-1-.288,5.571,5.571,0,0,0-1.7.336l-.276-.8a6.364,6.364,0,0,1,2.183-.432A2.281,2.281,0,0,1,82.6,30.2a2.085,2.085,0,0,1,.553,1.554v2.892A.991.991,0,0,0,83.288,35.218Zm-1.236-.762V33h-.828q-1.752,0-1.752,1.3a1.182,1.182,0,0,0,.276.852,1.078,1.078,0,0,0,.815.288A1.65,1.65,0,0,0,82.052,34.456Z"/><path d="M89.75,30.172a1.982,1.982,0,0,1,.486,1.416v4.536h-1.1v-4.38a1.4,1.4,0,0,0-.252-.948.957.957,0,0,0-.744-.276,1.44,1.44,0,0,0-.888.288,3,3,0,0,0-.72.828v4.488h-1.1V29.8h.948l.1.936a2.5,2.5,0,0,1,.834-.792,2.154,2.154,0,0,1,1.1-.288A1.763,1.763,0,0,1,89.75,30.172Z"/><path d="M97.352,27.256v8.868h-.971l-.109-.876a2.279,2.279,0,0,1-.78.75,2.174,2.174,0,0,1-2.8-.618,4.052,4.052,0,0,1-.63-2.388,4.657,4.657,0,0,1,.3-1.728,2.677,2.677,0,0,1,.865-1.182,2.132,2.132,0,0,1,1.319-.426,2.268,2.268,0,0,1,1.7.78V27.124Zm-1.8,7.9a2.708,2.708,0,0,0,.7-.7v-3.1a2.421,2.421,0,0,0-.666-.618,1.532,1.532,0,0,0-.8-.21,1.281,1.281,0,0,0-1.134.612,3.351,3.351,0,0,0-.4,1.824,3.532,3.532,0,0,0,.372,1.824,1.187,1.187,0,0,0,1.068.6A1.556,1.556,0,0,0,95.553,35.158Z"/><path d="M100.736,26.98a.733.733,0,0,1,.216.54.713.713,0,0,1-.216.534.775.775,0,0,1-.564.21.761.761,0,0,1-.552-.21.717.717,0,0,1-.216-.534.737.737,0,0,1,.216-.54.749.749,0,0,1,.552-.216A.763.763,0,0,1,100.736,26.98Zm0,2.82v6.324h-1.1V29.8Z"/><path d="M107.912,27.256v8.868h-.972l-.108-.876a2.288,2.288,0,0,1-.78.75,2.174,2.174,0,0,1-2.8-.618,4.052,4.052,0,0,1-.63-2.388,4.657,4.657,0,0,1,.3-1.728,2.675,2.675,0,0,1,.864-1.182,2.134,2.134,0,0,1,1.319-.426,2.27,2.27,0,0,1,1.705.78V27.124Zm-1.8,7.9a2.7,2.7,0,0,0,.7-.7v-3.1a2.421,2.421,0,0,0-.666-.618,1.534,1.534,0,0,0-.8-.21,1.279,1.279,0,0,0-1.134.612,3.342,3.342,0,0,0-.4,1.824,3.532,3.532,0,0,0,.372,1.824,1.186,1.186,0,0,0,1.068.6A1.551,1.551,0,0,0,106.112,35.158Z"/><path d="M114.584,35.218a.806.806,0,0,0,.395.282l-.252.768a1.692,1.692,0,0,1-.792-.276,1.262,1.262,0,0,1-.443-.672,2.124,2.124,0,0,1-1.885.948,2.018,2.018,0,0,1-1.475-.528,1.84,1.84,0,0,1-.54-1.38,1.815,1.815,0,0,1,.725-1.548,3.4,3.4,0,0,1,2.059-.54h.972V31.8a1.227,1.227,0,0,0-.325-.96,1.463,1.463,0,0,0-1-.288,5.566,5.566,0,0,0-1.7.336l-.276-.8a6.364,6.364,0,0,1,2.183-.432,2.281,2.281,0,0,1,1.668.546,2.085,2.085,0,0,1,.553,1.554v2.892A.991.991,0,0,0,114.584,35.218Zm-1.452-8.706.492.924-2.544,1.032-.336-.588Zm.216,7.944V33h-.829q-1.751,0-1.751,1.3a1.182,1.182,0,0,0,.276.852,1.077,1.077,0,0,0,.815.288A1.65,1.65,0,0,0,113.348,34.456Z"/><path d="M119.912,35.836a2.428,2.428,0,0,1-1.416.432,1.67,1.67,0,0,1-1.254-.462,1.841,1.841,0,0,1-.45-1.338V30.652h-1.1V29.8h1.1V28.372l1.1-.132V29.8h1.5l-.12.852H117.9V34.42a1.158,1.158,0,0,0,.174.713.692.692,0,0,0,.582.223,1.81,1.81,0,0,0,.84-.252Z"/><path d="M122.156,27.124v9h-1.1V27.256Zm3.636,2.676-2.328,2.8,2.592,3.528h-1.32l-2.508-3.456,2.328-2.868Z"/><path d="M131.408,35.218a.8.8,0,0,0,.4.282l-.252.768a1.688,1.688,0,0,1-.792-.276,1.263,1.263,0,0,1-.444-.672,2.121,2.121,0,0,1-1.884.948,2.021,2.021,0,0,1-1.476-.528,1.844,1.844,0,0,1-.54-1.38,1.813,1.813,0,0,1,.726-1.548,3.4,3.4,0,0,1,2.058-.54h.972V31.8a1.23,1.23,0,0,0-.324-.96,1.466,1.466,0,0,0-1-.288,5.571,5.571,0,0,0-1.7.336l-.276-.8a6.365,6.365,0,0,1,2.184-.432,2.284,2.284,0,0,1,1.668.546,2.089,2.089,0,0,1,.552,1.554v2.892A.991.991,0,0,0,131.408,35.218Zm-1.452-8.706.492.924L127.9,28.468l-.336-.588Zm.216,7.944V33h-.828q-1.752,0-1.752,1.3a1.187,1.187,0,0,0,.276.852,1.079,1.079,0,0,0,.816.288A1.65,1.65,0,0,0,130.172,34.456Z"/><path d="M136.879,29.818a2.86,2.86,0,0,1,.9.522l-.528.7a2.705,2.705,0,0,0-.653-.354,2.073,2.073,0,0,0-.7-.114,1.372,1.372,0,0,0-1.194.612,3.174,3.174,0,0,0-.426,1.812,3,3,0,0,0,.42,1.77,1.4,1.4,0,0,0,1.2.57,1.979,1.979,0,0,0,.684-.114,3.477,3.477,0,0,0,.7-.366l.5.72a3,3,0,0,1-1.931.7,2.52,2.52,0,0,1-2.023-.864,3.561,3.561,0,0,1-.738-2.388,4.31,4.31,0,0,1,.336-1.764,2.714,2.714,0,0,1,.954-1.176,2.553,2.553,0,0,1,1.471-.42A3.132,3.132,0,0,1,136.879,29.818Z"/><path d="M143.6,30.172a1.979,1.979,0,0,1,.487,1.416v4.536h-1.105v-4.38a1.379,1.379,0,0,0-.258-.948.974.974,0,0,0-.75-.276,1.422,1.422,0,0,0-.876.288,3.048,3.048,0,0,0-.719.816v4.5h-1.1V27.268l1.1-.12v3.527a2.239,2.239,0,0,1,1.872-1.019A1.762,1.762,0,0,1,143.6,30.172Z"/><path d="M152.371,29.836a3.476,3.476,0,0,1,.984.54l-.467.7a3.825,3.825,0,0,0-.823-.408,2.542,2.542,0,0,0-.822-.132,1.444,1.444,0,0,0-.851.222.75.75,0,0,0-.018,1.206,3.4,3.4,0,0,0,1.061.42,3.793,3.793,0,0,1,1.579.72,1.574,1.574,0,0,1,.521,1.248,1.617,1.617,0,0,1-.725,1.428,3.086,3.086,0,0,1-1.77.492,3.5,3.5,0,0,1-2.389-.828l.588-.672a2.871,2.871,0,0,0,1.777.612,1.689,1.689,0,0,0,.99-.258.815.815,0,0,0,.365-.7.926.926,0,0,0-.132-.522,1.065,1.065,0,0,0-.456-.348,6.277,6.277,0,0,0-.947-.318,3.23,3.23,0,0,1-1.458-.708,1.514,1.514,0,0,1-.45-1.128,1.473,1.473,0,0,1,.294-.894,1.9,1.9,0,0,1,.815-.624,2.967,2.967,0,0,1,1.171-.222A3.514,3.514,0,0,1,152.371,29.836Z"/><path d="M159.847,33.34h-4.032a2.464,2.464,0,0,0,.528,1.536,1.531,1.531,0,0,0,1.176.492,2.573,2.573,0,0,0,.84-.132,3.387,3.387,0,0,0,.8-.42l.48.66a3.5,3.5,0,0,1-2.208.792,2.561,2.561,0,0,1-2.058-.864,3.542,3.542,0,0,1-.738-2.376,4.5,4.5,0,0,1,.318-1.746,2.739,2.739,0,0,1,.912-1.194,2.313,2.313,0,0,1,1.4-.432,2.344,2.344,0,0,1,1.932.828,3.54,3.54,0,0,1,.672,2.292Q159.871,33.052,159.847,33.34Zm-1.068-.888a2.338,2.338,0,0,0-.372-1.428,1.31,1.31,0,0,0-1.116-.492q-1.356,0-1.476,1.992h2.964Z"/><path d="M169.262,30.544A3.658,3.658,0,0,1,170,32.956a4.2,4.2,0,0,1-.336,1.734,2.643,2.643,0,0,1-.973,1.164,2.7,2.7,0,0,1-1.511.414,2.564,2.564,0,0,1-2.077-.888,3.638,3.638,0,0,1-.744-2.412,4.22,4.22,0,0,1,.336-1.734,2.643,2.643,0,0,1,.973-1.164,2.731,2.731,0,0,1,1.523-.414A2.545,2.545,0,0,1,169.262,30.544Zm-3.714,2.424q0,2.412,1.632,2.412t1.631-2.424q0-2.412-1.62-2.412Q165.549,30.544,165.548,32.968Z"/><path d="M176.72,27.256v8.868h-.972l-.108-.876a2.282,2.282,0,0,1-.781.75,2.172,2.172,0,0,1-2.8-.618,4.052,4.052,0,0,1-.63-2.388,4.657,4.657,0,0,1,.3-1.728,2.685,2.685,0,0,1,.865-1.182,2.132,2.132,0,0,1,1.319-.426,2.267,2.267,0,0,1,1.7.78V27.124Zm-1.8,7.9a2.693,2.693,0,0,0,.7-.7v-3.1a2.421,2.421,0,0,0-.666-.618,1.532,1.532,0,0,0-.8-.21,1.278,1.278,0,0,0-1.133.612,3.341,3.341,0,0,0-.4,1.824,3.532,3.532,0,0,0,.372,1.824,1.187,1.187,0,0,0,1.069.6A1.551,1.551,0,0,0,174.92,35.158Z"/><path d="M185.551,29.728l-.2,1.08a2.275,2.275,0,0,0-.552-.072,1.174,1.174,0,0,0-.948.432,3.21,3.21,0,0,0-.564,1.344v3.612h-1.1V29.8h.948l.108,1.284a2.4,2.4,0,0,1,.684-1.068,1.527,1.527,0,0,1,1.008-.36A2.568,2.568,0,0,1,185.551,29.728Z"/><path d="M190.9,30.544a3.653,3.653,0,0,1,.739,2.412,4.22,4.22,0,0,1-.336,1.734,2.643,2.643,0,0,1-.973,1.164,2.71,2.71,0,0,1-1.512.414,2.562,2.562,0,0,1-2.076-.888A3.638,3.638,0,0,1,186,32.968a4.2,4.2,0,0,1,.336-1.734,2.643,2.643,0,0,1,.973-1.164,2.726,2.726,0,0,1,1.523-.414A2.541,2.541,0,0,1,190.9,30.544Zm-3.713,2.424q0,2.412,1.631,2.412t1.632-2.424q0-2.412-1.62-2.412Q187.183,30.544,187.184,32.968Z"/><path d="M194.563,27.124v9h-1.1V27.256ZM198.2,29.8l-2.328,2.8,2.592,3.528h-1.32l-2.507-3.456,2.327-2.868Z"/><path d="M204.223,36.124h-.948l-.085-.984a2.4,2.4,0,0,1-.827.858,2.247,2.247,0,0,1-1.14.27,1.681,1.681,0,0,1-1.3-.5,2.021,2.021,0,0,1-.468-1.428V29.8h1.1v4.416a1.429,1.429,0,0,0,.229.917.918.918,0,0,0,.744.271,1.88,1.88,0,0,0,1.584-1.092V29.8h1.1Z"/><path d="M212.545,28.264a2.092,2.092,0,0,1,1.146,1.908,3.147,3.147,0,0,1-.33,1.4,6.849,6.849,0,0,1-1.014,1.452q-.684.782-2.077,2.172h3.613l-.132.924h-4.74v-.876q1.608-1.668,2.28-2.442a6.855,6.855,0,0,0,.96-1.35,2.726,2.726,0,0,0,.288-1.236,1.232,1.232,0,0,0-1.32-1.332,1.772,1.772,0,0,0-.865.2,3.176,3.176,0,0,0-.792.672l-.719-.576a3.312,3.312,0,0,1,1.092-.912,2.963,2.963,0,0,1,1.344-.3A2.674,2.674,0,0,1,212.545,28.264Z"/><path d="M219.842,29.038a5.759,5.759,0,0,1,.677,3.078,5.792,5.792,0,0,1-.677,3.084,2.426,2.426,0,0,1-4.021,0,5.782,5.782,0,0,1-.678-3.084,5.749,5.749,0,0,1,.678-3.078,2.434,2.434,0,0,1,4.021,0Zm-3.168.582a6.034,6.034,0,0,0-.379,2.5,6.076,6.076,0,0,0,.379,2.5,1.248,1.248,0,0,0,2.309,0,5.994,5.994,0,0,0,.384-2.5,5.955,5.955,0,0,0-.384-2.49,1.25,1.25,0,0,0-2.309-.006Z"/><path d="M226.537,29.038a5.759,5.759,0,0,1,.678,3.078,5.791,5.791,0,0,1-.678,3.084,2.425,2.425,0,0,1-4.02,0,5.773,5.773,0,0,1-.678-3.084,5.74,5.74,0,0,1,.678-3.078,2.433,2.433,0,0,1,4.02,0Zm-3.168.582a6.034,6.034,0,0,0-.379,2.5,6.076,6.076,0,0,0,.379,2.5,1.249,1.249,0,0,0,2.31,0,6,6,0,0,0,.383-2.5,5.958,5.958,0,0,0-.383-2.49,1.251,1.251,0,0,0-2.31-.006Z"/><path d="M232.686,31.132a2.053,2.053,0,0,1,.805.864,3.022,3.022,0,0,1,.3,1.4,3.2,3.2,0,0,1-.342,1.506,2.509,2.509,0,0,1-.924,1.008,2.434,2.434,0,0,1-1.29.354,2.241,2.241,0,0,1-2.052-1.038,5.414,5.414,0,0,1-.648-2.874,6.612,6.612,0,0,1,.366-2.3,3.422,3.422,0,0,1,1.05-1.536,2.518,2.518,0,0,1,1.62-.546,2.94,2.94,0,0,1,1.656.492l-.432.732a2.309,2.309,0,0,0-1.236-.348,1.539,1.539,0,0,0-1.368.828,4.554,4.554,0,0,0-.552,2.22,2.268,2.268,0,0,1,1.932-1.056A2.206,2.206,0,0,1,232.686,31.132Zm-.383,3.732a2.438,2.438,0,0,0,.372-1.428q0-1.716-1.3-1.716a1.725,1.725,0,0,0-.972.294,2.5,2.5,0,0,0-.756.81,4.086,4.086,0,0,0,.414,1.944,1.272,1.272,0,0,0,1.17.624A1.225,1.225,0,0,0,232.3,34.864Z"/><path d="M242.3,29.8v.84L239,35.2h3.336l-.132.924h-4.452V35.3l3.288-4.56h-3.012V29.8Z"/><path d="M248.478,29.8l-2.148,6.324H245L242.814,29.8h1.2l1.655,5.34,1.644-5.34Z"/><path d="M252.27,36.16a4.256,4.256,0,0,1-1.038,1.746,3.131,3.131,0,0,1-1.9.774l-.12-.864a3.25,3.25,0,0,0,1-.312,1.734,1.734,0,0,0,.594-.522,3.7,3.7,0,0,0,.414-.858h-.372L248.719,29.8h1.175l1.693,5.52,1.655-5.52h1.141Zm.229-9.648.491.924-2.544,1.032-.336-.588Z"/><path d="M258.438,29.836a3.5,3.5,0,0,1,.985.54l-.468.7a3.819,3.819,0,0,0-.822-.408,2.548,2.548,0,0,0-.823-.132,1.444,1.444,0,0,0-.851.222.75.75,0,0,0-.018,1.206,3.412,3.412,0,0,0,1.062.42,3.794,3.794,0,0,1,1.578.72,1.571,1.571,0,0,1,.521,1.248,1.617,1.617,0,0,1-.725,1.428,3.081,3.081,0,0,1-1.77.492,3.5,3.5,0,0,1-2.388-.828l.588-.672a2.871,2.871,0,0,0,1.776.612,1.689,1.689,0,0,0,.99-.258.815.815,0,0,0,.365-.7.934.934,0,0,0-.131-.522,1.071,1.071,0,0,0-.456-.348,6.3,6.3,0,0,0-.948-.318,3.23,3.23,0,0,1-1.458-.708A1.514,1.514,0,0,1,255,31.4a1.479,1.479,0,0,1,.294-.894,1.91,1.91,0,0,1,.815-.624,2.97,2.97,0,0,1,1.171-.222A3.51,3.51,0,0,1,258.438,29.836Zm.445-3.132.468.54L257.73,28.6H257l-1.632-1.356.48-.54,1.512,1.008Z"/><path d="M262.267,26.98a.736.736,0,0,1,.215.54.716.716,0,0,1-.215.534.777.777,0,0,1-.565.21.761.761,0,0,1-.552-.21.716.716,0,0,1-.215-.534.736.736,0,0,1,.215-.54.749.749,0,0,1,.552-.216A.765.765,0,0,1,262.267,26.98Zm0,2.82v6.324h-1.105V29.8Z"/><path d="M264.84,35.9a1.415,1.415,0,0,1-.354-1.026v-7.62l1.1-.132v7.728a.639.639,0,0,0,.091.384.355.355,0,0,0,.305.12,1.091,1.091,0,0,0,.408-.072l.289.768a1.8,1.8,0,0,1-.876.216A1.282,1.282,0,0,1,264.84,35.9Z"/><path d="M275.688,30.544a3.653,3.653,0,0,1,.739,2.412,4.22,4.22,0,0,1-.336,1.734,2.643,2.643,0,0,1-.973,1.164,2.71,2.71,0,0,1-1.512.414,2.562,2.562,0,0,1-2.076-.888,3.638,3.638,0,0,1-.744-2.412,4.2,4.2,0,0,1,.336-1.734,2.643,2.643,0,0,1,.973-1.164,2.726,2.726,0,0,1,1.523-.414A2.541,2.541,0,0,1,275.688,30.544Zm-3.713,2.424q0,2.412,1.631,2.412t1.632-2.424q0-2.412-1.62-2.412Q271.974,30.544,271.975,32.968Z"/><path d="M286.315,33.268v.876h-1.044v1.98H284.2v-1.98h-3.432v-.792l2.412-5.376.924.384-2.172,4.908h2.28l.1-2.16h.961v2.16Z"/><path d="M295.675,30.52a4.444,4.444,0,0,1,.563,2.436,4.064,4.064,0,0,1-.647,2.4,2.121,2.121,0,0,1-1.836.912,2.038,2.038,0,0,1-1.656-.72v3l-1.1.132V29.8h.948l.084.852a2.429,2.429,0,0,1,.84-.738,2.193,2.193,0,0,1,1.032-.258A1.969,1.969,0,0,1,295.675,30.52Zm-.624,2.436q0-2.423-1.429-2.424a1.426,1.426,0,0,0-.852.276,2.709,2.709,0,0,0-.671.708V34.6a1.663,1.663,0,0,0,.6.57,1.616,1.616,0,0,0,.792.2Q295.05,35.368,295.051,32.956Z"/><path d="M301.494,29.728l-.2,1.08a2.269,2.269,0,0,0-.552-.072,1.175,1.175,0,0,0-.948.432,3.211,3.211,0,0,0-.563,1.344v3.612h-1.1V29.8h.948l.109,1.284a2.4,2.4,0,0,1,.683-1.068,1.527,1.527,0,0,1,1.008-.36A2.557,2.557,0,0,1,301.494,29.728Z"/><path d="M306.84,30.544a3.658,3.658,0,0,1,.738,2.412,4.2,4.2,0,0,1-.336,1.734,2.637,2.637,0,0,1-.973,1.164,2.7,2.7,0,0,1-1.511.414,2.56,2.56,0,0,1-2.076-.888,3.633,3.633,0,0,1-.745-2.412,4.22,4.22,0,0,1,.336-1.734,2.643,2.643,0,0,1,.973-1.164,2.731,2.731,0,0,1,1.523-.414A2.543,2.543,0,0,1,306.84,30.544Zm-3.714,2.424q0,2.412,1.632,2.412t1.632-2.424q0-2.412-1.621-2.412Q303.126,30.544,303.126,32.968Z"/><path d="M312.738,29.818a2.853,2.853,0,0,1,.9.522l-.529.7a2.687,2.687,0,0,0-.653-.354,2.068,2.068,0,0,0-.7-.114,1.374,1.374,0,0,0-1.195.612,3.174,3.174,0,0,0-.425,1.812,2.989,2.989,0,0,0,.42,1.77,1.4,1.4,0,0,0,1.2.57,1.974,1.974,0,0,0,.683-.114,3.482,3.482,0,0,0,.7-.366l.5.72a3,3,0,0,1-1.932.7,2.519,2.519,0,0,1-2.022-.864,3.556,3.556,0,0,1-.739-2.388,4.327,4.327,0,0,1,.336-1.764,2.721,2.721,0,0,1,.954-1.176,2.555,2.555,0,0,1,1.471-.42A3.127,3.127,0,0,1,312.738,29.818Z"/><path d="M319.65,33.34h-4.031a2.47,2.47,0,0,0,.527,1.536,1.534,1.534,0,0,0,1.177.492,2.573,2.573,0,0,0,.84-.132,3.406,3.406,0,0,0,.8-.42l.48.66a3.5,3.5,0,0,1-2.208.792,2.559,2.559,0,0,1-2.058-.864,3.537,3.537,0,0,1-.739-2.376,4.5,4.5,0,0,1,.319-1.746,2.732,2.732,0,0,1,.912-1.194,2.31,2.31,0,0,1,1.4-.432,2.345,2.345,0,0,1,1.933.828,3.54,3.54,0,0,1,.672,2.292C319.675,32.96,319.667,33.148,319.65,33.34Zm-1.067-.888a2.338,2.338,0,0,0-.372-1.428,1.31,1.31,0,0,0-1.116-.492q-1.358,0-1.476,1.992h2.964Z"/><path d="M325.765,30.172a1.982,1.982,0,0,1,.486,1.416v4.536h-1.1v-4.38a1.4,1.4,0,0,0-.252-.948.956.956,0,0,0-.744-.276,1.435,1.435,0,0,0-.887.288,3,3,0,0,0-.72.828v4.488h-1.105V29.8h.949l.1.936a2.509,2.509,0,0,1,.834-.792,2.158,2.158,0,0,1,1.1-.288A1.766,1.766,0,0,1,325.765,30.172Z"/><path d="M331.662,35.836a2.428,2.428,0,0,1-1.416.432,1.67,1.67,0,0,1-1.254-.462,1.841,1.841,0,0,1-.45-1.338V30.652h-1.1V29.8h1.1V28.372l1.1-.132V29.8h1.5l-.12.852h-1.38V34.42a1.158,1.158,0,0,0,.174.713.692.692,0,0,0,.582.223,1.81,1.81,0,0,0,.84-.252Z"/><path d="M337.128,30.172a1.982,1.982,0,0,1,.486,1.416v4.536h-1.1v-4.38a1.4,1.4,0,0,0-.252-.948.957.957,0,0,0-.744-.276,1.44,1.44,0,0,0-.888.288,3,3,0,0,0-.72.828v4.488h-1.1V29.8h.948l.1.936a2.5,2.5,0,0,1,.834-.792,2.154,2.154,0,0,1,1.1-.288A1.765,1.765,0,0,1,337.128,30.172Z"/><path d="M341.334,26.512l.492.924-2.544,1.032-.336-.588Zm-.4,3.288v6.324h-1.1V29.8Z"/><path d="M351.006,30.526a4.054,4.054,0,0,1,.636,2.43,4.645,4.645,0,0,1-.3,1.734,2.6,2.6,0,0,1-.865,1.164,2.165,2.165,0,0,1-1.319.414,2.094,2.094,0,0,1-1.681-.84l-.107.7H346.4V27.256l1.105-.132v3.468a2.116,2.116,0,0,1,1.788-.936A2.017,2.017,0,0,1,351.006,30.526ZM350.04,34.8a3.267,3.267,0,0,0,.414-1.842,3.407,3.407,0,0,0-.385-1.854,1.239,1.239,0,0,0-1.092-.57,1.788,1.788,0,0,0-1.475.984V34.54a1.96,1.96,0,0,0,.618.624,1.437,1.437,0,0,0,.773.228A1.321,1.321,0,0,0,350.04,34.8Z"/><path d="M357.972,30.544a3.658,3.658,0,0,1,.738,2.412,4.2,4.2,0,0,1-.336,1.734,2.643,2.643,0,0,1-.973,1.164,2.706,2.706,0,0,1-1.511.414,2.564,2.564,0,0,1-2.077-.888,3.638,3.638,0,0,1-.744-2.412,4.22,4.22,0,0,1,.336-1.734,2.643,2.643,0,0,1,.973-1.164,2.731,2.731,0,0,1,1.523-.414A2.545,2.545,0,0,1,357.972,30.544Zm-3.714,2.424q0,2.412,1.632,2.412t1.631-2.424q0-2.412-1.62-2.412Q354.258,30.544,354.258,32.968Z"/><path d="M365.431,27.256v8.868h-.972l-.108-.876a2.282,2.282,0,0,1-.781.75,2.174,2.174,0,0,1-2.8-.618,4.059,4.059,0,0,1-.629-2.388,4.657,4.657,0,0,1,.3-1.728,2.685,2.685,0,0,1,.865-1.182,2.132,2.132,0,0,1,1.319-.426,2.268,2.268,0,0,1,1.7.78V27.124Zm-1.8,7.9a2.708,2.708,0,0,0,.7-.7v-3.1a2.421,2.421,0,0,0-.666-.618,1.532,1.532,0,0,0-.8-.21,1.281,1.281,0,0,0-1.134.612,3.351,3.351,0,0,0-.4,1.824,3.532,3.532,0,0,0,.372,1.824,1.187,1.187,0,0,0,1.069.6A1.553,1.553,0,0,0,363.631,35.158Z"/><path d="M370.242,36.16a4.266,4.266,0,0,1-1.038,1.746,3.131,3.131,0,0,1-1.9.774l-.12-.864a3.25,3.25,0,0,0,1-.312,1.721,1.721,0,0,0,.593-.522,3.616,3.616,0,0,0,.414-.858h-.372L366.69,29.8h1.176l1.693,5.52,1.655-5.52h1.14Z"/><path d="M374.022,34.84a.8.8,0,0,1,.24.588,2.119,2.119,0,0,1-.216.852l-.8,1.836h-.792l.48-1.992a.843.843,0,0,1-.245-.3.861.861,0,0,1-.091-.4.82.82,0,0,1,.828-.828A.814.814,0,0,1,374.022,34.84Z"/><path d="M7.821,44.92a4.443,4.443,0,0,1,.564,2.436,4.057,4.057,0,0,1-.648,2.4,2.119,2.119,0,0,1-1.836.912,2.041,2.041,0,0,1-1.656-.72v3l-1.1.132V44.2h.948l.084.851a2.427,2.427,0,0,1,.84-.737,2.193,2.193,0,0,1,1.032-.258A1.966,1.966,0,0,1,7.821,44.92ZM7.2,47.356q0-2.424-1.429-2.424a1.426,1.426,0,0,0-.851.276,2.7,2.7,0,0,0-.672.708V49a1.658,1.658,0,0,0,.6.57,1.616,1.616,0,0,0,.792.2Q7.2,49.768,7.2,47.356Z"/><path d="M14.715,44.944a3.658,3.658,0,0,1,.738,2.412,4.2,4.2,0,0,1-.336,1.734,2.637,2.637,0,0,1-.973,1.164,2.7,2.7,0,0,1-1.511.414,2.56,2.56,0,0,1-2.076-.888,3.635,3.635,0,0,1-.745-2.412,4.225,4.225,0,0,1,.336-1.735,2.654,2.654,0,0,1,.973-1.164,2.738,2.738,0,0,1,1.523-.413A2.543,2.543,0,0,1,14.715,44.944ZM11,47.368q0,2.412,1.632,2.412t1.632-2.424q0-2.412-1.621-2.412Q11,44.944,11,47.368Z"/><path d="M22.173,41.656v8.868H21.2l-.108-.876a2.3,2.3,0,0,1-.781.75,2.172,2.172,0,0,1-2.8-.618,4.052,4.052,0,0,1-.63-2.388,4.637,4.637,0,0,1,.3-1.728,2.675,2.675,0,0,1,.864-1.182,2.126,2.126,0,0,1,1.319-.426,2.267,2.267,0,0,1,1.7.78V41.524Zm-1.8,7.9a2.693,2.693,0,0,0,.7-.7v-3.1a2.387,2.387,0,0,0-.666-.617,1.532,1.532,0,0,0-.8-.21,1.276,1.276,0,0,0-1.133.612,3.341,3.341,0,0,0-.4,1.824,3.532,3.532,0,0,0,.372,1.824,1.187,1.187,0,0,0,1.069.6A1.551,1.551,0,0,0,20.373,49.558Z"/><path d="M26.108,40.912l.493.924-2.544,1.032-.336-.588ZM25.713,44.2v6.324H24.608V44.2Z"/><path d="M28.394,50.3a1.415,1.415,0,0,1-.353-1.025v-7.62l1.1-.132v7.728a.64.64,0,0,0,.091.383.355.355,0,0,0,.306.121,1.1,1.1,0,0,0,.408-.072l.288.768a1.81,1.81,0,0,1-.876.216A1.282,1.282,0,0,1,28.394,50.3Z"/><path d="M35.09,50.3a1.411,1.411,0,0,1-.354-1.025v-7.62l1.1-.132v7.728a.633.633,0,0,0,.091.383.353.353,0,0,0,.3.121,1.091,1.091,0,0,0,.408-.072l.289.768a1.816,1.816,0,0,1-.876.216A1.279,1.279,0,0,1,35.09,50.3Z"/><path d="M39.812,40.912l.493.924-2.544,1.032-.336-.588ZM39.417,44.2v6.324H38.312V44.2Z"/><path d="M46.593,41.656v8.868h-.972l-.108-.876a2.3,2.3,0,0,1-.781.75,2.172,2.172,0,0,1-2.8-.618,4.052,4.052,0,0,1-.63-2.388,4.637,4.637,0,0,1,.3-1.728,2.675,2.675,0,0,1,.864-1.182,2.126,2.126,0,0,1,1.319-.426,2.267,2.267,0,0,1,1.7.78V41.524Zm-1.8,7.9a2.693,2.693,0,0,0,.7-.7v-3.1a2.387,2.387,0,0,0-.666-.617,1.532,1.532,0,0,0-.8-.21,1.276,1.276,0,0,0-1.133.612,3.341,3.341,0,0,0-.4,1.824,3.532,3.532,0,0,0,.372,1.824,1.187,1.187,0,0,0,1.069.6A1.551,1.551,0,0,0,44.793,49.558Z"/><path d="M52.244,44.128l-.2,1.08a2.272,2.272,0,0,0-.552-.073,1.176,1.176,0,0,0-.948.433,3.211,3.211,0,0,0-.563,1.344v3.612h-1.1V44.2h.948l.109,1.284a2.4,2.4,0,0,1,.683-1.068,1.522,1.522,0,0,1,1.008-.36A2.557,2.557,0,0,1,52.244,44.128Z"/><path d="M56.036,50.56A4.266,4.266,0,0,1,55,52.306a3.131,3.131,0,0,1-1.9.774l-.12-.864a3.25,3.25,0,0,0,1-.312,1.742,1.742,0,0,0,.593-.522,3.675,3.675,0,0,0,.414-.858h-.372L52.484,44.2H53.66l1.692,5.519L57.008,44.2h1.14Z"/><path d="M63.733,44.572a1.977,1.977,0,0,1,.487,1.416v4.536h-1.1v-4.38a1.4,1.4,0,0,0-.252-.948.957.957,0,0,0-.744-.276,1.44,1.44,0,0,0-.888.288,2.98,2.98,0,0,0-.719.828v4.488H59.407V44.2h.948l.1.935a2.529,2.529,0,0,1,.834-.792,2.164,2.164,0,0,1,1.1-.287A1.762,1.762,0,0,1,63.733,44.572ZM63.367,41.1l.469.54L62.216,43h-.733l-1.631-1.356.48-.54,1.512,1.008Z"/><path d="M74.066,44.944a3.653,3.653,0,0,1,.739,2.412,4.22,4.22,0,0,1-.336,1.734,2.643,2.643,0,0,1-.973,1.164,2.71,2.71,0,0,1-1.512.414,2.562,2.562,0,0,1-2.076-.888,3.64,3.64,0,0,1-.744-2.412,4.209,4.209,0,0,1,.336-1.735,2.654,2.654,0,0,1,.973-1.164A2.734,2.734,0,0,1,72,44.056,2.541,2.541,0,0,1,74.066,44.944Zm-3.714,2.424q0,2.412,1.632,2.412t1.632-2.424q0-2.412-1.62-2.412Q70.352,44.944,70.352,47.368Z"/><path d="M84.74,48.376a2.057,2.057,0,0,1-.354,1.182,2.356,2.356,0,0,1-.991.816,3.706,3.706,0,0,1-2.879.006,2.263,2.263,0,0,1-.966-.8,2.08,2.08,0,0,1-.342-1.176,1.938,1.938,0,0,1,.4-1.248,2.976,2.976,0,0,1,1.182-.84,2.409,2.409,0,0,1-.942-.786,1.913,1.913,0,0,1-.306-1.086,1.838,1.838,0,0,1,.342-1.116,2.127,2.127,0,0,1,.9-.708,2.988,2.988,0,0,1,1.193-.24,3.1,3.1,0,0,1,1.183.228,2.108,2.108,0,0,1,.906.69,1.792,1.792,0,0,1,.348,1.11,1.631,1.631,0,0,1-.336,1.032,2.966,2.966,0,0,1-1.032.78A2.286,2.286,0,0,1,84.74,48.376Zm-1.59,1.032a1.29,1.29,0,0,0,.438-1.021,1.443,1.443,0,0,0-.168-.725,1.463,1.463,0,0,0-.54-.516,5.636,5.636,0,0,0-1.044-.45l-.3-.108a2.128,2.128,0,0,0-.888.726A1.933,1.933,0,0,0,80.36,48.4a1.268,1.268,0,0,0,.432,1.025,1.756,1.756,0,0,0,1.176.367A1.731,1.731,0,0,0,83.15,49.408Zm-2.16-5.88a1.168,1.168,0,0,0-.366.924,1.087,1.087,0,0,0,.353.876,3.439,3.439,0,0,0,1.135.552l.2.072a2.374,2.374,0,0,0,.78-.66,1.464,1.464,0,0,0,.24-.852,1.182,1.182,0,0,0-.354-.9,1.4,1.4,0,0,0-1-.336A1.437,1.437,0,0,0,80.99,43.528Z"/><path d="M94.28,44.92a4.443,4.443,0,0,1,.564,2.436,4.057,4.057,0,0,1-.648,2.4,2.119,2.119,0,0,1-1.836.912,2.041,2.041,0,0,1-1.656-.72v3l-1.1.132V44.2h.948l.084.851a2.418,2.418,0,0,1,.84-.737,2.19,2.19,0,0,1,1.032-.258A1.966,1.966,0,0,1,94.28,44.92Zm-.624,2.436q0-2.424-1.429-2.424a1.426,1.426,0,0,0-.851.276,2.7,2.7,0,0,0-.672.708V49a1.658,1.658,0,0,0,.6.57,1.616,1.616,0,0,0,.792.2Q93.656,49.768,93.656,47.356Z"/><path d="M100.1,44.128l-.2,1.08a2.271,2.271,0,0,0-.551-.073,1.178,1.178,0,0,0-.949.433,3.224,3.224,0,0,0-.563,1.344v3.612h-1.1V44.2h.949l.108,1.284a2.4,2.4,0,0,1,.684-1.068,1.522,1.522,0,0,1,1.008-.36A2.568,2.568,0,0,1,100.1,44.128Z"/><path d="M105.445,44.944a3.659,3.659,0,0,1,.739,2.412,4.22,4.22,0,0,1-.336,1.734,2.643,2.643,0,0,1-.973,1.164,2.71,2.71,0,0,1-1.512.414,2.562,2.562,0,0,1-2.076-.888,3.64,3.64,0,0,1-.744-2.412,4.209,4.209,0,0,1,.336-1.735,2.648,2.648,0,0,1,.973-1.164,2.734,2.734,0,0,1,1.523-.413A2.541,2.541,0,0,1,105.445,44.944Zm-3.714,2.424q0,2.412,1.632,2.412T105,47.356q0-2.412-1.62-2.412Q101.731,44.944,101.731,47.368Z"/><path d="M111.343,44.217a2.9,2.9,0,0,1,.9.523l-.528.7a2.71,2.71,0,0,0-.654-.354,2.063,2.063,0,0,0-.7-.115,1.373,1.373,0,0,0-1.194.613,3.174,3.174,0,0,0-.426,1.812,3,3,0,0,0,.42,1.77,1.4,1.4,0,0,0,1.2.57,1.979,1.979,0,0,0,.684-.114,3.477,3.477,0,0,0,.7-.366l.5.72a3,3,0,0,1-1.932.7,2.517,2.517,0,0,1-2.022-.865,3.556,3.556,0,0,1-.738-2.387,4.31,4.31,0,0,1,.336-1.764,2.714,2.714,0,0,1,.954-1.176,2.552,2.552,0,0,1,1.47-.42A3.164,3.164,0,0,1,111.343,44.217Z"/><path d="M118.255,47.74h-4.031a2.458,2.458,0,0,0,.527,1.536,1.533,1.533,0,0,0,1.177.492,2.551,2.551,0,0,0,.84-.133,3.358,3.358,0,0,0,.8-.419l.481.66a3.5,3.5,0,0,1-2.208.792,2.559,2.559,0,0,1-2.059-.865,3.538,3.538,0,0,1-.738-2.376,4.5,4.5,0,0,1,.318-1.745,2.739,2.739,0,0,1,.912-1.194,2.315,2.315,0,0,1,1.4-.432,2.345,2.345,0,0,1,1.932.827,3.538,3.538,0,0,1,.672,2.292C118.279,47.36,118.271,47.548,118.255,47.74Zm-1.068-.888a2.338,2.338,0,0,0-.372-1.428,1.31,1.31,0,0,0-1.116-.492q-1.356,0-1.475,1.992h2.963Z"/><path d="M124.369,44.572a1.981,1.981,0,0,1,.486,1.416v4.536h-1.1v-4.38a1.4,1.4,0,0,0-.252-.948.957.957,0,0,0-.744-.276,1.44,1.44,0,0,0-.888.288,2.982,2.982,0,0,0-.72.828v4.488h-1.1V44.2h.948l.1.935a2.519,2.519,0,0,1,.834-.792,2.163,2.163,0,0,1,1.1-.287A1.763,1.763,0,0,1,124.369,44.572Z"/><path d="M130.268,50.236a2.428,2.428,0,0,1-1.416.432,1.667,1.667,0,0,1-1.254-.462,1.841,1.841,0,0,1-.451-1.338V45.051h-1.1V44.2h1.1V42.772l1.105-.132V44.2h1.5l-.12.851h-1.38V48.82a1.163,1.163,0,0,0,.174.714.693.693,0,0,0,.582.222,1.813,1.813,0,0,0,.84-.252Z"/><path d="M135.733,44.572a1.977,1.977,0,0,1,.487,1.416v4.536h-1.1v-4.38a1.4,1.4,0,0,0-.252-.948.957.957,0,0,0-.744-.276,1.44,1.44,0,0,0-.888.288,2.98,2.98,0,0,0-.719.828v4.488h-1.1V44.2h.948l.1.935a2.529,2.529,0,0,1,.834-.792,2.164,2.164,0,0,1,1.1-.287A1.762,1.762,0,0,1,135.733,44.572Z"/><path d="M139.939,40.912l.493.924-2.544,1.032-.336-.588Zm-.395,3.288v6.324h-1.105V44.2Z"/><path d="M145.159,44.217a2.907,2.907,0,0,1,.9.523l-.529.7a2.687,2.687,0,0,0-.653-.354,2.067,2.067,0,0,0-.7-.115,1.375,1.375,0,0,0-1.195.613,3.174,3.174,0,0,0-.425,1.812,2.991,2.991,0,0,0,.42,1.77,1.4,1.4,0,0,0,1.2.57,1.974,1.974,0,0,0,.683-.114,3.482,3.482,0,0,0,.7-.366l.5.72a3,3,0,0,1-1.932.7A2.519,2.519,0,0,1,142.1,49.8a3.556,3.556,0,0,1-.738-2.387,4.31,4.31,0,0,1,.336-1.764,2.721,2.721,0,0,1,.954-1.176,2.555,2.555,0,0,1,1.471-.42A3.154,3.154,0,0,1,145.159,44.217Z"/><path d="M151.886,44.572a1.981,1.981,0,0,1,.486,1.416v4.536h-1.1v-4.38a1.379,1.379,0,0,0-.258-.948.977.977,0,0,0-.75-.276,1.422,1.422,0,0,0-.876.288,3.05,3.05,0,0,0-.72.816v4.5h-1.1V41.668l1.1-.12v3.528a2.238,2.238,0,0,1,1.872-1.02A1.766,1.766,0,0,1,151.886,44.572Z"/><path d="M162.38,44.925a4.059,4.059,0,0,1,.636,2.431,4.645,4.645,0,0,1-.3,1.734,2.6,2.6,0,0,1-.864,1.164,2.17,2.17,0,0,1-1.32.414,2.09,2.09,0,0,1-1.68-.84l-.108.7h-.973V41.656l1.105-.132v3.468a2.116,2.116,0,0,1,1.788-.936A2.018,2.018,0,0,1,162.38,44.925Zm-.966,4.273a3.269,3.269,0,0,0,.414-1.842,3.407,3.407,0,0,0-.385-1.854,1.238,1.238,0,0,0-1.091-.57,1.788,1.788,0,0,0-1.476.984V48.94a1.96,1.96,0,0,0,.618.624,1.438,1.438,0,0,0,.774.228A1.323,1.323,0,0,0,161.414,49.2Z"/><path d="M169.346,44.944a3.658,3.658,0,0,1,.738,2.412,4.2,4.2,0,0,1-.336,1.734,2.643,2.643,0,0,1-.973,1.164,2.7,2.7,0,0,1-1.511.414,2.564,2.564,0,0,1-2.077-.888,3.64,3.64,0,0,1-.744-2.412,4.225,4.225,0,0,1,.336-1.735,2.654,2.654,0,0,1,.973-1.164,2.738,2.738,0,0,1,1.523-.413A2.545,2.545,0,0,1,169.346,44.944Zm-3.714,2.424q0,2.412,1.632,2.412t1.631-2.424q0-2.412-1.62-2.412Q165.633,44.944,165.632,47.368Z"/><path d="M176.8,41.656v8.868h-.972l-.108-.876a2.3,2.3,0,0,1-.781.75,2.172,2.172,0,0,1-2.8-.618,4.052,4.052,0,0,1-.63-2.388,4.657,4.657,0,0,1,.3-1.728,2.685,2.685,0,0,1,.865-1.182A2.126,2.126,0,0,1,174,44.056a2.268,2.268,0,0,1,1.7.78V41.524Zm-1.8,7.9a2.693,2.693,0,0,0,.7-.7v-3.1a2.4,2.4,0,0,0-.666-.617,1.532,1.532,0,0,0-.8-.21,1.276,1.276,0,0,0-1.133.612,3.341,3.341,0,0,0-.4,1.824,3.532,3.532,0,0,0,.372,1.824,1.187,1.187,0,0,0,1.069.6A1.551,1.551,0,0,0,175,49.558Z"/><path d="M183.787,50.524h-.947l-.085-.984a2.415,2.415,0,0,1-.827.858,2.253,2.253,0,0,1-1.141.27,1.683,1.683,0,0,1-1.3-.5,2.025,2.025,0,0,1-.468-1.428V44.2h1.1v4.416a1.434,1.434,0,0,0,.228.918.924.924,0,0,0,.745.269,1.88,1.88,0,0,0,1.584-1.091V44.2h1.1ZM182.4,40.858a1.261,1.261,0,0,1,0,1.812,1.5,1.5,0,0,1-1.967,0,1.259,1.259,0,0,1,0-1.812,1.5,1.5,0,0,1,1.967,0Zm-1.452.414a.8.8,0,0,0,0,.984.691.691,0,0,0,.93,0,.68.68,0,0,0,.174-.492.693.693,0,0,0-.168-.492.7.7,0,0,0-.936,0Z"/><path class="cls-9" d="M45.66,467.38v.962L41.631,475.3h4.016l-.129,1.027H40.305v-.962l4.055-6.981H40.707v-1Z"/><path class="cls-9" d="M51.744,466.717v9.607H50.705l-.078-.9a2.017,2.017,0,0,1-1.781,1.066,1.961,1.961,0,0,1-1.737-.949,4.765,4.765,0,0,1-.617-2.613,5.409,5.409,0,0,1,.306-1.9,2.874,2.874,0,0,1,.864-1.268,2.042,2.042,0,0,1,2.912.371v-3.549Zm-1.812,8.593a2.623,2.623,0,0,0,.642-.767v-3.432a1.653,1.653,0,0,0-1.365-.871,1.231,1.231,0,0,0-1.092.663,3.873,3.873,0,0,0-.39,2,4.271,4.271,0,0,0,.365,2.015,1.129,1.129,0,0,0,1.027.65A1.311,1.311,0,0,0,49.932,475.31Z"/><path class="cls-9" d="M57.243,469.408l-.194,1.131a1.766,1.766,0,0,0-.533-.078,1.128,1.128,0,0,0-.93.455,3.5,3.5,0,0,0-.566,1.391v4.017H53.851v-6.838h1.013l.091,1.352q.507-1.507,1.7-1.508A1.95,1.95,0,0,1,57.243,469.408Z"/><path class="cls-9" d="M62.443,470.24a5.115,5.115,0,0,1-.013,5.285,2.659,2.659,0,0,1-4.088.019,5.1,5.1,0,0,1,.006-5.285,2.714,2.714,0,0,1,4.095-.019Zm-3.211.656a3.884,3.884,0,0,0-.4,2.009q0,2.666,1.56,2.665t1.56-2.678a3.956,3.956,0,0,0-.39-2,1.272,1.272,0,0,0-1.157-.637A1.3,1.3,0,0,0,59.232,470.9Z"/><path class="cls-9" d="M66.031,476.051a3.788,3.788,0,0,1-.227,1.423,2.232,2.232,0,0,1-.65.9,5.657,5.657,0,0,1-1.138.683l-.364-.845a3.051,3.051,0,0,0,.7-.468,1.479,1.479,0,0,0,.377-.624,3.339,3.339,0,0,0,.131-1.04v-6.591h1.17ZM66,466.483a.8.8,0,0,1,.007,1.086.743.743,0,0,1-.559.214.751.751,0,0,1-.553-.214.733.733,0,0,1-.213-.54.753.753,0,0,1,.213-.546.8.8,0,0,1,1.105,0Z"/><path class="cls-9" d="M76.055,466.717v9.607H75.014l-.079-.9a2.014,2.014,0,0,1-1.78,1.066,1.958,1.958,0,0,1-1.735-.949,4.756,4.756,0,0,1-.617-2.613,5.434,5.434,0,0,1,.3-1.9,2.861,2.861,0,0,1,.866-1.268,2.042,2.042,0,0,1,2.912.371v-3.549ZM74.24,475.31a2.6,2.6,0,0,0,.645-.767v-3.432a1.657,1.657,0,0,0-1.366-.871,1.226,1.226,0,0,0-1.091.663,3.841,3.841,0,0,0-.391,2,4.273,4.273,0,0,0,.364,2.015,1.129,1.129,0,0,0,1.027.65A1.3,1.3,0,0,0,74.24,475.31Z"/><path class="cls-9" d="M82.541,475.382a.732.732,0,0,0,.363.305l-.246.793a1.624,1.624,0,0,1-.793-.312,1.277,1.277,0,0,1-.4-.715,2.091,2.091,0,0,1-1.859,1.04,1.889,1.889,0,0,1-1.443-.566,2.118,2.118,0,0,1-.533-1.514,2,2,0,0,1,.715-1.664,3.2,3.2,0,0,1,2.041-.572h.885v-.585a1.5,1.5,0,0,0-.293-1.034,1.249,1.249,0,0,0-.956-.318,4.758,4.758,0,0,0-1.664.364l-.287-.819a5.666,5.666,0,0,1,2.133-.468,1.964,1.964,0,0,1,2.223,2.223v3.224A1.271,1.271,0,0,0,82.541,475.382Zm-1.273-.839v-1.612h-.755q-1.689,0-1.691,1.417a1.416,1.416,0,0,0,.274.936.959.959,0,0,0,.78.325A1.519,1.519,0,0,0,81.268,474.543Z"/><path class="cls-9" d="M87.767,476.025a2.416,2.416,0,0,1-1.443.468,1.668,1.668,0,0,1-1.281-.481,1.907,1.907,0,0,1-.448-1.352v-4.29h-.976v-.884H84.6v-1.573l1.17-.143v1.716h1.507l-.129.884H85.765v4.277q0,.885.741.884a1.261,1.261,0,0,0,.409-.065,2.63,2.63,0,0,0,.423-.195Z"/><path class="cls-9" d="M89.736,470.246a.814.814,0,0,1,.228.579.835.835,0,0,1-.228.585.767.767,0,0,1-.592.247.75.75,0,0,1-.578-.247.834.834,0,0,1-.227-.585.813.813,0,0,1,.227-.579.762.762,0,0,1,.578-.24A.779.779,0,0,1,89.736,470.246Zm0,4.836a.814.814,0,0,1,.228.579.835.835,0,0,1-.228.585.77.77,0,0,1-.592.247.754.754,0,0,1-.578-.247.834.834,0,0,1-.227-.585.813.813,0,0,1,.227-.579.762.762,0,0,1,.578-.24A.779.779,0,0,1,89.736,475.082Z"/><path class="cls-9" d="M100.1,467.38l-2.47,8.944H96.19l-2.508-8.944H94.93l2,7.774,1.975-7.774Z"/><path class="cls-9" d="M105.355,470.24a5.115,5.115,0,0,1-.013,5.285,2.659,2.659,0,0,1-4.088.019,5.1,5.1,0,0,1,.006-5.285,2.714,2.714,0,0,1,4.095-.019Zm-3.211.656a3.884,3.884,0,0,0-.4,2.009q0,2.666,1.56,2.665t1.56-2.678a3.956,3.956,0,0,0-.39-2,1.272,1.272,0,0,0-1.157-.637A1.3,1.3,0,0,0,102.144,470.9Z"/><path class="cls-9" d="M108.072,476.116a1.457,1.457,0,0,1-.364-1.053v-8.346l1.171-.13v8.437c0,.338.138.507.416.507a1.094,1.094,0,0,0,.377-.078l.26.819a1.842,1.842,0,0,1-.872.221A1.31,1.31,0,0,1,108.072,476.116Z"/><path class="cls-9" d="M115.813,470.234a4.923,4.923,0,0,1,.591,2.658,4.716,4.716,0,0,1-.642,2.633,2,2,0,0,1-1.749.968,1.909,1.909,0,0,1-.949-.24,2.277,2.277,0,0,1-.742-.683l-.078.754h-1.039V466.73l1.17-.13v3.718a2.507,2.507,0,0,1,.773-.735,1.918,1.918,0,0,1,1-.266A1.876,1.876,0,0,1,115.813,470.234Zm-.63,2.658a4.342,4.342,0,0,0-.351-2.048,1.1,1.1,0,0,0-1-.6,1.251,1.251,0,0,0-.8.273,3.05,3.05,0,0,0-.656.767v3.393a2.142,2.142,0,0,0,.6.65,1.3,1.3,0,0,0,.767.247Q115.182,475.57,115.183,472.892Z"/><path class="cls-9" d="M120.643,476.35a4.377,4.377,0,0,1-1.027,1.872,3.262,3.262,0,0,1-1.886.845l-.128-.871a3.18,3.18,0,0,0,.974-.351,1.768,1.768,0,0,0,.585-.572,4.734,4.734,0,0,0,.429-.949h-.429l-2.028-6.838h1.209l1.586,6.019,1.586-6.019h1.2Z"/><path class="cls-9" d="M124.25,475.082a.814.814,0,0,1,.228.579.835.835,0,0,1-.228.585.768.768,0,0,1-.591.247.756.756,0,0,1-.579-.247.838.838,0,0,1-.227-.585.817.817,0,0,1,.227-.579.764.764,0,0,1,.579-.24A.777.777,0,0,1,124.25,475.082Z"/><path class="cls-9" d="M129.353,469.5a2.941,2.941,0,0,1,.872.559l-.521.7a2.5,2.5,0,0,0-.624-.371,1.829,1.829,0,0,0-.676-.123,1.34,1.34,0,0,0-1.189.65,3.8,3.8,0,0,0-.423,2.028q0,2.574,1.612,2.574a1.7,1.7,0,0,0,.662-.124,3.084,3.084,0,0,0,.638-.37l.546.715a2.733,2.733,0,0,1-1.885.754,2.518,2.518,0,0,1-2.06-.91,4.046,4.046,0,0,1-.748-2.626,4.988,4.988,0,0,1,.344-1.937,2.83,2.83,0,0,1,.976-1.261,2.508,2.508,0,0,1,1.475-.442A2.681,2.681,0,0,1,129.353,469.5Z"/><path class="cls-9" d="M135.268,469.486v.871l-3.237,5h3.25l-.117.962h-4.42v-.871l3.236-5h-2.962v-.962Z"/><path class="cls-9" d="M144.588,465.833V477.65H143.5V465.833Z"/><path class="cls-9" d="M158.967,467.38l-2.471,8.944h-1.443l-2.509-8.944h1.248l2,7.774,1.975-7.774Z"/><path class="cls-9" d="M161.26,466.483a.8.8,0,0,1,.007,1.086.829.829,0,0,1-1.112,0,.733.733,0,0,1-.214-.54.754.754,0,0,1,.214-.546.8.8,0,0,1,1.1,0Zm.033,3v6.838h-1.17v-6.838Z"/><path class="cls-9" d="M167.13,469.486v.871l-3.237,5h3.25l-.118.962H162.6v-.871l3.238-5h-2.964v-.962Z"/><path class="cls-9" d="M173.123,476.324h-1.014l-.065-1.027a2.158,2.158,0,0,1-1.911,1.2,1.622,1.622,0,0,1-1.287-.533,2.109,2.109,0,0,1-.468-1.443v-5.031h1.17v4.927a1.377,1.377,0,0,0,.227.877.827.827,0,0,0,.683.28q.871,0,1.5-1.144v-4.94h1.17Z"/><path class="cls-9" d="M179.609,475.382a.732.732,0,0,0,.365.305l-.247.793a1.624,1.624,0,0,1-.793-.312,1.277,1.277,0,0,1-.4-.715,2.09,2.09,0,0,1-1.859,1.04,1.89,1.89,0,0,1-1.444-.566,2.118,2.118,0,0,1-.533-1.514,2.008,2.008,0,0,1,.715-1.664,3.2,3.2,0,0,1,2.041-.572h.885v-.585a1.5,1.5,0,0,0-.293-1.034,1.246,1.246,0,0,0-.955-.318,4.763,4.763,0,0,0-1.664.364l-.286-.819a5.653,5.653,0,0,1,2.131-.468,1.964,1.964,0,0,1,2.223,2.223v3.224A1.271,1.271,0,0,0,179.609,475.382Zm-1.273-.839v-1.612h-.754q-1.69,0-1.69,1.417a1.416,1.416,0,0,0,.272.936.964.964,0,0,0,.781.325A1.516,1.516,0,0,0,178.336,474.543Z"/><path class="cls-9" d="M181.768,476.116a1.453,1.453,0,0,1-.365-1.053v-8.346l1.171-.13v8.437c0,.338.138.507.416.507a1.09,1.09,0,0,0,.377-.078l.26.819a1.836,1.836,0,0,1-.871.221A1.31,1.31,0,0,1,181.768,476.116Z"/><path class="cls-9" d="M186.038,466.483a.775.775,0,0,1-1.1,1.086.73.73,0,0,1-.215-.54.75.75,0,0,1,.215-.546.8.8,0,0,1,1.1,0Zm.032,3v6.838H184.9v-6.838Z"/><path class="cls-9" d="M191.908,469.486v.871l-3.238,5h3.25l-.116.962h-4.421v-.871l3.238-5h-2.965v-.962Z"/><path class="cls-9" d="M197.537,475.382a.732.732,0,0,0,.363.305l-.247.793a1.624,1.624,0,0,1-.793-.312,1.283,1.283,0,0,1-.4-.715,2.087,2.087,0,0,1-1.858,1.04,1.887,1.887,0,0,1-1.443-.566,2.118,2.118,0,0,1-.533-1.514,2,2,0,0,1,.715-1.664,3.2,3.2,0,0,1,2.041-.572h.884v-.585a1.51,1.51,0,0,0-.292-1.034,1.249,1.249,0,0,0-.956-.318,4.749,4.749,0,0,0-1.664.364l-.287-.819a5.658,5.658,0,0,1,2.133-.468,1.965,1.965,0,0,1,2.223,2.223v3.224A1.271,1.271,0,0,0,197.537,475.382Zm-1.274-.839v-1.612h-.755q-1.689,0-1.69,1.417a1.416,1.416,0,0,0,.274.936.957.957,0,0,0,.779.325A1.518,1.518,0,0,0,196.263,474.543Z"/><path class="cls-9" d="M202.905,469.5a2.912,2.912,0,0,1,.871.559l-.52.7a2.5,2.5,0,0,0-.623-.371,1.835,1.835,0,0,0-.677-.123,1.342,1.342,0,0,0-1.189.65,3.791,3.791,0,0,0-.423,2.028q0,2.574,1.612,2.574a1.706,1.706,0,0,0,.663-.124,3.079,3.079,0,0,0,.637-.37l.547.715a2.733,2.733,0,0,1-1.886.754,2.522,2.522,0,0,1-2.061-.91,4.046,4.046,0,0,1-.747-2.626,5.007,5.007,0,0,1,.344-1.937,2.837,2.837,0,0,1,.976-1.261,2.51,2.51,0,0,1,1.475-.442A2.677,2.677,0,0,1,202.905,469.5Z"/><path class="cls-9" d="M209.613,473.308h-3.978a2.949,2.949,0,0,0,.481,1.722,1.426,1.426,0,0,0,1.17.527,2.328,2.328,0,0,0,.839-.143,2.948,2.948,0,0,0,.773-.468l.52.689a3.192,3.192,0,0,1-2.184.858,2.492,2.492,0,0,1-2.074-.93,4.11,4.11,0,0,1-.734-2.606,4.485,4.485,0,0,1,.7-2.658,2.459,2.459,0,0,1,3.849-.1,4.088,4.088,0,0,1,.662,2.5C209.639,472.879,209.631,473.083,209.613,473.308Zm-1.1-.962q0-2.145-1.417-2.145a1.19,1.19,0,0,0-1.027.539,3.387,3.387,0,0,0-.429,1.749h2.873Z"/><path class="cls-9" d="M212.168,470.246a.821.821,0,0,1,.226.579.842.842,0,0,1-.226.585.768.768,0,0,1-.592.247.747.747,0,0,1-.578-.247.836.836,0,0,1-.229-.585.815.815,0,0,1,.229-.579.759.759,0,0,1,.578-.24A.781.781,0,0,1,212.168,470.246Zm0,4.836a.821.821,0,0,1,.226.579.842.842,0,0,1-.226.585.772.772,0,0,1-.592.247.751.751,0,0,1-.578-.247.836.836,0,0,1-.229-.585.815.815,0,0,1,.229-.579.759.759,0,0,1,.578-.24A.781.781,0,0,1,212.168,475.082Z"/><path class="cls-9" d="M218.213,466.483a.758.758,0,0,1,.214.546.783.783,0,0,1-1.32.54.737.737,0,0,1-.214-.54.758.758,0,0,1,.214-.546.8.8,0,0,1,1.106,0Zm.032,3v6.838h-1.17v-6.838Z"/><path class="cls-9" d="M224.8,476.324l-1.924-3.809h-1.262v3.809H220.4V467.38H222.5q3.2,0,3.2,2.522a2.538,2.538,0,0,1-.428,1.5,2.466,2.466,0,0,1-1.261.9l2.132,4.03Zm-.819-5.142a1.64,1.64,0,0,0,.455-1.28,1.5,1.5,0,0,0-.462-1.209,2.316,2.316,0,0,0-1.5-.39h-.859v3.289h.976A2.029,2.029,0,0,0,223.978,471.182Z"/><path class="cls-9" d="M232.863,468.387a6.99,6.99,0,0,1,.007,6.91,3.268,3.268,0,0,1-5.038.02,5.546,5.546,0,0,1-.916-3.452,6.812,6.812,0,0,1,.422-2.542,3.4,3.4,0,0,1,1.2-1.579,3.117,3.117,0,0,1,1.813-.533A3.014,3.014,0,0,1,232.863,468.387Zm-4.674,3.478q0,3.653,2.159,3.653a1.782,1.782,0,0,0,1.612-.871,7.383,7.383,0,0,0-.007-5.59,1.777,1.777,0,0,0-1.6-.884Q228.189,468.173,228.189,471.865Z"/><path class="cls-9" d="M239.786,467.38v.962l-4.03,6.955h4.017l-.13,1.027H234.43v-.962l4.056-6.981h-3.653v-1Z"/><path class="cls-9" d="M245.805,476.324v-4.2h-3.25v4.2h-1.209V467.38h1.209v3.757h3.25V467.38h1.209v8.944Z"/><path class="cls-9" d="M250.433,467.38V475.3H253.7l-.13,1.027h-4.341V467.38Z"/><path class="cls-9" d="M259.377,476.324l-.6-2.275h-3l-.6,2.275h-1.209l2.587-8.944h1.481l2.588,8.944Zm-3.355-3.224h2.509l-1.248-4.758Z"/><path class="cls-9" d="M265.324,467.471a3.641,3.641,0,0,1,1.111.78l-.611.689a3.354,3.354,0,0,0-.877-.578,2.346,2.346,0,0,0-.943-.189,1.5,1.5,0,0,0-1.046.357,1.208,1.208,0,0,0-.4.943,1.351,1.351,0,0,0,.156.669,1.44,1.44,0,0,0,.533.508,5.722,5.722,0,0,0,1.066.461,6.537,6.537,0,0,1,1.3.611,2.234,2.234,0,0,1,.78.832,2.961,2.961,0,0,1-.078,2.645,2.455,2.455,0,0,1-1.008.95,3.275,3.275,0,0,1-1.54.344,3.727,3.727,0,0,1-2.768-1.17l.637-.689a3.9,3.9,0,0,0,.98.656,2.655,2.655,0,0,0,1.112.228,1.717,1.717,0,0,0,1.229-.436,1.572,1.572,0,0,0,.462-1.2,1.466,1.466,0,0,0-.371-1.053,3.452,3.452,0,0,0-1.359-.728,4.572,4.572,0,0,1-1.813-1.027,2.122,2.122,0,0,1-.553-1.521,2.23,2.23,0,0,1,1.262-2.041,2.979,2.979,0,0,1,1.351-.3A3.423,3.423,0,0,1,265.324,467.471Z"/><path class="cls-9" d="M269.119,475.082a.815.815,0,0,1,.229.579.836.836,0,0,1-.229.585.768.768,0,0,1-.591.247.757.757,0,0,1-.579-.247.837.837,0,0,1-.226-.585.816.816,0,0,1,.226-.579.766.766,0,0,1,.579-.24A.777.777,0,0,1,269.119,475.082Z"/><path class="cls-9" d="M274.223,469.5a2.95,2.95,0,0,1,.871.559l-.521.7a2.5,2.5,0,0,0-.624-.371,1.826,1.826,0,0,0-.676-.123,1.34,1.34,0,0,0-1.189.65,3.8,3.8,0,0,0-.423,2.028q0,2.574,1.612,2.574a1.7,1.7,0,0,0,.662-.124,3.058,3.058,0,0,0,.638-.37l.546.715a2.733,2.733,0,0,1-1.885.754,2.518,2.518,0,0,1-2.06-.91,4.046,4.046,0,0,1-.748-2.626,4.988,4.988,0,0,1,.344-1.937,2.83,2.83,0,0,1,.976-1.261,2.508,2.508,0,0,1,1.475-.442A2.69,2.69,0,0,1,274.223,469.5Z"/><path class="cls-9" d="M280.137,469.486v.871l-3.237,5h3.25l-.117.962h-4.42v-.871l3.237-5h-2.963v-.962Z"/><path class="cls-9" d="M282.412,475.076a.8.8,0,0,1,.221.572,1.313,1.313,0,0,1-.059.377c-.039.13-.1.316-.188.559l-.715,1.833h-.728l.481-2.067a.778.778,0,0,1-.377-.689.808.808,0,0,1,.227-.585.774.774,0,0,1,.579-.234A.737.737,0,0,1,282.412,475.076Z"/><path class="cls-9" d="M288.574,467.38v8.944h-1.209V467.38Zm4.394,0-3.029,4.082,3.237,4.862h-1.391l-3.159-4.784,3.055-4.16Z"/><path class="cls-9" d="M297.582,469.408l-.194,1.131a1.768,1.768,0,0,0-.534-.078,1.126,1.126,0,0,0-.928.455,3.486,3.486,0,0,0-.567,1.391v4.017h-1.17v-6.838H295.2l.092,1.352q.507-1.507,1.7-1.508A1.943,1.943,0,0,1,297.582,469.408Z"/><path class="cls-9" d="M299.863,466.483a.8.8,0,0,1,.007,1.086.828.828,0,0,1-1.111,0,.729.729,0,0,1-.214-.54.75.75,0,0,1,.214-.546.8.8,0,0,1,1.1,0Zm.033,3v6.838h-1.169v-6.838Z"/><path class="cls-9" d="M305.877,470.1l-.494.689a3.9,3.9,0,0,0-.781-.429,2.068,2.068,0,0,0-.766-.143,1.281,1.281,0,0,0-.839.253.855.855,0,0,0-.306.7.837.837,0,0,0,.293.676,3.5,3.5,0,0,0,1.112.507,3.688,3.688,0,0,1,1.5.793,1.743,1.743,0,0,1,.468,1.287,1.826,1.826,0,0,1-.7,1.515,2.752,2.752,0,0,1-1.755.552,3.276,3.276,0,0,1-2.354-.923l.6-.65a2.708,2.708,0,0,0,1.729.663,1.41,1.41,0,0,0,.922-.286.968.968,0,0,0,.352-.793,1.2,1.2,0,0,0-.123-.585,1.1,1.1,0,0,0-.443-.4,5.342,5.342,0,0,0-.93-.371,3.4,3.4,0,0,1-1.4-.78,1.615,1.615,0,0,1-.43-1.157,1.716,1.716,0,0,1,.287-.975,1.958,1.958,0,0,1,.793-.676,2.642,2.642,0,0,1,1.169-.247A3.173,3.173,0,0,1,305.877,470.1Z"/><path class="cls-9" d="M310.791,476.025a2.416,2.416,0,0,1-1.443.468,1.672,1.672,0,0,1-1.282-.481,1.911,1.911,0,0,1-.447-1.352v-4.29h-.976v-.884h.976v-1.573l1.17-.143v1.716H310.3l-.131.884h-1.377v4.277q0,.885.74.884a1.259,1.259,0,0,0,.41-.065,2.664,2.664,0,0,0,.422-.195Z"/><path class="cls-9" d="M313.248,465.963l.494.936-2.5,1.131-.339-.6Zm-.273,3.523v6.838h-1.17v-6.838Z"/><path class="cls-9" d="M319.416,469.857a2.214,2.214,0,0,1,.461,1.488v4.979h-1.17v-4.836a1.605,1.605,0,0,0-.221-.956.8.8,0,0,0-.676-.292q-.858,0-1.56,1.222v4.862h-1.17v-6.838H316.1l.09,1.014a2.311,2.311,0,0,1,1.951-1.183A1.594,1.594,0,0,1,319.416,469.857Z"/><path class="cls-9" d="M326.311,475.382a.737.737,0,0,0,.365.305l-.247.793a1.62,1.62,0,0,1-.793-.312,1.271,1.271,0,0,1-.4-.715,2.09,2.09,0,0,1-1.859,1.04,1.889,1.889,0,0,1-1.443-.566,2.114,2.114,0,0,1-.534-1.514,2.006,2.006,0,0,1,.716-1.664,3.2,3.2,0,0,1,2.041-.572h.884v-.585a1.5,1.5,0,0,0-.293-1.034,1.245,1.245,0,0,0-.955-.318,4.763,4.763,0,0,0-1.664.364l-.286-.819a5.653,5.653,0,0,1,2.132-.468,1.965,1.965,0,0,1,2.223,2.223v3.224A1.285,1.285,0,0,0,326.311,475.382Zm-1.273-.839v-1.612h-.754q-1.691,0-1.69,1.417a1.416,1.416,0,0,0,.273.936.96.96,0,0,0,.779.325A1.516,1.516,0,0,0,325.038,474.543Z"/><path class="cls-9" d="M335.983,467.38v.962l-4.029,6.955h4.017l-.13,1.027h-5.213v-.962l4.056-6.981H331.03v-1Z"/><path class="cls-9" d="M341.678,475.382a.73.73,0,0,0,.364.305l-.247.793a1.62,1.62,0,0,1-.793-.312,1.271,1.271,0,0,1-.4-.715,2.092,2.092,0,0,1-1.86,1.04,1.889,1.889,0,0,1-1.443-.566,2.113,2.113,0,0,1-.533-1.514,2,2,0,0,1,.715-1.664,3.2,3.2,0,0,1,2.041-.572h.884v-.585a1.5,1.5,0,0,0-.293-1.034,1.243,1.243,0,0,0-.955-.318,4.767,4.767,0,0,0-1.664.364l-.286-.819a5.661,5.661,0,0,1,2.132-.468,1.965,1.965,0,0,1,2.223,2.223v3.224A1.283,1.283,0,0,0,341.678,475.382Zm-1.494-9.419.493.936-2.5,1.131-.338-.6Zm.22,8.58v-1.612h-.754q-1.69,0-1.69,1.417a1.416,1.416,0,0,0,.273.936.961.961,0,0,0,.78.325A1.516,1.516,0,0,0,340.4,474.543Z"/><path class="cls-9" d="M344.836,466.587v9.737h-1.17v-9.607Zm3.6,2.9-2.314,3.042,2.535,3.8h-1.3L344.9,472.58l2.314-3.094Z"/><path class="cls-9" d="M354.027,470.24a5.118,5.118,0,0,1-.012,5.285,2.66,2.66,0,0,1-4.089.019,5.1,5.1,0,0,1,.007-5.285,2.713,2.713,0,0,1,4.094-.019Zm-3.211.656a3.9,3.9,0,0,0-.4,2.009q0,2.666,1.56,2.665t1.559-2.678a3.956,3.956,0,0,0-.39-2,1.271,1.271,0,0,0-1.157-.637A1.3,1.3,0,0,0,350.816,470.9Z"/><path class="cls-9" d="M361.08,470.24a5.082,5.082,0,0,1,.565,2.639,4.818,4.818,0,0,1-.63,2.639,1.986,1.986,0,0,1-1.761.975,1.963,1.963,0,0,1-1.639-.819v3.25l-1.17.143v-9.581h1.028l.064.923a2.129,2.129,0,0,1,1.859-1.092A1.849,1.849,0,0,1,361.08,470.24Zm-.656,2.652a4.59,4.59,0,0,0-.332-2.022,1.074,1.074,0,0,0-1.007-.63,1.28,1.28,0,0,0-.807.273,3.138,3.138,0,0,0-.663.741v3.458a1.577,1.577,0,0,0,1.365.845Q360.423,475.557,360.424,472.892Z"/><path class="cls-9" d="M366.741,469.5a2.9,2.9,0,0,1,.871.559l-.519.7a2.5,2.5,0,0,0-.624-.371,1.829,1.829,0,0,0-.676-.123,1.342,1.342,0,0,0-1.19.65,3.8,3.8,0,0,0-.422,2.028q0,2.574,1.612,2.574a1.713,1.713,0,0,0,.663-.124,3.1,3.1,0,0,0,.637-.37l.546.715a2.731,2.731,0,0,1-1.885.754,2.52,2.52,0,0,1-2.061-.91,4.04,4.04,0,0,1-.748-2.626,4.97,4.97,0,0,1,.345-1.937,2.828,2.828,0,0,1,.975-1.261,2.508,2.508,0,0,1,1.475-.442A2.677,2.677,0,0,1,366.741,469.5Zm.469-3.354.455.52-1.573,1.508h-.729l-1.572-1.508.454-.52,1.482,1.144Z"/><path class="cls-9" d="M373.176,475.382a.73.73,0,0,0,.364.305l-.247.793a1.62,1.62,0,0,1-.793-.312,1.276,1.276,0,0,1-.4-.715,2.092,2.092,0,0,1-1.86,1.04,1.889,1.889,0,0,1-1.443-.566,2.113,2.113,0,0,1-.533-1.514,2,2,0,0,1,.715-1.664,3.2,3.2,0,0,1,2.041-.572h.884v-.585a1.5,1.5,0,0,0-.293-1.034,1.243,1.243,0,0,0-.955-.318,4.767,4.767,0,0,0-1.664.364l-.286-.819a5.661,5.661,0,0,1,2.132-.468,1.966,1.966,0,0,1,2.224,2.223v3.224A1.285,1.285,0,0,0,373.176,475.382Zm-1.274-.839v-1.612h-.754q-1.691,0-1.69,1.417a1.416,1.416,0,0,0,.273.936.961.961,0,0,0,.78.325A1.516,1.516,0,0,0,371.9,474.543Z"/><path class="cls-9" d="M379.5,469.857a2.214,2.214,0,0,1,.461,1.488v4.979h-1.17v-4.836a1.605,1.605,0,0,0-.221-.956.8.8,0,0,0-.676-.292q-.858,0-1.56,1.222v4.862h-1.17v-6.838h1.015l.09,1.014a2.311,2.311,0,0,1,1.951-1.183A1.594,1.594,0,0,1,379.5,469.857Z"/><path class="cls-9" d="M386.435,470.24a5.118,5.118,0,0,1-.012,5.285,2.66,2.66,0,0,1-4.089.019,5.1,5.1,0,0,1,.007-5.285,2.713,2.713,0,0,1,4.094-.019Zm-3.21.656a3.884,3.884,0,0,0-.4,2.009q0,2.666,1.56,2.665t1.559-2.678a3.968,3.968,0,0,0-.389-2,1.273,1.273,0,0,0-1.158-.637A1.3,1.3,0,0,0,383.225,470.9Z"/><path class="cls-9" d="M393.417,469.486l-2.041,6.838h-1.4l-2.106-6.838h1.222l1.586,5.85,1.573-5.85Z"/><path class="cls-9" d="M398.785,475.382a.73.73,0,0,0,.364.305l-.247.793a1.624,1.624,0,0,1-.793-.312,1.276,1.276,0,0,1-.4-.715,2.091,2.091,0,0,1-1.859,1.04,1.891,1.891,0,0,1-1.444-.566,2.118,2.118,0,0,1-.533-1.514,2,2,0,0,1,.716-1.664,3.2,3.2,0,0,1,2.041-.572h.884v-.585a1.5,1.5,0,0,0-.293-1.034,1.246,1.246,0,0,0-.955-.318,4.758,4.758,0,0,0-1.664.364l-.287-.819a5.661,5.661,0,0,1,2.132-.468,1.965,1.965,0,0,1,2.224,2.223v3.224A1.285,1.285,0,0,0,398.785,475.382Zm-1.494-9.419.493.936-2.5,1.131-.338-.6Zm.221,8.58v-1.612h-.754q-1.69,0-1.691,1.417a1.411,1.411,0,0,0,.274.936.957.957,0,0,0,.779.325A1.518,1.518,0,0,0,397.512,474.543Z"/></svg>